G04 EAGLE Gerber RS-274X export*
G75*
%MOMM*%
%FSLAX34Y34*%
%LPD*%
%INTop Copper*%
%IPPOS*%
%AMOC8*
5,1,8,0,0,1.08239X$1,22.5*%
G01*
G04 Define Apertures*
%ADD10R,1.508000X1.508000*%
%ADD11C,1.508000*%
%ADD12C,1.524000*%
%ADD13C,1.430000*%
%ADD14P,1.64956X8X22.5*%
%ADD15C,1.581000*%
%ADD16C,0.508000*%
%ADD17C,0.756400*%
G36*
X216369Y180948D02*
X216172Y180922D01*
X-216300Y180922D01*
X-216497Y180948D01*
X-217505Y181218D01*
X-217847Y181415D01*
X-218585Y182153D01*
X-218782Y182495D01*
X-219052Y183503D01*
X-219078Y183700D01*
X-219078Y893112D01*
X-219031Y893375D01*
X-218872Y893633D01*
X-218624Y893809D01*
X-218328Y893874D01*
X-218030Y893818D01*
X-217777Y893651D01*
X-217213Y893087D01*
X-213479Y891540D01*
X-194197Y891540D01*
X-190463Y893087D01*
X-187605Y895945D01*
X-187520Y896150D01*
X-187363Y896388D01*
X-187113Y896560D01*
X-186816Y896620D01*
X-167520Y896620D01*
X-167234Y896564D01*
X-166981Y896397D01*
X-156229Y885645D01*
X-156069Y885409D01*
X-156006Y885112D01*
X-156064Y884814D01*
X-156130Y884655D01*
X-156130Y880645D01*
X-154595Y876940D01*
X-151760Y874105D01*
X-148055Y872570D01*
X-144045Y872570D01*
X-140340Y874105D01*
X-137505Y876940D01*
X-135970Y880645D01*
X-135970Y884655D01*
X-137505Y888360D01*
X-140340Y891195D01*
X-144045Y892730D01*
X-148055Y892730D01*
X-148214Y892664D01*
X-148494Y892606D01*
X-148792Y892662D01*
X-149045Y892829D01*
X-162996Y906780D01*
X-186816Y906780D01*
X-187096Y906833D01*
X-187351Y906999D01*
X-187520Y907250D01*
X-187605Y907455D01*
X-190463Y910313D01*
X-194197Y911860D01*
X-213479Y911860D01*
X-217213Y910313D01*
X-217777Y909749D01*
X-217997Y909596D01*
X-218292Y909526D01*
X-218591Y909577D01*
X-218846Y909741D01*
X-219018Y909991D01*
X-219078Y910288D01*
X-219078Y918512D01*
X-219031Y918775D01*
X-218872Y919033D01*
X-218624Y919209D01*
X-218328Y919274D01*
X-218030Y919218D01*
X-217777Y919051D01*
X-217213Y918487D01*
X-213479Y916940D01*
X-194197Y916940D01*
X-190463Y918487D01*
X-187605Y921345D01*
X-187520Y921550D01*
X-187363Y921788D01*
X-187113Y921960D01*
X-186816Y922020D01*
X-150296Y922020D01*
X-149045Y923271D01*
X-148809Y923431D01*
X-148512Y923494D01*
X-148214Y923436D01*
X-148055Y923370D01*
X-144045Y923370D01*
X-140340Y924905D01*
X-137505Y927740D01*
X-135970Y931445D01*
X-135970Y935455D01*
X-137505Y939160D01*
X-140340Y941995D01*
X-144045Y943530D01*
X-148055Y943530D01*
X-151760Y941995D01*
X-154595Y939160D01*
X-156130Y935455D01*
X-156130Y932942D01*
X-156181Y932667D01*
X-156345Y932412D01*
X-156595Y932240D01*
X-156892Y932180D01*
X-186816Y932180D01*
X-187096Y932233D01*
X-187351Y932399D01*
X-187520Y932650D01*
X-187605Y932855D01*
X-190463Y935713D01*
X-194197Y937260D01*
X-213479Y937260D01*
X-217213Y935713D01*
X-217777Y935149D01*
X-217997Y934996D01*
X-218292Y934926D01*
X-218591Y934977D01*
X-218846Y935141D01*
X-219018Y935391D01*
X-219078Y935688D01*
X-219078Y980315D01*
X-219005Y980640D01*
X-218824Y980883D01*
X-218562Y981036D01*
X-218262Y981075D01*
X-217970Y980994D01*
X-217732Y980805D01*
X-216919Y979836D01*
X-209003Y975266D01*
X-200000Y973678D01*
X-190997Y975266D01*
X-183081Y979836D01*
X-177205Y986839D01*
X-174078Y995429D01*
X-174078Y1004571D01*
X-177205Y1013161D01*
X-181119Y1017826D01*
X-181227Y1017997D01*
X-181297Y1018292D01*
X-181246Y1018591D01*
X-181083Y1018846D01*
X-180833Y1019018D01*
X-180535Y1019078D01*
X-84250Y1019078D01*
X-83987Y1019031D01*
X-83729Y1018872D01*
X-83553Y1018624D01*
X-83488Y1018328D01*
X-83544Y1018030D01*
X-83711Y1017777D01*
X-84813Y1016675D01*
X-86360Y1012941D01*
X-86360Y993659D01*
X-84813Y989925D01*
X-81955Y987067D01*
X-81750Y986982D01*
X-81512Y986825D01*
X-81340Y986575D01*
X-81280Y986278D01*
X-81280Y967620D01*
X-81336Y967334D01*
X-81503Y967081D01*
X-132080Y916504D01*
X-132080Y764420D01*
X-132136Y764134D01*
X-132303Y763881D01*
X-189230Y706954D01*
X-189230Y583746D01*
X-187681Y582196D01*
X-187520Y581960D01*
X-187457Y581664D01*
X-187490Y581497D01*
X-187490Y577573D01*
X-186015Y574011D01*
X-183289Y571285D01*
X-179727Y569810D01*
X-175873Y569810D01*
X-172311Y571285D01*
X-169585Y574011D01*
X-168110Y577573D01*
X-168110Y581427D01*
X-169585Y584989D01*
X-172311Y587715D01*
X-175873Y589190D01*
X-178308Y589190D01*
X-178583Y589241D01*
X-178838Y589405D01*
X-179010Y589655D01*
X-179070Y589952D01*
X-179070Y702430D01*
X-179014Y702716D01*
X-178847Y702969D01*
X-121920Y759896D01*
X-121920Y911980D01*
X-121864Y912266D01*
X-121697Y912519D01*
X-120681Y913535D01*
X-120461Y913688D01*
X-120166Y913758D01*
X-119867Y913707D01*
X-119612Y913544D01*
X-119440Y913293D01*
X-119380Y912996D01*
X-119380Y707270D01*
X-119436Y706984D01*
X-119603Y706731D01*
X-136581Y689753D01*
X-136823Y689590D01*
X-137120Y689530D01*
X-148292Y689530D01*
X-149780Y688042D01*
X-149780Y670858D01*
X-148292Y669370D01*
X-131108Y669370D01*
X-129620Y670858D01*
X-129620Y682030D01*
X-129564Y682316D01*
X-129397Y682569D01*
X-125681Y686285D01*
X-125461Y686438D01*
X-125166Y686508D01*
X-124867Y686457D01*
X-124612Y686294D01*
X-124440Y686043D01*
X-124380Y685746D01*
X-124380Y670858D01*
X-122892Y669370D01*
X-105708Y669370D01*
X-104220Y670858D01*
X-104220Y688042D01*
X-105708Y689530D01*
X-120596Y689530D01*
X-120859Y689577D01*
X-121118Y689736D01*
X-121293Y689984D01*
X-121358Y690280D01*
X-121302Y690578D01*
X-121135Y690831D01*
X-109220Y702746D01*
X-109220Y785996D01*
X-109173Y786259D01*
X-109014Y786518D01*
X-108766Y786693D01*
X-108470Y786758D01*
X-108172Y786702D01*
X-107919Y786535D01*
X-94203Y772819D01*
X-94040Y772577D01*
X-93980Y772280D01*
X-93980Y747196D01*
X-43403Y696619D01*
X-43240Y696377D01*
X-43180Y696080D01*
X-43180Y633382D01*
X-43236Y633096D01*
X-43403Y632843D01*
X-60505Y615741D01*
X-60741Y615581D01*
X-61038Y615518D01*
X-61336Y615576D01*
X-61495Y615642D01*
X-65505Y615642D01*
X-69210Y614107D01*
X-72045Y611272D01*
X-73580Y607567D01*
X-73580Y603557D01*
X-72045Y599852D01*
X-69210Y597017D01*
X-65505Y595482D01*
X-61495Y595482D01*
X-57790Y597017D01*
X-54955Y599852D01*
X-53420Y603557D01*
X-53420Y607567D01*
X-53486Y607726D01*
X-53544Y608006D01*
X-53488Y608304D01*
X-53321Y608557D01*
X-33020Y628858D01*
X-33020Y699008D01*
X-32969Y699283D01*
X-32805Y699538D01*
X-32555Y699710D01*
X-32258Y699770D01*
X48380Y699770D01*
X48666Y699714D01*
X48919Y699547D01*
X57635Y690831D01*
X57788Y690611D01*
X57858Y690316D01*
X57807Y690017D01*
X57644Y689762D01*
X57393Y689590D01*
X57096Y689530D01*
X54908Y689530D01*
X53420Y688042D01*
X53420Y670858D01*
X54908Y669370D01*
X72092Y669370D01*
X73580Y670858D01*
X73580Y688042D01*
X72092Y689530D01*
X69342Y689530D01*
X69067Y689581D01*
X68812Y689745D01*
X68640Y689995D01*
X68580Y690292D01*
X68580Y694254D01*
X52904Y709930D01*
X-32691Y709930D01*
X-32977Y709986D01*
X-33229Y710153D01*
X-76993Y753917D01*
X-77156Y754158D01*
X-77216Y754455D01*
X-77216Y934645D01*
X-77160Y934931D01*
X-76993Y935183D01*
X-58629Y953547D01*
X-58388Y953710D01*
X-58091Y953770D01*
X-45854Y953770D01*
X-45591Y953723D01*
X-45332Y953564D01*
X-45157Y953316D01*
X-45092Y953020D01*
X-45148Y952722D01*
X-45315Y952469D01*
X-54155Y943629D01*
X-54391Y943469D01*
X-54688Y943406D01*
X-54986Y943464D01*
X-55145Y943530D01*
X-59155Y943530D01*
X-62860Y941995D01*
X-65695Y939160D01*
X-67230Y935455D01*
X-67230Y931445D01*
X-65695Y927740D01*
X-62860Y924905D01*
X-59155Y923370D01*
X-55145Y923370D01*
X-51440Y924905D01*
X-48605Y927740D01*
X-47070Y931445D01*
X-47070Y935455D01*
X-47136Y935614D01*
X-47194Y935894D01*
X-47138Y936192D01*
X-46971Y936445D01*
X-36473Y946943D01*
X-36231Y947106D01*
X-35934Y947166D01*
X-26910Y947166D01*
X-7829Y966247D01*
X-7588Y966410D01*
X-7291Y966470D01*
X91004Y966470D01*
X106680Y982146D01*
X106680Y986278D01*
X106733Y986558D01*
X106899Y986813D01*
X107150Y986982D01*
X107355Y987067D01*
X108463Y988175D01*
X108694Y988333D01*
X108990Y988398D01*
X109288Y988342D01*
X109541Y988175D01*
X140747Y956969D01*
X140910Y956727D01*
X140970Y956430D01*
X140970Y942765D01*
X140917Y942485D01*
X140751Y942231D01*
X140500Y942061D01*
X140340Y941995D01*
X137505Y939160D01*
X135970Y935455D01*
X135970Y931445D01*
X137505Y927740D01*
X140340Y924905D01*
X144045Y923370D01*
X148055Y923370D01*
X151760Y924905D01*
X154595Y927740D01*
X156130Y931445D01*
X156130Y935455D01*
X154595Y939160D01*
X151760Y941995D01*
X151600Y942061D01*
X151362Y942218D01*
X151190Y942468D01*
X151130Y942765D01*
X151130Y960954D01*
X111983Y1000101D01*
X111820Y1000343D01*
X111760Y1000640D01*
X111760Y1012941D01*
X110213Y1016675D01*
X109111Y1017777D01*
X108958Y1017997D01*
X108888Y1018292D01*
X108939Y1018591D01*
X109103Y1018846D01*
X109353Y1019018D01*
X109650Y1019078D01*
X180535Y1019078D01*
X180735Y1019051D01*
X181006Y1018915D01*
X181203Y1018684D01*
X181293Y1018395D01*
X181264Y1018093D01*
X181119Y1017826D01*
X177205Y1013161D01*
X174078Y1004571D01*
X174078Y995429D01*
X177205Y986839D01*
X183081Y979836D01*
X190997Y975266D01*
X200000Y973678D01*
X209003Y975266D01*
X216919Y979836D01*
X217732Y980805D01*
X217997Y981007D01*
X218292Y981077D01*
X218591Y981026D01*
X218846Y980863D01*
X219018Y980612D01*
X219078Y980315D01*
X219078Y935688D01*
X219031Y935425D01*
X218872Y935167D01*
X218624Y934991D01*
X218328Y934926D01*
X218030Y934982D01*
X217777Y935149D01*
X217213Y935713D01*
X213479Y937260D01*
X194197Y937260D01*
X190463Y935713D01*
X187605Y932855D01*
X187520Y932650D01*
X187363Y932412D01*
X187113Y932240D01*
X186816Y932180D01*
X176578Y932180D01*
X160847Y916449D01*
X160606Y916286D01*
X160308Y916226D01*
X81874Y916226D01*
X81588Y916282D01*
X81335Y916449D01*
X67329Y930455D01*
X67169Y930691D01*
X67106Y930988D01*
X67164Y931286D01*
X67230Y931445D01*
X67230Y935455D01*
X65695Y939160D01*
X62860Y941995D01*
X59155Y943530D01*
X55145Y943530D01*
X51440Y941995D01*
X48605Y939160D01*
X47070Y935455D01*
X47070Y931445D01*
X48605Y927740D01*
X51440Y924905D01*
X55145Y923370D01*
X59155Y923370D01*
X59314Y923436D01*
X59594Y923494D01*
X59892Y923438D01*
X60145Y923271D01*
X75335Y908081D01*
X75488Y907861D01*
X75558Y907566D01*
X75507Y907267D01*
X75344Y907012D01*
X75093Y906840D01*
X74796Y906780D01*
X74096Y906780D01*
X60145Y892829D01*
X59909Y892669D01*
X59612Y892606D01*
X59314Y892664D01*
X59155Y892730D01*
X55145Y892730D01*
X51440Y891195D01*
X48605Y888360D01*
X47070Y884655D01*
X47070Y880645D01*
X48605Y876940D01*
X51440Y874105D01*
X55145Y872570D01*
X59155Y872570D01*
X62860Y874105D01*
X65695Y876940D01*
X67230Y880645D01*
X67230Y884655D01*
X67164Y884814D01*
X67106Y885094D01*
X67162Y885392D01*
X67329Y885645D01*
X78081Y896397D01*
X78323Y896560D01*
X78620Y896620D01*
X186816Y896620D01*
X187096Y896567D01*
X187351Y896401D01*
X187520Y896150D01*
X187605Y895945D01*
X190463Y893087D01*
X194197Y891540D01*
X213479Y891540D01*
X217213Y893087D01*
X217777Y893651D01*
X217997Y893804D01*
X218292Y893874D01*
X218591Y893823D01*
X218846Y893659D01*
X219018Y893409D01*
X219078Y893112D01*
X219078Y183828D01*
X219052Y183631D01*
X218765Y182559D01*
X218568Y182217D01*
X217783Y181432D01*
X217441Y181235D01*
X216369Y180948D01*
G37*
%LPC*%
G36*
X144045Y872570D02*
X148055Y872570D01*
X151760Y874105D01*
X154595Y876940D01*
X156130Y880645D01*
X156130Y884655D01*
X154595Y888360D01*
X151760Y891195D01*
X148055Y892730D01*
X144045Y892730D01*
X140340Y891195D01*
X137505Y888360D01*
X135970Y884655D01*
X135970Y880645D01*
X137505Y876940D01*
X140340Y874105D01*
X144045Y872570D01*
G37*
G36*
X-59155Y872570D02*
X-55145Y872570D01*
X-51440Y874105D01*
X-48605Y876940D01*
X-47070Y880645D01*
X-47070Y884655D01*
X-48605Y888360D01*
X-51440Y891195D01*
X-55145Y892730D01*
X-59155Y892730D01*
X-62860Y891195D01*
X-65695Y888360D01*
X-67230Y884655D01*
X-67230Y880645D01*
X-65695Y876940D01*
X-62860Y874105D01*
X-59155Y872570D01*
G37*
G36*
X115062Y680212D02*
X124380Y680212D01*
X124380Y688042D01*
X122892Y689530D01*
X115062Y689530D01*
X115062Y680212D01*
G37*
G36*
X-72092Y669370D02*
X-54908Y669370D01*
X-53420Y670858D01*
X-53420Y688042D01*
X-54908Y689530D01*
X-72092Y689530D01*
X-73580Y688042D01*
X-73580Y670858D01*
X-72092Y669370D01*
G37*
G36*
X80308Y669370D02*
X97492Y669370D01*
X98980Y670858D01*
X98980Y688042D01*
X97492Y689530D01*
X80308Y689530D01*
X78820Y688042D01*
X78820Y670858D01*
X80308Y669370D01*
G37*
G36*
X104220Y680212D02*
X113538Y680212D01*
X113538Y689530D01*
X105708Y689530D01*
X104220Y688042D01*
X104220Y680212D01*
G37*
G36*
X-98980Y680212D02*
X-89662Y680212D01*
X-89662Y689530D01*
X-97492Y689530D01*
X-98980Y688042D01*
X-98980Y680212D01*
G37*
G36*
X131108Y669370D02*
X148292Y669370D01*
X149780Y670858D01*
X149780Y688042D01*
X148292Y689530D01*
X131108Y689530D01*
X129620Y688042D01*
X129620Y670858D01*
X131108Y669370D01*
G37*
G36*
X-88138Y680212D02*
X-78820Y680212D01*
X-78820Y688042D01*
X-80308Y689530D01*
X-88138Y689530D01*
X-88138Y680212D01*
G37*
G36*
X115062Y669370D02*
X122892Y669370D01*
X124380Y670858D01*
X124380Y678688D01*
X115062Y678688D01*
X115062Y669370D01*
G37*
G36*
X105708Y669370D02*
X113538Y669370D01*
X113538Y678688D01*
X104220Y678688D01*
X104220Y670858D01*
X105708Y669370D01*
G37*
G36*
X-88138Y669370D02*
X-80308Y669370D01*
X-78820Y670858D01*
X-78820Y678688D01*
X-88138Y678688D01*
X-88138Y669370D01*
G37*
G36*
X-97492Y669370D02*
X-89662Y669370D01*
X-89662Y678688D01*
X-98980Y678688D01*
X-98980Y670858D01*
X-97492Y669370D01*
G37*
G36*
X124995Y643970D02*
X129005Y643970D01*
X132710Y645505D01*
X135545Y648340D01*
X137080Y652045D01*
X137080Y656055D01*
X135545Y659760D01*
X132710Y662595D01*
X129005Y664130D01*
X124995Y664130D01*
X121290Y662595D01*
X118455Y659760D01*
X116920Y656055D01*
X116920Y652045D01*
X118455Y648340D01*
X121290Y645505D01*
X124995Y643970D01*
G37*
G36*
X74195Y643970D02*
X78205Y643970D01*
X81910Y645505D01*
X84745Y648340D01*
X86280Y652045D01*
X86280Y656055D01*
X84745Y659760D01*
X81910Y662595D01*
X78205Y664130D01*
X74195Y664130D01*
X70490Y662595D01*
X67655Y659760D01*
X66120Y656055D01*
X66120Y652045D01*
X67655Y648340D01*
X70490Y645505D01*
X74195Y643970D01*
G37*
G36*
X-78205Y643970D02*
X-74195Y643970D01*
X-70490Y645505D01*
X-67655Y648340D01*
X-66120Y652045D01*
X-66120Y656055D01*
X-67655Y659760D01*
X-70490Y662595D01*
X-74195Y664130D01*
X-78205Y664130D01*
X-81910Y662595D01*
X-84745Y659760D01*
X-86280Y656055D01*
X-86280Y652045D01*
X-84745Y648340D01*
X-81910Y645505D01*
X-78205Y643970D01*
G37*
G36*
X-129005Y643970D02*
X-124995Y643970D01*
X-121290Y645505D01*
X-118455Y648340D01*
X-116920Y652045D01*
X-116920Y656055D01*
X-118455Y659760D01*
X-121290Y662595D01*
X-124995Y664130D01*
X-129005Y664130D01*
X-132710Y662595D01*
X-135545Y659760D01*
X-137080Y656055D01*
X-137080Y652045D01*
X-135545Y648340D01*
X-132710Y645505D01*
X-129005Y643970D01*
G37*
G36*
X188495Y595482D02*
X192505Y595482D01*
X196210Y597017D01*
X199045Y599852D01*
X200580Y603557D01*
X200580Y607567D01*
X199045Y611272D01*
X196210Y614107D01*
X192505Y615642D01*
X188495Y615642D01*
X184790Y614107D01*
X181955Y611272D01*
X180420Y607567D01*
X180420Y603557D01*
X181955Y599852D01*
X184790Y597017D01*
X188495Y595482D01*
G37*
G36*
X163095Y595482D02*
X167105Y595482D01*
X170810Y597017D01*
X173645Y599852D01*
X175180Y603557D01*
X175180Y607567D01*
X173645Y611272D01*
X170810Y614107D01*
X167105Y615642D01*
X163095Y615642D01*
X159390Y614107D01*
X156555Y611272D01*
X155020Y607567D01*
X155020Y603557D01*
X156555Y599852D01*
X159390Y597017D01*
X163095Y595482D01*
G37*
G36*
X129620Y606324D02*
X138938Y606324D01*
X138938Y615642D01*
X137695Y615642D01*
X133990Y614107D01*
X131155Y611272D01*
X129620Y607567D01*
X129620Y606324D01*
G37*
G36*
X112295Y595482D02*
X116305Y595482D01*
X120010Y597017D01*
X122845Y599852D01*
X124380Y603557D01*
X124380Y607567D01*
X122845Y611272D01*
X120010Y614107D01*
X116305Y615642D01*
X112295Y615642D01*
X108590Y614107D01*
X105755Y611272D01*
X104220Y607567D01*
X104220Y603557D01*
X105755Y599852D01*
X108590Y597017D01*
X112295Y595482D01*
G37*
G36*
X86895Y595482D02*
X90905Y595482D01*
X94610Y597017D01*
X97445Y599852D01*
X98980Y603557D01*
X98980Y607567D01*
X97445Y611272D01*
X94610Y614107D01*
X90905Y615642D01*
X86895Y615642D01*
X83190Y614107D01*
X80355Y611272D01*
X78820Y607567D01*
X78820Y603557D01*
X80355Y599852D01*
X83190Y597017D01*
X86895Y595482D01*
G37*
G36*
X61495Y595482D02*
X65505Y595482D01*
X69210Y597017D01*
X72045Y599852D01*
X73580Y603557D01*
X73580Y607567D01*
X72045Y611272D01*
X69210Y614107D01*
X65505Y615642D01*
X61495Y615642D01*
X57790Y614107D01*
X54955Y611272D01*
X53420Y607567D01*
X53420Y603557D01*
X54955Y599852D01*
X57790Y597017D01*
X61495Y595482D01*
G37*
G36*
X36095Y595482D02*
X40105Y595482D01*
X43810Y597017D01*
X46645Y599852D01*
X48180Y603557D01*
X48180Y607567D01*
X46645Y611272D01*
X43810Y614107D01*
X40105Y615642D01*
X36095Y615642D01*
X32390Y614107D01*
X29555Y611272D01*
X28020Y607567D01*
X28020Y603557D01*
X29555Y599852D01*
X32390Y597017D01*
X36095Y595482D01*
G37*
G36*
X10695Y595482D02*
X14705Y595482D01*
X18410Y597017D01*
X21245Y599852D01*
X22780Y603557D01*
X22780Y607567D01*
X21245Y611272D01*
X18410Y614107D01*
X14705Y615642D01*
X10695Y615642D01*
X6990Y614107D01*
X4155Y611272D01*
X2620Y607567D01*
X2620Y603557D01*
X4155Y599852D01*
X6990Y597017D01*
X10695Y595482D01*
G37*
G36*
X-14705Y595482D02*
X-10695Y595482D01*
X-6990Y597017D01*
X-4155Y599852D01*
X-2620Y603557D01*
X-2620Y607567D01*
X-4155Y611272D01*
X-6990Y614107D01*
X-10695Y615642D01*
X-14705Y615642D01*
X-18410Y614107D01*
X-21245Y611272D01*
X-22780Y607567D01*
X-22780Y603557D01*
X-21245Y599852D01*
X-18410Y597017D01*
X-14705Y595482D01*
G37*
G36*
X-40105Y595482D02*
X-36095Y595482D01*
X-32390Y597017D01*
X-29555Y599852D01*
X-28020Y603557D01*
X-28020Y607567D01*
X-29555Y611272D01*
X-32390Y614107D01*
X-36095Y615642D01*
X-40105Y615642D01*
X-43810Y614107D01*
X-46645Y611272D01*
X-48180Y607567D01*
X-48180Y603557D01*
X-46645Y599852D01*
X-43810Y597017D01*
X-40105Y595482D01*
G37*
G36*
X-90905Y595482D02*
X-86895Y595482D01*
X-83190Y597017D01*
X-80355Y599852D01*
X-78820Y603557D01*
X-78820Y607567D01*
X-80355Y611272D01*
X-83190Y614107D01*
X-86895Y615642D01*
X-90905Y615642D01*
X-94610Y614107D01*
X-97445Y611272D01*
X-98980Y607567D01*
X-98980Y603557D01*
X-97445Y599852D01*
X-94610Y597017D01*
X-90905Y595482D01*
G37*
G36*
X140462Y606324D02*
X149780Y606324D01*
X149780Y607567D01*
X148245Y611272D01*
X145410Y614107D01*
X141705Y615642D01*
X140462Y615642D01*
X140462Y606324D01*
G37*
G36*
X140462Y595482D02*
X141705Y595482D01*
X145410Y597017D01*
X148245Y599852D01*
X149780Y603557D01*
X149780Y604800D01*
X140462Y604800D01*
X140462Y595482D01*
G37*
G36*
X137695Y595482D02*
X138938Y595482D01*
X138938Y604800D01*
X129620Y604800D01*
X129620Y603557D01*
X131155Y599852D01*
X133990Y597017D01*
X137695Y595482D01*
G37*
G36*
X-135454Y287020D02*
X2104Y287020D01*
X16397Y301313D01*
X16645Y301478D01*
X18617Y302295D01*
X21555Y305233D01*
X23145Y309072D01*
X23145Y313228D01*
X21555Y317067D01*
X18617Y320005D01*
X14778Y321595D01*
X10622Y321595D01*
X6783Y320005D01*
X3845Y317067D01*
X2255Y313228D01*
X2255Y309072D01*
X3845Y305233D01*
X4358Y304720D01*
X4516Y304490D01*
X4581Y304194D01*
X4526Y303895D01*
X4358Y303643D01*
X-1881Y297403D01*
X-2123Y297240D01*
X-2420Y297180D01*
X-130930Y297180D01*
X-131216Y297236D01*
X-131469Y297403D01*
X-172497Y338431D01*
X-172660Y338673D01*
X-172720Y338970D01*
X-172720Y453007D01*
X-172667Y453287D01*
X-172501Y453541D01*
X-172360Y453636D01*
X-169585Y456411D01*
X-168110Y459973D01*
X-168110Y463827D01*
X-169585Y467389D01*
X-172311Y470115D01*
X-175873Y471590D01*
X-179727Y471590D01*
X-183289Y470115D01*
X-186015Y467389D01*
X-187490Y463827D01*
X-187490Y459973D01*
X-186015Y456411D01*
X-183246Y453642D01*
X-183112Y453554D01*
X-182940Y453304D01*
X-182880Y453007D01*
X-182880Y334446D01*
X-135454Y287020D01*
G37*
G36*
X137695Y443082D02*
X141705Y443082D01*
X145410Y444617D01*
X148245Y447452D01*
X149780Y451157D01*
X149780Y455167D01*
X148245Y458872D01*
X145410Y461707D01*
X141705Y463242D01*
X137695Y463242D01*
X133990Y461707D01*
X131155Y458872D01*
X129620Y455167D01*
X129620Y451157D01*
X131155Y447452D01*
X133990Y444617D01*
X137695Y443082D01*
G37*
G36*
X163095Y443082D02*
X167105Y443082D01*
X170810Y444617D01*
X173645Y447452D01*
X175180Y451157D01*
X175180Y455167D01*
X173645Y458872D01*
X170810Y461707D01*
X167105Y463242D01*
X163095Y463242D01*
X159390Y461707D01*
X156555Y458872D01*
X155020Y455167D01*
X155020Y451157D01*
X156555Y447452D01*
X159390Y444617D01*
X163095Y443082D01*
G37*
G36*
X112295Y443082D02*
X116305Y443082D01*
X120010Y444617D01*
X122845Y447452D01*
X124380Y451157D01*
X124380Y455167D01*
X122845Y458872D01*
X120010Y461707D01*
X116305Y463242D01*
X112295Y463242D01*
X108590Y461707D01*
X105755Y458872D01*
X104220Y455167D01*
X104220Y451157D01*
X105755Y447452D01*
X108590Y444617D01*
X112295Y443082D01*
G37*
G36*
X86895Y443082D02*
X90905Y443082D01*
X94610Y444617D01*
X97445Y447452D01*
X98980Y451157D01*
X98980Y455167D01*
X97445Y458872D01*
X94610Y461707D01*
X90905Y463242D01*
X86895Y463242D01*
X83190Y461707D01*
X80355Y458872D01*
X78820Y455167D01*
X78820Y451157D01*
X80355Y447452D01*
X83190Y444617D01*
X86895Y443082D01*
G37*
G36*
X61495Y443082D02*
X65505Y443082D01*
X69210Y444617D01*
X72045Y447452D01*
X73580Y451157D01*
X73580Y455167D01*
X72045Y458872D01*
X69210Y461707D01*
X65505Y463242D01*
X61495Y463242D01*
X57790Y461707D01*
X54955Y458872D01*
X53420Y455167D01*
X53420Y451157D01*
X54955Y447452D01*
X57790Y444617D01*
X61495Y443082D01*
G37*
G36*
X36095Y443082D02*
X40105Y443082D01*
X43810Y444617D01*
X46645Y447452D01*
X48180Y451157D01*
X48180Y455167D01*
X46645Y458872D01*
X43810Y461707D01*
X40105Y463242D01*
X36095Y463242D01*
X32390Y461707D01*
X29555Y458872D01*
X28020Y455167D01*
X28020Y451157D01*
X29555Y447452D01*
X32390Y444617D01*
X36095Y443082D01*
G37*
G36*
X10695Y443082D02*
X14705Y443082D01*
X18410Y444617D01*
X21245Y447452D01*
X22780Y451157D01*
X22780Y455167D01*
X21245Y458872D01*
X18410Y461707D01*
X14705Y463242D01*
X10695Y463242D01*
X6990Y461707D01*
X4155Y458872D01*
X2620Y455167D01*
X2620Y451157D01*
X4155Y447452D01*
X6990Y444617D01*
X10695Y443082D01*
G37*
G36*
X188495Y443082D02*
X192505Y443082D01*
X196210Y444617D01*
X199045Y447452D01*
X200580Y451157D01*
X200580Y455167D01*
X199045Y458872D01*
X196210Y461707D01*
X192505Y463242D01*
X188495Y463242D01*
X184790Y461707D01*
X181955Y458872D01*
X180420Y455167D01*
X180420Y451157D01*
X181955Y447452D01*
X184790Y444617D01*
X188495Y443082D01*
G37*
G36*
X-4208Y256540D02*
X4208Y256540D01*
X9065Y261397D01*
X9307Y261560D01*
X9604Y261620D01*
X21154Y261620D01*
X55880Y296346D01*
X55880Y378404D01*
X30581Y403704D01*
X30420Y403940D01*
X30357Y404237D01*
X30390Y404403D01*
X30390Y408327D01*
X28915Y411889D01*
X26146Y414658D01*
X26012Y414746D01*
X25840Y414996D01*
X25780Y415293D01*
X25780Y421866D01*
X-2521Y450167D01*
X-2681Y450403D01*
X-2744Y450700D01*
X-2686Y450998D01*
X-2620Y451157D01*
X-2620Y455167D01*
X-4155Y458872D01*
X-6990Y461707D01*
X-10695Y463242D01*
X-14705Y463242D01*
X-18410Y461707D01*
X-21245Y458872D01*
X-22780Y455167D01*
X-22780Y451157D01*
X-21245Y447452D01*
X-18410Y444617D01*
X-14705Y443082D01*
X-10695Y443082D01*
X-10536Y443148D01*
X-10256Y443206D01*
X-9958Y443150D01*
X-9705Y442983D01*
X15397Y417881D01*
X15560Y417639D01*
X15620Y417342D01*
X15620Y415293D01*
X15567Y415013D01*
X15401Y414759D01*
X15260Y414664D01*
X12485Y411889D01*
X11010Y408327D01*
X11010Y404473D01*
X12485Y400911D01*
X15211Y398185D01*
X18773Y396710D01*
X22689Y396710D01*
X22845Y396742D01*
X23144Y396687D01*
X23396Y396519D01*
X45497Y374419D01*
X45660Y374177D01*
X45720Y373880D01*
X45720Y300870D01*
X45664Y300584D01*
X45497Y300331D01*
X17169Y272003D01*
X16927Y271840D01*
X16630Y271780D01*
X9604Y271780D01*
X9318Y271836D01*
X9065Y272003D01*
X4208Y276860D01*
X-4208Y276860D01*
X-10160Y270908D01*
X-10160Y262492D01*
X-4208Y256540D01*
G37*
G36*
X-40105Y443082D02*
X-36095Y443082D01*
X-32390Y444617D01*
X-29555Y447452D01*
X-28020Y451157D01*
X-28020Y455167D01*
X-29555Y458872D01*
X-32390Y461707D01*
X-36095Y463242D01*
X-40105Y463242D01*
X-43810Y461707D01*
X-46645Y458872D01*
X-48180Y455167D01*
X-48180Y451157D01*
X-46645Y447452D01*
X-43810Y444617D01*
X-40105Y443082D01*
G37*
G36*
X-65505Y443082D02*
X-61495Y443082D01*
X-57790Y444617D01*
X-54955Y447452D01*
X-53420Y451157D01*
X-53420Y455167D01*
X-54955Y458872D01*
X-57790Y461707D01*
X-61495Y463242D01*
X-65505Y463242D01*
X-69210Y461707D01*
X-72045Y458872D01*
X-73580Y455167D01*
X-73580Y451157D01*
X-72045Y447452D01*
X-69210Y444617D01*
X-65505Y443082D01*
G37*
G36*
X-98827Y396710D02*
X-94973Y396710D01*
X-91411Y398185D01*
X-88685Y400911D01*
X-87210Y404473D01*
X-87210Y408327D01*
X-88685Y411889D01*
X-91454Y414658D01*
X-91588Y414746D01*
X-91760Y414996D01*
X-91820Y415293D01*
X-91820Y442321D01*
X-91769Y442594D01*
X-91606Y442850D01*
X-91356Y443022D01*
X-91059Y443083D01*
X-91056Y443082D01*
X-86895Y443082D01*
X-83190Y444617D01*
X-80355Y447452D01*
X-78820Y451157D01*
X-78820Y455167D01*
X-80355Y458872D01*
X-83190Y461707D01*
X-86895Y463242D01*
X-90905Y463242D01*
X-94610Y461707D01*
X-97445Y458872D01*
X-98980Y455167D01*
X-98980Y451157D01*
X-98914Y450998D01*
X-98856Y450718D01*
X-98912Y450420D01*
X-99079Y450167D01*
X-101980Y447266D01*
X-101980Y415293D01*
X-102033Y415013D01*
X-102199Y414759D01*
X-102340Y414664D01*
X-105115Y411889D01*
X-106590Y408327D01*
X-106590Y404473D01*
X-105115Y400911D01*
X-102389Y398185D01*
X-98827Y396710D01*
G37*
G36*
X-23145Y311912D02*
X-13462Y311912D01*
X-13462Y321595D01*
X-14778Y321595D01*
X-18617Y320005D01*
X-21555Y317067D01*
X-23145Y313228D01*
X-23145Y311912D01*
G37*
G36*
X-11938Y311912D02*
X-2255Y311912D01*
X-2255Y313228D01*
X-3845Y317067D01*
X-6783Y320005D01*
X-10622Y321595D01*
X-11938Y321595D01*
X-11938Y311912D01*
G37*
G36*
X-11938Y300705D02*
X-10622Y300705D01*
X-6783Y302295D01*
X-3845Y305233D01*
X-2255Y309072D01*
X-2255Y310388D01*
X-11938Y310388D01*
X-11938Y300705D01*
G37*
G36*
X-14778Y300705D02*
X-13462Y300705D01*
X-13462Y310388D01*
X-23145Y310388D01*
X-23145Y309072D01*
X-21555Y305233D01*
X-18617Y302295D01*
X-14778Y300705D01*
G37*
G36*
X-159003Y235266D02*
X-150000Y233678D01*
X-140997Y235266D01*
X-133081Y239836D01*
X-127205Y246839D01*
X-124078Y255429D01*
X-124078Y264571D01*
X-127205Y273161D01*
X-133081Y280164D01*
X-140997Y284734D01*
X-150000Y286322D01*
X-159003Y284734D01*
X-166919Y280164D01*
X-172795Y273161D01*
X-175922Y264571D01*
X-175922Y255429D01*
X-172795Y246839D01*
X-166919Y239836D01*
X-159003Y235266D01*
G37*
G36*
X140997Y235266D02*
X150000Y233678D01*
X159003Y235266D01*
X166919Y239836D01*
X172795Y246839D01*
X175922Y255429D01*
X175922Y264571D01*
X172795Y273161D01*
X166919Y280164D01*
X159003Y284734D01*
X150000Y286322D01*
X140997Y284734D01*
X133081Y280164D01*
X127205Y273161D01*
X124078Y264571D01*
X124078Y255429D01*
X127205Y246839D01*
X133081Y239836D01*
X140997Y235266D01*
G37*
G36*
X-4162Y199078D02*
X4162Y199078D01*
X11851Y202263D01*
X17737Y208149D01*
X20922Y215838D01*
X20922Y224162D01*
X17737Y231851D01*
X11851Y237737D01*
X4162Y240922D01*
X-4162Y240922D01*
X-11851Y237737D01*
X-17737Y231851D01*
X-20922Y224162D01*
X-20922Y215838D01*
X-17737Y208149D01*
X-11851Y202263D01*
X-4162Y199078D01*
G37*
%LPD*%
D10*
X-139700Y679450D03*
X-114300Y679450D03*
X-88900Y679450D03*
X-63500Y679450D03*
D11*
X-127000Y654050D03*
X-76200Y654050D03*
X-57150Y882650D03*
X-57150Y933450D03*
X-146050Y882650D03*
X-146050Y933450D03*
D10*
X63500Y679450D03*
X88900Y679450D03*
X114300Y679450D03*
X139700Y679450D03*
D11*
X76200Y654050D03*
X127000Y654050D03*
X146050Y882650D03*
X146050Y933450D03*
X57150Y882650D03*
X57150Y933450D03*
X190500Y605562D03*
X165100Y605562D03*
X139700Y605562D03*
X114300Y605562D03*
X88900Y605562D03*
X63500Y605562D03*
X38100Y605562D03*
X12700Y605562D03*
X-12700Y605562D03*
X-38100Y605562D03*
X-63500Y605562D03*
X-88900Y605562D03*
X-88900Y453162D03*
X-63500Y453162D03*
X-38100Y453162D03*
X-12700Y453162D03*
X12700Y453162D03*
X38100Y453162D03*
X63500Y453162D03*
X88900Y453162D03*
X114300Y453162D03*
X139700Y453162D03*
X165100Y453162D03*
X190500Y453162D03*
D12*
X101600Y995680D02*
X101600Y1010920D01*
X76200Y1010920D02*
X76200Y995680D01*
X50800Y995680D02*
X50800Y1010920D01*
X25400Y1010920D02*
X25400Y995680D01*
X0Y995680D02*
X0Y1010920D01*
X-25400Y1010920D02*
X-25400Y995680D01*
X-50800Y995680D02*
X-50800Y1010920D01*
X-76200Y1010920D02*
X-76200Y995680D01*
X-196218Y927100D02*
X-211458Y927100D01*
X-211458Y901700D02*
X-196218Y901700D01*
X196218Y901700D02*
X211458Y901700D01*
X211458Y927100D02*
X196218Y927100D01*
D13*
X-96900Y406400D03*
X20700Y406400D03*
X-177800Y461900D03*
X-177800Y579500D03*
D14*
X0Y266700D03*
D15*
X12700Y311150D03*
X-12700Y311150D03*
D16*
X146050Y958850D02*
X101600Y1003300D01*
X146050Y958850D02*
X146050Y933450D01*
X88900Y971550D02*
X-9711Y971550D01*
X-38354Y952246D02*
X-57150Y933450D01*
X-29015Y952246D02*
X-9711Y971550D01*
X-29015Y952246D02*
X-38354Y952246D01*
X101600Y984250D02*
X101600Y1003300D01*
X101600Y984250D02*
X88900Y971550D01*
X-88900Y774700D02*
X-88900Y749300D01*
X-38100Y698500D01*
X-38100Y630962D01*
X-63500Y605562D01*
D17*
X-106454Y793750D03*
D16*
X-106454Y792254D02*
X-88900Y774700D01*
X-106454Y792254D02*
X-106454Y793750D01*
X-25400Y965200D02*
X-25400Y1003300D01*
X-25400Y965200D02*
X-31750Y958850D01*
X50800Y704850D02*
X63500Y692150D01*
X63500Y679450D01*
X-35111Y704850D02*
X-82296Y752036D01*
X-35111Y704850D02*
X50800Y704850D01*
X-31750Y958850D02*
X-60511Y958850D01*
X-82296Y937065D01*
X-82296Y752036D01*
X-50800Y977900D02*
X-50800Y1003300D01*
X-50800Y977900D02*
X-114300Y914400D01*
X-114300Y704850D01*
X-139700Y679450D01*
X-76200Y965200D02*
X-76200Y1003300D01*
X-76200Y965200D02*
X-127000Y914400D01*
X-127000Y762000D01*
X-184150Y704850D01*
X-184150Y585850D01*
X-177800Y579500D01*
X-152400Y927100D02*
X-146050Y933450D01*
X-152400Y927100D02*
X-203838Y927100D01*
X-165100Y901700D02*
X-146050Y882650D01*
X-165100Y901700D02*
X-203838Y901700D01*
X162728Y911146D02*
X178682Y927100D01*
X203838Y927100D01*
X79454Y911146D02*
X57150Y933450D01*
X79454Y911146D02*
X162728Y911146D01*
X76200Y901700D02*
X57150Y882650D01*
X76200Y901700D02*
X203838Y901700D01*
X-177800Y461900D02*
X-177800Y336550D01*
X-133350Y292100D01*
X0Y292100D01*
X12700Y304800D01*
X12700Y311150D01*
X-96900Y406400D02*
X-96900Y445162D01*
X-88900Y453162D01*
X-12700Y453162D02*
X20700Y419762D01*
X20700Y406400D01*
X50800Y376300D01*
X50800Y298450D01*
X19050Y266700D01*
X0Y266700D01*
M02*
