G04 EAGLE Gerber RS-274X export*
G75*
%MOMM*%
%FSLAX34Y34*%
%LPD*%
%INBottom Copper*%
%IPPOS*%
%AMOC8*
5,1,8,0,0,1.08239X$1,22.5*%
G01*
G04 Define Apertures*
%ADD10C,1.879600*%
%ADD11P,2.03446X8X112.5*%
%ADD12C,1.524000*%
%ADD13C,1.800000*%
%ADD14C,0.406400*%
%ADD15C,0.756400*%
D10*
X-777240Y-942340D03*
X-751840Y-942340D03*
X-726440Y-942340D03*
X-701040Y-942340D03*
X-675640Y-942340D03*
X-650240Y-942340D03*
X-624840Y-942340D03*
X-802640Y-942340D03*
X-828040Y-459740D03*
X-802640Y-459740D03*
X-777240Y-459740D03*
X-751840Y-459740D03*
X-726440Y-459740D03*
X-701040Y-459740D03*
X-675640Y-459740D03*
X-853440Y-459740D03*
X-1005840Y-942340D03*
X-980440Y-942340D03*
X-955040Y-942340D03*
X-929640Y-942340D03*
X-904240Y-942340D03*
X-878840Y-942340D03*
X-853440Y-942340D03*
X-1031240Y-942340D03*
X-1056640Y-459740D03*
X-1031240Y-459740D03*
X-1005840Y-459740D03*
X-980440Y-459740D03*
X-955040Y-459740D03*
X-929640Y-459740D03*
X-904240Y-459740D03*
X-1082040Y-459740D03*
X-1272540Y-459740D03*
X-1247140Y-459740D03*
X-1221740Y-459740D03*
X-1196340Y-459740D03*
X-1170940Y-459740D03*
X-1145540Y-459740D03*
X-1120140Y-459740D03*
X-1297940Y-459740D03*
D11*
X-574040Y-662940D03*
X-599440Y-662940D03*
X-574040Y-637540D03*
X-599440Y-637540D03*
X-574040Y-612140D03*
X-599440Y-612140D03*
X-574040Y-586740D03*
X-599440Y-586740D03*
X-574040Y-561340D03*
X-599440Y-561340D03*
X-574040Y-535940D03*
X-599440Y-535940D03*
X-574040Y-510540D03*
X-599440Y-510540D03*
X-574040Y-485140D03*
X-599440Y-485140D03*
X-574040Y-866140D03*
X-599440Y-866140D03*
X-574040Y-840740D03*
X-599440Y-840740D03*
X-574040Y-815340D03*
X-599440Y-815340D03*
X-574040Y-789940D03*
X-599440Y-789940D03*
X-574040Y-764540D03*
X-599440Y-764540D03*
X-574040Y-739140D03*
X-599440Y-739140D03*
X-574040Y-713740D03*
X-599440Y-713740D03*
X-574040Y-688340D03*
X-599440Y-688340D03*
D10*
X-599440Y-891540D03*
X-574040Y-891540D03*
X-599440Y-459740D03*
X-574040Y-459740D03*
X-1209040Y-942340D03*
X-1183640Y-942340D03*
X-1158240Y-942340D03*
X-1132840Y-942340D03*
X-1107440Y-942340D03*
X-1082040Y-942340D03*
X-1323340Y-459740D03*
X-1348740Y-459740D03*
X-1234440Y-942340D03*
X-1259840Y-942340D03*
D12*
X-1244600Y-169662D02*
X-1229360Y-169662D01*
X-1229360Y-195062D02*
X-1244600Y-195062D01*
X-1244600Y-220462D02*
X-1229360Y-220462D01*
X-1229360Y-245862D02*
X-1244600Y-245862D01*
X-1244600Y-271262D02*
X-1229360Y-271262D01*
X-1229360Y-296662D02*
X-1244600Y-296662D01*
X-1244600Y-322062D02*
X-1229360Y-322062D01*
X-1229360Y-347462D02*
X-1244600Y-347462D01*
X-993140Y-169662D02*
X-977900Y-169662D01*
X-977900Y-195062D02*
X-993140Y-195062D01*
X-993140Y-220462D02*
X-977900Y-220462D01*
X-977900Y-245862D02*
X-993140Y-245862D01*
X-993140Y-271262D02*
X-977900Y-271262D01*
X-977900Y-296662D02*
X-993140Y-296662D01*
X-993140Y-322062D02*
X-977900Y-322062D01*
X-977900Y-347462D02*
X-993140Y-347462D01*
X-782320Y-169662D02*
X-767080Y-169662D01*
X-767080Y-195062D02*
X-782320Y-195062D01*
X-782320Y-220462D02*
X-767080Y-220462D01*
X-767080Y-245862D02*
X-782320Y-245862D01*
X-782320Y-271262D02*
X-767080Y-271262D01*
X-767080Y-296662D02*
X-782320Y-296662D01*
X-782320Y-322062D02*
X-767080Y-322062D01*
X-767080Y-347462D02*
X-782320Y-347462D01*
X-569976Y-167640D02*
X-554736Y-167640D01*
X-554736Y-193040D02*
X-569976Y-193040D01*
X-569976Y-218440D02*
X-554736Y-218440D01*
X-554736Y-243840D02*
X-569976Y-243840D01*
X-569976Y-269240D02*
X-554736Y-269240D01*
X-554736Y-294640D02*
X-569976Y-294640D01*
X-569976Y-320040D02*
X-554736Y-320040D01*
X-554736Y-345440D02*
X-569976Y-345440D01*
X-350520Y-167640D02*
X-335280Y-167640D01*
X-335280Y-193040D02*
X-350520Y-193040D01*
X-350520Y-218440D02*
X-335280Y-218440D01*
X-335280Y-243840D02*
X-350520Y-243840D01*
X-350520Y-269240D02*
X-335280Y-269240D01*
X-335280Y-294640D02*
X-350520Y-294640D01*
X-350520Y-320040D02*
X-335280Y-320040D01*
X-335280Y-345440D02*
X-350520Y-345440D01*
X-195062Y-254000D02*
X-179822Y-254000D01*
X-179822Y-279400D02*
X-195062Y-279400D01*
X-195062Y-304800D02*
X-179822Y-304800D01*
X-179822Y-330200D02*
X-195062Y-330200D01*
X-195062Y-355600D02*
X-179822Y-355600D01*
X-179822Y-381000D02*
X-195062Y-381000D01*
X-195062Y-406400D02*
X-179822Y-406400D01*
X-179822Y-431800D02*
X-195062Y-431800D01*
X-195062Y-469900D02*
X-179822Y-469900D01*
X-179822Y-495300D02*
X-195062Y-495300D01*
X-195062Y-520700D02*
X-179822Y-520700D01*
X-179822Y-546100D02*
X-195062Y-546100D01*
X-195062Y-571500D02*
X-179822Y-571500D01*
X-179822Y-596900D02*
X-195062Y-596900D01*
X-195062Y-622300D02*
X-179822Y-622300D01*
X-179822Y-647700D02*
X-195062Y-647700D01*
X-195062Y-685800D02*
X-179822Y-685800D01*
X-179822Y-711200D02*
X-195062Y-711200D01*
X-195062Y-736600D02*
X-179822Y-736600D01*
X-179822Y-762000D02*
X-195062Y-762000D01*
X-195062Y-787400D02*
X-179822Y-787400D01*
X-179822Y-812800D02*
X-195062Y-812800D01*
X-195062Y-838200D02*
X-179822Y-838200D01*
X-179822Y-863600D02*
X-195062Y-863600D01*
D10*
X-775716Y-1527362D03*
X-750316Y-1527362D03*
X-724916Y-1527362D03*
X-699516Y-1527362D03*
X-674116Y-1527362D03*
X-648716Y-1527362D03*
X-623316Y-1527362D03*
X-801116Y-1527362D03*
X-826516Y-1044762D03*
X-801116Y-1044762D03*
X-775716Y-1044762D03*
X-750316Y-1044762D03*
X-724916Y-1044762D03*
X-699516Y-1044762D03*
X-674116Y-1044762D03*
X-851916Y-1044762D03*
X-1004316Y-1527362D03*
X-978916Y-1527362D03*
X-953516Y-1527362D03*
X-928116Y-1527362D03*
X-902716Y-1527362D03*
X-877316Y-1527362D03*
X-851916Y-1527362D03*
X-1029716Y-1527362D03*
X-1055116Y-1044762D03*
X-1029716Y-1044762D03*
X-1004316Y-1044762D03*
X-978916Y-1044762D03*
X-953516Y-1044762D03*
X-928116Y-1044762D03*
X-902716Y-1044762D03*
X-1080516Y-1044762D03*
X-1271016Y-1044762D03*
X-1245616Y-1044762D03*
X-1220216Y-1044762D03*
X-1194816Y-1044762D03*
X-1169416Y-1044762D03*
X-1144016Y-1044762D03*
X-1118616Y-1044762D03*
X-1296416Y-1044762D03*
D11*
X-572516Y-1247962D03*
X-597916Y-1247962D03*
X-572516Y-1222562D03*
X-597916Y-1222562D03*
X-572516Y-1197162D03*
X-597916Y-1197162D03*
X-572516Y-1171762D03*
X-597916Y-1171762D03*
X-572516Y-1146362D03*
X-597916Y-1146362D03*
X-572516Y-1120962D03*
X-597916Y-1120962D03*
X-572516Y-1095562D03*
X-597916Y-1095562D03*
X-572516Y-1070162D03*
X-597916Y-1070162D03*
X-572516Y-1451162D03*
X-597916Y-1451162D03*
X-572516Y-1425762D03*
X-597916Y-1425762D03*
X-572516Y-1400362D03*
X-597916Y-1400362D03*
X-572516Y-1374962D03*
X-597916Y-1374962D03*
X-572516Y-1349562D03*
X-597916Y-1349562D03*
X-572516Y-1324162D03*
X-597916Y-1324162D03*
X-572516Y-1298762D03*
X-597916Y-1298762D03*
X-572516Y-1273362D03*
X-597916Y-1273362D03*
D10*
X-597916Y-1476562D03*
X-572516Y-1476562D03*
X-597916Y-1044762D03*
X-572516Y-1044762D03*
X-1207516Y-1527362D03*
X-1182116Y-1527362D03*
X-1156716Y-1527362D03*
X-1131316Y-1527362D03*
X-1105916Y-1527362D03*
X-1080516Y-1527362D03*
X-1321816Y-1044762D03*
X-1347216Y-1044762D03*
X-1232916Y-1527362D03*
X-1258316Y-1527362D03*
D12*
X-192522Y-1320800D02*
X-177282Y-1320800D01*
X-177282Y-1295400D02*
X-192522Y-1295400D01*
X-192522Y-1270000D02*
X-177282Y-1270000D01*
X-177282Y-1244600D02*
X-192522Y-1244600D01*
X-192522Y-1219200D02*
X-177282Y-1219200D01*
X-177282Y-1193800D02*
X-192522Y-1193800D01*
X-192522Y-1168400D02*
X-177282Y-1168400D01*
X-177282Y-1143000D02*
X-192522Y-1143000D01*
X-192522Y-1536700D02*
X-177282Y-1536700D01*
X-177282Y-1511300D02*
X-192522Y-1511300D01*
X-192522Y-1485900D02*
X-177282Y-1485900D01*
X-177282Y-1460500D02*
X-192522Y-1460500D01*
X-192522Y-1435100D02*
X-177282Y-1435100D01*
X-177282Y-1409700D02*
X-192522Y-1409700D01*
X-192522Y-1384300D02*
X-177282Y-1384300D01*
X-177282Y-1358900D02*
X-192522Y-1358900D01*
X-192522Y-1752600D02*
X-177282Y-1752600D01*
X-177282Y-1727200D02*
X-192522Y-1727200D01*
X-192522Y-1701800D02*
X-177282Y-1701800D01*
X-177282Y-1676400D02*
X-192522Y-1676400D01*
X-192522Y-1651000D02*
X-177282Y-1651000D01*
X-177282Y-1625600D02*
X-192522Y-1625600D01*
X-192522Y-1600200D02*
X-177282Y-1600200D01*
X-177282Y-1574800D02*
X-192522Y-1574800D01*
X-316982Y-1816996D02*
X-332222Y-1816996D01*
X-332222Y-1791596D02*
X-316982Y-1791596D01*
X-316982Y-1766196D02*
X-332222Y-1766196D01*
X-332222Y-1740796D02*
X-316982Y-1740796D01*
X-316982Y-1715396D02*
X-332222Y-1715396D01*
X-332222Y-1689996D02*
X-316982Y-1689996D01*
X-316982Y-1664596D02*
X-332222Y-1664596D01*
X-332222Y-1639196D02*
X-316982Y-1639196D01*
X-517642Y-1816100D02*
X-532882Y-1816100D01*
X-532882Y-1790700D02*
X-517642Y-1790700D01*
X-517642Y-1765300D02*
X-532882Y-1765300D01*
X-532882Y-1739900D02*
X-517642Y-1739900D01*
X-517642Y-1714500D02*
X-532882Y-1714500D01*
X-532882Y-1689100D02*
X-517642Y-1689100D01*
X-517642Y-1663700D02*
X-532882Y-1663700D01*
X-532882Y-1638300D02*
X-517642Y-1638300D01*
X-746242Y-1817638D02*
X-761482Y-1817638D01*
X-761482Y-1792238D02*
X-746242Y-1792238D01*
X-746242Y-1766838D02*
X-761482Y-1766838D01*
X-761482Y-1741438D02*
X-746242Y-1741438D01*
X-746242Y-1716038D02*
X-761482Y-1716038D01*
X-761482Y-1690638D02*
X-746242Y-1690638D01*
X-746242Y-1665238D02*
X-761482Y-1665238D01*
X-761482Y-1639838D02*
X-746242Y-1639838D01*
X-979922Y-1816100D02*
X-995162Y-1816100D01*
X-995162Y-1790700D02*
X-979922Y-1790700D01*
X-979922Y-1765300D02*
X-995162Y-1765300D01*
X-995162Y-1739900D02*
X-979922Y-1739900D01*
X-979922Y-1714500D02*
X-995162Y-1714500D01*
X-995162Y-1689100D02*
X-979922Y-1689100D01*
X-979922Y-1663700D02*
X-995162Y-1663700D01*
X-995162Y-1638300D02*
X-979922Y-1638300D01*
X-1211580Y-1812558D02*
X-1226820Y-1812558D01*
X-1226820Y-1787158D02*
X-1211580Y-1787158D01*
X-1211580Y-1761758D02*
X-1226820Y-1761758D01*
X-1226820Y-1736358D02*
X-1211580Y-1736358D01*
X-1211580Y-1710958D02*
X-1226820Y-1710958D01*
X-1226820Y-1685558D02*
X-1211580Y-1685558D01*
X-1211580Y-1660158D02*
X-1226820Y-1660158D01*
X-1226820Y-1634758D02*
X-1211580Y-1634758D01*
D13*
X-157222Y-1031240D03*
X-157222Y-1082040D03*
X-157480Y-920276D03*
X-157480Y-971076D03*
X-1371600Y-1765300D03*
X-1371600Y-1714500D03*
X-1371600Y-1651000D03*
X-1371600Y-1600200D03*
X-1374140Y-388620D03*
X-1374140Y-337820D03*
X-1374140Y-279400D03*
X-1374140Y-228600D03*
D14*
X-764540Y-398780D02*
X-731520Y-365760D01*
X-731520Y-152400D01*
X-731520Y-147320D01*
X-731520Y-152400D02*
X-759460Y-124460D01*
X-1059180Y-124460D01*
X-1129782Y-195062D01*
X-1236980Y-195062D01*
X-955040Y-459740D02*
X-894080Y-398780D01*
X-764540Y-398780D01*
X-982980Y-195062D02*
X-985520Y-195062D01*
X-939800Y-419100D02*
X-980440Y-459740D01*
X-939800Y-419100D02*
X-939800Y-218440D01*
X-963178Y-195062D01*
X-982980Y-195062D01*
X-985520Y-220462D02*
X-1012942Y-220462D01*
X-1196340Y-403860D01*
X-1196340Y-459740D01*
D15*
X-949960Y-256540D03*
X-904240Y-205740D03*
D14*
X-893562Y-195062D01*
X-774700Y-195062D01*
X-1005840Y-431800D02*
X-1005840Y-459740D01*
X-1005840Y-431800D02*
X-949960Y-375920D01*
X-949960Y-256540D01*
X-1056640Y-137160D02*
X-1188720Y-269240D01*
X-1056640Y-137160D02*
X-764540Y-137160D01*
X-744220Y-157480D01*
X-744220Y-208280D01*
X-756920Y-220980D01*
X-774182Y-220980D01*
X-774700Y-220462D01*
X-1188720Y-269240D02*
X-1188720Y-388337D01*
X-1221740Y-421357D01*
X-1221740Y-459740D01*
X-520700Y-388620D02*
X-474980Y-342900D01*
X-474980Y-223520D01*
X-505460Y-193040D01*
X-562356Y-193040D01*
X-520700Y-388620D02*
X-723900Y-388620D01*
X-990600Y-500380D02*
X-1031240Y-459740D01*
X-990600Y-500380D02*
X-906780Y-500380D01*
X-883920Y-477520D01*
X-883920Y-444500D01*
X-861060Y-421640D01*
X-756920Y-421640D01*
X-723900Y-388620D01*
X-1295400Y-378460D02*
X-1297940Y-375920D01*
X-1351280Y-322580D01*
X-1351280Y-152400D01*
X-1313180Y-114300D01*
X-678180Y-114300D01*
X-624840Y-167640D01*
X-624840Y-203200D01*
X-607060Y-220980D01*
X-564896Y-220980D01*
X-562356Y-218440D01*
X-1247140Y-426720D02*
X-1295400Y-378460D01*
X-1247140Y-426720D02*
X-1247140Y-459740D01*
X-462280Y-396240D02*
X-426720Y-360680D01*
X-426720Y-238760D01*
X-381000Y-193040D01*
X-342900Y-193040D01*
X-462280Y-396240D02*
X-721360Y-396240D01*
X-1008380Y-508000D02*
X-1056640Y-459740D01*
X-1008380Y-508000D02*
X-904240Y-508000D01*
X-858520Y-429260D02*
X-754380Y-429260D01*
X-721360Y-396240D01*
X-858520Y-429260D02*
X-878332Y-449072D01*
X-878332Y-482092D02*
X-904240Y-508000D01*
X-878332Y-482092D02*
X-878332Y-449072D01*
X-134620Y-162560D02*
X-134620Y-863600D01*
X-302260Y-218440D02*
X-342900Y-218440D01*
X-152400Y-144780D02*
X-134620Y-162560D01*
X-152400Y-144780D02*
X-228600Y-144780D01*
X-302260Y-218440D01*
X-723900Y-963200D02*
X-719106Y-967994D01*
X-239014Y-967994D02*
X-134620Y-863600D01*
X-239014Y-967994D02*
X-719106Y-967994D01*
X-838200Y-731520D02*
X-612394Y-505714D01*
X-612394Y-505174D01*
X-604806Y-497586D01*
X-604266Y-497586D01*
X-591820Y-485140D01*
X-838200Y-731520D02*
X-838200Y-939800D01*
X-814800Y-963200D01*
X-723900Y-963200D01*
X-748030Y-435610D02*
X-716280Y-403860D01*
X-309880Y-403860D01*
X-246380Y-340360D01*
X-246380Y-309880D01*
X-215900Y-279400D01*
X-187442Y-279400D01*
X-1028192Y-513588D02*
X-1082040Y-459740D01*
X-1028192Y-513588D02*
X-901925Y-513588D01*
X-856967Y-435610D02*
X-748030Y-435610D01*
X-856967Y-435610D02*
X-872744Y-451387D01*
X-872744Y-484407D02*
X-901925Y-513588D01*
X-872744Y-484407D02*
X-872744Y-451387D01*
X-527780Y-937260D02*
X-220980Y-937260D01*
X-144780Y-861060D01*
X-144780Y-337820D01*
X-177800Y-304800D01*
X-187442Y-304800D01*
X-690880Y-873760D02*
X-635254Y-929386D01*
X-535654Y-929386D02*
X-527780Y-937260D01*
X-535654Y-929386D02*
X-635254Y-929386D01*
X-690880Y-873760D02*
X-690880Y-601980D01*
X-599440Y-510540D01*
X-312420Y-411480D02*
X-228600Y-495300D01*
X-187442Y-495300D01*
X-312420Y-411480D02*
X-715997Y-411480D01*
X-745715Y-441198D01*
X-1059180Y-520700D02*
X-1120140Y-459740D01*
X-1059180Y-520700D02*
X-901135Y-520700D01*
X-854653Y-441198D02*
X-745715Y-441198D01*
X-854653Y-441198D02*
X-867156Y-453701D01*
X-867156Y-486721D02*
X-901135Y-520700D01*
X-867156Y-486721D02*
X-867156Y-453701D01*
X-223520Y-927100D02*
X-152400Y-855980D01*
X-152400Y-535940D01*
X-167640Y-520700D01*
X-187442Y-520700D01*
X-533340Y-923798D02*
X-530038Y-927100D01*
X-632939Y-923798D02*
X-680720Y-876017D01*
X-632939Y-923798D02*
X-533340Y-923798D01*
X-530038Y-927100D02*
X-223520Y-927100D01*
X-680720Y-876017D02*
X-680720Y-665480D01*
X-680720Y-662400D01*
X-680720Y-617220D01*
X-599440Y-535940D01*
X-317500Y-419100D02*
X-241300Y-495300D01*
X-241300Y-685800D01*
X-215900Y-711200D01*
X-187442Y-711200D01*
X-317500Y-419100D02*
X-614680Y-419100D01*
X-1078992Y-526288D02*
X-1145540Y-459740D01*
X-1078992Y-526288D02*
X-721868Y-526288D01*
X-614680Y-419100D01*
X-256540Y-736600D02*
X-187442Y-736600D01*
X-668020Y-629920D02*
X-668020Y-876300D01*
X-441960Y-917194D02*
X-439674Y-917194D01*
X-441960Y-917194D02*
X-627126Y-917194D01*
X-668020Y-876300D01*
X-668020Y-629920D02*
X-599440Y-561340D01*
X-256540Y-736600D02*
X-437134Y-917194D01*
X-439674Y-917194D01*
X-1308100Y-388620D02*
X-1374140Y-388620D01*
X-1308100Y-388620D02*
X-1270000Y-426720D01*
X-1270000Y-457200D01*
X-1272540Y-459740D01*
X-1402080Y-563880D02*
X-1402080Y-256540D01*
X-1374140Y-228600D01*
X-574040Y-485140D02*
X-533400Y-485140D01*
X-523240Y-474980D01*
X-523240Y-449580D01*
X-533400Y-439420D01*
X-614680Y-439420D01*
X-695960Y-520700D01*
X-695960Y-571500D01*
X-744220Y-619760D01*
X-1346200Y-619760D01*
X-1402080Y-563880D01*
X-1343660Y-607060D02*
X-741680Y-607060D01*
X-1374140Y-337820D02*
X-1391920Y-355600D01*
X-741680Y-607060D02*
X-706120Y-571500D01*
X-1391920Y-558800D02*
X-1391920Y-355600D01*
X-1391920Y-558800D02*
X-1343660Y-607060D01*
X-574040Y-510540D02*
X-520700Y-510540D01*
X-510540Y-500380D01*
X-510540Y-439420D01*
X-523240Y-426720D01*
X-706120Y-518443D02*
X-706120Y-571500D01*
X-706120Y-518443D02*
X-614397Y-426720D01*
X-523240Y-426720D01*
X-1308100Y-1587500D02*
X-1371600Y-1651000D01*
X-1308100Y-1587500D02*
X-1308100Y-1541780D01*
X-1262380Y-1496060D01*
X-1162618Y-1496060D01*
X-1131316Y-1527362D01*
X-1371600Y-1470660D02*
X-1173480Y-1272540D01*
X-1371600Y-1470660D02*
X-1371600Y-1600200D01*
X-1173480Y-1272540D02*
X-858520Y-1272540D01*
X-572516Y-1070162D02*
X-552002Y-1070162D01*
X-538480Y-1056640D01*
X-538480Y-1043940D01*
X-550612Y-1031808D01*
X-612708Y-1031808D01*
X-685800Y-1104900D01*
X-688340Y-1107440D01*
X-853440Y-1272540D01*
X-858520Y-1272540D01*
X-1183640Y-1259840D02*
X-1391920Y-1468120D01*
X-1391920Y-1701800D01*
X-1379220Y-1714500D01*
X-1371600Y-1714500D01*
X-572516Y-1095562D02*
X-541842Y-1095562D01*
X-523240Y-1076960D01*
X-523240Y-1049020D01*
X-546100Y-1026160D01*
X-624840Y-1026160D01*
X-858520Y-1259840D01*
X-1183640Y-1259840D01*
X-1224280Y-1572260D02*
X-1272540Y-1620520D01*
X-1272540Y-1717040D01*
X-1259840Y-1729740D01*
X-1259840Y-1826260D01*
X-1221740Y-1864360D01*
X-1071880Y-1864360D01*
X-1038860Y-1831340D01*
X-1038860Y-1709420D01*
X-1018540Y-1689100D01*
X-987542Y-1689100D01*
X-863600Y-1572260D02*
X-1224280Y-1572260D01*
X-863600Y-1572260D02*
X-830580Y-1539240D01*
X-830580Y-1353626D01*
X-597916Y-1120962D01*
X-1229360Y-1562100D02*
X-1336040Y-1668780D01*
X-1336040Y-1844040D01*
X-1305560Y-1874520D01*
X-947420Y-1874520D01*
X-822960Y-1750060D01*
X-822960Y-1714500D01*
X-799098Y-1690638D01*
X-753862Y-1690638D01*
X-1087120Y-1562100D02*
X-1229360Y-1562100D01*
X-1087120Y-1562100D02*
X-1076960Y-1562100D01*
X-1049020Y-1534160D01*
X-1049020Y-1508760D01*
X-635822Y-1095562D01*
X-597916Y-1095562D01*
X-1346200Y-1663700D02*
X-1346200Y-1849120D01*
X-1310640Y-1884680D01*
X-723900Y-1884680D01*
X-576580Y-1737360D01*
X-576580Y-1709420D01*
X-556260Y-1689100D01*
X-525262Y-1689100D01*
X-1238056Y-1555556D02*
X-1346200Y-1663700D01*
X-1238056Y-1555556D02*
X-1080576Y-1555556D01*
X-633282Y-1070162D02*
X-597916Y-1070162D01*
X-633282Y-1070162D02*
X-1059180Y-1496060D01*
X-1059180Y-1534160D01*
X-1080576Y-1555556D01*
X-827726Y-1005332D02*
X-822960Y-1005332D01*
X-347970Y-1005332D01*
X-184902Y-1168400D01*
X-827726Y-1005332D02*
X-914086Y-1005332D01*
X-953516Y-1044762D01*
X-375920Y-1010920D02*
X-223520Y-1163320D01*
X-223520Y-1366520D01*
X-203200Y-1386840D01*
X-187442Y-1386840D01*
X-184902Y-1384300D01*
X-954338Y-1069340D02*
X-978916Y-1044762D01*
X-954338Y-1069340D02*
X-904523Y-1069340D01*
X-846103Y-1010920D01*
X-375920Y-1010920D01*
X-231140Y-1168400D02*
X-231140Y-1569720D01*
X-200660Y-1600200D01*
X-184902Y-1600200D01*
X-180340Y-1600200D01*
X-231140Y-1168400D02*
X-381448Y-1018092D01*
X-515620Y-1018092D02*
X-519011Y-1018092D01*
X-515620Y-1018092D02*
X-381448Y-1018092D01*
X-519011Y-1018092D02*
X-845372Y-1018092D01*
X-904240Y-1076960D01*
X-972118Y-1076960D01*
X-1004316Y-1044762D01*
X-1120334Y-995680D02*
X-304800Y-995680D01*
X-139700Y-1160780D01*
X-139700Y-1181100D01*
X-152400Y-1193800D01*
X-184902Y-1193800D01*
X-1120334Y-995680D02*
X-1169416Y-1044762D01*
X-1049214Y-985520D02*
X-1041400Y-985520D01*
X-304800Y-985520D01*
X-132080Y-1158240D01*
X-132080Y-1384300D01*
X-157480Y-1409700D01*
X-184902Y-1409700D01*
X-1049214Y-985520D02*
X-1135574Y-985520D01*
X-1194816Y-1044762D01*
X-119380Y-1155700D02*
X-119380Y-1595120D01*
X-149860Y-1625600D01*
X-184902Y-1625600D01*
X-119380Y-1155700D02*
X-295910Y-979170D01*
X-1064260Y-979170D02*
X-1068264Y-979170D01*
X-1064260Y-979170D02*
X-295910Y-979170D01*
X-1068264Y-979170D02*
X-1154624Y-979170D01*
X-1220216Y-1044762D01*
X-109220Y-1153160D02*
X-109220Y-1826260D01*
X-170180Y-1887220D01*
X-241300Y-1887220D01*
X-269240Y-1859280D01*
X-269240Y-1709420D01*
X-288664Y-1689996D01*
X-324602Y-1689996D01*
X-109220Y-1153160D02*
X-288798Y-973582D01*
X-1076960Y-973582D02*
X-1088076Y-973582D01*
X-1076960Y-973582D02*
X-288798Y-973582D01*
X-1088076Y-973582D02*
X-1174436Y-973582D01*
X-1245616Y-1044762D01*
X-342078Y-1273362D02*
X-289560Y-1325880D01*
X-289560Y-1539240D01*
X-388620Y-1638300D01*
X-525262Y-1638300D01*
X-572516Y-1273362D02*
X-342078Y-1273362D01*
X-339090Y-1304290D02*
X-304800Y-1338580D01*
X-304800Y-1521460D01*
X-393700Y-1610360D01*
X-724384Y-1610360D01*
X-753862Y-1639838D01*
X-572516Y-1298762D02*
X-344618Y-1298762D01*
X-339090Y-1304290D01*
X-346710Y-1329690D02*
X-325120Y-1351280D01*
X-325120Y-1511300D01*
X-411480Y-1597660D01*
X-749300Y-1597660D01*
X-789940Y-1638300D01*
X-987542Y-1638300D01*
X-572516Y-1324162D02*
X-352238Y-1324162D01*
X-346710Y-1329690D01*
X-359410Y-1350010D02*
X-342900Y-1366520D01*
X-342900Y-1508760D01*
X-1211580Y-1635760D02*
X-1218198Y-1635760D01*
X-1219200Y-1634758D01*
X-1211580Y-1635760D02*
X-1163828Y-1588008D01*
X-422148Y-1588008D02*
X-342900Y-1508760D01*
X-422148Y-1588008D02*
X-1163828Y-1588008D01*
X-572516Y-1349562D02*
X-359858Y-1349562D01*
X-359410Y-1350010D01*
X-858520Y-1582420D02*
X-1214120Y-1582420D01*
X-1257300Y-1625600D01*
X-1257300Y-1666240D01*
X-1237982Y-1685558D01*
X-1219200Y-1685558D01*
X-858520Y-1582420D02*
X-820420Y-1544320D01*
X-820420Y-1368866D01*
X-597916Y-1146362D01*
M02*
