G04 EAGLE Gerber RS-274X export*
G75*
%MOMM*%
%FSLAX34Y34*%
%LPD*%
%INTop Copper*%
%IPPOS*%
%AMOC8*
5,1,8,0,0,1.08239X$1,22.5*%
G01*
G04 Define Apertures*
%ADD10R,1.108000X1.108000*%
%ADD11C,1.108000*%
%ADD12C,1.524000*%
%ADD13C,1.430000*%
%ADD14P,1.64956X8X22.5*%
%ADD15C,1.581000*%
%ADD16C,0.508000*%
%ADD17C,0.756400*%
G36*
X200149Y180937D02*
X200000Y180922D01*
X-200000Y180922D01*
X-200149Y180937D01*
X-207158Y182331D01*
X-207433Y182445D01*
X-213375Y186415D01*
X-213585Y186625D01*
X-217555Y192567D01*
X-217669Y192842D01*
X-219063Y199851D01*
X-219078Y200000D01*
X-219078Y893112D01*
X-219031Y893375D01*
X-218872Y893633D01*
X-218624Y893809D01*
X-218328Y893874D01*
X-218030Y893818D01*
X-217777Y893651D01*
X-217213Y893087D01*
X-213479Y891540D01*
X-194197Y891540D01*
X-190463Y893087D01*
X-187605Y895945D01*
X-187520Y896150D01*
X-187363Y896388D01*
X-187113Y896560D01*
X-186816Y896620D01*
X-167520Y896620D01*
X-167234Y896564D01*
X-166981Y896397D01*
X-154353Y883769D01*
X-154190Y883527D01*
X-154130Y883230D01*
X-154130Y881043D01*
X-152900Y878073D01*
X-150627Y875800D01*
X-147657Y874570D01*
X-144443Y874570D01*
X-141473Y875800D01*
X-139200Y878073D01*
X-137970Y881043D01*
X-137970Y884257D01*
X-139200Y887227D01*
X-141473Y889500D01*
X-144443Y890730D01*
X-146630Y890730D01*
X-146916Y890786D01*
X-147169Y890953D01*
X-162996Y906780D01*
X-186816Y906780D01*
X-187096Y906833D01*
X-187351Y906999D01*
X-187520Y907250D01*
X-187605Y907455D01*
X-190463Y910313D01*
X-194197Y911860D01*
X-213479Y911860D01*
X-217213Y910313D01*
X-217777Y909749D01*
X-217997Y909596D01*
X-218292Y909526D01*
X-218591Y909577D01*
X-218846Y909741D01*
X-219018Y909991D01*
X-219078Y910288D01*
X-219078Y918512D01*
X-219031Y918775D01*
X-218872Y919033D01*
X-218624Y919209D01*
X-218328Y919274D01*
X-218030Y919218D01*
X-217777Y919051D01*
X-217213Y918487D01*
X-213479Y916940D01*
X-194197Y916940D01*
X-190463Y918487D01*
X-187605Y921345D01*
X-187520Y921550D01*
X-187363Y921788D01*
X-187113Y921960D01*
X-186816Y922020D01*
X-150296Y922020D01*
X-147169Y925147D01*
X-146927Y925310D01*
X-146630Y925370D01*
X-144443Y925370D01*
X-141473Y926600D01*
X-139200Y928873D01*
X-137970Y931843D01*
X-137970Y935057D01*
X-139200Y938027D01*
X-141473Y940300D01*
X-144443Y941530D01*
X-147657Y941530D01*
X-150627Y940300D01*
X-152900Y938027D01*
X-154130Y935057D01*
X-154130Y932942D01*
X-154181Y932667D01*
X-154345Y932412D01*
X-154595Y932240D01*
X-154892Y932180D01*
X-186816Y932180D01*
X-187096Y932233D01*
X-187351Y932399D01*
X-187520Y932650D01*
X-187605Y932855D01*
X-190463Y935713D01*
X-194197Y937260D01*
X-213479Y937260D01*
X-217213Y935713D01*
X-217777Y935149D01*
X-217997Y934996D01*
X-218292Y934926D01*
X-218591Y934977D01*
X-218846Y935141D01*
X-219018Y935391D01*
X-219078Y935688D01*
X-219078Y980315D01*
X-219005Y980640D01*
X-218824Y980883D01*
X-218562Y981036D01*
X-218262Y981075D01*
X-217970Y980994D01*
X-217732Y980805D01*
X-216919Y979836D01*
X-209003Y975266D01*
X-200000Y973678D01*
X-190997Y975266D01*
X-183081Y979836D01*
X-177205Y986839D01*
X-174078Y995429D01*
X-174078Y1004571D01*
X-177205Y1013161D01*
X-181119Y1017826D01*
X-181227Y1017997D01*
X-181297Y1018292D01*
X-181246Y1018591D01*
X-181083Y1018846D01*
X-180833Y1019018D01*
X-180535Y1019078D01*
X-84250Y1019078D01*
X-83987Y1019031D01*
X-83729Y1018872D01*
X-83553Y1018624D01*
X-83488Y1018328D01*
X-83544Y1018030D01*
X-83711Y1017777D01*
X-84813Y1016675D01*
X-86360Y1012941D01*
X-86360Y993659D01*
X-84813Y989925D01*
X-81955Y987067D01*
X-81750Y986982D01*
X-81512Y986825D01*
X-81340Y986575D01*
X-81280Y986278D01*
X-81280Y967620D01*
X-81336Y967334D01*
X-81503Y967081D01*
X-132080Y916504D01*
X-132080Y764420D01*
X-132136Y764134D01*
X-132303Y763881D01*
X-189230Y706954D01*
X-189230Y583746D01*
X-187681Y582196D01*
X-187520Y581960D01*
X-187457Y581664D01*
X-187490Y581497D01*
X-187490Y577573D01*
X-186015Y574011D01*
X-183289Y571285D01*
X-179727Y569810D01*
X-175873Y569810D01*
X-172311Y571285D01*
X-169585Y574011D01*
X-168110Y577573D01*
X-168110Y581427D01*
X-169585Y584989D01*
X-172311Y587715D01*
X-175873Y589190D01*
X-178308Y589190D01*
X-178583Y589241D01*
X-178838Y589405D01*
X-179010Y589655D01*
X-179070Y589952D01*
X-179070Y702430D01*
X-179014Y702716D01*
X-178847Y702969D01*
X-121920Y759896D01*
X-121920Y911980D01*
X-121864Y912266D01*
X-121697Y912519D01*
X-120681Y913535D01*
X-120461Y913688D01*
X-120166Y913758D01*
X-119867Y913707D01*
X-119612Y913544D01*
X-119440Y913293D01*
X-119380Y912996D01*
X-119380Y707270D01*
X-119436Y706984D01*
X-119603Y706731D01*
X-138581Y687753D01*
X-138823Y687590D01*
X-139120Y687530D01*
X-146292Y687530D01*
X-147780Y686042D01*
X-147780Y672858D01*
X-146292Y671370D01*
X-133108Y671370D01*
X-131620Y672858D01*
X-131620Y680030D01*
X-131564Y680316D01*
X-131397Y680569D01*
X-109220Y702746D01*
X-109220Y785996D01*
X-109173Y786259D01*
X-109014Y786518D01*
X-108766Y786693D01*
X-108470Y786758D01*
X-108172Y786702D01*
X-107919Y786535D01*
X-94203Y772819D01*
X-94040Y772577D01*
X-93980Y772280D01*
X-93980Y747196D01*
X-43403Y696619D01*
X-43240Y696377D01*
X-43180Y696080D01*
X-43180Y633382D01*
X-43236Y633096D01*
X-43403Y632843D01*
X-62381Y613865D01*
X-62623Y613702D01*
X-62920Y613642D01*
X-65107Y613642D01*
X-68077Y612412D01*
X-70350Y610139D01*
X-71580Y607169D01*
X-71580Y603955D01*
X-70350Y600985D01*
X-68077Y598712D01*
X-65107Y597482D01*
X-61893Y597482D01*
X-58923Y598712D01*
X-56650Y600985D01*
X-55420Y603955D01*
X-55420Y606142D01*
X-55364Y606428D01*
X-55197Y606681D01*
X-33020Y628858D01*
X-33020Y699008D01*
X-32969Y699283D01*
X-32805Y699538D01*
X-32555Y699710D01*
X-32258Y699770D01*
X48380Y699770D01*
X48666Y699714D01*
X48919Y699547D01*
X58197Y690269D01*
X58360Y690027D01*
X58420Y689730D01*
X58420Y688292D01*
X58369Y688017D01*
X58205Y687762D01*
X57955Y687590D01*
X57658Y687530D01*
X56908Y687530D01*
X55420Y686042D01*
X55420Y672858D01*
X56908Y671370D01*
X70092Y671370D01*
X71580Y672858D01*
X71580Y686042D01*
X70092Y687530D01*
X69342Y687530D01*
X69067Y687581D01*
X68812Y687745D01*
X68640Y687995D01*
X68580Y688292D01*
X68580Y694254D01*
X52904Y709930D01*
X-32691Y709930D01*
X-32977Y709986D01*
X-33229Y710153D01*
X-76993Y753917D01*
X-77156Y754158D01*
X-77216Y754455D01*
X-77216Y934645D01*
X-77160Y934931D01*
X-76993Y935183D01*
X-58629Y953547D01*
X-58388Y953710D01*
X-58091Y953770D01*
X-45854Y953770D01*
X-45591Y953723D01*
X-45332Y953564D01*
X-45157Y953316D01*
X-45092Y953020D01*
X-45148Y952722D01*
X-45315Y952469D01*
X-56031Y941753D01*
X-56273Y941590D01*
X-56570Y941530D01*
X-58757Y941530D01*
X-61727Y940300D01*
X-64000Y938027D01*
X-65230Y935057D01*
X-65230Y931843D01*
X-64000Y928873D01*
X-61727Y926600D01*
X-58757Y925370D01*
X-55543Y925370D01*
X-52573Y926600D01*
X-50300Y928873D01*
X-49070Y931843D01*
X-49070Y934030D01*
X-49014Y934316D01*
X-48847Y934569D01*
X-36473Y946943D01*
X-36231Y947106D01*
X-35934Y947166D01*
X-26910Y947166D01*
X-7829Y966247D01*
X-7588Y966410D01*
X-7291Y966470D01*
X91004Y966470D01*
X106680Y982146D01*
X106680Y986278D01*
X106733Y986558D01*
X106899Y986813D01*
X107150Y986982D01*
X107355Y987067D01*
X108463Y988175D01*
X108694Y988333D01*
X108990Y988398D01*
X109288Y988342D01*
X109541Y988175D01*
X140747Y956969D01*
X140910Y956727D01*
X140970Y956430D01*
X140970Y940112D01*
X140914Y939827D01*
X140747Y939574D01*
X139200Y938027D01*
X137970Y935057D01*
X137970Y931843D01*
X139200Y928873D01*
X141473Y926600D01*
X144443Y925370D01*
X147657Y925370D01*
X150627Y926600D01*
X152900Y928873D01*
X154130Y931843D01*
X154130Y935057D01*
X152900Y938027D01*
X151353Y939574D01*
X151190Y939815D01*
X151130Y940112D01*
X151130Y960954D01*
X111983Y1000101D01*
X111820Y1000343D01*
X111760Y1000640D01*
X111760Y1012941D01*
X110213Y1016675D01*
X109111Y1017777D01*
X108958Y1017997D01*
X108888Y1018292D01*
X108939Y1018591D01*
X109103Y1018846D01*
X109353Y1019018D01*
X109650Y1019078D01*
X180535Y1019078D01*
X180735Y1019051D01*
X181006Y1018915D01*
X181203Y1018684D01*
X181293Y1018395D01*
X181264Y1018093D01*
X181119Y1017826D01*
X177205Y1013161D01*
X174078Y1004571D01*
X174078Y995429D01*
X177205Y986839D01*
X183081Y979836D01*
X190997Y975266D01*
X200000Y973678D01*
X209003Y975266D01*
X216919Y979836D01*
X217732Y980805D01*
X217997Y981007D01*
X218292Y981077D01*
X218591Y981026D01*
X218846Y980863D01*
X219018Y980612D01*
X219078Y980315D01*
X219078Y935688D01*
X219031Y935425D01*
X218872Y935167D01*
X218624Y934991D01*
X218328Y934926D01*
X218030Y934982D01*
X217777Y935149D01*
X217213Y935713D01*
X213479Y937260D01*
X194197Y937260D01*
X190463Y935713D01*
X187605Y932855D01*
X187520Y932650D01*
X187363Y932412D01*
X187113Y932240D01*
X186816Y932180D01*
X176578Y932180D01*
X160847Y916449D01*
X160606Y916286D01*
X160308Y916226D01*
X81874Y916226D01*
X81588Y916282D01*
X81335Y916449D01*
X65453Y932331D01*
X65290Y932573D01*
X65230Y932870D01*
X65230Y935057D01*
X64000Y938027D01*
X61727Y940300D01*
X58757Y941530D01*
X55543Y941530D01*
X52573Y940300D01*
X50300Y938027D01*
X49070Y935057D01*
X49070Y931843D01*
X50300Y928873D01*
X52573Y926600D01*
X55543Y925370D01*
X57730Y925370D01*
X58016Y925314D01*
X58269Y925147D01*
X75335Y908081D01*
X75488Y907861D01*
X75558Y907566D01*
X75507Y907267D01*
X75344Y907012D01*
X75093Y906840D01*
X74796Y906780D01*
X74096Y906780D01*
X58269Y890953D01*
X58027Y890790D01*
X57730Y890730D01*
X55543Y890730D01*
X52573Y889500D01*
X50300Y887227D01*
X49070Y884257D01*
X49070Y881043D01*
X50300Y878073D01*
X52573Y875800D01*
X55543Y874570D01*
X58757Y874570D01*
X61727Y875800D01*
X64000Y878073D01*
X65230Y881043D01*
X65230Y883230D01*
X65286Y883516D01*
X65453Y883769D01*
X78081Y896397D01*
X78323Y896560D01*
X78620Y896620D01*
X186816Y896620D01*
X187096Y896567D01*
X187351Y896401D01*
X187520Y896150D01*
X187605Y895945D01*
X190463Y893087D01*
X194197Y891540D01*
X213479Y891540D01*
X217213Y893087D01*
X217777Y893651D01*
X217997Y893804D01*
X218292Y893874D01*
X218591Y893823D01*
X218846Y893659D01*
X219018Y893409D01*
X219078Y893112D01*
X219078Y200000D01*
X219063Y199851D01*
X217669Y192842D01*
X217555Y192567D01*
X213585Y186625D01*
X213375Y186415D01*
X207433Y182445D01*
X207158Y182331D01*
X200149Y180937D01*
G37*
%LPC*%
G36*
X144443Y874570D02*
X147657Y874570D01*
X150627Y875800D01*
X152900Y878073D01*
X154130Y881043D01*
X154130Y884257D01*
X152900Y887227D01*
X150627Y889500D01*
X147657Y890730D01*
X144443Y890730D01*
X141473Y889500D01*
X139200Y887227D01*
X137970Y884257D01*
X137970Y881043D01*
X139200Y878073D01*
X141473Y875800D01*
X144443Y874570D01*
G37*
G36*
X-58757Y874570D02*
X-55543Y874570D01*
X-52573Y875800D01*
X-50300Y878073D01*
X-49070Y881043D01*
X-49070Y884257D01*
X-50300Y887227D01*
X-52573Y889500D01*
X-55543Y890730D01*
X-58757Y890730D01*
X-61727Y889500D01*
X-64000Y887227D01*
X-65230Y884257D01*
X-65230Y881043D01*
X-64000Y878073D01*
X-61727Y875800D01*
X-58757Y874570D01*
G37*
G36*
X133108Y671370D02*
X146292Y671370D01*
X147780Y672858D01*
X147780Y686042D01*
X146292Y687530D01*
X133108Y687530D01*
X131620Y686042D01*
X131620Y672858D01*
X133108Y671370D01*
G37*
G36*
X106220Y680212D02*
X113538Y680212D01*
X113538Y687530D01*
X107708Y687530D01*
X106220Y686042D01*
X106220Y680212D01*
G37*
G36*
X82308Y671370D02*
X95492Y671370D01*
X96980Y672858D01*
X96980Y686042D01*
X95492Y687530D01*
X82308Y687530D01*
X80820Y686042D01*
X80820Y672858D01*
X82308Y671370D01*
G37*
G36*
X-70092Y671370D02*
X-56908Y671370D01*
X-55420Y672858D01*
X-55420Y686042D01*
X-56908Y687530D01*
X-70092Y687530D01*
X-71580Y686042D01*
X-71580Y672858D01*
X-70092Y671370D01*
G37*
G36*
X-96980Y680212D02*
X-89662Y680212D01*
X-89662Y687530D01*
X-95492Y687530D01*
X-96980Y686042D01*
X-96980Y680212D01*
G37*
G36*
X-120892Y671370D02*
X-107708Y671370D01*
X-106220Y672858D01*
X-106220Y686042D01*
X-107708Y687530D01*
X-120892Y687530D01*
X-122380Y686042D01*
X-122380Y672858D01*
X-120892Y671370D01*
G37*
G36*
X-88138Y680212D02*
X-80820Y680212D01*
X-80820Y686042D01*
X-82308Y687530D01*
X-88138Y687530D01*
X-88138Y680212D01*
G37*
G36*
X115062Y680212D02*
X122380Y680212D01*
X122380Y686042D01*
X120892Y687530D01*
X115062Y687530D01*
X115062Y680212D01*
G37*
G36*
X115062Y671370D02*
X120892Y671370D01*
X122380Y672858D01*
X122380Y678688D01*
X115062Y678688D01*
X115062Y671370D01*
G37*
G36*
X107708Y671370D02*
X113538Y671370D01*
X113538Y678688D01*
X106220Y678688D01*
X106220Y672858D01*
X107708Y671370D01*
G37*
G36*
X-88138Y671370D02*
X-82308Y671370D01*
X-80820Y672858D01*
X-80820Y678688D01*
X-88138Y678688D01*
X-88138Y671370D01*
G37*
G36*
X-95492Y671370D02*
X-89662Y671370D01*
X-89662Y678688D01*
X-96980Y678688D01*
X-96980Y672858D01*
X-95492Y671370D01*
G37*
G36*
X-77807Y645970D02*
X-74593Y645970D01*
X-71623Y647200D01*
X-69350Y649473D01*
X-68120Y652443D01*
X-68120Y655657D01*
X-69350Y658627D01*
X-71623Y660900D01*
X-74593Y662130D01*
X-77807Y662130D01*
X-80777Y660900D01*
X-83050Y658627D01*
X-84280Y655657D01*
X-84280Y652443D01*
X-83050Y649473D01*
X-80777Y647200D01*
X-77807Y645970D01*
G37*
G36*
X-128607Y645970D02*
X-125393Y645970D01*
X-122423Y647200D01*
X-120150Y649473D01*
X-118920Y652443D01*
X-118920Y655657D01*
X-120150Y658627D01*
X-122423Y660900D01*
X-125393Y662130D01*
X-128607Y662130D01*
X-131577Y660900D01*
X-133850Y658627D01*
X-135080Y655657D01*
X-135080Y652443D01*
X-133850Y649473D01*
X-131577Y647200D01*
X-128607Y645970D01*
G37*
G36*
X125393Y645970D02*
X128607Y645970D01*
X131577Y647200D01*
X133850Y649473D01*
X135080Y652443D01*
X135080Y655657D01*
X133850Y658627D01*
X131577Y660900D01*
X128607Y662130D01*
X125393Y662130D01*
X122423Y660900D01*
X120150Y658627D01*
X118920Y655657D01*
X118920Y652443D01*
X120150Y649473D01*
X122423Y647200D01*
X125393Y645970D01*
G37*
G36*
X74593Y645970D02*
X77807Y645970D01*
X80777Y647200D01*
X83050Y649473D01*
X84280Y652443D01*
X84280Y655657D01*
X83050Y658627D01*
X80777Y660900D01*
X77807Y662130D01*
X74593Y662130D01*
X71623Y660900D01*
X69350Y658627D01*
X68120Y655657D01*
X68120Y652443D01*
X69350Y649473D01*
X71623Y647200D01*
X74593Y645970D01*
G37*
G36*
X131620Y606324D02*
X138938Y606324D01*
X138938Y613642D01*
X138093Y613642D01*
X135123Y612412D01*
X132850Y610139D01*
X131620Y607169D01*
X131620Y606324D01*
G37*
G36*
X112693Y597482D02*
X115907Y597482D01*
X118877Y598712D01*
X121150Y600985D01*
X122380Y603955D01*
X122380Y607169D01*
X121150Y610139D01*
X118877Y612412D01*
X115907Y613642D01*
X112693Y613642D01*
X109723Y612412D01*
X107450Y610139D01*
X106220Y607169D01*
X106220Y603955D01*
X107450Y600985D01*
X109723Y598712D01*
X112693Y597482D01*
G37*
G36*
X87293Y597482D02*
X90507Y597482D01*
X93477Y598712D01*
X95750Y600985D01*
X96980Y603955D01*
X96980Y607169D01*
X95750Y610139D01*
X93477Y612412D01*
X90507Y613642D01*
X87293Y613642D01*
X84323Y612412D01*
X82050Y610139D01*
X80820Y607169D01*
X80820Y603955D01*
X82050Y600985D01*
X84323Y598712D01*
X87293Y597482D01*
G37*
G36*
X61893Y597482D02*
X65107Y597482D01*
X68077Y598712D01*
X70350Y600985D01*
X71580Y603955D01*
X71580Y607169D01*
X70350Y610139D01*
X68077Y612412D01*
X65107Y613642D01*
X61893Y613642D01*
X58923Y612412D01*
X56650Y610139D01*
X55420Y607169D01*
X55420Y603955D01*
X56650Y600985D01*
X58923Y598712D01*
X61893Y597482D01*
G37*
G36*
X36493Y597482D02*
X39707Y597482D01*
X42677Y598712D01*
X44950Y600985D01*
X46180Y603955D01*
X46180Y607169D01*
X44950Y610139D01*
X42677Y612412D01*
X39707Y613642D01*
X36493Y613642D01*
X33523Y612412D01*
X31250Y610139D01*
X30020Y607169D01*
X30020Y603955D01*
X31250Y600985D01*
X33523Y598712D01*
X36493Y597482D01*
G37*
G36*
X11093Y597482D02*
X14307Y597482D01*
X17277Y598712D01*
X19550Y600985D01*
X20780Y603955D01*
X20780Y607169D01*
X19550Y610139D01*
X17277Y612412D01*
X14307Y613642D01*
X11093Y613642D01*
X8123Y612412D01*
X5850Y610139D01*
X4620Y607169D01*
X4620Y603955D01*
X5850Y600985D01*
X8123Y598712D01*
X11093Y597482D01*
G37*
G36*
X-14307Y597482D02*
X-11093Y597482D01*
X-8123Y598712D01*
X-5850Y600985D01*
X-4620Y603955D01*
X-4620Y607169D01*
X-5850Y610139D01*
X-8123Y612412D01*
X-11093Y613642D01*
X-14307Y613642D01*
X-17277Y612412D01*
X-19550Y610139D01*
X-20780Y607169D01*
X-20780Y603955D01*
X-19550Y600985D01*
X-17277Y598712D01*
X-14307Y597482D01*
G37*
G36*
X-39707Y597482D02*
X-36493Y597482D01*
X-33523Y598712D01*
X-31250Y600985D01*
X-30020Y603955D01*
X-30020Y607169D01*
X-31250Y610139D01*
X-33523Y612412D01*
X-36493Y613642D01*
X-39707Y613642D01*
X-42677Y612412D01*
X-44950Y610139D01*
X-46180Y607169D01*
X-46180Y603955D01*
X-44950Y600985D01*
X-42677Y598712D01*
X-39707Y597482D01*
G37*
G36*
X-90507Y597482D02*
X-87293Y597482D01*
X-84323Y598712D01*
X-82050Y600985D01*
X-80820Y603955D01*
X-80820Y607169D01*
X-82050Y610139D01*
X-84323Y612412D01*
X-87293Y613642D01*
X-90507Y613642D01*
X-93477Y612412D01*
X-95750Y610139D01*
X-96980Y607169D01*
X-96980Y603955D01*
X-95750Y600985D01*
X-93477Y598712D01*
X-90507Y597482D01*
G37*
G36*
X188893Y597482D02*
X192107Y597482D01*
X195077Y598712D01*
X197350Y600985D01*
X198580Y603955D01*
X198580Y607169D01*
X197350Y610139D01*
X195077Y612412D01*
X192107Y613642D01*
X188893Y613642D01*
X185923Y612412D01*
X183650Y610139D01*
X182420Y607169D01*
X182420Y603955D01*
X183650Y600985D01*
X185923Y598712D01*
X188893Y597482D01*
G37*
G36*
X163493Y597482D02*
X166707Y597482D01*
X169677Y598712D01*
X171950Y600985D01*
X173180Y603955D01*
X173180Y607169D01*
X171950Y610139D01*
X169677Y612412D01*
X166707Y613642D01*
X163493Y613642D01*
X160523Y612412D01*
X158250Y610139D01*
X157020Y607169D01*
X157020Y603955D01*
X158250Y600985D01*
X160523Y598712D01*
X163493Y597482D01*
G37*
G36*
X140462Y606324D02*
X147780Y606324D01*
X147780Y607169D01*
X146550Y610139D01*
X144277Y612412D01*
X141307Y613642D01*
X140462Y613642D01*
X140462Y606324D01*
G37*
G36*
X140462Y597482D02*
X141307Y597482D01*
X144277Y598712D01*
X146550Y600985D01*
X147780Y603955D01*
X147780Y604800D01*
X140462Y604800D01*
X140462Y597482D01*
G37*
G36*
X138093Y597482D02*
X138938Y597482D01*
X138938Y604800D01*
X131620Y604800D01*
X131620Y603955D01*
X132850Y600985D01*
X135123Y598712D01*
X138093Y597482D01*
G37*
G36*
X-135454Y287020D02*
X2104Y287020D01*
X16397Y301313D01*
X16645Y301478D01*
X18617Y302295D01*
X21555Y305233D01*
X23145Y309072D01*
X23145Y313228D01*
X21555Y317067D01*
X18617Y320005D01*
X14778Y321595D01*
X10622Y321595D01*
X6783Y320005D01*
X3845Y317067D01*
X2255Y313228D01*
X2255Y309072D01*
X3845Y305233D01*
X4358Y304720D01*
X4516Y304490D01*
X4581Y304194D01*
X4526Y303895D01*
X4358Y303643D01*
X-1881Y297403D01*
X-2123Y297240D01*
X-2420Y297180D01*
X-130930Y297180D01*
X-131216Y297236D01*
X-131469Y297403D01*
X-172497Y338431D01*
X-172660Y338673D01*
X-172720Y338970D01*
X-172720Y453007D01*
X-172667Y453287D01*
X-172501Y453541D01*
X-172360Y453636D01*
X-169585Y456411D01*
X-168110Y459973D01*
X-168110Y463827D01*
X-169585Y467389D01*
X-172311Y470115D01*
X-175873Y471590D01*
X-179727Y471590D01*
X-183289Y470115D01*
X-186015Y467389D01*
X-187490Y463827D01*
X-187490Y459973D01*
X-186015Y456411D01*
X-183246Y453642D01*
X-183112Y453554D01*
X-182940Y453304D01*
X-182880Y453007D01*
X-182880Y334446D01*
X-135454Y287020D01*
G37*
G36*
X188893Y445082D02*
X192107Y445082D01*
X195077Y446312D01*
X197350Y448585D01*
X198580Y451555D01*
X198580Y454769D01*
X197350Y457739D01*
X195077Y460012D01*
X192107Y461242D01*
X188893Y461242D01*
X185923Y460012D01*
X183650Y457739D01*
X182420Y454769D01*
X182420Y451555D01*
X183650Y448585D01*
X185923Y446312D01*
X188893Y445082D01*
G37*
G36*
X163493Y445082D02*
X166707Y445082D01*
X169677Y446312D01*
X171950Y448585D01*
X173180Y451555D01*
X173180Y454769D01*
X171950Y457739D01*
X169677Y460012D01*
X166707Y461242D01*
X163493Y461242D01*
X160523Y460012D01*
X158250Y457739D01*
X157020Y454769D01*
X157020Y451555D01*
X158250Y448585D01*
X160523Y446312D01*
X163493Y445082D01*
G37*
G36*
X138093Y445082D02*
X141307Y445082D01*
X144277Y446312D01*
X146550Y448585D01*
X147780Y451555D01*
X147780Y454769D01*
X146550Y457739D01*
X144277Y460012D01*
X141307Y461242D01*
X138093Y461242D01*
X135123Y460012D01*
X132850Y457739D01*
X131620Y454769D01*
X131620Y451555D01*
X132850Y448585D01*
X135123Y446312D01*
X138093Y445082D01*
G37*
G36*
X112693Y445082D02*
X115907Y445082D01*
X118877Y446312D01*
X121150Y448585D01*
X122380Y451555D01*
X122380Y454769D01*
X121150Y457739D01*
X118877Y460012D01*
X115907Y461242D01*
X112693Y461242D01*
X109723Y460012D01*
X107450Y457739D01*
X106220Y454769D01*
X106220Y451555D01*
X107450Y448585D01*
X109723Y446312D01*
X112693Y445082D01*
G37*
G36*
X87293Y445082D02*
X90507Y445082D01*
X93477Y446312D01*
X95750Y448585D01*
X96980Y451555D01*
X96980Y454769D01*
X95750Y457739D01*
X93477Y460012D01*
X90507Y461242D01*
X87293Y461242D01*
X84323Y460012D01*
X82050Y457739D01*
X80820Y454769D01*
X80820Y451555D01*
X82050Y448585D01*
X84323Y446312D01*
X87293Y445082D01*
G37*
G36*
X61893Y445082D02*
X65107Y445082D01*
X68077Y446312D01*
X70350Y448585D01*
X71580Y451555D01*
X71580Y454769D01*
X70350Y457739D01*
X68077Y460012D01*
X65107Y461242D01*
X61893Y461242D01*
X58923Y460012D01*
X56650Y457739D01*
X55420Y454769D01*
X55420Y451555D01*
X56650Y448585D01*
X58923Y446312D01*
X61893Y445082D01*
G37*
G36*
X36493Y445082D02*
X39707Y445082D01*
X42677Y446312D01*
X44950Y448585D01*
X46180Y451555D01*
X46180Y454769D01*
X44950Y457739D01*
X42677Y460012D01*
X39707Y461242D01*
X36493Y461242D01*
X33523Y460012D01*
X31250Y457739D01*
X30020Y454769D01*
X30020Y451555D01*
X31250Y448585D01*
X33523Y446312D01*
X36493Y445082D01*
G37*
G36*
X11093Y445082D02*
X14307Y445082D01*
X17277Y446312D01*
X19550Y448585D01*
X20780Y451555D01*
X20780Y454769D01*
X19550Y457739D01*
X17277Y460012D01*
X14307Y461242D01*
X11093Y461242D01*
X8123Y460012D01*
X5850Y457739D01*
X4620Y454769D01*
X4620Y451555D01*
X5850Y448585D01*
X8123Y446312D01*
X11093Y445082D01*
G37*
G36*
X-4208Y256540D02*
X4208Y256540D01*
X9065Y261397D01*
X9307Y261560D01*
X9604Y261620D01*
X21154Y261620D01*
X55880Y296346D01*
X55880Y378404D01*
X30581Y403704D01*
X30420Y403940D01*
X30357Y404237D01*
X30390Y404403D01*
X30390Y408327D01*
X28915Y411889D01*
X26146Y414658D01*
X26012Y414746D01*
X25840Y414996D01*
X25780Y415293D01*
X25780Y421866D01*
X-4397Y452043D01*
X-4560Y452285D01*
X-4620Y452582D01*
X-4620Y454769D01*
X-5850Y457739D01*
X-8123Y460012D01*
X-11093Y461242D01*
X-14307Y461242D01*
X-17277Y460012D01*
X-19550Y457739D01*
X-20780Y454769D01*
X-20780Y451555D01*
X-19550Y448585D01*
X-17277Y446312D01*
X-14307Y445082D01*
X-12120Y445082D01*
X-11834Y445026D01*
X-11581Y444859D01*
X15397Y417881D01*
X15560Y417639D01*
X15620Y417342D01*
X15620Y415293D01*
X15567Y415013D01*
X15401Y414759D01*
X15260Y414664D01*
X12485Y411889D01*
X11010Y408327D01*
X11010Y404473D01*
X12485Y400911D01*
X15211Y398185D01*
X18773Y396710D01*
X22689Y396710D01*
X22845Y396742D01*
X23144Y396687D01*
X23396Y396519D01*
X45497Y374419D01*
X45660Y374177D01*
X45720Y373880D01*
X45720Y300870D01*
X45664Y300584D01*
X45497Y300331D01*
X17169Y272003D01*
X16927Y271840D01*
X16630Y271780D01*
X9604Y271780D01*
X9318Y271836D01*
X9065Y272003D01*
X4208Y276860D01*
X-4208Y276860D01*
X-10160Y270908D01*
X-10160Y262492D01*
X-4208Y256540D01*
G37*
G36*
X-39707Y445082D02*
X-36493Y445082D01*
X-33523Y446312D01*
X-31250Y448585D01*
X-30020Y451555D01*
X-30020Y454769D01*
X-31250Y457739D01*
X-33523Y460012D01*
X-36493Y461242D01*
X-39707Y461242D01*
X-42677Y460012D01*
X-44950Y457739D01*
X-46180Y454769D01*
X-46180Y451555D01*
X-44950Y448585D01*
X-42677Y446312D01*
X-39707Y445082D01*
G37*
G36*
X-65107Y445082D02*
X-61893Y445082D01*
X-58923Y446312D01*
X-56650Y448585D01*
X-55420Y451555D01*
X-55420Y454769D01*
X-56650Y457739D01*
X-58923Y460012D01*
X-61893Y461242D01*
X-65107Y461242D01*
X-68077Y460012D01*
X-70350Y457739D01*
X-71580Y454769D01*
X-71580Y451555D01*
X-70350Y448585D01*
X-68077Y446312D01*
X-65107Y445082D01*
G37*
G36*
X-98827Y396710D02*
X-94973Y396710D01*
X-91411Y398185D01*
X-88685Y400911D01*
X-87210Y404473D01*
X-87210Y408327D01*
X-88685Y411889D01*
X-91454Y414658D01*
X-91588Y414746D01*
X-91760Y414996D01*
X-91820Y415293D01*
X-91820Y442742D01*
X-91764Y443028D01*
X-91597Y443281D01*
X-90019Y444859D01*
X-89777Y445022D01*
X-89480Y445082D01*
X-87293Y445082D01*
X-84323Y446312D01*
X-82050Y448585D01*
X-80820Y451555D01*
X-80820Y454769D01*
X-82050Y457739D01*
X-84323Y460012D01*
X-87293Y461242D01*
X-90507Y461242D01*
X-93477Y460012D01*
X-95750Y457739D01*
X-96980Y454769D01*
X-96980Y452582D01*
X-97036Y452296D01*
X-97203Y452043D01*
X-101980Y447266D01*
X-101980Y415293D01*
X-102033Y415013D01*
X-102199Y414759D01*
X-102340Y414664D01*
X-105115Y411889D01*
X-106590Y408327D01*
X-106590Y404473D01*
X-105115Y400911D01*
X-102389Y398185D01*
X-98827Y396710D01*
G37*
G36*
X-23145Y311912D02*
X-13462Y311912D01*
X-13462Y321595D01*
X-14778Y321595D01*
X-18617Y320005D01*
X-21555Y317067D01*
X-23145Y313228D01*
X-23145Y311912D01*
G37*
G36*
X-11938Y311912D02*
X-2255Y311912D01*
X-2255Y313228D01*
X-3845Y317067D01*
X-6783Y320005D01*
X-10622Y321595D01*
X-11938Y321595D01*
X-11938Y311912D01*
G37*
G36*
X-11938Y300705D02*
X-10622Y300705D01*
X-6783Y302295D01*
X-3845Y305233D01*
X-2255Y309072D01*
X-2255Y310388D01*
X-11938Y310388D01*
X-11938Y300705D01*
G37*
G36*
X-14778Y300705D02*
X-13462Y300705D01*
X-13462Y310388D01*
X-23145Y310388D01*
X-23145Y309072D01*
X-21555Y305233D01*
X-18617Y302295D01*
X-14778Y300705D01*
G37*
G36*
X-159003Y235266D02*
X-150000Y233678D01*
X-140997Y235266D01*
X-133081Y239836D01*
X-127205Y246839D01*
X-124078Y255429D01*
X-124078Y264571D01*
X-127205Y273161D01*
X-133081Y280164D01*
X-140997Y284734D01*
X-150000Y286322D01*
X-159003Y284734D01*
X-166919Y280164D01*
X-172795Y273161D01*
X-175922Y264571D01*
X-175922Y255429D01*
X-172795Y246839D01*
X-166919Y239836D01*
X-159003Y235266D01*
G37*
G36*
X140997Y235266D02*
X150000Y233678D01*
X159003Y235266D01*
X166919Y239836D01*
X172795Y246839D01*
X175922Y255429D01*
X175922Y264571D01*
X172795Y273161D01*
X166919Y280164D01*
X159003Y284734D01*
X150000Y286322D01*
X140997Y284734D01*
X133081Y280164D01*
X127205Y273161D01*
X124078Y264571D01*
X124078Y255429D01*
X127205Y246839D01*
X133081Y239836D01*
X140997Y235266D01*
G37*
G36*
X-4162Y199078D02*
X4162Y199078D01*
X11851Y202263D01*
X17737Y208149D01*
X20922Y215838D01*
X20922Y224162D01*
X17737Y231851D01*
X11851Y237737D01*
X4162Y240922D01*
X-4162Y240922D01*
X-11851Y237737D01*
X-17737Y231851D01*
X-20922Y224162D01*
X-20922Y215838D01*
X-17737Y208149D01*
X-11851Y202263D01*
X-4162Y199078D01*
G37*
%LPD*%
D10*
X-139700Y679450D03*
X-114300Y679450D03*
X-88900Y679450D03*
X-63500Y679450D03*
D11*
X-127000Y654050D03*
X-76200Y654050D03*
X-57150Y882650D03*
X-57150Y933450D03*
X-146050Y882650D03*
X-146050Y933450D03*
D10*
X63500Y679450D03*
X88900Y679450D03*
X114300Y679450D03*
X139700Y679450D03*
D11*
X76200Y654050D03*
X127000Y654050D03*
X146050Y882650D03*
X146050Y933450D03*
X57150Y882650D03*
X57150Y933450D03*
X190500Y605562D03*
X165100Y605562D03*
X139700Y605562D03*
X114300Y605562D03*
X88900Y605562D03*
X63500Y605562D03*
X38100Y605562D03*
X12700Y605562D03*
X-12700Y605562D03*
X-38100Y605562D03*
X-63500Y605562D03*
X-88900Y605562D03*
X-88900Y453162D03*
X-63500Y453162D03*
X-38100Y453162D03*
X-12700Y453162D03*
X12700Y453162D03*
X38100Y453162D03*
X63500Y453162D03*
X88900Y453162D03*
X114300Y453162D03*
X139700Y453162D03*
X165100Y453162D03*
X190500Y453162D03*
D12*
X101600Y995680D02*
X101600Y1010920D01*
X76200Y1010920D02*
X76200Y995680D01*
X50800Y995680D02*
X50800Y1010920D01*
X25400Y1010920D02*
X25400Y995680D01*
X0Y995680D02*
X0Y1010920D01*
X-25400Y1010920D02*
X-25400Y995680D01*
X-50800Y995680D02*
X-50800Y1010920D01*
X-76200Y1010920D02*
X-76200Y995680D01*
X-196218Y927100D02*
X-211458Y927100D01*
X-211458Y901700D02*
X-196218Y901700D01*
X196218Y901700D02*
X211458Y901700D01*
X211458Y927100D02*
X196218Y927100D01*
D13*
X-96900Y406400D03*
X20700Y406400D03*
X-177800Y461900D03*
X-177800Y579500D03*
D14*
X0Y266700D03*
D15*
X12700Y311150D03*
X-12700Y311150D03*
D16*
X146050Y958850D02*
X101600Y1003300D01*
X146050Y958850D02*
X146050Y933450D01*
X88900Y971550D02*
X-9711Y971550D01*
X-38354Y952246D02*
X-57150Y933450D01*
X-29015Y952246D02*
X-9711Y971550D01*
X-29015Y952246D02*
X-38354Y952246D01*
X101600Y984250D02*
X101600Y1003300D01*
X101600Y984250D02*
X88900Y971550D01*
X-88900Y774700D02*
X-88900Y749300D01*
X-38100Y698500D01*
X-38100Y630962D01*
X-63500Y605562D01*
D17*
X-106454Y793750D03*
D16*
X-106454Y792254D02*
X-88900Y774700D01*
X-106454Y792254D02*
X-106454Y793750D01*
X-25400Y965200D02*
X-25400Y1003300D01*
X-25400Y965200D02*
X-31750Y958850D01*
X50800Y704850D02*
X63500Y692150D01*
X63500Y679450D01*
X-35111Y704850D02*
X-82296Y752036D01*
X-35111Y704850D02*
X50800Y704850D01*
X-31750Y958850D02*
X-60511Y958850D01*
X-82296Y937065D01*
X-82296Y752036D01*
X-50800Y977900D02*
X-50800Y1003300D01*
X-50800Y977900D02*
X-114300Y914400D01*
X-114300Y704850D01*
X-139700Y679450D01*
X-76200Y965200D02*
X-76200Y1003300D01*
X-76200Y965200D02*
X-127000Y914400D01*
X-127000Y762000D01*
X-184150Y704850D01*
X-184150Y585850D01*
X-177800Y579500D01*
X-152400Y927100D02*
X-146050Y933450D01*
X-152400Y927100D02*
X-203838Y927100D01*
X-165100Y901700D02*
X-146050Y882650D01*
X-165100Y901700D02*
X-203838Y901700D01*
X162728Y911146D02*
X178682Y927100D01*
X203838Y927100D01*
X79454Y911146D02*
X57150Y933450D01*
X79454Y911146D02*
X162728Y911146D01*
X76200Y901700D02*
X57150Y882650D01*
X76200Y901700D02*
X203838Y901700D01*
X-177800Y461900D02*
X-177800Y336550D01*
X-133350Y292100D01*
X0Y292100D01*
X12700Y304800D01*
X12700Y311150D01*
X-96900Y406400D02*
X-96900Y445162D01*
X-88900Y453162D01*
X-12700Y453162D02*
X20700Y419762D01*
X20700Y406400D01*
X50800Y376300D01*
X50800Y298450D01*
X19050Y266700D01*
X0Y266700D01*
M02*
