G04 EAGLE Gerber RS-274X export*
G75*
%MOMM*%
%FSLAX34Y34*%
%LPD*%
%IN*%
%IPPOS*%
%AMOC8*
5,1,8,0,0,1.08239X$1,22.5*%
G01*
G04 Define Apertures*
%ADD10C,0.254000*%
D10*
X-230000Y200000D02*
X-229886Y197385D01*
X-229544Y194791D01*
X-228978Y192235D01*
X-228191Y189739D01*
X-227189Y187321D01*
X-225981Y185000D01*
X-224575Y182793D01*
X-222981Y180716D01*
X-221213Y178787D01*
X-219284Y177019D01*
X-217207Y175425D01*
X-215000Y174019D01*
X-212679Y172811D01*
X-210261Y171809D01*
X-207765Y171022D01*
X-205209Y170456D01*
X-202615Y170114D01*
X-200000Y170000D01*
X200000Y170000D01*
X202615Y170114D01*
X205209Y170456D01*
X207765Y171022D01*
X210261Y171809D01*
X212679Y172811D01*
X215000Y174019D01*
X217207Y175425D01*
X219284Y177019D01*
X221213Y178787D01*
X222981Y180716D01*
X224575Y182793D01*
X225981Y185000D01*
X227189Y187321D01*
X228191Y189739D01*
X228978Y192235D01*
X229544Y194791D01*
X229886Y197385D01*
X230000Y200000D01*
X230000Y1000000D01*
X229886Y1002615D01*
X229544Y1005209D01*
X228978Y1007765D01*
X228191Y1010261D01*
X227189Y1012679D01*
X225981Y1015000D01*
X224575Y1017207D01*
X222981Y1019284D01*
X221213Y1021213D01*
X219284Y1022981D01*
X217207Y1024575D01*
X215000Y1025981D01*
X212679Y1027189D01*
X210261Y1028191D01*
X207765Y1028978D01*
X205209Y1029544D01*
X202615Y1029886D01*
X200000Y1030000D01*
X-200000Y1030000D01*
X-202615Y1029886D01*
X-205209Y1029544D01*
X-207765Y1028978D01*
X-210261Y1028191D01*
X-212679Y1027189D01*
X-215000Y1025981D01*
X-217207Y1024575D01*
X-219284Y1022981D01*
X-221213Y1021213D01*
X-222981Y1019284D01*
X-224575Y1017207D01*
X-225981Y1015000D01*
X-227189Y1012679D01*
X-228191Y1010261D01*
X-228978Y1007765D01*
X-229544Y1005209D01*
X-229886Y1002615D01*
X-230000Y1000000D01*
X-230000Y200000D01*
X215000Y999464D02*
X215000Y1000536D01*
X214924Y1001604D01*
X214771Y1002665D01*
X214543Y1003712D01*
X214241Y1004740D01*
X213867Y1005744D01*
X213422Y1006719D01*
X212908Y1007659D01*
X212329Y1008560D01*
X211687Y1009418D01*
X210985Y1010228D01*
X210228Y1010985D01*
X209418Y1011687D01*
X208560Y1012329D01*
X207659Y1012908D01*
X206719Y1013422D01*
X205744Y1013867D01*
X204740Y1014241D01*
X203712Y1014543D01*
X202665Y1014771D01*
X201604Y1014924D01*
X200536Y1015000D01*
X199464Y1015000D01*
X198396Y1014924D01*
X197335Y1014771D01*
X196288Y1014543D01*
X195260Y1014241D01*
X194256Y1013867D01*
X193281Y1013422D01*
X192341Y1012908D01*
X191440Y1012329D01*
X190582Y1011687D01*
X189772Y1010985D01*
X189015Y1010228D01*
X188313Y1009418D01*
X187671Y1008560D01*
X187092Y1007659D01*
X186578Y1006719D01*
X186133Y1005744D01*
X185759Y1004740D01*
X185457Y1003712D01*
X185229Y1002665D01*
X185076Y1001604D01*
X185000Y1000536D01*
X185000Y999464D01*
X185076Y998396D01*
X185229Y997335D01*
X185457Y996288D01*
X185759Y995260D01*
X186133Y994256D01*
X186578Y993281D01*
X187092Y992341D01*
X187671Y991440D01*
X188313Y990582D01*
X189015Y989772D01*
X189772Y989015D01*
X190582Y988313D01*
X191440Y987671D01*
X192341Y987092D01*
X193281Y986578D01*
X194256Y986133D01*
X195260Y985759D01*
X196288Y985457D01*
X197335Y985229D01*
X198396Y985076D01*
X199464Y985000D01*
X200536Y985000D01*
X201604Y985076D01*
X202665Y985229D01*
X203712Y985457D01*
X204740Y985759D01*
X205744Y986133D01*
X206719Y986578D01*
X207659Y987092D01*
X208560Y987671D01*
X209418Y988313D01*
X210228Y989015D01*
X210985Y989772D01*
X211687Y990582D01*
X212329Y991440D01*
X212908Y992341D01*
X213422Y993281D01*
X213867Y994256D01*
X214241Y995260D01*
X214543Y996288D01*
X214771Y997335D01*
X214924Y998396D01*
X215000Y999464D01*
X165000Y259464D02*
X165000Y260536D01*
X164924Y261604D01*
X164771Y262665D01*
X164543Y263712D01*
X164241Y264740D01*
X163867Y265744D01*
X163422Y266719D01*
X162908Y267659D01*
X162329Y268560D01*
X161687Y269418D01*
X160985Y270228D01*
X160228Y270985D01*
X159418Y271687D01*
X158560Y272329D01*
X157659Y272908D01*
X156719Y273422D01*
X155744Y273867D01*
X154740Y274241D01*
X153712Y274543D01*
X152665Y274771D01*
X151604Y274924D01*
X150536Y275000D01*
X149464Y275000D01*
X148396Y274924D01*
X147335Y274771D01*
X146288Y274543D01*
X145260Y274241D01*
X144256Y273867D01*
X143281Y273422D01*
X142341Y272908D01*
X141440Y272329D01*
X140582Y271687D01*
X139772Y270985D01*
X139015Y270228D01*
X138313Y269418D01*
X137671Y268560D01*
X137092Y267659D01*
X136578Y266719D01*
X136133Y265744D01*
X135759Y264740D01*
X135457Y263712D01*
X135229Y262665D01*
X135076Y261604D01*
X135000Y260536D01*
X135000Y259464D01*
X135076Y258396D01*
X135229Y257335D01*
X135457Y256288D01*
X135759Y255260D01*
X136133Y254256D01*
X136578Y253281D01*
X137092Y252341D01*
X137671Y251440D01*
X138313Y250582D01*
X139015Y249772D01*
X139772Y249015D01*
X140582Y248313D01*
X141440Y247671D01*
X142341Y247092D01*
X143281Y246578D01*
X144256Y246133D01*
X145260Y245759D01*
X146288Y245457D01*
X147335Y245229D01*
X148396Y245076D01*
X149464Y245000D01*
X150536Y245000D01*
X151604Y245076D01*
X152665Y245229D01*
X153712Y245457D01*
X154740Y245759D01*
X155744Y246133D01*
X156719Y246578D01*
X157659Y247092D01*
X158560Y247671D01*
X159418Y248313D01*
X160228Y249015D01*
X160985Y249772D01*
X161687Y250582D01*
X162329Y251440D01*
X162908Y252341D01*
X163422Y253281D01*
X163867Y254256D01*
X164241Y255260D01*
X164543Y256288D01*
X164771Y257335D01*
X164924Y258396D01*
X165000Y259464D01*
X-135000Y259464D02*
X-135000Y260536D01*
X-135076Y261604D01*
X-135229Y262665D01*
X-135457Y263712D01*
X-135759Y264740D01*
X-136133Y265744D01*
X-136578Y266719D01*
X-137092Y267659D01*
X-137671Y268560D01*
X-138313Y269418D01*
X-139015Y270228D01*
X-139772Y270985D01*
X-140582Y271687D01*
X-141440Y272329D01*
X-142341Y272908D01*
X-143281Y273422D01*
X-144256Y273867D01*
X-145260Y274241D01*
X-146288Y274543D01*
X-147335Y274771D01*
X-148396Y274924D01*
X-149464Y275000D01*
X-150536Y275000D01*
X-151604Y274924D01*
X-152665Y274771D01*
X-153712Y274543D01*
X-154740Y274241D01*
X-155744Y273867D01*
X-156719Y273422D01*
X-157659Y272908D01*
X-158560Y272329D01*
X-159418Y271687D01*
X-160228Y270985D01*
X-160985Y270228D01*
X-161687Y269418D01*
X-162329Y268560D01*
X-162908Y267659D01*
X-163422Y266719D01*
X-163867Y265744D01*
X-164241Y264740D01*
X-164543Y263712D01*
X-164771Y262665D01*
X-164924Y261604D01*
X-165000Y260536D01*
X-165000Y259464D01*
X-164924Y258396D01*
X-164771Y257335D01*
X-164543Y256288D01*
X-164241Y255260D01*
X-163867Y254256D01*
X-163422Y253281D01*
X-162908Y252341D01*
X-162329Y251440D01*
X-161687Y250582D01*
X-160985Y249772D01*
X-160228Y249015D01*
X-159418Y248313D01*
X-158560Y247671D01*
X-157659Y247092D01*
X-156719Y246578D01*
X-155744Y246133D01*
X-154740Y245759D01*
X-153712Y245457D01*
X-152665Y245229D01*
X-151604Y245076D01*
X-150536Y245000D01*
X-149464Y245000D01*
X-148396Y245076D01*
X-147335Y245229D01*
X-146288Y245457D01*
X-145260Y245759D01*
X-144256Y246133D01*
X-143281Y246578D01*
X-142341Y247092D01*
X-141440Y247671D01*
X-140582Y248313D01*
X-139772Y249015D01*
X-139015Y249772D01*
X-138313Y250582D01*
X-137671Y251440D01*
X-137092Y252341D01*
X-136578Y253281D01*
X-136133Y254256D01*
X-135759Y255260D01*
X-135457Y256288D01*
X-135229Y257335D01*
X-135076Y258396D01*
X-135000Y259464D01*
X10000Y219563D02*
X10000Y220437D01*
X9924Y221307D01*
X9772Y222166D01*
X9546Y223010D01*
X9248Y223830D01*
X8879Y224622D01*
X8442Y225378D01*
X7941Y226093D01*
X7380Y226762D01*
X6762Y227380D01*
X6093Y227941D01*
X5378Y228442D01*
X4622Y228879D01*
X3830Y229248D01*
X3010Y229546D01*
X2166Y229772D01*
X1307Y229924D01*
X437Y230000D01*
X-437Y230000D01*
X-1307Y229924D01*
X-2166Y229772D01*
X-3010Y229546D01*
X-3830Y229248D01*
X-4622Y228879D01*
X-5378Y228442D01*
X-6093Y227941D01*
X-6762Y227380D01*
X-7380Y226762D01*
X-7941Y226093D01*
X-8442Y225378D01*
X-8879Y224622D01*
X-9248Y223830D01*
X-9546Y223010D01*
X-9772Y222166D01*
X-9924Y221307D01*
X-10000Y220437D01*
X-10000Y219563D01*
X-9924Y218694D01*
X-9772Y217834D01*
X-9546Y216990D01*
X-9248Y216170D01*
X-8879Y215378D01*
X-8442Y214622D01*
X-7941Y213907D01*
X-7380Y213238D01*
X-6762Y212620D01*
X-6093Y212059D01*
X-5378Y211558D01*
X-4622Y211121D01*
X-3830Y210752D01*
X-3010Y210454D01*
X-2166Y210228D01*
X-1307Y210076D01*
X-437Y210000D01*
X437Y210000D01*
X1307Y210076D01*
X2166Y210228D01*
X3010Y210454D01*
X3830Y210752D01*
X4622Y211121D01*
X5378Y211558D01*
X6093Y212059D01*
X6762Y212620D01*
X7380Y213238D01*
X7941Y213907D01*
X8442Y214622D01*
X8879Y215378D01*
X9248Y216170D01*
X9546Y216990D01*
X9772Y217834D01*
X9924Y218694D01*
X10000Y219563D01*
X-185000Y999464D02*
X-185000Y1000536D01*
X-185076Y1001604D01*
X-185229Y1002665D01*
X-185457Y1003712D01*
X-185759Y1004740D01*
X-186133Y1005744D01*
X-186578Y1006719D01*
X-187092Y1007659D01*
X-187671Y1008560D01*
X-188313Y1009418D01*
X-189015Y1010228D01*
X-189772Y1010985D01*
X-190582Y1011687D01*
X-191440Y1012329D01*
X-192341Y1012908D01*
X-193281Y1013422D01*
X-194256Y1013867D01*
X-195260Y1014241D01*
X-196288Y1014543D01*
X-197335Y1014771D01*
X-198396Y1014924D01*
X-199464Y1015000D01*
X-200536Y1015000D01*
X-201604Y1014924D01*
X-202665Y1014771D01*
X-203712Y1014543D01*
X-204740Y1014241D01*
X-205744Y1013867D01*
X-206719Y1013422D01*
X-207659Y1012908D01*
X-208560Y1012329D01*
X-209418Y1011687D01*
X-210228Y1010985D01*
X-210985Y1010228D01*
X-211687Y1009418D01*
X-212329Y1008560D01*
X-212908Y1007659D01*
X-213422Y1006719D01*
X-213867Y1005744D01*
X-214241Y1004740D01*
X-214543Y1003712D01*
X-214771Y1002665D01*
X-214924Y1001604D01*
X-215000Y1000536D01*
X-215000Y999464D01*
X-214924Y998396D01*
X-214771Y997335D01*
X-214543Y996288D01*
X-214241Y995260D01*
X-213867Y994256D01*
X-213422Y993281D01*
X-212908Y992341D01*
X-212329Y991440D01*
X-211687Y990582D01*
X-210985Y989772D01*
X-210228Y989015D01*
X-209418Y988313D01*
X-208560Y987671D01*
X-207659Y987092D01*
X-206719Y986578D01*
X-205744Y986133D01*
X-204740Y985759D01*
X-203712Y985457D01*
X-202665Y985229D01*
X-201604Y985076D01*
X-200536Y985000D01*
X-199464Y985000D01*
X-198396Y985076D01*
X-197335Y985229D01*
X-196288Y985457D01*
X-195260Y985759D01*
X-194256Y986133D01*
X-193281Y986578D01*
X-192341Y987092D01*
X-191440Y987671D01*
X-190582Y988313D01*
X-189772Y989015D01*
X-189015Y989772D01*
X-188313Y990582D01*
X-187671Y991440D01*
X-187092Y992341D01*
X-186578Y993281D01*
X-186133Y994256D01*
X-185759Y995260D01*
X-185457Y996288D01*
X-185229Y997335D01*
X-185076Y998396D01*
X-185000Y999464D01*
M02*
