G04 EAGLE Gerber RS-274X export*
G75*
%MOMM*%
%FSLAX34Y34*%
%LPD*%
%INSilkscreen Top*%
%IPPOS*%
%AMOC8*
5,1,8,0,0,1.08239X$1,22.5*%
G01*
G04 Define Apertures*
%ADD10C,0.127000*%
%ADD11C,0.152400*%
G36*
X-46424Y425250D02*
X-48097Y425250D01*
X-48097Y437591D01*
X-42290Y437591D01*
X-41784Y437576D01*
X-41308Y437532D01*
X-40861Y437460D01*
X-40443Y437358D01*
X-40056Y437226D01*
X-39698Y437066D01*
X-39370Y436877D01*
X-39072Y436658D01*
X-38806Y436413D01*
X-38575Y436146D01*
X-38380Y435856D01*
X-38221Y435542D01*
X-38097Y435206D01*
X-38008Y434847D01*
X-37955Y434466D01*
X-37937Y434061D01*
X-37950Y433724D01*
X-37988Y433401D01*
X-38050Y433091D01*
X-38138Y432795D01*
X-38250Y432513D01*
X-38388Y432245D01*
X-38551Y431990D01*
X-38739Y431749D01*
X-38949Y431525D01*
X-39178Y431324D01*
X-39425Y431143D01*
X-39536Y431077D01*
X-39692Y430985D01*
X-39978Y430848D01*
X-40283Y430732D01*
X-40607Y430639D01*
X-40950Y430566D01*
X-39459Y428303D01*
X-37447Y425250D01*
X-39374Y425250D01*
X-42579Y430374D01*
X-46424Y430374D01*
X-46424Y425250D01*
G37*
%LPC*%
G36*
X-42387Y431696D02*
X-42066Y431706D01*
X-41763Y431735D01*
X-41479Y431783D01*
X-41214Y431851D01*
X-40968Y431937D01*
X-40740Y432044D01*
X-40532Y432169D01*
X-40342Y432314D01*
X-40172Y432476D01*
X-40026Y432653D01*
X-39901Y432846D01*
X-39800Y433055D01*
X-39721Y433279D01*
X-39664Y433518D01*
X-39630Y433773D01*
X-39619Y434044D01*
X-39631Y434305D01*
X-39665Y434550D01*
X-39722Y434780D01*
X-39802Y434993D01*
X-39905Y435190D01*
X-40030Y435371D01*
X-40179Y435537D01*
X-40350Y435686D01*
X-40543Y435818D01*
X-40756Y435933D01*
X-40989Y436030D01*
X-41243Y436110D01*
X-41516Y436171D01*
X-41810Y436215D01*
X-42123Y436242D01*
X-42457Y436251D01*
X-46424Y436251D01*
X-46424Y431696D01*
X-42387Y431696D01*
G37*
%LPD*%
G36*
X-27500Y425250D02*
X-35234Y425250D01*
X-35234Y426590D01*
X-32089Y426590D01*
X-32089Y436084D01*
X-34875Y434096D01*
X-34875Y435585D01*
X-31958Y437591D01*
X-30504Y437591D01*
X-30504Y426590D01*
X-27500Y426590D01*
X-27500Y425250D01*
G37*
G36*
X-196650Y510703D02*
X-208991Y510703D01*
X-208991Y516510D01*
X-208976Y517016D01*
X-208932Y517492D01*
X-208860Y517939D01*
X-208758Y518357D01*
X-208626Y518744D01*
X-208466Y519102D01*
X-208277Y519430D01*
X-208058Y519728D01*
X-207813Y519994D01*
X-207546Y520225D01*
X-207256Y520420D01*
X-206942Y520579D01*
X-206606Y520703D01*
X-206247Y520792D01*
X-205866Y520845D01*
X-205461Y520863D01*
X-205124Y520850D01*
X-204801Y520813D01*
X-204491Y520750D01*
X-204195Y520662D01*
X-203913Y520550D01*
X-203645Y520412D01*
X-203390Y520249D01*
X-203149Y520061D01*
X-202925Y519851D01*
X-202724Y519622D01*
X-202543Y519375D01*
X-202477Y519264D01*
X-202385Y519108D01*
X-202248Y518822D01*
X-202132Y518517D01*
X-202039Y518193D01*
X-201966Y517850D01*
X-199703Y519341D01*
X-196650Y521353D01*
X-196650Y519426D01*
X-201774Y516221D01*
X-201774Y512376D01*
X-196650Y512376D01*
X-196650Y510703D01*
G37*
%LPC*%
G36*
X-203096Y512376D02*
X-203096Y516413D01*
X-203106Y516735D01*
X-203135Y517037D01*
X-203183Y517321D01*
X-203251Y517586D01*
X-203337Y517832D01*
X-203444Y518060D01*
X-203569Y518268D01*
X-203714Y518458D01*
X-203876Y518628D01*
X-204053Y518775D01*
X-204246Y518899D01*
X-204455Y519000D01*
X-204679Y519079D01*
X-204918Y519136D01*
X-205173Y519170D01*
X-205444Y519181D01*
X-205705Y519170D01*
X-205950Y519135D01*
X-206180Y519078D01*
X-206393Y518998D01*
X-206590Y518895D01*
X-206771Y518770D01*
X-206937Y518621D01*
X-207086Y518450D01*
X-207218Y518257D01*
X-207333Y518044D01*
X-207430Y517811D01*
X-207510Y517557D01*
X-207571Y517284D01*
X-207615Y516990D01*
X-207642Y516677D01*
X-207651Y516343D01*
X-207651Y512376D01*
X-203096Y512376D01*
G37*
%LPD*%
G36*
X-196650Y523102D02*
X-197762Y523102D01*
X-198260Y523338D01*
X-198727Y523598D01*
X-199164Y523883D01*
X-199571Y524193D01*
X-199954Y524519D01*
X-200318Y524853D01*
X-200663Y525195D01*
X-200990Y525546D01*
X-201602Y526252D01*
X-202168Y526952D01*
X-202711Y527614D01*
X-203254Y528208D01*
X-203529Y528475D01*
X-203810Y528715D01*
X-204098Y528928D01*
X-204393Y529115D01*
X-204700Y529266D01*
X-205028Y529374D01*
X-205375Y529439D01*
X-205741Y529461D01*
X-205988Y529452D01*
X-206221Y529424D01*
X-206439Y529377D01*
X-206643Y529312D01*
X-206833Y529228D01*
X-207009Y529126D01*
X-207171Y529005D01*
X-207318Y528865D01*
X-207449Y528709D01*
X-207563Y528538D01*
X-207659Y528353D01*
X-207738Y528154D01*
X-207800Y527939D01*
X-207843Y527711D01*
X-207870Y527468D01*
X-207878Y527210D01*
X-207870Y526964D01*
X-207844Y526728D01*
X-207801Y526504D01*
X-207742Y526291D01*
X-207665Y526089D01*
X-207571Y525899D01*
X-207459Y525719D01*
X-207331Y525550D01*
X-207187Y525395D01*
X-207030Y525258D01*
X-206858Y525137D01*
X-206673Y525032D01*
X-206474Y524945D01*
X-206261Y524874D01*
X-206034Y524821D01*
X-205794Y524784D01*
X-205943Y523172D01*
X-206303Y523230D01*
X-206645Y523316D01*
X-206968Y523431D01*
X-207272Y523574D01*
X-207557Y523745D01*
X-207823Y523945D01*
X-208070Y524173D01*
X-208299Y524429D01*
X-208504Y524709D01*
X-208682Y525008D01*
X-208833Y525327D01*
X-208956Y525665D01*
X-209052Y526022D01*
X-209120Y526399D01*
X-209161Y526795D01*
X-209175Y527210D01*
X-209161Y527663D01*
X-209120Y528089D01*
X-209051Y528488D01*
X-208955Y528860D01*
X-208831Y529205D01*
X-208680Y529523D01*
X-208501Y529814D01*
X-208294Y530078D01*
X-208063Y530313D01*
X-207808Y530517D01*
X-207530Y530689D01*
X-207229Y530830D01*
X-206905Y530940D01*
X-206558Y531018D01*
X-206187Y531065D01*
X-205794Y531081D01*
X-205435Y531061D01*
X-205078Y530999D01*
X-204722Y530896D01*
X-204366Y530753D01*
X-204012Y530569D01*
X-203657Y530344D01*
X-203302Y530080D01*
X-202947Y529776D01*
X-202544Y529378D01*
X-202043Y528832D01*
X-201445Y528139D01*
X-200749Y527297D01*
X-200347Y526820D01*
X-199966Y526393D01*
X-199605Y526018D01*
X-199264Y525695D01*
X-198937Y525418D01*
X-198615Y525182D01*
X-198300Y524989D01*
X-197990Y524836D01*
X-197990Y531274D01*
X-196650Y531274D01*
X-196650Y523102D01*
G37*
D10*
X-80600Y418900D02*
X-80600Y393900D01*
X4400Y393900D01*
X4400Y418900D01*
X-80600Y418900D01*
X-80600Y406400D02*
X-87210Y406400D01*
X4400Y406400D02*
X11010Y406400D01*
X-165300Y478200D02*
X-190300Y478200D01*
X-165300Y478200D02*
X-165300Y563200D01*
X-190300Y563200D01*
X-190300Y478200D01*
X-177800Y478200D02*
X-177800Y471590D01*
X-177800Y563200D02*
X-177800Y569810D01*
D11*
X-6350Y279400D02*
X6350Y279400D01*
X12700Y273050D01*
X12700Y260350D01*
X6350Y254000D01*
X-12700Y260350D02*
X-12700Y273050D01*
X-6350Y279400D01*
X-12700Y260350D02*
X-6350Y254000D01*
X6350Y254000D01*
M02*
