G04 EAGLE Gerber RS-274X export*
G75*
%MOMM*%
%FSLAX34Y34*%
%LPD*%
%INTop Copper*%
%IPPOS*%
%AMOC8*
5,1,8,0,0,1.08239X$1,22.5*%
G01*
G04 Define Apertures*
%ADD10C,1.879600*%
%ADD11P,2.03446X8X112.5*%
%ADD12C,1.524000*%
%ADD13C,1.800000*%
%ADD14C,0.406400*%
%ADD15C,0.756400*%
D10*
X-777240Y-942340D03*
X-751840Y-942340D03*
X-726440Y-942340D03*
X-701040Y-942340D03*
X-675640Y-942340D03*
X-650240Y-942340D03*
X-624840Y-942340D03*
X-802640Y-942340D03*
X-828040Y-459740D03*
X-802640Y-459740D03*
X-777240Y-459740D03*
X-751840Y-459740D03*
X-726440Y-459740D03*
X-701040Y-459740D03*
X-675640Y-459740D03*
X-853440Y-459740D03*
X-1005840Y-942340D03*
X-980440Y-942340D03*
X-955040Y-942340D03*
X-929640Y-942340D03*
X-904240Y-942340D03*
X-878840Y-942340D03*
X-853440Y-942340D03*
X-1031240Y-942340D03*
X-1056640Y-459740D03*
X-1031240Y-459740D03*
X-1005840Y-459740D03*
X-980440Y-459740D03*
X-955040Y-459740D03*
X-929640Y-459740D03*
X-904240Y-459740D03*
X-1082040Y-459740D03*
X-1272540Y-459740D03*
X-1247140Y-459740D03*
X-1221740Y-459740D03*
X-1196340Y-459740D03*
X-1170940Y-459740D03*
X-1145540Y-459740D03*
X-1120140Y-459740D03*
X-1297940Y-459740D03*
D11*
X-574040Y-662940D03*
X-599440Y-662940D03*
X-574040Y-637540D03*
X-599440Y-637540D03*
X-574040Y-612140D03*
X-599440Y-612140D03*
X-574040Y-586740D03*
X-599440Y-586740D03*
X-574040Y-561340D03*
X-599440Y-561340D03*
X-574040Y-535940D03*
X-599440Y-535940D03*
X-574040Y-510540D03*
X-599440Y-510540D03*
X-574040Y-485140D03*
X-599440Y-485140D03*
X-574040Y-866140D03*
X-599440Y-866140D03*
X-574040Y-840740D03*
X-599440Y-840740D03*
X-574040Y-815340D03*
X-599440Y-815340D03*
X-574040Y-789940D03*
X-599440Y-789940D03*
X-574040Y-764540D03*
X-599440Y-764540D03*
X-574040Y-739140D03*
X-599440Y-739140D03*
X-574040Y-713740D03*
X-599440Y-713740D03*
X-574040Y-688340D03*
X-599440Y-688340D03*
D10*
X-599440Y-891540D03*
X-574040Y-891540D03*
X-599440Y-459740D03*
X-574040Y-459740D03*
X-1209040Y-942340D03*
X-1183640Y-942340D03*
X-1158240Y-942340D03*
X-1132840Y-942340D03*
X-1107440Y-942340D03*
X-1082040Y-942340D03*
X-1323340Y-459740D03*
X-1348740Y-459740D03*
X-1234440Y-942340D03*
X-1259840Y-942340D03*
D12*
X-1244600Y-169662D02*
X-1229360Y-169662D01*
X-1229360Y-195062D02*
X-1244600Y-195062D01*
X-1244600Y-220462D02*
X-1229360Y-220462D01*
X-1229360Y-245862D02*
X-1244600Y-245862D01*
X-1244600Y-271262D02*
X-1229360Y-271262D01*
X-1229360Y-296662D02*
X-1244600Y-296662D01*
X-1244600Y-322062D02*
X-1229360Y-322062D01*
X-1229360Y-347462D02*
X-1244600Y-347462D01*
X-993140Y-169662D02*
X-977900Y-169662D01*
X-977900Y-195062D02*
X-993140Y-195062D01*
X-993140Y-220462D02*
X-977900Y-220462D01*
X-977900Y-245862D02*
X-993140Y-245862D01*
X-993140Y-271262D02*
X-977900Y-271262D01*
X-977900Y-296662D02*
X-993140Y-296662D01*
X-993140Y-322062D02*
X-977900Y-322062D01*
X-977900Y-347462D02*
X-993140Y-347462D01*
X-782320Y-169662D02*
X-767080Y-169662D01*
X-767080Y-195062D02*
X-782320Y-195062D01*
X-782320Y-220462D02*
X-767080Y-220462D01*
X-767080Y-245862D02*
X-782320Y-245862D01*
X-782320Y-271262D02*
X-767080Y-271262D01*
X-767080Y-296662D02*
X-782320Y-296662D01*
X-782320Y-322062D02*
X-767080Y-322062D01*
X-767080Y-347462D02*
X-782320Y-347462D01*
X-569976Y-167640D02*
X-554736Y-167640D01*
X-554736Y-193040D02*
X-569976Y-193040D01*
X-569976Y-218440D02*
X-554736Y-218440D01*
X-554736Y-243840D02*
X-569976Y-243840D01*
X-569976Y-269240D02*
X-554736Y-269240D01*
X-554736Y-294640D02*
X-569976Y-294640D01*
X-569976Y-320040D02*
X-554736Y-320040D01*
X-554736Y-345440D02*
X-569976Y-345440D01*
X-350520Y-167640D02*
X-335280Y-167640D01*
X-335280Y-193040D02*
X-350520Y-193040D01*
X-350520Y-218440D02*
X-335280Y-218440D01*
X-335280Y-243840D02*
X-350520Y-243840D01*
X-350520Y-269240D02*
X-335280Y-269240D01*
X-335280Y-294640D02*
X-350520Y-294640D01*
X-350520Y-320040D02*
X-335280Y-320040D01*
X-335280Y-345440D02*
X-350520Y-345440D01*
X-195062Y-254000D02*
X-179822Y-254000D01*
X-179822Y-279400D02*
X-195062Y-279400D01*
X-195062Y-304800D02*
X-179822Y-304800D01*
X-179822Y-330200D02*
X-195062Y-330200D01*
X-195062Y-355600D02*
X-179822Y-355600D01*
X-179822Y-381000D02*
X-195062Y-381000D01*
X-195062Y-406400D02*
X-179822Y-406400D01*
X-179822Y-431800D02*
X-195062Y-431800D01*
X-195062Y-469900D02*
X-179822Y-469900D01*
X-179822Y-495300D02*
X-195062Y-495300D01*
X-195062Y-520700D02*
X-179822Y-520700D01*
X-179822Y-546100D02*
X-195062Y-546100D01*
X-195062Y-571500D02*
X-179822Y-571500D01*
X-179822Y-596900D02*
X-195062Y-596900D01*
X-195062Y-622300D02*
X-179822Y-622300D01*
X-179822Y-647700D02*
X-195062Y-647700D01*
X-195062Y-685800D02*
X-179822Y-685800D01*
X-179822Y-711200D02*
X-195062Y-711200D01*
X-195062Y-736600D02*
X-179822Y-736600D01*
X-179822Y-762000D02*
X-195062Y-762000D01*
X-195062Y-787400D02*
X-179822Y-787400D01*
X-179822Y-812800D02*
X-195062Y-812800D01*
X-195062Y-838200D02*
X-179822Y-838200D01*
X-179822Y-863600D02*
X-195062Y-863600D01*
D10*
X-775716Y-1527362D03*
X-750316Y-1527362D03*
X-724916Y-1527362D03*
X-699516Y-1527362D03*
X-674116Y-1527362D03*
X-648716Y-1527362D03*
X-623316Y-1527362D03*
X-801116Y-1527362D03*
X-826516Y-1044762D03*
X-801116Y-1044762D03*
X-775716Y-1044762D03*
X-750316Y-1044762D03*
X-724916Y-1044762D03*
X-699516Y-1044762D03*
X-674116Y-1044762D03*
X-851916Y-1044762D03*
X-1004316Y-1527362D03*
X-978916Y-1527362D03*
X-953516Y-1527362D03*
X-928116Y-1527362D03*
X-902716Y-1527362D03*
X-877316Y-1527362D03*
X-851916Y-1527362D03*
X-1029716Y-1527362D03*
X-1055116Y-1044762D03*
X-1029716Y-1044762D03*
X-1004316Y-1044762D03*
X-978916Y-1044762D03*
X-953516Y-1044762D03*
X-928116Y-1044762D03*
X-902716Y-1044762D03*
X-1080516Y-1044762D03*
X-1271016Y-1044762D03*
X-1245616Y-1044762D03*
X-1220216Y-1044762D03*
X-1194816Y-1044762D03*
X-1169416Y-1044762D03*
X-1144016Y-1044762D03*
X-1118616Y-1044762D03*
X-1296416Y-1044762D03*
D11*
X-572516Y-1247962D03*
X-597916Y-1247962D03*
X-572516Y-1222562D03*
X-597916Y-1222562D03*
X-572516Y-1197162D03*
X-597916Y-1197162D03*
X-572516Y-1171762D03*
X-597916Y-1171762D03*
X-572516Y-1146362D03*
X-597916Y-1146362D03*
X-572516Y-1120962D03*
X-597916Y-1120962D03*
X-572516Y-1095562D03*
X-597916Y-1095562D03*
X-572516Y-1070162D03*
X-597916Y-1070162D03*
X-572516Y-1451162D03*
X-597916Y-1451162D03*
X-572516Y-1425762D03*
X-597916Y-1425762D03*
X-572516Y-1400362D03*
X-597916Y-1400362D03*
X-572516Y-1374962D03*
X-597916Y-1374962D03*
X-572516Y-1349562D03*
X-597916Y-1349562D03*
X-572516Y-1324162D03*
X-597916Y-1324162D03*
X-572516Y-1298762D03*
X-597916Y-1298762D03*
X-572516Y-1273362D03*
X-597916Y-1273362D03*
D10*
X-597916Y-1476562D03*
X-572516Y-1476562D03*
X-597916Y-1044762D03*
X-572516Y-1044762D03*
X-1207516Y-1527362D03*
X-1182116Y-1527362D03*
X-1156716Y-1527362D03*
X-1131316Y-1527362D03*
X-1105916Y-1527362D03*
X-1080516Y-1527362D03*
X-1321816Y-1044762D03*
X-1347216Y-1044762D03*
X-1232916Y-1527362D03*
X-1258316Y-1527362D03*
D12*
X-192522Y-1320800D02*
X-177282Y-1320800D01*
X-177282Y-1295400D02*
X-192522Y-1295400D01*
X-192522Y-1270000D02*
X-177282Y-1270000D01*
X-177282Y-1244600D02*
X-192522Y-1244600D01*
X-192522Y-1219200D02*
X-177282Y-1219200D01*
X-177282Y-1193800D02*
X-192522Y-1193800D01*
X-192522Y-1168400D02*
X-177282Y-1168400D01*
X-177282Y-1143000D02*
X-192522Y-1143000D01*
X-192522Y-1536700D02*
X-177282Y-1536700D01*
X-177282Y-1511300D02*
X-192522Y-1511300D01*
X-192522Y-1485900D02*
X-177282Y-1485900D01*
X-177282Y-1460500D02*
X-192522Y-1460500D01*
X-192522Y-1435100D02*
X-177282Y-1435100D01*
X-177282Y-1409700D02*
X-192522Y-1409700D01*
X-192522Y-1384300D02*
X-177282Y-1384300D01*
X-177282Y-1358900D02*
X-192522Y-1358900D01*
X-192522Y-1752600D02*
X-177282Y-1752600D01*
X-177282Y-1727200D02*
X-192522Y-1727200D01*
X-192522Y-1701800D02*
X-177282Y-1701800D01*
X-177282Y-1676400D02*
X-192522Y-1676400D01*
X-192522Y-1651000D02*
X-177282Y-1651000D01*
X-177282Y-1625600D02*
X-192522Y-1625600D01*
X-192522Y-1600200D02*
X-177282Y-1600200D01*
X-177282Y-1574800D02*
X-192522Y-1574800D01*
X-316982Y-1816996D02*
X-332222Y-1816996D01*
X-332222Y-1791596D02*
X-316982Y-1791596D01*
X-316982Y-1766196D02*
X-332222Y-1766196D01*
X-332222Y-1740796D02*
X-316982Y-1740796D01*
X-316982Y-1715396D02*
X-332222Y-1715396D01*
X-332222Y-1689996D02*
X-316982Y-1689996D01*
X-316982Y-1664596D02*
X-332222Y-1664596D01*
X-332222Y-1639196D02*
X-316982Y-1639196D01*
X-517642Y-1816100D02*
X-532882Y-1816100D01*
X-532882Y-1790700D02*
X-517642Y-1790700D01*
X-517642Y-1765300D02*
X-532882Y-1765300D01*
X-532882Y-1739900D02*
X-517642Y-1739900D01*
X-517642Y-1714500D02*
X-532882Y-1714500D01*
X-532882Y-1689100D02*
X-517642Y-1689100D01*
X-517642Y-1663700D02*
X-532882Y-1663700D01*
X-532882Y-1638300D02*
X-517642Y-1638300D01*
X-746242Y-1817638D02*
X-761482Y-1817638D01*
X-761482Y-1792238D02*
X-746242Y-1792238D01*
X-746242Y-1766838D02*
X-761482Y-1766838D01*
X-761482Y-1741438D02*
X-746242Y-1741438D01*
X-746242Y-1716038D02*
X-761482Y-1716038D01*
X-761482Y-1690638D02*
X-746242Y-1690638D01*
X-746242Y-1665238D02*
X-761482Y-1665238D01*
X-761482Y-1639838D02*
X-746242Y-1639838D01*
X-979922Y-1816100D02*
X-995162Y-1816100D01*
X-995162Y-1790700D02*
X-979922Y-1790700D01*
X-979922Y-1765300D02*
X-995162Y-1765300D01*
X-995162Y-1739900D02*
X-979922Y-1739900D01*
X-979922Y-1714500D02*
X-995162Y-1714500D01*
X-995162Y-1689100D02*
X-979922Y-1689100D01*
X-979922Y-1663700D02*
X-995162Y-1663700D01*
X-995162Y-1638300D02*
X-979922Y-1638300D01*
X-1211580Y-1812558D02*
X-1226820Y-1812558D01*
X-1226820Y-1787158D02*
X-1211580Y-1787158D01*
X-1211580Y-1761758D02*
X-1226820Y-1761758D01*
X-1226820Y-1736358D02*
X-1211580Y-1736358D01*
X-1211580Y-1710958D02*
X-1226820Y-1710958D01*
X-1226820Y-1685558D02*
X-1211580Y-1685558D01*
X-1211580Y-1660158D02*
X-1226820Y-1660158D01*
X-1226820Y-1634758D02*
X-1211580Y-1634758D01*
D13*
X-157222Y-1031240D03*
X-157222Y-1082040D03*
X-157480Y-920276D03*
X-157480Y-971076D03*
X-1371600Y-1765300D03*
X-1371600Y-1714500D03*
X-1371600Y-1651000D03*
X-1371600Y-1600200D03*
X-1374140Y-388620D03*
X-1374140Y-337820D03*
X-1374140Y-279400D03*
X-1374140Y-228600D03*
D14*
X-373380Y-586740D02*
X-347980Y-561340D01*
X-347980Y-472440D01*
X-408940Y-411480D01*
X-975360Y-411480D01*
X-1127760Y-259080D01*
X-1127760Y-195580D01*
X-1153678Y-169662D01*
X-1236980Y-169662D01*
X-574040Y-586740D02*
X-373380Y-586740D01*
X-1236980Y-195062D02*
X-1237498Y-195580D01*
X-1236980Y-220462D02*
X-1209558Y-220462D01*
X-1170940Y-259080D01*
X-1170940Y-459740D01*
X-1236980Y-245862D02*
X-1261862Y-245862D01*
X-1318260Y-302260D01*
X-1318260Y-398780D01*
X-1363980Y-444500D01*
X-1363980Y-490220D01*
X-1346200Y-508000D01*
X-1343660Y-510540D01*
X-1267460Y-586740D01*
X-599440Y-586740D01*
X-350520Y-612140D02*
X-325120Y-586740D01*
X-325120Y-467360D01*
X-393700Y-398780D01*
X-812800Y-398780D01*
X-878840Y-332740D01*
X-878840Y-208280D01*
X-917458Y-169662D01*
X-985520Y-169662D01*
X-574040Y-612140D02*
X-350520Y-612140D01*
X-985520Y-195062D02*
X-986038Y-195580D01*
X-1264920Y-152400D02*
X-1264920Y-238760D01*
X-1044458Y-245862D02*
X-985520Y-245862D01*
X-1248664Y-136144D02*
X-1264920Y-152400D01*
X-1248664Y-136144D02*
X-1154176Y-136144D01*
X-1044458Y-245862D01*
X-1264920Y-238760D02*
X-1325880Y-299720D01*
X-1325880Y-396240D01*
X-1371600Y-441960D01*
X-1371600Y-492760D01*
X-1346200Y-518160D01*
X-1343660Y-520700D01*
X-1252220Y-612140D01*
X-599440Y-612140D01*
X-337820Y-637540D02*
X-304800Y-604520D01*
X-304800Y-459740D01*
X-383540Y-381000D01*
X-599440Y-381000D01*
X-695960Y-284480D01*
X-695960Y-215900D01*
X-742198Y-169662D01*
X-774700Y-169662D01*
X-574040Y-637540D02*
X-337820Y-637540D01*
D15*
X-949960Y-256540D03*
X-904240Y-205740D03*
D14*
X-949960Y-251460D01*
X-949960Y-256540D01*
X-823478Y-245862D02*
X-774700Y-245862D01*
X-1283716Y-130556D02*
X-1336040Y-182880D01*
X-1283716Y-130556D02*
X-938784Y-130556D01*
X-823478Y-245862D01*
X-1336040Y-182880D02*
X-1336040Y-393700D01*
X-1378204Y-435864D01*
X-1378204Y-498856D01*
X-1351280Y-525780D01*
X-1346200Y-530860D01*
X-1239520Y-637540D01*
X-599440Y-637540D01*
X-327660Y-662940D02*
X-284480Y-619760D01*
X-284480Y-449580D01*
X-370840Y-363220D01*
X-421640Y-363220D01*
X-485140Y-299720D01*
X-485140Y-218440D01*
X-535940Y-167640D01*
X-562356Y-167640D01*
X-574040Y-662940D02*
X-327660Y-662940D01*
X-562356Y-243840D02*
X-635000Y-243840D01*
X-1298448Y-124968D02*
X-1343660Y-170180D01*
X-1298448Y-124968D02*
X-753872Y-124968D01*
X-635000Y-243840D01*
X-1343660Y-170180D02*
X-1343660Y-391443D01*
X-1383792Y-431575D01*
X-1383792Y-503428D01*
X-1348740Y-538480D01*
X-1346200Y-541020D01*
X-1224280Y-662940D01*
X-599440Y-662940D01*
X-320040Y-688340D02*
X-256540Y-624840D01*
X-256540Y-254000D01*
X-342900Y-167640D01*
X-320040Y-688340D02*
X-574040Y-688340D01*
X-1305560Y-119380D02*
X-1350010Y-163830D01*
X-1305560Y-119380D02*
X-518160Y-119380D01*
X-393700Y-243840D01*
X-342900Y-243840D01*
X-1350010Y-163830D02*
X-1350010Y-389890D01*
X-1389380Y-429260D01*
X-1389380Y-510540D01*
X-1211580Y-688340D01*
X-599440Y-688340D01*
X-317500Y-713740D02*
X-243840Y-640080D01*
X-243840Y-281940D01*
X-215900Y-254000D01*
X-187442Y-254000D01*
X-317500Y-713740D02*
X-574040Y-713740D01*
X-515620Y-939800D02*
X-210820Y-939800D01*
X-147320Y-876300D01*
X-147320Y-370322D01*
X-187442Y-330200D01*
X-657860Y-769620D02*
X-657860Y-891540D01*
X-657860Y-769620D02*
X-609600Y-721360D01*
X-527050Y-928370D02*
X-515620Y-939800D01*
X-527050Y-928370D02*
X-621030Y-928370D01*
X-657860Y-891540D01*
X-609600Y-721360D02*
X-601980Y-713740D01*
X-599440Y-713740D01*
X-320040Y-739140D02*
X-226060Y-645160D01*
X-226060Y-487680D01*
X-208280Y-469900D01*
X-187442Y-469900D01*
X-320040Y-739140D02*
X-574040Y-739140D01*
X-160020Y-868680D02*
X-160020Y-568960D01*
X-182880Y-546100D01*
X-187442Y-546100D01*
X-650240Y-787400D02*
X-650240Y-886460D01*
X-650240Y-787400D02*
X-650240Y-784860D01*
X-214122Y-922782D02*
X-160020Y-868680D01*
X-214122Y-922782D02*
X-613918Y-922782D01*
X-650240Y-886460D01*
X-650240Y-787400D02*
X-601980Y-739140D01*
X-599440Y-739140D01*
X-241300Y-764540D02*
X-228600Y-751840D01*
X-228600Y-726958D01*
X-187442Y-685800D01*
X-241300Y-764540D02*
X-574040Y-764540D01*
X-226060Y-777240D02*
X-226060Y-873760D01*
X-226060Y-777240D02*
X-210820Y-762000D01*
X-187442Y-762000D01*
X-637540Y-787400D02*
X-637540Y-883920D01*
X-637540Y-787400D02*
X-614680Y-764540D01*
X-269494Y-917194D02*
X-226060Y-873760D01*
X-269494Y-917194D02*
X-604266Y-917194D01*
X-637540Y-883920D01*
X-614680Y-764540D02*
X-599440Y-764540D01*
X-1374140Y-388620D02*
X-1391412Y-371348D01*
X-1391412Y-296672D01*
X-1374140Y-279400D01*
X-1397000Y-1739900D02*
X-1371600Y-1765300D01*
X-1397000Y-1739900D02*
X-1397000Y-1666240D01*
X-1381760Y-1651000D01*
X-1371600Y-1651000D01*
X-878840Y-1602740D02*
X-505460Y-1602740D01*
X-443604Y-1664596D01*
X-324602Y-1664596D01*
X-878840Y-1602740D02*
X-916940Y-1564640D01*
X-1297940Y-1312986D02*
X-1029716Y-1044762D01*
X-1297940Y-1312986D02*
X-1297940Y-1521460D01*
X-1254760Y-1564640D01*
X-916940Y-1564640D01*
X-939800Y-1577340D02*
X-1252220Y-1577340D01*
X-939800Y-1577340D02*
X-904240Y-1612900D01*
X-678180Y-1612900D01*
X-627380Y-1663700D01*
X-525262Y-1663700D01*
X-518160Y-1663700D01*
X-1055116Y-1044762D02*
X-1310640Y-1300286D01*
X-1310640Y-1518920D01*
X-1252220Y-1577340D01*
X-1191260Y-1590040D02*
X-1188720Y-1590040D01*
X-975360Y-1590040D01*
X-900162Y-1665238D01*
X-753862Y-1665238D01*
X-1325880Y-1290126D02*
X-1080516Y-1044762D01*
X-1325880Y-1290126D02*
X-1325880Y-1521460D01*
X-1257300Y-1590040D01*
X-1191260Y-1590040D01*
X-1221740Y-1602740D02*
X-1097280Y-1602740D01*
X-1036320Y-1663700D01*
X-987542Y-1663700D01*
X-1338580Y-1264726D02*
X-1118616Y-1044762D01*
X-1338580Y-1264726D02*
X-1338580Y-1534160D01*
X-1270000Y-1602740D01*
X-1221740Y-1602740D01*
X-1259840Y-1630680D02*
X-1248410Y-1642110D01*
X-1230362Y-1660158D01*
X-1219200Y-1660158D01*
X-1351280Y-1252026D02*
X-1144016Y-1044762D01*
X-1351280Y-1252026D02*
X-1351280Y-1539240D01*
X-1259840Y-1630680D01*
X-285302Y-1171762D02*
X-256540Y-1143000D01*
X-184902Y-1143000D01*
X-285302Y-1171762D02*
X-572516Y-1171762D01*
X-274320Y-1010920D02*
X-215900Y-1069340D01*
X-215900Y-1084580D01*
X-160020Y-1140460D01*
X-157480Y-1140460D01*
X-157480Y-1206500D01*
X-170180Y-1219200D01*
X-184902Y-1219200D01*
X-597916Y-1171762D02*
X-599634Y-1173480D01*
X-610870Y-1162244D01*
X-583635Y-1010920D02*
X-274320Y-1010920D01*
X-583635Y-1010920D02*
X-610870Y-1038155D01*
X-610870Y-1162244D01*
X-312420Y-1198880D02*
X-233680Y-1277620D01*
X-233680Y-1348740D01*
X-223520Y-1358900D01*
X-184902Y-1358900D01*
X-314138Y-1197162D02*
X-572516Y-1197162D01*
X-314138Y-1197162D02*
X-312420Y-1198880D01*
X-205740Y-1061720D02*
X-269240Y-998220D01*
X-205740Y-1061720D02*
X-205740Y-1079500D01*
X-147320Y-1137920D01*
X-147320Y-1414780D01*
X-167640Y-1435100D01*
X-184902Y-1435100D01*
X-269240Y-998220D02*
X-578837Y-998220D01*
X-621792Y-1041175D01*
X-621792Y-1173286D01*
X-597916Y-1197162D01*
X-319218Y-1222562D02*
X-248920Y-1292860D01*
X-248920Y-1541780D01*
X-215900Y-1574800D01*
X-184902Y-1574800D01*
X-319218Y-1222562D02*
X-572516Y-1222562D01*
X-500380Y-988060D02*
X-497840Y-988060D01*
X-266700Y-988060D01*
X-190500Y-1064260D01*
X-139700Y-1628140D02*
X-162560Y-1651000D01*
X-184902Y-1651000D01*
X-190500Y-1086837D02*
X-190500Y-1064260D01*
X-190500Y-1086837D02*
X-139700Y-1137637D01*
X-139700Y-1628140D01*
X-500380Y-988060D02*
X-576580Y-988060D01*
X-627380Y-1038860D01*
X-627380Y-1193098D01*
X-597916Y-1222562D01*
X-314960Y-1249680D02*
X-264160Y-1300480D01*
X-264160Y-1578754D01*
X-324602Y-1639196D01*
X-316678Y-1247962D02*
X-572516Y-1247962D01*
X-316678Y-1247962D02*
X-314960Y-1249680D01*
X-180340Y-1087120D02*
X-129540Y-1137920D01*
X-129540Y-1831340D01*
X-172720Y-1874520D01*
X-266700Y-1874520D01*
X-289560Y-1851660D01*
X-289560Y-1727200D01*
X-302260Y-1714500D01*
X-323706Y-1714500D01*
X-324602Y-1715396D01*
X-264443Y-975360D02*
X-574040Y-975360D01*
X-180340Y-1059463D02*
X-180340Y-1087120D01*
X-180340Y-1059463D02*
X-264443Y-975360D01*
X-574040Y-975360D02*
X-635000Y-1036320D01*
X-635000Y-1210878D01*
X-597916Y-1247962D01*
X-561340Y-1714500D02*
X-525262Y-1714500D01*
X-561340Y-1714500D02*
X-736600Y-1889760D01*
X-1305560Y-1889760D01*
X-1353820Y-1841500D01*
X-1331214Y-967994D02*
X-726440Y-967994D01*
X-1331214Y-967994D02*
X-1399540Y-1036320D01*
X-1399540Y-1595120D01*
X-1353820Y-1640840D01*
X-1353820Y-1841500D01*
X-726440Y-967994D02*
X-713486Y-967994D01*
X-645160Y-1036320D01*
X-645160Y-1226820D01*
X-598618Y-1273362D01*
X-597916Y-1273362D01*
X-753862Y-1716038D02*
X-771158Y-1716038D01*
X-927100Y-1871980D01*
X-1236980Y-1871980D01*
X-1389380Y-1038860D02*
X-1336040Y-985520D01*
X-1389380Y-1038860D02*
X-1389380Y-1562100D01*
X-1267046Y-1684434D01*
X-1267046Y-1841914D02*
X-1236980Y-1871980D01*
X-1267046Y-1841914D02*
X-1267046Y-1684434D01*
X-1336040Y-985520D02*
X-711200Y-985520D01*
X-660400Y-1036320D01*
X-660400Y-1236278D01*
X-597916Y-1298762D01*
X-987542Y-1714500D02*
X-1059180Y-1714500D01*
X-1203960Y-1859280D01*
X-1338580Y-1003300D02*
X-901700Y-1003300D01*
X-598738Y-1323340D02*
X-597916Y-1324162D01*
X-1338580Y-1003300D02*
X-1376680Y-1041400D01*
X-1376680Y-1566897D01*
X-1241777Y-1859280D02*
X-1203960Y-1859280D01*
X-1241777Y-1859280D02*
X-1261458Y-1839599D01*
X-1261458Y-1682119D02*
X-1376680Y-1566897D01*
X-1261458Y-1682119D02*
X-1261458Y-1839599D01*
X-703580Y-1323340D02*
X-598738Y-1323340D01*
X-703580Y-1323340D02*
X-873760Y-1153160D01*
X-873760Y-1031240D01*
X-901700Y-1003300D01*
X-904240Y-1016000D02*
X-1341120Y-1016000D01*
X-1366520Y-1041400D01*
X-1366520Y-1563638D01*
X-1219200Y-1710958D01*
X-712918Y-1349562D02*
X-597916Y-1349562D01*
X-712918Y-1349562D02*
X-883920Y-1178560D01*
X-883920Y-1036320D01*
X-904240Y-1016000D01*
M02*
