G04 EAGLE Gerber RS-274X export*
G75*
%MOMM*%
%FSLAX34Y34*%
%LPD*%
%INCopper Layer 2*%
%IPPOS*%
%AMOC8*
5,1,8,0,0,1.08239X$1,22.5*%
G01*
G04 Define Apertures*
%ADD10C,1.524000*%
%ADD11C,1.800000*%
%ADD12C,0.756400*%
%ADD13C,2.540000*%
G36*
X-109802Y-1909058D02*
X-110000Y-1909078D01*
X-1385677Y-1909078D01*
X-1385914Y-1909050D01*
X-1386206Y-1908980D01*
X-1386358Y-1908931D01*
X-1389524Y-1907619D01*
X-1389666Y-1907547D01*
X-1392589Y-1905756D01*
X-1392718Y-1905662D01*
X-1395324Y-1903436D01*
X-1395436Y-1903324D01*
X-1397662Y-1900718D01*
X-1397756Y-1900589D01*
X-1399547Y-1897666D01*
X-1399619Y-1897524D01*
X-1400931Y-1894358D01*
X-1400980Y-1894206D01*
X-1401780Y-1890874D01*
X-1401805Y-1890716D01*
X-1402077Y-1887260D01*
X-1402080Y-1887180D01*
X-1402080Y-114340D01*
X-1402077Y-114260D01*
X-1401867Y-111598D01*
X-1401842Y-111441D01*
X-1401228Y-108883D01*
X-1401179Y-108732D01*
X-1400173Y-106302D01*
X-1400100Y-106160D01*
X-1398726Y-103917D01*
X-1398632Y-103788D01*
X-1396924Y-101788D01*
X-1396812Y-101676D01*
X-1394812Y-99968D01*
X-1394683Y-99874D01*
X-1392440Y-98500D01*
X-1392298Y-98427D01*
X-1389868Y-97421D01*
X-1389717Y-97372D01*
X-1387159Y-96758D01*
X-1387002Y-96733D01*
X-1384340Y-96523D01*
X-1384260Y-96520D01*
X-106720Y-96520D01*
X-106640Y-96523D01*
X-103978Y-96733D01*
X-103821Y-96758D01*
X-101263Y-97372D01*
X-101112Y-97421D01*
X-98682Y-98427D01*
X-98540Y-98500D01*
X-96297Y-99874D01*
X-96168Y-99968D01*
X-95147Y-100840D01*
X-94962Y-101048D01*
X-92468Y-104781D01*
X-92316Y-105147D01*
X-90942Y-112059D01*
X-90922Y-112257D01*
X-90922Y-1890000D01*
X-90942Y-1890198D01*
X-92316Y-1897110D01*
X-92468Y-1897477D01*
X-96383Y-1903336D01*
X-96664Y-1903617D01*
X-102524Y-1907532D01*
X-102890Y-1907684D01*
X-109802Y-1909058D01*
G37*
%LPC*%
G36*
X-353060Y-268478D02*
X-332740Y-268478D01*
X-332740Y-267219D01*
X-334287Y-263485D01*
X-337145Y-260627D01*
X-340099Y-259403D01*
X-340399Y-259211D01*
X-340636Y-258883D01*
X-340726Y-258489D01*
X-340655Y-258091D01*
X-340434Y-257752D01*
X-340099Y-257526D01*
X-335130Y-255468D01*
X-331272Y-251610D01*
X-329184Y-246568D01*
X-329184Y-241112D01*
X-331272Y-236070D01*
X-335130Y-232212D01*
X-335453Y-232079D01*
X-335753Y-231886D01*
X-335990Y-231559D01*
X-336080Y-231164D01*
X-336009Y-230766D01*
X-335788Y-230427D01*
X-335453Y-230201D01*
X-335130Y-230068D01*
X-331272Y-226210D01*
X-329184Y-221168D01*
X-329184Y-215712D01*
X-331272Y-210670D01*
X-335130Y-206812D01*
X-335453Y-206679D01*
X-335753Y-206486D01*
X-335990Y-206159D01*
X-336080Y-205764D01*
X-336009Y-205366D01*
X-335788Y-205027D01*
X-335453Y-204801D01*
X-335130Y-204668D01*
X-331272Y-200810D01*
X-329184Y-195768D01*
X-329184Y-190312D01*
X-331272Y-185270D01*
X-335130Y-181412D01*
X-335453Y-181279D01*
X-335753Y-181086D01*
X-335990Y-180759D01*
X-336080Y-180364D01*
X-336009Y-179966D01*
X-335788Y-179627D01*
X-335453Y-179401D01*
X-335130Y-179268D01*
X-331272Y-175410D01*
X-329184Y-170368D01*
X-329184Y-164912D01*
X-331272Y-159870D01*
X-335130Y-156012D01*
X-340172Y-153924D01*
X-345628Y-153924D01*
X-350670Y-156012D01*
X-354528Y-159870D01*
X-356616Y-164912D01*
X-356616Y-170368D01*
X-354528Y-175410D01*
X-350670Y-179268D01*
X-350347Y-179401D01*
X-350047Y-179594D01*
X-349810Y-179921D01*
X-349720Y-180316D01*
X-349791Y-180714D01*
X-350012Y-181053D01*
X-350347Y-181279D01*
X-350670Y-181412D01*
X-354528Y-185270D01*
X-356616Y-190312D01*
X-356616Y-195768D01*
X-354528Y-200810D01*
X-350670Y-204668D01*
X-350347Y-204801D01*
X-350047Y-204994D01*
X-349810Y-205321D01*
X-349720Y-205716D01*
X-349791Y-206114D01*
X-350012Y-206453D01*
X-350347Y-206679D01*
X-350670Y-206812D01*
X-354528Y-210670D01*
X-356616Y-215712D01*
X-356616Y-221168D01*
X-354528Y-226210D01*
X-350670Y-230068D01*
X-350347Y-230201D01*
X-350047Y-230394D01*
X-349810Y-230721D01*
X-349720Y-231116D01*
X-349791Y-231514D01*
X-350012Y-231853D01*
X-350347Y-232079D01*
X-350670Y-232212D01*
X-354528Y-236070D01*
X-356616Y-241112D01*
X-356616Y-246568D01*
X-354528Y-251610D01*
X-350670Y-255468D01*
X-345701Y-257526D01*
X-345401Y-257718D01*
X-345164Y-258046D01*
X-345074Y-258440D01*
X-345145Y-258838D01*
X-345366Y-259177D01*
X-345701Y-259403D01*
X-348655Y-260627D01*
X-351513Y-263485D01*
X-353060Y-267219D01*
X-353060Y-268478D01*
G37*
G36*
X-572516Y-268478D02*
X-552196Y-268478D01*
X-552196Y-267219D01*
X-553743Y-263485D01*
X-556601Y-260627D01*
X-559555Y-259403D01*
X-559855Y-259211D01*
X-560092Y-258883D01*
X-560182Y-258489D01*
X-560111Y-258091D01*
X-559890Y-257752D01*
X-559555Y-257526D01*
X-554586Y-255468D01*
X-550728Y-251610D01*
X-548640Y-246568D01*
X-548640Y-241112D01*
X-550728Y-236070D01*
X-554586Y-232212D01*
X-554909Y-232079D01*
X-555209Y-231886D01*
X-555446Y-231559D01*
X-555536Y-231164D01*
X-555465Y-230766D01*
X-555244Y-230427D01*
X-554909Y-230201D01*
X-554586Y-230068D01*
X-550728Y-226210D01*
X-548640Y-221168D01*
X-548640Y-215712D01*
X-550728Y-210670D01*
X-554586Y-206812D01*
X-554909Y-206679D01*
X-555209Y-206486D01*
X-555446Y-206159D01*
X-555536Y-205764D01*
X-555465Y-205366D01*
X-555244Y-205027D01*
X-554909Y-204801D01*
X-554586Y-204668D01*
X-550728Y-200810D01*
X-548640Y-195768D01*
X-548640Y-190312D01*
X-550728Y-185270D01*
X-554586Y-181412D01*
X-554909Y-181279D01*
X-555209Y-181086D01*
X-555446Y-180759D01*
X-555536Y-180364D01*
X-555465Y-179966D01*
X-555244Y-179627D01*
X-554909Y-179401D01*
X-554586Y-179268D01*
X-550728Y-175410D01*
X-548640Y-170368D01*
X-548640Y-164912D01*
X-550728Y-159870D01*
X-554586Y-156012D01*
X-559628Y-153924D01*
X-565084Y-153924D01*
X-570126Y-156012D01*
X-573984Y-159870D01*
X-576072Y-164912D01*
X-576072Y-170368D01*
X-573984Y-175410D01*
X-570126Y-179268D01*
X-569803Y-179401D01*
X-569503Y-179594D01*
X-569266Y-179921D01*
X-569176Y-180316D01*
X-569247Y-180714D01*
X-569468Y-181053D01*
X-569803Y-181279D01*
X-570126Y-181412D01*
X-573984Y-185270D01*
X-576072Y-190312D01*
X-576072Y-195768D01*
X-573984Y-200810D01*
X-570126Y-204668D01*
X-569803Y-204801D01*
X-569503Y-204994D01*
X-569266Y-205321D01*
X-569176Y-205716D01*
X-569247Y-206114D01*
X-569468Y-206453D01*
X-569803Y-206679D01*
X-570126Y-206812D01*
X-573984Y-210670D01*
X-576072Y-215712D01*
X-576072Y-221168D01*
X-573984Y-226210D01*
X-570126Y-230068D01*
X-569803Y-230201D01*
X-569503Y-230394D01*
X-569266Y-230721D01*
X-569176Y-231116D01*
X-569247Y-231514D01*
X-569468Y-231853D01*
X-569803Y-232079D01*
X-570126Y-232212D01*
X-573984Y-236070D01*
X-576072Y-241112D01*
X-576072Y-246568D01*
X-573984Y-251610D01*
X-570126Y-255468D01*
X-565157Y-257526D01*
X-564857Y-257718D01*
X-564620Y-258046D01*
X-564530Y-258440D01*
X-564601Y-258838D01*
X-564822Y-259177D01*
X-565157Y-259403D01*
X-568111Y-260627D01*
X-570969Y-263485D01*
X-572516Y-267219D01*
X-572516Y-268478D01*
G37*
G36*
X-995680Y-270500D02*
X-975360Y-270500D01*
X-975360Y-269241D01*
X-976907Y-265507D01*
X-979765Y-262649D01*
X-982719Y-261425D01*
X-983019Y-261233D01*
X-983256Y-260905D01*
X-983346Y-260511D01*
X-983275Y-260113D01*
X-983054Y-259774D01*
X-982719Y-259548D01*
X-977750Y-257490D01*
X-973892Y-253632D01*
X-971804Y-248590D01*
X-971804Y-243134D01*
X-973892Y-238092D01*
X-977750Y-234234D01*
X-978073Y-234101D01*
X-978373Y-233908D01*
X-978610Y-233581D01*
X-978700Y-233186D01*
X-978629Y-232788D01*
X-978408Y-232449D01*
X-978073Y-232223D01*
X-977750Y-232090D01*
X-973892Y-228232D01*
X-971804Y-223190D01*
X-971804Y-217734D01*
X-973892Y-212692D01*
X-977750Y-208834D01*
X-978073Y-208701D01*
X-978373Y-208508D01*
X-978610Y-208181D01*
X-978700Y-207786D01*
X-978629Y-207388D01*
X-978408Y-207049D01*
X-978073Y-206823D01*
X-977750Y-206690D01*
X-973892Y-202832D01*
X-971804Y-197790D01*
X-971804Y-192334D01*
X-973892Y-187292D01*
X-977750Y-183434D01*
X-978073Y-183301D01*
X-978373Y-183108D01*
X-978610Y-182781D01*
X-978700Y-182386D01*
X-978629Y-181988D01*
X-978408Y-181649D01*
X-978073Y-181423D01*
X-977750Y-181290D01*
X-973892Y-177432D01*
X-971804Y-172390D01*
X-971804Y-166934D01*
X-973892Y-161892D01*
X-977750Y-158034D01*
X-982792Y-155946D01*
X-988248Y-155946D01*
X-993290Y-158034D01*
X-997148Y-161892D01*
X-999236Y-166934D01*
X-999236Y-172390D01*
X-997148Y-177432D01*
X-993290Y-181290D01*
X-992967Y-181423D01*
X-992667Y-181616D01*
X-992430Y-181943D01*
X-992340Y-182338D01*
X-992411Y-182736D01*
X-992632Y-183075D01*
X-992967Y-183301D01*
X-993290Y-183434D01*
X-997148Y-187292D01*
X-999236Y-192334D01*
X-999236Y-197790D01*
X-997148Y-202832D01*
X-993290Y-206690D01*
X-992967Y-206823D01*
X-992667Y-207016D01*
X-992430Y-207343D01*
X-992340Y-207738D01*
X-992411Y-208136D01*
X-992632Y-208475D01*
X-992967Y-208701D01*
X-993290Y-208834D01*
X-997148Y-212692D01*
X-999236Y-217734D01*
X-999236Y-223190D01*
X-997148Y-228232D01*
X-993290Y-232090D01*
X-992967Y-232223D01*
X-992667Y-232416D01*
X-992430Y-232743D01*
X-992340Y-233138D01*
X-992411Y-233536D01*
X-992632Y-233875D01*
X-992967Y-234101D01*
X-993290Y-234234D01*
X-997148Y-238092D01*
X-999236Y-243134D01*
X-999236Y-248590D01*
X-997148Y-253632D01*
X-993290Y-257490D01*
X-988321Y-259548D01*
X-988021Y-259740D01*
X-987784Y-260068D01*
X-987694Y-260462D01*
X-987765Y-260860D01*
X-987986Y-261199D01*
X-988321Y-261425D01*
X-991275Y-262649D01*
X-994133Y-265507D01*
X-995680Y-269241D01*
X-995680Y-270500D01*
G37*
G36*
X-784860Y-270500D02*
X-764540Y-270500D01*
X-764540Y-269241D01*
X-766087Y-265507D01*
X-768945Y-262649D01*
X-771899Y-261425D01*
X-772199Y-261233D01*
X-772436Y-260905D01*
X-772526Y-260511D01*
X-772455Y-260113D01*
X-772234Y-259774D01*
X-771899Y-259548D01*
X-766930Y-257490D01*
X-763072Y-253632D01*
X-760984Y-248590D01*
X-760984Y-243134D01*
X-763072Y-238092D01*
X-766930Y-234234D01*
X-767253Y-234101D01*
X-767553Y-233908D01*
X-767790Y-233581D01*
X-767880Y-233186D01*
X-767809Y-232788D01*
X-767588Y-232449D01*
X-767253Y-232223D01*
X-766930Y-232090D01*
X-763072Y-228232D01*
X-760984Y-223190D01*
X-760984Y-217734D01*
X-763072Y-212692D01*
X-766930Y-208834D01*
X-767253Y-208701D01*
X-767553Y-208508D01*
X-767790Y-208181D01*
X-767880Y-207786D01*
X-767809Y-207388D01*
X-767588Y-207049D01*
X-767253Y-206823D01*
X-766930Y-206690D01*
X-763072Y-202832D01*
X-760984Y-197790D01*
X-760984Y-192334D01*
X-763072Y-187292D01*
X-766930Y-183434D01*
X-767253Y-183301D01*
X-767553Y-183108D01*
X-767790Y-182781D01*
X-767880Y-182386D01*
X-767809Y-181988D01*
X-767588Y-181649D01*
X-767253Y-181423D01*
X-766930Y-181290D01*
X-763072Y-177432D01*
X-760984Y-172390D01*
X-760984Y-166934D01*
X-763072Y-161892D01*
X-766930Y-158034D01*
X-771972Y-155946D01*
X-777428Y-155946D01*
X-782470Y-158034D01*
X-786328Y-161892D01*
X-788416Y-166934D01*
X-788416Y-172390D01*
X-786328Y-177432D01*
X-782470Y-181290D01*
X-782147Y-181423D01*
X-781847Y-181616D01*
X-781610Y-181943D01*
X-781520Y-182338D01*
X-781591Y-182736D01*
X-781812Y-183075D01*
X-782147Y-183301D01*
X-782470Y-183434D01*
X-786328Y-187292D01*
X-788416Y-192334D01*
X-788416Y-197790D01*
X-786328Y-202832D01*
X-782470Y-206690D01*
X-782147Y-206823D01*
X-781847Y-207016D01*
X-781610Y-207343D01*
X-781520Y-207738D01*
X-781591Y-208136D01*
X-781812Y-208475D01*
X-782147Y-208701D01*
X-782470Y-208834D01*
X-786328Y-212692D01*
X-788416Y-217734D01*
X-788416Y-223190D01*
X-786328Y-228232D01*
X-782470Y-232090D01*
X-782147Y-232223D01*
X-781847Y-232416D01*
X-781610Y-232743D01*
X-781520Y-233138D01*
X-781591Y-233536D01*
X-781812Y-233875D01*
X-782147Y-234101D01*
X-782470Y-234234D01*
X-786328Y-238092D01*
X-788416Y-243134D01*
X-788416Y-248590D01*
X-786328Y-253632D01*
X-782470Y-257490D01*
X-777501Y-259548D01*
X-777201Y-259740D01*
X-776964Y-260068D01*
X-776874Y-260462D01*
X-776945Y-260860D01*
X-777166Y-261199D01*
X-777501Y-261425D01*
X-780455Y-262649D01*
X-783313Y-265507D01*
X-784860Y-269241D01*
X-784860Y-270500D01*
G37*
G36*
X-1247140Y-270500D02*
X-1226820Y-270500D01*
X-1226820Y-269241D01*
X-1228367Y-265507D01*
X-1231225Y-262649D01*
X-1234179Y-261425D01*
X-1234479Y-261233D01*
X-1234716Y-260905D01*
X-1234806Y-260511D01*
X-1234735Y-260113D01*
X-1234514Y-259774D01*
X-1234179Y-259548D01*
X-1229210Y-257490D01*
X-1225352Y-253632D01*
X-1223264Y-248590D01*
X-1223264Y-243134D01*
X-1225352Y-238092D01*
X-1229210Y-234234D01*
X-1229533Y-234101D01*
X-1229833Y-233908D01*
X-1230070Y-233581D01*
X-1230160Y-233186D01*
X-1230089Y-232788D01*
X-1229868Y-232449D01*
X-1229533Y-232223D01*
X-1229210Y-232090D01*
X-1225352Y-228232D01*
X-1223264Y-223190D01*
X-1223264Y-217734D01*
X-1225352Y-212692D01*
X-1229210Y-208834D01*
X-1229533Y-208701D01*
X-1229833Y-208508D01*
X-1230070Y-208181D01*
X-1230160Y-207786D01*
X-1230089Y-207388D01*
X-1229868Y-207049D01*
X-1229533Y-206823D01*
X-1229210Y-206690D01*
X-1225352Y-202832D01*
X-1223264Y-197790D01*
X-1223264Y-192334D01*
X-1225352Y-187292D01*
X-1229210Y-183434D01*
X-1229533Y-183301D01*
X-1229833Y-183108D01*
X-1230070Y-182781D01*
X-1230160Y-182386D01*
X-1230089Y-181988D01*
X-1229868Y-181649D01*
X-1229533Y-181423D01*
X-1229210Y-181290D01*
X-1225352Y-177432D01*
X-1223264Y-172390D01*
X-1223264Y-166934D01*
X-1225352Y-161892D01*
X-1229210Y-158034D01*
X-1234252Y-155946D01*
X-1239708Y-155946D01*
X-1244750Y-158034D01*
X-1248608Y-161892D01*
X-1250696Y-166934D01*
X-1250696Y-172390D01*
X-1248608Y-177432D01*
X-1244750Y-181290D01*
X-1244427Y-181423D01*
X-1244127Y-181616D01*
X-1243890Y-181943D01*
X-1243800Y-182338D01*
X-1243871Y-182736D01*
X-1244092Y-183075D01*
X-1244427Y-183301D01*
X-1244750Y-183434D01*
X-1248608Y-187292D01*
X-1250696Y-192334D01*
X-1250696Y-197790D01*
X-1248608Y-202832D01*
X-1244750Y-206690D01*
X-1244427Y-206823D01*
X-1244127Y-207016D01*
X-1243890Y-207343D01*
X-1243800Y-207738D01*
X-1243871Y-208136D01*
X-1244092Y-208475D01*
X-1244427Y-208701D01*
X-1244750Y-208834D01*
X-1248608Y-212692D01*
X-1250696Y-217734D01*
X-1250696Y-223190D01*
X-1248608Y-228232D01*
X-1244750Y-232090D01*
X-1244427Y-232223D01*
X-1244127Y-232416D01*
X-1243890Y-232743D01*
X-1243800Y-233138D01*
X-1243871Y-233536D01*
X-1244092Y-233875D01*
X-1244427Y-234101D01*
X-1244750Y-234234D01*
X-1248608Y-238092D01*
X-1250696Y-243134D01*
X-1250696Y-248590D01*
X-1248608Y-253632D01*
X-1244750Y-257490D01*
X-1239781Y-259548D01*
X-1239481Y-259740D01*
X-1239244Y-260068D01*
X-1239154Y-260462D01*
X-1239225Y-260860D01*
X-1239446Y-261199D01*
X-1239781Y-261425D01*
X-1242735Y-262649D01*
X-1245593Y-265507D01*
X-1247140Y-269241D01*
X-1247140Y-270500D01*
G37*
G36*
X-1304898Y-230922D02*
X-1295102Y-230922D01*
X-1285787Y-227895D01*
X-1277862Y-222138D01*
X-1272105Y-214213D01*
X-1269078Y-204898D01*
X-1269078Y-195102D01*
X-1272105Y-185787D01*
X-1277862Y-177862D01*
X-1285787Y-172105D01*
X-1295102Y-169078D01*
X-1304898Y-169078D01*
X-1314213Y-172105D01*
X-1322138Y-177862D01*
X-1327895Y-185787D01*
X-1330922Y-195102D01*
X-1330922Y-204898D01*
X-1327895Y-214213D01*
X-1322138Y-222138D01*
X-1314213Y-227895D01*
X-1304898Y-230922D01*
G37*
G36*
X-204898Y-230922D02*
X-195102Y-230922D01*
X-185787Y-227895D01*
X-177862Y-222138D01*
X-172105Y-214213D01*
X-169078Y-204898D01*
X-169078Y-195102D01*
X-172105Y-185787D01*
X-177862Y-177862D01*
X-185787Y-172105D01*
X-195102Y-169078D01*
X-204898Y-169078D01*
X-214213Y-172105D01*
X-222138Y-177862D01*
X-227895Y-185787D01*
X-230922Y-195102D01*
X-230922Y-204898D01*
X-227895Y-214213D01*
X-222138Y-222138D01*
X-214213Y-227895D01*
X-204898Y-230922D01*
G37*
G36*
X-906205Y-215618D02*
X-902275Y-215618D01*
X-898645Y-214114D01*
X-895866Y-211336D01*
X-894362Y-207705D01*
X-894362Y-203775D01*
X-895866Y-200145D01*
X-898645Y-197366D01*
X-902275Y-195862D01*
X-906205Y-195862D01*
X-909836Y-197366D01*
X-912614Y-200145D01*
X-914118Y-203775D01*
X-914118Y-207705D01*
X-912614Y-211336D01*
X-909836Y-214114D01*
X-906205Y-215618D01*
G37*
G36*
X-1377143Y-243696D02*
X-1371137Y-243696D01*
X-1365589Y-241398D01*
X-1361342Y-237151D01*
X-1359044Y-231603D01*
X-1359044Y-225597D01*
X-1361342Y-220049D01*
X-1365589Y-215802D01*
X-1371137Y-213504D01*
X-1377143Y-213504D01*
X-1382691Y-215802D01*
X-1386938Y-220049D01*
X-1389236Y-225597D01*
X-1389236Y-231603D01*
X-1386938Y-237151D01*
X-1382691Y-241398D01*
X-1377143Y-243696D01*
G37*
G36*
X-197602Y-354838D02*
X-177282Y-354838D01*
X-177282Y-353579D01*
X-178829Y-349845D01*
X-181687Y-346987D01*
X-184641Y-345763D01*
X-184941Y-345571D01*
X-185178Y-345243D01*
X-185268Y-344849D01*
X-185197Y-344451D01*
X-184976Y-344112D01*
X-184641Y-343886D01*
X-179672Y-341828D01*
X-175814Y-337970D01*
X-173726Y-332928D01*
X-173726Y-327472D01*
X-175814Y-322430D01*
X-179672Y-318572D01*
X-179995Y-318439D01*
X-180295Y-318246D01*
X-180532Y-317919D01*
X-180622Y-317524D01*
X-180551Y-317126D01*
X-180330Y-316787D01*
X-179995Y-316561D01*
X-179672Y-316428D01*
X-175814Y-312570D01*
X-173726Y-307528D01*
X-173726Y-302072D01*
X-175814Y-297030D01*
X-179672Y-293172D01*
X-179995Y-293039D01*
X-180295Y-292846D01*
X-180532Y-292519D01*
X-180622Y-292124D01*
X-180551Y-291726D01*
X-180330Y-291387D01*
X-179995Y-291161D01*
X-179672Y-291028D01*
X-175814Y-287170D01*
X-173726Y-282128D01*
X-173726Y-276672D01*
X-175814Y-271630D01*
X-179672Y-267772D01*
X-179995Y-267639D01*
X-180295Y-267446D01*
X-180532Y-267119D01*
X-180622Y-266724D01*
X-180551Y-266326D01*
X-180330Y-265987D01*
X-179995Y-265761D01*
X-179672Y-265628D01*
X-175814Y-261770D01*
X-173726Y-256728D01*
X-173726Y-251272D01*
X-175814Y-246230D01*
X-179672Y-242372D01*
X-184714Y-240284D01*
X-190170Y-240284D01*
X-195212Y-242372D01*
X-199070Y-246230D01*
X-201158Y-251272D01*
X-201158Y-256728D01*
X-199070Y-261770D01*
X-195212Y-265628D01*
X-194889Y-265761D01*
X-194589Y-265954D01*
X-194352Y-266281D01*
X-194262Y-266676D01*
X-194333Y-267074D01*
X-194554Y-267413D01*
X-194889Y-267639D01*
X-195212Y-267772D01*
X-199070Y-271630D01*
X-201158Y-276672D01*
X-201158Y-282128D01*
X-199070Y-287170D01*
X-195212Y-291028D01*
X-194889Y-291161D01*
X-194589Y-291354D01*
X-194352Y-291681D01*
X-194262Y-292076D01*
X-194333Y-292474D01*
X-194554Y-292813D01*
X-194889Y-293039D01*
X-195212Y-293172D01*
X-199070Y-297030D01*
X-201158Y-302072D01*
X-201158Y-307528D01*
X-199070Y-312570D01*
X-195212Y-316428D01*
X-194889Y-316561D01*
X-194589Y-316754D01*
X-194352Y-317081D01*
X-194262Y-317476D01*
X-194333Y-317874D01*
X-194554Y-318213D01*
X-194889Y-318439D01*
X-195212Y-318572D01*
X-199070Y-322430D01*
X-201158Y-327472D01*
X-201158Y-332928D01*
X-199070Y-337970D01*
X-195212Y-341828D01*
X-190243Y-343886D01*
X-189943Y-344078D01*
X-189706Y-344406D01*
X-189616Y-344800D01*
X-189687Y-345198D01*
X-189908Y-345537D01*
X-190243Y-345763D01*
X-193197Y-346987D01*
X-196055Y-349845D01*
X-197602Y-353579D01*
X-197602Y-354838D01*
G37*
G36*
X-951925Y-266418D02*
X-947995Y-266418D01*
X-944365Y-264914D01*
X-941586Y-262136D01*
X-940082Y-258505D01*
X-940082Y-254575D01*
X-941586Y-250945D01*
X-944365Y-248166D01*
X-947995Y-246662D01*
X-951925Y-246662D01*
X-955556Y-248166D01*
X-958334Y-250945D01*
X-959838Y-254575D01*
X-959838Y-258505D01*
X-958334Y-262136D01*
X-955556Y-264914D01*
X-951925Y-266418D01*
G37*
G36*
X-1377143Y-294496D02*
X-1371137Y-294496D01*
X-1365589Y-292198D01*
X-1361342Y-287951D01*
X-1359044Y-282403D01*
X-1359044Y-276397D01*
X-1361342Y-270849D01*
X-1365589Y-266602D01*
X-1371137Y-264304D01*
X-1377143Y-264304D01*
X-1382691Y-266602D01*
X-1386938Y-270849D01*
X-1389236Y-276397D01*
X-1389236Y-282403D01*
X-1386938Y-287951D01*
X-1382691Y-292198D01*
X-1377143Y-294496D01*
G37*
G36*
X-353060Y-319278D02*
X-332740Y-319278D01*
X-332740Y-318019D01*
X-334287Y-314285D01*
X-337145Y-311427D01*
X-340099Y-310203D01*
X-340399Y-310011D01*
X-340636Y-309683D01*
X-340726Y-309289D01*
X-340655Y-308891D01*
X-340434Y-308552D01*
X-340099Y-308326D01*
X-335130Y-306268D01*
X-331272Y-302410D01*
X-329184Y-297368D01*
X-329184Y-291912D01*
X-331272Y-286870D01*
X-335130Y-283012D01*
X-340099Y-280954D01*
X-340399Y-280762D01*
X-340636Y-280434D01*
X-340726Y-280040D01*
X-340655Y-279642D01*
X-340434Y-279303D01*
X-340099Y-279077D01*
X-337145Y-277853D01*
X-334287Y-274995D01*
X-332740Y-271261D01*
X-332740Y-270002D01*
X-353060Y-270002D01*
X-353060Y-271261D01*
X-351513Y-274995D01*
X-348655Y-277853D01*
X-345701Y-279077D01*
X-345401Y-279269D01*
X-345164Y-279597D01*
X-345074Y-279991D01*
X-345145Y-280389D01*
X-345366Y-280728D01*
X-345701Y-280954D01*
X-350670Y-283012D01*
X-354528Y-286870D01*
X-356616Y-291912D01*
X-356616Y-297368D01*
X-354528Y-302410D01*
X-350670Y-306268D01*
X-345701Y-308326D01*
X-345401Y-308518D01*
X-345164Y-308846D01*
X-345074Y-309240D01*
X-345145Y-309638D01*
X-345366Y-309977D01*
X-345701Y-310203D01*
X-348655Y-311427D01*
X-351513Y-314285D01*
X-353060Y-318019D01*
X-353060Y-319278D01*
G37*
G36*
X-572516Y-319278D02*
X-552196Y-319278D01*
X-552196Y-318019D01*
X-553743Y-314285D01*
X-556601Y-311427D01*
X-559555Y-310203D01*
X-559855Y-310011D01*
X-560092Y-309683D01*
X-560182Y-309289D01*
X-560111Y-308891D01*
X-559890Y-308552D01*
X-559555Y-308326D01*
X-554586Y-306268D01*
X-550728Y-302410D01*
X-548640Y-297368D01*
X-548640Y-291912D01*
X-550728Y-286870D01*
X-554586Y-283012D01*
X-559555Y-280954D01*
X-559855Y-280762D01*
X-560092Y-280434D01*
X-560182Y-280040D01*
X-560111Y-279642D01*
X-559890Y-279303D01*
X-559555Y-279077D01*
X-556601Y-277853D01*
X-553743Y-274995D01*
X-552196Y-271261D01*
X-552196Y-270002D01*
X-572516Y-270002D01*
X-572516Y-271261D01*
X-570969Y-274995D01*
X-568111Y-277853D01*
X-565157Y-279077D01*
X-564857Y-279269D01*
X-564620Y-279597D01*
X-564530Y-279991D01*
X-564601Y-280389D01*
X-564822Y-280728D01*
X-565157Y-280954D01*
X-570126Y-283012D01*
X-573984Y-286870D01*
X-576072Y-291912D01*
X-576072Y-297368D01*
X-573984Y-302410D01*
X-570126Y-306268D01*
X-565157Y-308326D01*
X-564857Y-308518D01*
X-564620Y-308846D01*
X-564530Y-309240D01*
X-564601Y-309638D01*
X-564822Y-309977D01*
X-565157Y-310203D01*
X-568111Y-311427D01*
X-570969Y-314285D01*
X-572516Y-318019D01*
X-572516Y-319278D01*
G37*
G36*
X-784860Y-321300D02*
X-764540Y-321300D01*
X-764540Y-320041D01*
X-766087Y-316307D01*
X-768945Y-313449D01*
X-771899Y-312225D01*
X-772199Y-312033D01*
X-772436Y-311705D01*
X-772526Y-311311D01*
X-772455Y-310913D01*
X-772234Y-310574D01*
X-771899Y-310348D01*
X-766930Y-308290D01*
X-763072Y-304432D01*
X-760984Y-299390D01*
X-760984Y-293934D01*
X-763072Y-288892D01*
X-766930Y-285034D01*
X-771899Y-282976D01*
X-772199Y-282784D01*
X-772436Y-282456D01*
X-772526Y-282062D01*
X-772455Y-281664D01*
X-772234Y-281325D01*
X-771899Y-281099D01*
X-768945Y-279875D01*
X-766087Y-277017D01*
X-764540Y-273283D01*
X-764540Y-272024D01*
X-784860Y-272024D01*
X-784860Y-273283D01*
X-783313Y-277017D01*
X-780455Y-279875D01*
X-777501Y-281099D01*
X-777201Y-281291D01*
X-776964Y-281619D01*
X-776874Y-282013D01*
X-776945Y-282411D01*
X-777166Y-282750D01*
X-777501Y-282976D01*
X-782470Y-285034D01*
X-786328Y-288892D01*
X-788416Y-293934D01*
X-788416Y-299390D01*
X-786328Y-304432D01*
X-782470Y-308290D01*
X-777501Y-310348D01*
X-777201Y-310540D01*
X-776964Y-310868D01*
X-776874Y-311262D01*
X-776945Y-311660D01*
X-777166Y-311999D01*
X-777501Y-312225D01*
X-780455Y-313449D01*
X-783313Y-316307D01*
X-784860Y-320041D01*
X-784860Y-321300D01*
G37*
G36*
X-995680Y-321300D02*
X-975360Y-321300D01*
X-975360Y-320041D01*
X-976907Y-316307D01*
X-979765Y-313449D01*
X-982719Y-312225D01*
X-983019Y-312033D01*
X-983256Y-311705D01*
X-983346Y-311311D01*
X-983275Y-310913D01*
X-983054Y-310574D01*
X-982719Y-310348D01*
X-977750Y-308290D01*
X-973892Y-304432D01*
X-971804Y-299390D01*
X-971804Y-293934D01*
X-973892Y-288892D01*
X-977750Y-285034D01*
X-982719Y-282976D01*
X-983019Y-282784D01*
X-983256Y-282456D01*
X-983346Y-282062D01*
X-983275Y-281664D01*
X-983054Y-281325D01*
X-982719Y-281099D01*
X-979765Y-279875D01*
X-976907Y-277017D01*
X-975360Y-273283D01*
X-975360Y-272024D01*
X-995680Y-272024D01*
X-995680Y-273283D01*
X-994133Y-277017D01*
X-991275Y-279875D01*
X-988321Y-281099D01*
X-988021Y-281291D01*
X-987784Y-281619D01*
X-987694Y-282013D01*
X-987765Y-282411D01*
X-987986Y-282750D01*
X-988321Y-282976D01*
X-993290Y-285034D01*
X-997148Y-288892D01*
X-999236Y-293934D01*
X-999236Y-299390D01*
X-997148Y-304432D01*
X-993290Y-308290D01*
X-988321Y-310348D01*
X-988021Y-310540D01*
X-987784Y-310868D01*
X-987694Y-311262D01*
X-987765Y-311660D01*
X-987986Y-311999D01*
X-988321Y-312225D01*
X-991275Y-313449D01*
X-994133Y-316307D01*
X-995680Y-320041D01*
X-995680Y-321300D01*
G37*
G36*
X-1247140Y-321300D02*
X-1226820Y-321300D01*
X-1226820Y-320041D01*
X-1228367Y-316307D01*
X-1231225Y-313449D01*
X-1234179Y-312225D01*
X-1234479Y-312033D01*
X-1234716Y-311705D01*
X-1234806Y-311311D01*
X-1234735Y-310913D01*
X-1234514Y-310574D01*
X-1234179Y-310348D01*
X-1229210Y-308290D01*
X-1225352Y-304432D01*
X-1223264Y-299390D01*
X-1223264Y-293934D01*
X-1225352Y-288892D01*
X-1229210Y-285034D01*
X-1234179Y-282976D01*
X-1234479Y-282784D01*
X-1234716Y-282456D01*
X-1234806Y-282062D01*
X-1234735Y-281664D01*
X-1234514Y-281325D01*
X-1234179Y-281099D01*
X-1231225Y-279875D01*
X-1228367Y-277017D01*
X-1226820Y-273283D01*
X-1226820Y-272024D01*
X-1247140Y-272024D01*
X-1247140Y-273283D01*
X-1245593Y-277017D01*
X-1242735Y-279875D01*
X-1239781Y-281099D01*
X-1239481Y-281291D01*
X-1239244Y-281619D01*
X-1239154Y-282013D01*
X-1239225Y-282411D01*
X-1239446Y-282750D01*
X-1239781Y-282976D01*
X-1244750Y-285034D01*
X-1248608Y-288892D01*
X-1250696Y-293934D01*
X-1250696Y-299390D01*
X-1248608Y-304432D01*
X-1244750Y-308290D01*
X-1239781Y-310348D01*
X-1239481Y-310540D01*
X-1239244Y-310868D01*
X-1239154Y-311262D01*
X-1239225Y-311660D01*
X-1239446Y-311999D01*
X-1239781Y-312225D01*
X-1242735Y-313449D01*
X-1245593Y-316307D01*
X-1247140Y-320041D01*
X-1247140Y-321300D01*
G37*
G36*
X-806379Y-1837436D02*
X-751125Y-1837436D01*
X-744217Y-1834574D01*
X-737928Y-1828285D01*
X-735066Y-1821377D01*
X-735066Y-1813899D01*
X-737928Y-1806991D01*
X-743215Y-1801704D01*
X-745872Y-1800603D01*
X-746178Y-1800405D01*
X-746412Y-1800075D01*
X-746499Y-1799681D01*
X-746425Y-1799283D01*
X-746201Y-1798946D01*
X-745249Y-1797993D01*
X-743702Y-1794259D01*
X-743702Y-1793000D01*
X-764022Y-1793000D01*
X-764022Y-1794259D01*
X-762475Y-1797993D01*
X-762359Y-1798110D01*
X-762155Y-1798402D01*
X-762062Y-1798796D01*
X-762130Y-1799194D01*
X-762347Y-1799535D01*
X-762681Y-1799764D01*
X-763077Y-1799844D01*
X-794434Y-1799844D01*
X-794815Y-1799770D01*
X-795152Y-1799546D01*
X-826726Y-1767972D01*
X-826944Y-1767650D01*
X-827024Y-1767254D01*
X-827024Y-1623646D01*
X-826950Y-1623265D01*
X-826726Y-1622928D01*
X-792612Y-1588814D01*
X-792290Y-1588596D01*
X-791894Y-1588516D01*
X-634570Y-1588516D01*
X-634219Y-1588579D01*
X-633875Y-1588791D01*
X-633641Y-1589121D01*
X-633555Y-1589516D01*
X-633629Y-1589913D01*
X-633852Y-1590250D01*
X-635694Y-1592093D01*
X-638556Y-1599001D01*
X-638556Y-1784279D01*
X-635694Y-1791187D01*
X-594847Y-1832034D01*
X-587939Y-1834896D01*
X-521523Y-1834896D01*
X-514615Y-1832034D01*
X-509328Y-1826747D01*
X-506466Y-1819839D01*
X-506466Y-1812361D01*
X-509328Y-1805453D01*
X-514615Y-1800166D01*
X-517272Y-1799065D01*
X-517578Y-1798867D01*
X-517812Y-1798537D01*
X-517899Y-1798143D01*
X-517825Y-1797745D01*
X-517601Y-1797408D01*
X-516649Y-1796455D01*
X-515102Y-1792721D01*
X-515102Y-1791462D01*
X-535422Y-1791462D01*
X-535422Y-1792721D01*
X-534106Y-1795899D01*
X-534029Y-1796256D01*
X-534097Y-1796654D01*
X-534314Y-1796995D01*
X-534648Y-1797224D01*
X-535044Y-1797304D01*
X-575994Y-1797304D01*
X-576375Y-1797230D01*
X-576712Y-1797006D01*
X-600666Y-1773052D01*
X-600884Y-1772730D01*
X-600964Y-1772334D01*
X-600964Y-1610946D01*
X-600890Y-1610565D01*
X-600666Y-1610228D01*
X-579252Y-1588814D01*
X-578930Y-1588596D01*
X-578534Y-1588516D01*
X-431292Y-1588516D01*
X-430926Y-1588584D01*
X-430585Y-1588802D01*
X-430356Y-1589136D01*
X-430276Y-1589532D01*
X-430276Y-1748719D01*
X-427414Y-1755627D01*
X-350111Y-1832931D01*
X-343203Y-1835792D01*
X-320863Y-1835792D01*
X-313955Y-1832931D01*
X-308668Y-1827643D01*
X-305806Y-1820735D01*
X-305806Y-1813257D01*
X-308668Y-1806349D01*
X-313955Y-1801062D01*
X-316612Y-1799961D01*
X-316918Y-1799763D01*
X-317152Y-1799434D01*
X-317239Y-1799039D01*
X-317165Y-1798641D01*
X-316941Y-1798304D01*
X-315989Y-1797351D01*
X-314442Y-1793617D01*
X-314442Y-1792358D01*
X-334762Y-1792358D01*
X-334762Y-1792664D01*
X-334825Y-1793015D01*
X-335037Y-1793359D01*
X-335367Y-1793593D01*
X-335762Y-1793679D01*
X-336159Y-1793605D01*
X-336496Y-1793382D01*
X-392386Y-1737492D01*
X-392604Y-1737170D01*
X-392684Y-1736774D01*
X-392684Y-1577926D01*
X-392610Y-1577545D01*
X-392386Y-1577208D01*
X-315678Y-1500500D01*
X-315371Y-1500289D01*
X-314976Y-1500203D01*
X-314579Y-1500277D01*
X-314242Y-1500500D01*
X-270554Y-1544188D01*
X-270336Y-1544510D01*
X-270256Y-1544906D01*
X-270256Y-1733479D01*
X-267394Y-1740387D01*
X-236707Y-1771074D01*
X-229799Y-1773936D01*
X-219861Y-1773936D01*
X-219365Y-1774065D01*
X-219058Y-1774329D01*
X-218879Y-1774691D01*
X-218855Y-1775095D01*
X-218990Y-1775476D01*
X-219263Y-1775774D01*
X-222138Y-1777862D01*
X-227895Y-1785787D01*
X-230922Y-1795102D01*
X-230922Y-1804898D01*
X-227895Y-1814213D01*
X-222138Y-1822138D01*
X-214213Y-1827895D01*
X-204898Y-1830922D01*
X-195102Y-1830922D01*
X-185787Y-1827895D01*
X-177862Y-1822138D01*
X-172105Y-1814213D01*
X-169078Y-1804898D01*
X-169078Y-1795102D01*
X-172105Y-1785787D01*
X-177862Y-1777862D01*
X-181957Y-1774887D01*
X-182286Y-1774484D01*
X-182376Y-1774089D01*
X-182305Y-1773691D01*
X-182084Y-1773353D01*
X-181749Y-1773127D01*
X-176795Y-1771074D01*
X-168968Y-1763247D01*
X-166106Y-1756339D01*
X-166106Y-1748861D01*
X-168968Y-1741953D01*
X-174255Y-1736666D01*
X-176912Y-1735565D01*
X-177218Y-1735367D01*
X-177452Y-1735037D01*
X-177539Y-1734643D01*
X-177465Y-1734245D01*
X-177241Y-1733908D01*
X-176289Y-1732955D01*
X-174742Y-1729221D01*
X-174742Y-1727962D01*
X-195062Y-1727962D01*
X-195062Y-1729221D01*
X-193515Y-1732955D01*
X-192563Y-1733908D01*
X-192355Y-1734208D01*
X-192265Y-1734602D01*
X-192336Y-1735000D01*
X-192557Y-1735339D01*
X-192892Y-1735565D01*
X-194586Y-1736267D01*
X-194975Y-1736344D01*
X-217854Y-1736344D01*
X-218235Y-1736270D01*
X-218572Y-1736046D01*
X-232366Y-1722252D01*
X-232584Y-1721930D01*
X-232664Y-1721534D01*
X-232664Y-1556512D01*
X-232596Y-1556146D01*
X-232378Y-1555805D01*
X-232044Y-1555576D01*
X-231648Y-1555496D01*
X-181163Y-1555496D01*
X-174255Y-1552634D01*
X-168968Y-1547347D01*
X-166106Y-1540439D01*
X-166106Y-1532961D01*
X-168968Y-1526053D01*
X-174255Y-1520766D01*
X-176912Y-1519665D01*
X-177218Y-1519467D01*
X-177452Y-1519137D01*
X-177539Y-1518743D01*
X-177465Y-1518345D01*
X-177241Y-1518008D01*
X-176289Y-1517055D01*
X-174742Y-1513321D01*
X-174742Y-1512062D01*
X-195062Y-1512062D01*
X-195062Y-1513321D01*
X-193746Y-1516499D01*
X-193669Y-1516856D01*
X-193737Y-1517254D01*
X-193954Y-1517595D01*
X-194288Y-1517824D01*
X-194684Y-1517904D01*
X-243254Y-1517904D01*
X-243635Y-1517830D01*
X-243972Y-1517606D01*
X-295866Y-1465712D01*
X-296084Y-1465390D01*
X-296164Y-1464994D01*
X-296164Y-1317830D01*
X-296101Y-1317479D01*
X-295889Y-1317135D01*
X-295559Y-1316901D01*
X-295164Y-1316815D01*
X-294767Y-1316889D01*
X-294430Y-1317112D01*
X-274807Y-1336734D01*
X-267899Y-1339596D01*
X-181163Y-1339596D01*
X-174255Y-1336734D01*
X-168968Y-1331447D01*
X-166106Y-1324539D01*
X-166106Y-1317061D01*
X-168968Y-1310153D01*
X-174255Y-1304866D01*
X-176912Y-1303765D01*
X-177218Y-1303567D01*
X-177452Y-1303237D01*
X-177539Y-1302843D01*
X-177465Y-1302445D01*
X-177241Y-1302108D01*
X-176289Y-1301155D01*
X-174742Y-1297421D01*
X-174742Y-1296162D01*
X-195062Y-1296162D01*
X-195062Y-1297421D01*
X-193746Y-1300599D01*
X-193669Y-1300956D01*
X-193737Y-1301354D01*
X-193954Y-1301695D01*
X-194288Y-1301924D01*
X-194684Y-1302004D01*
X-255954Y-1302004D01*
X-256335Y-1301930D01*
X-256672Y-1301706D01*
X-295866Y-1262512D01*
X-296084Y-1262190D01*
X-296164Y-1261794D01*
X-296164Y-1115646D01*
X-296090Y-1115265D01*
X-295866Y-1114928D01*
X-282072Y-1101134D01*
X-281750Y-1100916D01*
X-281354Y-1100836D01*
X-153483Y-1100836D01*
X-146575Y-1097974D01*
X-141288Y-1092687D01*
X-138426Y-1085779D01*
X-138426Y-1078301D01*
X-141288Y-1071393D01*
X-146575Y-1066106D01*
X-153483Y-1063244D01*
X-281354Y-1063244D01*
X-281735Y-1063170D01*
X-282072Y-1062946D01*
X-290786Y-1054232D01*
X-291004Y-1053910D01*
X-291084Y-1053514D01*
X-291084Y-927686D01*
X-291010Y-927305D01*
X-290786Y-926968D01*
X-245994Y-882176D01*
X-245672Y-881958D01*
X-245276Y-881878D01*
X-192633Y-881878D01*
X-192245Y-881955D01*
X-191181Y-882396D01*
X-183703Y-882396D01*
X-176795Y-879534D01*
X-171508Y-874247D01*
X-168646Y-867339D01*
X-168646Y-859861D01*
X-171508Y-852953D01*
X-177313Y-847148D01*
X-179237Y-846350D01*
X-179544Y-846153D01*
X-179778Y-845823D01*
X-179864Y-845428D01*
X-179790Y-845030D01*
X-179567Y-844693D01*
X-178829Y-843955D01*
X-177282Y-840221D01*
X-177282Y-838962D01*
X-197602Y-838962D01*
X-197602Y-840221D01*
X-196500Y-842881D01*
X-196423Y-843238D01*
X-196491Y-843636D01*
X-196709Y-843977D01*
X-197042Y-844206D01*
X-197439Y-844286D01*
X-257221Y-844286D01*
X-264129Y-847148D01*
X-289350Y-872368D01*
X-289642Y-872572D01*
X-290036Y-872665D01*
X-290434Y-872597D01*
X-290775Y-872379D01*
X-291004Y-872046D01*
X-291084Y-871650D01*
X-291084Y-706706D01*
X-291010Y-706325D01*
X-290786Y-705988D01*
X-251074Y-666276D01*
X-250752Y-666058D01*
X-250356Y-665978D01*
X-194402Y-665978D01*
X-194013Y-666055D01*
X-191699Y-667014D01*
X-184221Y-667014D01*
X-177313Y-664152D01*
X-171508Y-658347D01*
X-168646Y-651439D01*
X-168646Y-643961D01*
X-171508Y-637053D01*
X-176795Y-631766D01*
X-179452Y-630665D01*
X-179758Y-630467D01*
X-179992Y-630137D01*
X-180079Y-629743D01*
X-180005Y-629345D01*
X-179781Y-629008D01*
X-178829Y-628055D01*
X-177282Y-624321D01*
X-177282Y-623062D01*
X-197602Y-623062D01*
X-197602Y-624321D01*
X-196500Y-626981D01*
X-196423Y-627338D01*
X-196491Y-627736D01*
X-196709Y-628077D01*
X-197042Y-628306D01*
X-197439Y-628386D01*
X-262301Y-628386D01*
X-269209Y-631248D01*
X-289350Y-651388D01*
X-289642Y-651592D01*
X-290036Y-651685D01*
X-290434Y-651617D01*
X-290775Y-651399D01*
X-291004Y-651066D01*
X-291084Y-650670D01*
X-291084Y-488266D01*
X-291010Y-487885D01*
X-290786Y-487548D01*
X-253614Y-450376D01*
X-253292Y-450158D01*
X-252896Y-450078D01*
X-194402Y-450078D01*
X-194013Y-450155D01*
X-191699Y-451114D01*
X-184221Y-451114D01*
X-177313Y-448252D01*
X-171508Y-442447D01*
X-168646Y-435539D01*
X-168646Y-428061D01*
X-171508Y-421153D01*
X-176795Y-415866D01*
X-179452Y-414765D01*
X-179758Y-414567D01*
X-179992Y-414237D01*
X-180079Y-413843D01*
X-180005Y-413445D01*
X-179781Y-413108D01*
X-178829Y-412155D01*
X-177282Y-408421D01*
X-177282Y-407162D01*
X-197602Y-407162D01*
X-197602Y-408421D01*
X-196500Y-411081D01*
X-196423Y-411438D01*
X-196491Y-411836D01*
X-196709Y-412177D01*
X-197042Y-412406D01*
X-197439Y-412486D01*
X-252896Y-412486D01*
X-253277Y-412412D01*
X-253614Y-412188D01*
X-323963Y-341839D01*
X-324183Y-341510D01*
X-326966Y-334793D01*
X-332253Y-329506D01*
X-334910Y-328405D01*
X-335216Y-328207D01*
X-335450Y-327877D01*
X-335537Y-327483D01*
X-335463Y-327085D01*
X-335239Y-326748D01*
X-334287Y-325795D01*
X-332740Y-322061D01*
X-332740Y-320802D01*
X-353060Y-320802D01*
X-353060Y-322061D01*
X-351513Y-325795D01*
X-350561Y-326748D01*
X-350353Y-327048D01*
X-350263Y-327442D01*
X-350334Y-327840D01*
X-350555Y-328179D01*
X-350890Y-328405D01*
X-353547Y-329506D01*
X-358834Y-334793D01*
X-361696Y-341701D01*
X-361696Y-353223D01*
X-358834Y-360131D01*
X-288402Y-430564D01*
X-288191Y-430871D01*
X-288105Y-431266D01*
X-288179Y-431663D01*
X-288402Y-432000D01*
X-309162Y-452760D01*
X-309469Y-452971D01*
X-309864Y-453057D01*
X-310261Y-452983D01*
X-310598Y-452760D01*
X-351049Y-412310D01*
X-357957Y-409448D01*
X-391590Y-409448D01*
X-391971Y-409374D01*
X-392308Y-409150D01*
X-416073Y-385386D01*
X-422981Y-382524D01*
X-535354Y-382524D01*
X-535735Y-382450D01*
X-536072Y-382226D01*
X-543262Y-375036D01*
X-543480Y-374714D01*
X-543560Y-374318D01*
X-543560Y-341701D01*
X-546422Y-334793D01*
X-551709Y-329506D01*
X-554366Y-328405D01*
X-554672Y-328207D01*
X-554906Y-327877D01*
X-554993Y-327483D01*
X-554919Y-327085D01*
X-554695Y-326748D01*
X-553743Y-325795D01*
X-552196Y-322061D01*
X-552196Y-320802D01*
X-572516Y-320802D01*
X-572516Y-322061D01*
X-570969Y-325795D01*
X-570017Y-326748D01*
X-569809Y-327048D01*
X-569719Y-327442D01*
X-569790Y-327840D01*
X-570011Y-328179D01*
X-570346Y-328405D01*
X-573003Y-329506D01*
X-578290Y-334793D01*
X-581152Y-341701D01*
X-581152Y-381508D01*
X-581220Y-381874D01*
X-581438Y-382215D01*
X-581772Y-382444D01*
X-582168Y-382524D01*
X-743634Y-382524D01*
X-744015Y-382450D01*
X-744352Y-382226D01*
X-755606Y-370972D01*
X-755824Y-370650D01*
X-755904Y-370254D01*
X-755904Y-343723D01*
X-758766Y-336815D01*
X-764053Y-331528D01*
X-766710Y-330427D01*
X-767016Y-330229D01*
X-767250Y-329899D01*
X-767337Y-329505D01*
X-767263Y-329107D01*
X-767039Y-328770D01*
X-766087Y-327817D01*
X-764540Y-324083D01*
X-764540Y-322824D01*
X-784860Y-322824D01*
X-784860Y-324083D01*
X-783313Y-327817D01*
X-782361Y-328770D01*
X-782153Y-329070D01*
X-782063Y-329464D01*
X-782134Y-329862D01*
X-782355Y-330201D01*
X-782690Y-330427D01*
X-785347Y-331528D01*
X-790634Y-336815D01*
X-793496Y-343723D01*
X-793496Y-381508D01*
X-793564Y-381874D01*
X-793782Y-382215D01*
X-794116Y-382444D01*
X-794512Y-382524D01*
X-956994Y-382524D01*
X-957375Y-382450D01*
X-957712Y-382226D01*
X-966426Y-373512D01*
X-966644Y-373190D01*
X-966724Y-372794D01*
X-966724Y-343723D01*
X-969586Y-336815D01*
X-974873Y-331528D01*
X-977530Y-330427D01*
X-977836Y-330229D01*
X-978070Y-329899D01*
X-978157Y-329505D01*
X-978083Y-329107D01*
X-977859Y-328770D01*
X-976907Y-327817D01*
X-975360Y-324083D01*
X-975360Y-322824D01*
X-995680Y-322824D01*
X-995680Y-324083D01*
X-994133Y-327817D01*
X-993181Y-328770D01*
X-992973Y-329070D01*
X-992883Y-329464D01*
X-992954Y-329862D01*
X-993175Y-330201D01*
X-993510Y-330427D01*
X-996167Y-331528D01*
X-1001454Y-336815D01*
X-1004316Y-343723D01*
X-1004316Y-381508D01*
X-1004384Y-381874D01*
X-1004602Y-382215D01*
X-1004936Y-382444D01*
X-1005332Y-382524D01*
X-1213534Y-382524D01*
X-1213915Y-382450D01*
X-1214252Y-382226D01*
X-1217886Y-378592D01*
X-1218104Y-378270D01*
X-1218184Y-377874D01*
X-1218184Y-343723D01*
X-1221046Y-336815D01*
X-1226333Y-331528D01*
X-1228990Y-330427D01*
X-1229296Y-330229D01*
X-1229530Y-329899D01*
X-1229617Y-329505D01*
X-1229543Y-329107D01*
X-1229319Y-328770D01*
X-1228367Y-327817D01*
X-1226820Y-324083D01*
X-1226820Y-322824D01*
X-1247140Y-322824D01*
X-1247140Y-324083D01*
X-1245593Y-327817D01*
X-1244641Y-328770D01*
X-1244433Y-329070D01*
X-1244343Y-329464D01*
X-1244414Y-329862D01*
X-1244635Y-330201D01*
X-1244970Y-330427D01*
X-1247627Y-331528D01*
X-1252914Y-336815D01*
X-1255776Y-343723D01*
X-1255776Y-389819D01*
X-1252914Y-396727D01*
X-1232387Y-417254D01*
X-1225479Y-420116D01*
X-434926Y-420116D01*
X-434545Y-420190D01*
X-434208Y-420414D01*
X-410443Y-444178D01*
X-403535Y-447040D01*
X-369902Y-447040D01*
X-369521Y-447114D01*
X-369184Y-447338D01*
X-328974Y-487548D01*
X-328756Y-487870D01*
X-328676Y-488266D01*
X-328676Y-1065459D01*
X-325814Y-1072367D01*
X-316860Y-1081322D01*
X-316649Y-1081629D01*
X-316563Y-1082024D01*
X-316637Y-1082421D01*
X-316860Y-1082758D01*
X-330894Y-1096793D01*
X-333756Y-1103701D01*
X-333756Y-1464994D01*
X-333830Y-1465375D01*
X-334054Y-1465712D01*
X-418968Y-1550626D01*
X-419290Y-1550844D01*
X-419686Y-1550924D01*
X-1029899Y-1550924D01*
X-1036807Y-1553786D01*
X-1095434Y-1612413D01*
X-1098296Y-1619321D01*
X-1098296Y-1769794D01*
X-1098370Y-1770175D01*
X-1098594Y-1770512D01*
X-1121546Y-1793464D01*
X-1121868Y-1793682D01*
X-1122264Y-1793762D01*
X-1209418Y-1793762D01*
X-1209777Y-1793697D01*
X-1210119Y-1793481D01*
X-1210350Y-1793150D01*
X-1210434Y-1792754D01*
X-1210356Y-1792357D01*
X-1209040Y-1789179D01*
X-1209040Y-1787920D01*
X-1229360Y-1787920D01*
X-1229360Y-1789179D01*
X-1227813Y-1792913D01*
X-1226861Y-1793866D01*
X-1226653Y-1794166D01*
X-1226563Y-1794560D01*
X-1226634Y-1794958D01*
X-1226855Y-1795297D01*
X-1227190Y-1795523D01*
X-1229847Y-1796624D01*
X-1235134Y-1801911D01*
X-1237996Y-1808819D01*
X-1237996Y-1816297D01*
X-1235134Y-1823205D01*
X-1229847Y-1828492D01*
X-1222939Y-1831354D01*
X-1110319Y-1831354D01*
X-1103411Y-1828492D01*
X-1080218Y-1805300D01*
X-1079911Y-1805089D01*
X-1079516Y-1805003D01*
X-1079119Y-1805077D01*
X-1078782Y-1805300D01*
X-1052047Y-1832034D01*
X-1045139Y-1834896D01*
X-983803Y-1834896D01*
X-976895Y-1832034D01*
X-971608Y-1826747D01*
X-968746Y-1819839D01*
X-968746Y-1812361D01*
X-971608Y-1805453D01*
X-976895Y-1800166D01*
X-979552Y-1799065D01*
X-979858Y-1798867D01*
X-980092Y-1798537D01*
X-980179Y-1798143D01*
X-980105Y-1797745D01*
X-979881Y-1797408D01*
X-978929Y-1796455D01*
X-977382Y-1792721D01*
X-977382Y-1791462D01*
X-997702Y-1791462D01*
X-997702Y-1792721D01*
X-996386Y-1795899D01*
X-996309Y-1796256D01*
X-996377Y-1796654D01*
X-996594Y-1796995D01*
X-996928Y-1797224D01*
X-997324Y-1797304D01*
X-1033194Y-1797304D01*
X-1033575Y-1797230D01*
X-1033912Y-1797006D01*
X-1060406Y-1770512D01*
X-1060624Y-1770190D01*
X-1060704Y-1769794D01*
X-1060704Y-1631266D01*
X-1060630Y-1630885D01*
X-1060406Y-1630548D01*
X-1018672Y-1588814D01*
X-1018350Y-1588596D01*
X-1017954Y-1588516D01*
X-847930Y-1588516D01*
X-847579Y-1588579D01*
X-847235Y-1588791D01*
X-847001Y-1589121D01*
X-846915Y-1589516D01*
X-846989Y-1589913D01*
X-847212Y-1590250D01*
X-861754Y-1604793D01*
X-864616Y-1611701D01*
X-864616Y-1779199D01*
X-861754Y-1786107D01*
X-813287Y-1834574D01*
X-806379Y-1837436D01*
G37*
G36*
X-1377143Y-352916D02*
X-1371137Y-352916D01*
X-1365589Y-350618D01*
X-1361342Y-346371D01*
X-1359044Y-340823D01*
X-1359044Y-334817D01*
X-1361342Y-329269D01*
X-1365589Y-325022D01*
X-1371137Y-322724D01*
X-1377143Y-322724D01*
X-1382691Y-325022D01*
X-1386938Y-329269D01*
X-1389236Y-334817D01*
X-1389236Y-340823D01*
X-1386938Y-346371D01*
X-1382691Y-350618D01*
X-1377143Y-352916D01*
G37*
G36*
X-197602Y-405638D02*
X-177282Y-405638D01*
X-177282Y-404379D01*
X-178829Y-400645D01*
X-181687Y-397787D01*
X-184641Y-396563D01*
X-184941Y-396371D01*
X-185178Y-396043D01*
X-185268Y-395649D01*
X-185197Y-395251D01*
X-184976Y-394912D01*
X-184641Y-394686D01*
X-179672Y-392628D01*
X-175814Y-388770D01*
X-173726Y-383728D01*
X-173726Y-378272D01*
X-175814Y-373230D01*
X-179672Y-369372D01*
X-184641Y-367314D01*
X-184941Y-367122D01*
X-185178Y-366794D01*
X-185268Y-366400D01*
X-185197Y-366002D01*
X-184976Y-365663D01*
X-184641Y-365437D01*
X-181687Y-364213D01*
X-178829Y-361355D01*
X-177282Y-357621D01*
X-177282Y-356362D01*
X-197602Y-356362D01*
X-197602Y-357621D01*
X-196055Y-361355D01*
X-193197Y-364213D01*
X-190243Y-365437D01*
X-189943Y-365629D01*
X-189706Y-365957D01*
X-189616Y-366351D01*
X-189687Y-366749D01*
X-189908Y-367088D01*
X-190243Y-367314D01*
X-195212Y-369372D01*
X-199070Y-373230D01*
X-201158Y-378272D01*
X-201158Y-383728D01*
X-199070Y-388770D01*
X-195212Y-392628D01*
X-190243Y-394686D01*
X-189943Y-394878D01*
X-189706Y-395206D01*
X-189616Y-395600D01*
X-189687Y-395998D01*
X-189908Y-396337D01*
X-190243Y-396563D01*
X-193197Y-397787D01*
X-196055Y-400645D01*
X-197602Y-404379D01*
X-197602Y-405638D01*
G37*
G36*
X-1377143Y-403716D02*
X-1371137Y-403716D01*
X-1365589Y-401418D01*
X-1361342Y-397171D01*
X-1359044Y-391623D01*
X-1359044Y-385617D01*
X-1361342Y-380069D01*
X-1365589Y-375822D01*
X-1371137Y-373524D01*
X-1377143Y-373524D01*
X-1382691Y-375822D01*
X-1386938Y-380069D01*
X-1389236Y-385617D01*
X-1389236Y-391623D01*
X-1386938Y-397171D01*
X-1382691Y-401418D01*
X-1377143Y-403716D01*
G37*
G36*
X-1084768Y-473456D02*
X-1079312Y-473456D01*
X-1074270Y-471368D01*
X-1070412Y-467510D01*
X-1070279Y-467187D01*
X-1070086Y-466887D01*
X-1069759Y-466650D01*
X-1069364Y-466560D01*
X-1068966Y-466631D01*
X-1068627Y-466852D01*
X-1068401Y-467187D01*
X-1068268Y-467510D01*
X-1064410Y-471368D01*
X-1059368Y-473456D01*
X-1053912Y-473456D01*
X-1048870Y-471368D01*
X-1045012Y-467510D01*
X-1044879Y-467187D01*
X-1044686Y-466887D01*
X-1044359Y-466650D01*
X-1043964Y-466560D01*
X-1043566Y-466631D01*
X-1043227Y-466852D01*
X-1043001Y-467187D01*
X-1042868Y-467510D01*
X-1039010Y-471368D01*
X-1033968Y-473456D01*
X-1028512Y-473456D01*
X-1023470Y-471368D01*
X-1019612Y-467510D01*
X-1019479Y-467187D01*
X-1019286Y-466887D01*
X-1018959Y-466650D01*
X-1018564Y-466560D01*
X-1018166Y-466631D01*
X-1017827Y-466852D01*
X-1017601Y-467187D01*
X-1017468Y-467510D01*
X-1013610Y-471368D01*
X-1008568Y-473456D01*
X-1003112Y-473456D01*
X-998070Y-471368D01*
X-994212Y-467510D01*
X-994079Y-467187D01*
X-993886Y-466887D01*
X-993559Y-466650D01*
X-993164Y-466560D01*
X-992766Y-466631D01*
X-992427Y-466852D01*
X-992201Y-467187D01*
X-992068Y-467510D01*
X-988210Y-471368D01*
X-983168Y-473456D01*
X-977712Y-473456D01*
X-972670Y-471368D01*
X-968812Y-467510D01*
X-968679Y-467187D01*
X-968486Y-466887D01*
X-968159Y-466650D01*
X-967764Y-466560D01*
X-967366Y-466631D01*
X-967027Y-466852D01*
X-966801Y-467187D01*
X-966668Y-467510D01*
X-962810Y-471368D01*
X-957768Y-473456D01*
X-952312Y-473456D01*
X-947270Y-471368D01*
X-943412Y-467510D01*
X-943279Y-467187D01*
X-943086Y-466887D01*
X-942759Y-466650D01*
X-942364Y-466560D01*
X-941966Y-466631D01*
X-941627Y-466852D01*
X-941401Y-467187D01*
X-941268Y-467510D01*
X-937410Y-471368D01*
X-932368Y-473456D01*
X-926912Y-473456D01*
X-921870Y-471368D01*
X-918012Y-467510D01*
X-917879Y-467187D01*
X-917686Y-466887D01*
X-917359Y-466650D01*
X-916964Y-466560D01*
X-916566Y-466631D01*
X-916227Y-466852D01*
X-916001Y-467187D01*
X-915868Y-467510D01*
X-912010Y-471368D01*
X-906968Y-473456D01*
X-901512Y-473456D01*
X-896470Y-471368D01*
X-892612Y-467510D01*
X-890524Y-462468D01*
X-890524Y-457012D01*
X-892612Y-451970D01*
X-896470Y-448112D01*
X-901512Y-446024D01*
X-906968Y-446024D01*
X-912010Y-448112D01*
X-915868Y-451970D01*
X-916001Y-452293D01*
X-916194Y-452593D01*
X-916521Y-452830D01*
X-916916Y-452920D01*
X-917314Y-452849D01*
X-917653Y-452628D01*
X-917879Y-452293D01*
X-918012Y-451970D01*
X-921870Y-448112D01*
X-926912Y-446024D01*
X-932368Y-446024D01*
X-937410Y-448112D01*
X-941268Y-451970D01*
X-941401Y-452293D01*
X-941594Y-452593D01*
X-941921Y-452830D01*
X-942316Y-452920D01*
X-942714Y-452849D01*
X-943053Y-452628D01*
X-943279Y-452293D01*
X-943412Y-451970D01*
X-947270Y-448112D01*
X-952312Y-446024D01*
X-957768Y-446024D01*
X-962810Y-448112D01*
X-966668Y-451970D01*
X-966801Y-452293D01*
X-966994Y-452593D01*
X-967321Y-452830D01*
X-967716Y-452920D01*
X-968114Y-452849D01*
X-968453Y-452628D01*
X-968679Y-452293D01*
X-968812Y-451970D01*
X-972670Y-448112D01*
X-977712Y-446024D01*
X-983168Y-446024D01*
X-988210Y-448112D01*
X-992068Y-451970D01*
X-992201Y-452293D01*
X-992394Y-452593D01*
X-992721Y-452830D01*
X-993116Y-452920D01*
X-993514Y-452849D01*
X-993853Y-452628D01*
X-994079Y-452293D01*
X-994212Y-451970D01*
X-998070Y-448112D01*
X-1003112Y-446024D01*
X-1008568Y-446024D01*
X-1013610Y-448112D01*
X-1017468Y-451970D01*
X-1017601Y-452293D01*
X-1017794Y-452593D01*
X-1018121Y-452830D01*
X-1018516Y-452920D01*
X-1018914Y-452849D01*
X-1019253Y-452628D01*
X-1019479Y-452293D01*
X-1019612Y-451970D01*
X-1023470Y-448112D01*
X-1028512Y-446024D01*
X-1033968Y-446024D01*
X-1039010Y-448112D01*
X-1042868Y-451970D01*
X-1043001Y-452293D01*
X-1043194Y-452593D01*
X-1043521Y-452830D01*
X-1043916Y-452920D01*
X-1044314Y-452849D01*
X-1044653Y-452628D01*
X-1044879Y-452293D01*
X-1045012Y-451970D01*
X-1048870Y-448112D01*
X-1053912Y-446024D01*
X-1059368Y-446024D01*
X-1064410Y-448112D01*
X-1068268Y-451970D01*
X-1068401Y-452293D01*
X-1068594Y-452593D01*
X-1068921Y-452830D01*
X-1069316Y-452920D01*
X-1069714Y-452849D01*
X-1070053Y-452628D01*
X-1070279Y-452293D01*
X-1070412Y-451970D01*
X-1074270Y-448112D01*
X-1079312Y-446024D01*
X-1084768Y-446024D01*
X-1089810Y-448112D01*
X-1093668Y-451970D01*
X-1095756Y-457012D01*
X-1095756Y-462468D01*
X-1093668Y-467510D01*
X-1089810Y-471368D01*
X-1084768Y-473456D01*
G37*
G36*
X-1351468Y-473456D02*
X-1346012Y-473456D01*
X-1340970Y-471368D01*
X-1337112Y-467510D01*
X-1336979Y-467187D01*
X-1336786Y-466887D01*
X-1336459Y-466650D01*
X-1336064Y-466560D01*
X-1335666Y-466631D01*
X-1335327Y-466852D01*
X-1335101Y-467187D01*
X-1334968Y-467510D01*
X-1331110Y-471368D01*
X-1326068Y-473456D01*
X-1320612Y-473456D01*
X-1315570Y-471368D01*
X-1311712Y-467510D01*
X-1311579Y-467187D01*
X-1311386Y-466887D01*
X-1311059Y-466650D01*
X-1310664Y-466560D01*
X-1310266Y-466631D01*
X-1309927Y-466852D01*
X-1309701Y-467187D01*
X-1309568Y-467510D01*
X-1305710Y-471368D01*
X-1300668Y-473456D01*
X-1295212Y-473456D01*
X-1290170Y-471368D01*
X-1286312Y-467510D01*
X-1286179Y-467187D01*
X-1285986Y-466887D01*
X-1285659Y-466650D01*
X-1285264Y-466560D01*
X-1284866Y-466631D01*
X-1284527Y-466852D01*
X-1284301Y-467187D01*
X-1284168Y-467510D01*
X-1280310Y-471368D01*
X-1275268Y-473456D01*
X-1269812Y-473456D01*
X-1264770Y-471368D01*
X-1260912Y-467510D01*
X-1260779Y-467187D01*
X-1260586Y-466887D01*
X-1260259Y-466650D01*
X-1259864Y-466560D01*
X-1259466Y-466631D01*
X-1259127Y-466852D01*
X-1258901Y-467187D01*
X-1258768Y-467510D01*
X-1254910Y-471368D01*
X-1249868Y-473456D01*
X-1244412Y-473456D01*
X-1239370Y-471368D01*
X-1235512Y-467510D01*
X-1235379Y-467187D01*
X-1235186Y-466887D01*
X-1234859Y-466650D01*
X-1234464Y-466560D01*
X-1234066Y-466631D01*
X-1233727Y-466852D01*
X-1233501Y-467187D01*
X-1233368Y-467510D01*
X-1229510Y-471368D01*
X-1224468Y-473456D01*
X-1219012Y-473456D01*
X-1213970Y-471368D01*
X-1210112Y-467510D01*
X-1209979Y-467187D01*
X-1209786Y-466887D01*
X-1209459Y-466650D01*
X-1209064Y-466560D01*
X-1208666Y-466631D01*
X-1208327Y-466852D01*
X-1208101Y-467187D01*
X-1207968Y-467510D01*
X-1204110Y-471368D01*
X-1199068Y-473456D01*
X-1193612Y-473456D01*
X-1188570Y-471368D01*
X-1184712Y-467510D01*
X-1184579Y-467187D01*
X-1184386Y-466887D01*
X-1184059Y-466650D01*
X-1183664Y-466560D01*
X-1183266Y-466631D01*
X-1182927Y-466852D01*
X-1182701Y-467187D01*
X-1182568Y-467510D01*
X-1178710Y-471368D01*
X-1173668Y-473456D01*
X-1168212Y-473456D01*
X-1163170Y-471368D01*
X-1159312Y-467510D01*
X-1159179Y-467187D01*
X-1158986Y-466887D01*
X-1158659Y-466650D01*
X-1158264Y-466560D01*
X-1157866Y-466631D01*
X-1157527Y-466852D01*
X-1157301Y-467187D01*
X-1157168Y-467510D01*
X-1153310Y-471368D01*
X-1148268Y-473456D01*
X-1142812Y-473456D01*
X-1137770Y-471368D01*
X-1133912Y-467510D01*
X-1133779Y-467187D01*
X-1133586Y-466887D01*
X-1133259Y-466650D01*
X-1132864Y-466560D01*
X-1132466Y-466631D01*
X-1132127Y-466852D01*
X-1131901Y-467187D01*
X-1131768Y-467510D01*
X-1127910Y-471368D01*
X-1122868Y-473456D01*
X-1117412Y-473456D01*
X-1112370Y-471368D01*
X-1108512Y-467510D01*
X-1106424Y-462468D01*
X-1106424Y-457012D01*
X-1108512Y-451970D01*
X-1112370Y-448112D01*
X-1117412Y-446024D01*
X-1122868Y-446024D01*
X-1127910Y-448112D01*
X-1131768Y-451970D01*
X-1131901Y-452293D01*
X-1132094Y-452593D01*
X-1132421Y-452830D01*
X-1132816Y-452920D01*
X-1133214Y-452849D01*
X-1133553Y-452628D01*
X-1133779Y-452293D01*
X-1133912Y-451970D01*
X-1137770Y-448112D01*
X-1142812Y-446024D01*
X-1148268Y-446024D01*
X-1153310Y-448112D01*
X-1157168Y-451970D01*
X-1157301Y-452293D01*
X-1157494Y-452593D01*
X-1157821Y-452830D01*
X-1158216Y-452920D01*
X-1158614Y-452849D01*
X-1158953Y-452628D01*
X-1159179Y-452293D01*
X-1159312Y-451970D01*
X-1163170Y-448112D01*
X-1168212Y-446024D01*
X-1173668Y-446024D01*
X-1178710Y-448112D01*
X-1182568Y-451970D01*
X-1182701Y-452293D01*
X-1182894Y-452593D01*
X-1183221Y-452830D01*
X-1183616Y-452920D01*
X-1184014Y-452849D01*
X-1184353Y-452628D01*
X-1184579Y-452293D01*
X-1184712Y-451970D01*
X-1188570Y-448112D01*
X-1193612Y-446024D01*
X-1199068Y-446024D01*
X-1204110Y-448112D01*
X-1207968Y-451970D01*
X-1208101Y-452293D01*
X-1208294Y-452593D01*
X-1208621Y-452830D01*
X-1209016Y-452920D01*
X-1209414Y-452849D01*
X-1209753Y-452628D01*
X-1209979Y-452293D01*
X-1210112Y-451970D01*
X-1213970Y-448112D01*
X-1219012Y-446024D01*
X-1224468Y-446024D01*
X-1229510Y-448112D01*
X-1233368Y-451970D01*
X-1233501Y-452293D01*
X-1233694Y-452593D01*
X-1234021Y-452830D01*
X-1234416Y-452920D01*
X-1234814Y-452849D01*
X-1235153Y-452628D01*
X-1235379Y-452293D01*
X-1235512Y-451970D01*
X-1239370Y-448112D01*
X-1244412Y-446024D01*
X-1249868Y-446024D01*
X-1254910Y-448112D01*
X-1258768Y-451970D01*
X-1258901Y-452293D01*
X-1259094Y-452593D01*
X-1259421Y-452830D01*
X-1259816Y-452920D01*
X-1260214Y-452849D01*
X-1260553Y-452628D01*
X-1260779Y-452293D01*
X-1260912Y-451970D01*
X-1264770Y-448112D01*
X-1269812Y-446024D01*
X-1275268Y-446024D01*
X-1280310Y-448112D01*
X-1284168Y-451970D01*
X-1284301Y-452293D01*
X-1284494Y-452593D01*
X-1284821Y-452830D01*
X-1285216Y-452920D01*
X-1285614Y-452849D01*
X-1285953Y-452628D01*
X-1286179Y-452293D01*
X-1286312Y-451970D01*
X-1290170Y-448112D01*
X-1295212Y-446024D01*
X-1300668Y-446024D01*
X-1305710Y-448112D01*
X-1309568Y-451970D01*
X-1309701Y-452293D01*
X-1309894Y-452593D01*
X-1310221Y-452830D01*
X-1310616Y-452920D01*
X-1311014Y-452849D01*
X-1311353Y-452628D01*
X-1311579Y-452293D01*
X-1311712Y-451970D01*
X-1315570Y-448112D01*
X-1320612Y-446024D01*
X-1326068Y-446024D01*
X-1331110Y-448112D01*
X-1334968Y-451970D01*
X-1335101Y-452293D01*
X-1335294Y-452593D01*
X-1335621Y-452830D01*
X-1336016Y-452920D01*
X-1336414Y-452849D01*
X-1336753Y-452628D01*
X-1336979Y-452293D01*
X-1337112Y-451970D01*
X-1340970Y-448112D01*
X-1346012Y-446024D01*
X-1351468Y-446024D01*
X-1356510Y-448112D01*
X-1360368Y-451970D01*
X-1362456Y-457012D01*
X-1362456Y-462468D01*
X-1360368Y-467510D01*
X-1356510Y-471368D01*
X-1351468Y-473456D01*
G37*
G36*
X-576768Y-905256D02*
X-571312Y-905256D01*
X-566270Y-903168D01*
X-562412Y-899310D01*
X-560324Y-894268D01*
X-560324Y-888812D01*
X-562412Y-883770D01*
X-566270Y-879912D01*
X-566593Y-879779D01*
X-566893Y-879586D01*
X-567130Y-879259D01*
X-567220Y-878864D01*
X-567149Y-878466D01*
X-566928Y-878127D01*
X-566593Y-877901D01*
X-566270Y-877768D01*
X-562412Y-873910D01*
X-560324Y-868868D01*
X-560324Y-863412D01*
X-562412Y-858370D01*
X-566270Y-854512D01*
X-566593Y-854379D01*
X-566893Y-854186D01*
X-567130Y-853859D01*
X-567220Y-853464D01*
X-567149Y-853066D01*
X-566928Y-852727D01*
X-566593Y-852501D01*
X-566270Y-852368D01*
X-562412Y-848510D01*
X-560324Y-843468D01*
X-560324Y-838012D01*
X-562412Y-832970D01*
X-566270Y-829112D01*
X-566593Y-828979D01*
X-566893Y-828786D01*
X-567130Y-828459D01*
X-567220Y-828064D01*
X-567149Y-827666D01*
X-566928Y-827327D01*
X-566593Y-827101D01*
X-566270Y-826968D01*
X-562412Y-823110D01*
X-560324Y-818068D01*
X-560324Y-812612D01*
X-562412Y-807570D01*
X-566270Y-803712D01*
X-566593Y-803579D01*
X-566893Y-803386D01*
X-567130Y-803059D01*
X-567220Y-802664D01*
X-567149Y-802266D01*
X-566928Y-801927D01*
X-566593Y-801701D01*
X-566270Y-801568D01*
X-562412Y-797710D01*
X-560324Y-792668D01*
X-560324Y-787212D01*
X-562412Y-782170D01*
X-566270Y-778312D01*
X-566593Y-778179D01*
X-566893Y-777986D01*
X-567130Y-777659D01*
X-567220Y-777264D01*
X-567149Y-776866D01*
X-566928Y-776527D01*
X-566593Y-776301D01*
X-566270Y-776168D01*
X-562412Y-772310D01*
X-560324Y-767268D01*
X-560324Y-761812D01*
X-562412Y-756770D01*
X-566270Y-752912D01*
X-566593Y-752779D01*
X-566893Y-752586D01*
X-567130Y-752259D01*
X-567220Y-751864D01*
X-567149Y-751466D01*
X-566928Y-751127D01*
X-566593Y-750901D01*
X-566270Y-750768D01*
X-562412Y-746910D01*
X-560324Y-741868D01*
X-560324Y-736412D01*
X-562412Y-731370D01*
X-566270Y-727512D01*
X-566593Y-727379D01*
X-566893Y-727186D01*
X-567130Y-726859D01*
X-567220Y-726464D01*
X-567149Y-726066D01*
X-566928Y-725727D01*
X-566593Y-725501D01*
X-566270Y-725368D01*
X-562412Y-721510D01*
X-560324Y-716468D01*
X-560324Y-711012D01*
X-562412Y-705970D01*
X-566270Y-702112D01*
X-566593Y-701979D01*
X-566893Y-701786D01*
X-567130Y-701459D01*
X-567220Y-701064D01*
X-567149Y-700666D01*
X-566928Y-700327D01*
X-566593Y-700101D01*
X-566270Y-699968D01*
X-562412Y-696110D01*
X-560324Y-691068D01*
X-560324Y-685612D01*
X-562412Y-680570D01*
X-566270Y-676712D01*
X-566593Y-676579D01*
X-566893Y-676386D01*
X-567130Y-676059D01*
X-567220Y-675664D01*
X-567149Y-675266D01*
X-566928Y-674927D01*
X-566593Y-674701D01*
X-566270Y-674568D01*
X-562412Y-670710D01*
X-560324Y-665668D01*
X-560324Y-660212D01*
X-562412Y-655170D01*
X-566270Y-651312D01*
X-566593Y-651179D01*
X-566893Y-650986D01*
X-567130Y-650659D01*
X-567220Y-650264D01*
X-567149Y-649866D01*
X-566928Y-649527D01*
X-566593Y-649301D01*
X-566270Y-649168D01*
X-562412Y-645310D01*
X-560324Y-640268D01*
X-560324Y-634812D01*
X-562412Y-629770D01*
X-566270Y-625912D01*
X-566593Y-625779D01*
X-566893Y-625586D01*
X-567130Y-625259D01*
X-567220Y-624864D01*
X-567149Y-624466D01*
X-566928Y-624127D01*
X-566593Y-623901D01*
X-566270Y-623768D01*
X-562412Y-619910D01*
X-560324Y-614868D01*
X-560324Y-609412D01*
X-562412Y-604370D01*
X-566270Y-600512D01*
X-566593Y-600379D01*
X-566893Y-600186D01*
X-567130Y-599859D01*
X-567220Y-599464D01*
X-567149Y-599066D01*
X-566928Y-598727D01*
X-566593Y-598501D01*
X-566270Y-598368D01*
X-562412Y-594510D01*
X-560324Y-589468D01*
X-560324Y-584012D01*
X-562412Y-578970D01*
X-566270Y-575112D01*
X-566593Y-574979D01*
X-566893Y-574786D01*
X-567130Y-574459D01*
X-567220Y-574064D01*
X-567149Y-573666D01*
X-566928Y-573327D01*
X-566593Y-573101D01*
X-566270Y-572968D01*
X-562412Y-569110D01*
X-560324Y-564068D01*
X-560324Y-558612D01*
X-562412Y-553570D01*
X-566270Y-549712D01*
X-566593Y-549579D01*
X-566893Y-549386D01*
X-567130Y-549059D01*
X-567220Y-548664D01*
X-567149Y-548266D01*
X-566928Y-547927D01*
X-566593Y-547701D01*
X-566270Y-547568D01*
X-562412Y-543710D01*
X-560324Y-538668D01*
X-560324Y-533212D01*
X-562412Y-528170D01*
X-566270Y-524312D01*
X-566593Y-524179D01*
X-566893Y-523986D01*
X-567130Y-523659D01*
X-567220Y-523264D01*
X-567149Y-522866D01*
X-566928Y-522527D01*
X-566593Y-522301D01*
X-566270Y-522168D01*
X-562412Y-518310D01*
X-560324Y-513268D01*
X-560324Y-507812D01*
X-562412Y-502770D01*
X-566270Y-498912D01*
X-566593Y-498779D01*
X-566893Y-498586D01*
X-567130Y-498259D01*
X-567220Y-497864D01*
X-567149Y-497466D01*
X-566928Y-497127D01*
X-566593Y-496901D01*
X-566270Y-496768D01*
X-562412Y-492910D01*
X-560324Y-487868D01*
X-560324Y-482412D01*
X-562412Y-477370D01*
X-566270Y-473512D01*
X-566593Y-473379D01*
X-566893Y-473186D01*
X-567130Y-472859D01*
X-567220Y-472464D01*
X-567149Y-472066D01*
X-566928Y-471727D01*
X-566593Y-471501D01*
X-566270Y-471368D01*
X-562412Y-467510D01*
X-560324Y-462468D01*
X-560324Y-457012D01*
X-562412Y-451970D01*
X-566270Y-448112D01*
X-571312Y-446024D01*
X-576768Y-446024D01*
X-581810Y-448112D01*
X-585668Y-451970D01*
X-585801Y-452293D01*
X-585994Y-452593D01*
X-586321Y-452830D01*
X-586716Y-452920D01*
X-587114Y-452849D01*
X-587453Y-452628D01*
X-587679Y-452293D01*
X-587812Y-451970D01*
X-591670Y-448112D01*
X-596712Y-446024D01*
X-602168Y-446024D01*
X-607210Y-448112D01*
X-611068Y-451970D01*
X-613156Y-457012D01*
X-613156Y-462468D01*
X-611068Y-467510D01*
X-607210Y-471368D01*
X-606887Y-471501D01*
X-606587Y-471694D01*
X-606350Y-472021D01*
X-606260Y-472416D01*
X-606331Y-472814D01*
X-606552Y-473153D01*
X-606887Y-473379D01*
X-607210Y-473512D01*
X-611068Y-477370D01*
X-613156Y-482412D01*
X-613156Y-487868D01*
X-611068Y-492910D01*
X-607210Y-496768D01*
X-606887Y-496901D01*
X-606587Y-497094D01*
X-606350Y-497421D01*
X-606260Y-497816D01*
X-606331Y-498214D01*
X-606552Y-498553D01*
X-606887Y-498779D01*
X-607210Y-498912D01*
X-611068Y-502770D01*
X-613156Y-507812D01*
X-613156Y-513268D01*
X-611068Y-518310D01*
X-607210Y-522168D01*
X-606887Y-522301D01*
X-606587Y-522494D01*
X-606350Y-522821D01*
X-606260Y-523216D01*
X-606331Y-523614D01*
X-606552Y-523953D01*
X-606887Y-524179D01*
X-607210Y-524312D01*
X-611068Y-528170D01*
X-613156Y-533212D01*
X-613156Y-538668D01*
X-611068Y-543710D01*
X-607210Y-547568D01*
X-606887Y-547701D01*
X-606587Y-547894D01*
X-606350Y-548221D01*
X-606260Y-548616D01*
X-606331Y-549014D01*
X-606552Y-549353D01*
X-606887Y-549579D01*
X-607210Y-549712D01*
X-611068Y-553570D01*
X-613156Y-558612D01*
X-613156Y-564068D01*
X-611068Y-569110D01*
X-607210Y-572968D01*
X-606887Y-573101D01*
X-606587Y-573294D01*
X-606350Y-573621D01*
X-606260Y-574016D01*
X-606331Y-574414D01*
X-606552Y-574753D01*
X-606887Y-574979D01*
X-607210Y-575112D01*
X-611068Y-578970D01*
X-613156Y-584012D01*
X-613156Y-589468D01*
X-611068Y-594510D01*
X-607210Y-598368D01*
X-606887Y-598501D01*
X-606587Y-598694D01*
X-606350Y-599021D01*
X-606260Y-599416D01*
X-606331Y-599814D01*
X-606552Y-600153D01*
X-606887Y-600379D01*
X-607210Y-600512D01*
X-611068Y-604370D01*
X-613156Y-609412D01*
X-613156Y-614868D01*
X-611068Y-619910D01*
X-607210Y-623768D01*
X-606887Y-623901D01*
X-606587Y-624094D01*
X-606350Y-624421D01*
X-606260Y-624816D01*
X-606331Y-625214D01*
X-606552Y-625553D01*
X-606887Y-625779D01*
X-607210Y-625912D01*
X-611068Y-629770D01*
X-613156Y-634812D01*
X-613156Y-640268D01*
X-611068Y-645310D01*
X-607210Y-649168D01*
X-606887Y-649301D01*
X-606587Y-649494D01*
X-606350Y-649821D01*
X-606260Y-650216D01*
X-606331Y-650614D01*
X-606552Y-650953D01*
X-606887Y-651179D01*
X-607210Y-651312D01*
X-611068Y-655170D01*
X-613156Y-660212D01*
X-613156Y-665668D01*
X-611068Y-670710D01*
X-607210Y-674568D01*
X-606887Y-674701D01*
X-606587Y-674894D01*
X-606350Y-675221D01*
X-606260Y-675616D01*
X-606331Y-676014D01*
X-606552Y-676353D01*
X-606887Y-676579D01*
X-607210Y-676712D01*
X-611068Y-680570D01*
X-613156Y-685612D01*
X-613156Y-691068D01*
X-611068Y-696110D01*
X-607210Y-699968D01*
X-606887Y-700101D01*
X-606587Y-700294D01*
X-606350Y-700621D01*
X-606260Y-701016D01*
X-606331Y-701414D01*
X-606552Y-701753D01*
X-606887Y-701979D01*
X-607210Y-702112D01*
X-611068Y-705970D01*
X-613156Y-711012D01*
X-613156Y-716468D01*
X-611068Y-721510D01*
X-607210Y-725368D01*
X-606887Y-725501D01*
X-606587Y-725694D01*
X-606350Y-726021D01*
X-606260Y-726416D01*
X-606331Y-726814D01*
X-606552Y-727153D01*
X-606887Y-727379D01*
X-607210Y-727512D01*
X-611068Y-731370D01*
X-613156Y-736412D01*
X-613156Y-741868D01*
X-611068Y-746910D01*
X-607210Y-750768D01*
X-606887Y-750901D01*
X-606587Y-751094D01*
X-606350Y-751421D01*
X-606260Y-751816D01*
X-606331Y-752214D01*
X-606552Y-752553D01*
X-606887Y-752779D01*
X-607210Y-752912D01*
X-611068Y-756770D01*
X-613156Y-761812D01*
X-613156Y-767268D01*
X-611068Y-772310D01*
X-607210Y-776168D01*
X-606887Y-776301D01*
X-606587Y-776494D01*
X-606350Y-776821D01*
X-606260Y-777216D01*
X-606331Y-777614D01*
X-606552Y-777953D01*
X-606887Y-778179D01*
X-607210Y-778312D01*
X-611068Y-782170D01*
X-613156Y-787212D01*
X-613156Y-792668D01*
X-611068Y-797710D01*
X-607210Y-801568D01*
X-606887Y-801701D01*
X-606587Y-801894D01*
X-606350Y-802221D01*
X-606260Y-802616D01*
X-606331Y-803014D01*
X-606552Y-803353D01*
X-606887Y-803579D01*
X-607210Y-803712D01*
X-611068Y-807570D01*
X-613156Y-812612D01*
X-613156Y-818068D01*
X-611068Y-823110D01*
X-607210Y-826968D01*
X-606887Y-827101D01*
X-606587Y-827294D01*
X-606350Y-827621D01*
X-606260Y-828016D01*
X-606331Y-828414D01*
X-606552Y-828753D01*
X-606887Y-828979D01*
X-607210Y-829112D01*
X-611068Y-832970D01*
X-613156Y-838012D01*
X-613156Y-843468D01*
X-611068Y-848510D01*
X-607210Y-852368D01*
X-606887Y-852501D01*
X-606587Y-852694D01*
X-606350Y-853021D01*
X-606260Y-853416D01*
X-606331Y-853814D01*
X-606552Y-854153D01*
X-606887Y-854379D01*
X-607210Y-854512D01*
X-611068Y-858370D01*
X-613156Y-863412D01*
X-613156Y-868868D01*
X-611068Y-873910D01*
X-607210Y-877768D01*
X-602241Y-879826D01*
X-601941Y-880018D01*
X-601704Y-880346D01*
X-601614Y-880740D01*
X-601685Y-881138D01*
X-601906Y-881477D01*
X-602241Y-881703D01*
X-605195Y-882927D01*
X-608053Y-885785D01*
X-609600Y-889519D01*
X-609600Y-890778D01*
X-598678Y-890778D01*
X-598678Y-901700D01*
X-597419Y-901700D01*
X-593685Y-900153D01*
X-590827Y-897295D01*
X-589603Y-894341D01*
X-589411Y-894041D01*
X-589083Y-893804D01*
X-588689Y-893714D01*
X-588291Y-893785D01*
X-587952Y-894006D01*
X-587726Y-894341D01*
X-585668Y-899310D01*
X-581810Y-903168D01*
X-576768Y-905256D01*
G37*
G36*
X-856168Y-473456D02*
X-850712Y-473456D01*
X-845670Y-471368D01*
X-841812Y-467510D01*
X-841679Y-467187D01*
X-841486Y-466887D01*
X-841159Y-466650D01*
X-840764Y-466560D01*
X-840366Y-466631D01*
X-840027Y-466852D01*
X-839801Y-467187D01*
X-839668Y-467510D01*
X-835810Y-471368D01*
X-830768Y-473456D01*
X-825312Y-473456D01*
X-820270Y-471368D01*
X-816412Y-467510D01*
X-816279Y-467187D01*
X-816086Y-466887D01*
X-815759Y-466650D01*
X-815364Y-466560D01*
X-814966Y-466631D01*
X-814627Y-466852D01*
X-814401Y-467187D01*
X-814268Y-467510D01*
X-810410Y-471368D01*
X-805368Y-473456D01*
X-799912Y-473456D01*
X-794870Y-471368D01*
X-791012Y-467510D01*
X-790879Y-467187D01*
X-790686Y-466887D01*
X-790359Y-466650D01*
X-789964Y-466560D01*
X-789566Y-466631D01*
X-789227Y-466852D01*
X-789001Y-467187D01*
X-788868Y-467510D01*
X-785010Y-471368D01*
X-779968Y-473456D01*
X-774512Y-473456D01*
X-769470Y-471368D01*
X-765612Y-467510D01*
X-765479Y-467187D01*
X-765286Y-466887D01*
X-764959Y-466650D01*
X-764564Y-466560D01*
X-764166Y-466631D01*
X-763827Y-466852D01*
X-763601Y-467187D01*
X-763468Y-467510D01*
X-759610Y-471368D01*
X-754568Y-473456D01*
X-749112Y-473456D01*
X-744070Y-471368D01*
X-740212Y-467510D01*
X-740079Y-467187D01*
X-739886Y-466887D01*
X-739559Y-466650D01*
X-739164Y-466560D01*
X-738766Y-466631D01*
X-738427Y-466852D01*
X-738201Y-467187D01*
X-738068Y-467510D01*
X-734210Y-471368D01*
X-729168Y-473456D01*
X-723712Y-473456D01*
X-718670Y-471368D01*
X-714812Y-467510D01*
X-714679Y-467187D01*
X-714486Y-466887D01*
X-714159Y-466650D01*
X-713764Y-466560D01*
X-713366Y-466631D01*
X-713027Y-466852D01*
X-712801Y-467187D01*
X-712668Y-467510D01*
X-708810Y-471368D01*
X-703768Y-473456D01*
X-698312Y-473456D01*
X-693270Y-471368D01*
X-689412Y-467510D01*
X-689279Y-467187D01*
X-689086Y-466887D01*
X-688759Y-466650D01*
X-688364Y-466560D01*
X-687966Y-466631D01*
X-687627Y-466852D01*
X-687401Y-467187D01*
X-687268Y-467510D01*
X-683410Y-471368D01*
X-678368Y-473456D01*
X-672912Y-473456D01*
X-667870Y-471368D01*
X-664012Y-467510D01*
X-661924Y-462468D01*
X-661924Y-457012D01*
X-664012Y-451970D01*
X-667870Y-448112D01*
X-672912Y-446024D01*
X-678368Y-446024D01*
X-683410Y-448112D01*
X-687268Y-451970D01*
X-687401Y-452293D01*
X-687594Y-452593D01*
X-687921Y-452830D01*
X-688316Y-452920D01*
X-688714Y-452849D01*
X-689053Y-452628D01*
X-689279Y-452293D01*
X-689412Y-451970D01*
X-693270Y-448112D01*
X-698312Y-446024D01*
X-703768Y-446024D01*
X-708810Y-448112D01*
X-712668Y-451970D01*
X-712801Y-452293D01*
X-712994Y-452593D01*
X-713321Y-452830D01*
X-713716Y-452920D01*
X-714114Y-452849D01*
X-714453Y-452628D01*
X-714679Y-452293D01*
X-714812Y-451970D01*
X-718670Y-448112D01*
X-723712Y-446024D01*
X-729168Y-446024D01*
X-734210Y-448112D01*
X-738068Y-451970D01*
X-738201Y-452293D01*
X-738394Y-452593D01*
X-738721Y-452830D01*
X-739116Y-452920D01*
X-739514Y-452849D01*
X-739853Y-452628D01*
X-740079Y-452293D01*
X-740212Y-451970D01*
X-744070Y-448112D01*
X-749112Y-446024D01*
X-754568Y-446024D01*
X-759610Y-448112D01*
X-763468Y-451970D01*
X-763601Y-452293D01*
X-763794Y-452593D01*
X-764121Y-452830D01*
X-764516Y-452920D01*
X-764914Y-452849D01*
X-765253Y-452628D01*
X-765479Y-452293D01*
X-765612Y-451970D01*
X-769470Y-448112D01*
X-774512Y-446024D01*
X-779968Y-446024D01*
X-785010Y-448112D01*
X-788868Y-451970D01*
X-789001Y-452293D01*
X-789194Y-452593D01*
X-789521Y-452830D01*
X-789916Y-452920D01*
X-790314Y-452849D01*
X-790653Y-452628D01*
X-790879Y-452293D01*
X-791012Y-451970D01*
X-794870Y-448112D01*
X-799912Y-446024D01*
X-805368Y-446024D01*
X-810410Y-448112D01*
X-814268Y-451970D01*
X-814401Y-452293D01*
X-814594Y-452593D01*
X-814921Y-452830D01*
X-815316Y-452920D01*
X-815714Y-452849D01*
X-816053Y-452628D01*
X-816279Y-452293D01*
X-816412Y-451970D01*
X-820270Y-448112D01*
X-825312Y-446024D01*
X-830768Y-446024D01*
X-835810Y-448112D01*
X-839668Y-451970D01*
X-839801Y-452293D01*
X-839994Y-452593D01*
X-840321Y-452830D01*
X-840716Y-452920D01*
X-841114Y-452849D01*
X-841453Y-452628D01*
X-841679Y-452293D01*
X-841812Y-451970D01*
X-845670Y-448112D01*
X-850712Y-446024D01*
X-856168Y-446024D01*
X-861210Y-448112D01*
X-865068Y-451970D01*
X-867156Y-457012D01*
X-867156Y-462468D01*
X-865068Y-467510D01*
X-861210Y-471368D01*
X-856168Y-473456D01*
G37*
G36*
X-197602Y-570738D02*
X-177282Y-570738D01*
X-177282Y-569479D01*
X-178829Y-565745D01*
X-181687Y-562887D01*
X-184641Y-561663D01*
X-184941Y-561471D01*
X-185178Y-561143D01*
X-185268Y-560749D01*
X-185197Y-560351D01*
X-184976Y-560012D01*
X-184641Y-559786D01*
X-179672Y-557728D01*
X-175814Y-553870D01*
X-173726Y-548828D01*
X-173726Y-543372D01*
X-175814Y-538330D01*
X-179672Y-534472D01*
X-179995Y-534339D01*
X-180295Y-534146D01*
X-180532Y-533819D01*
X-180622Y-533424D01*
X-180551Y-533026D01*
X-180330Y-532687D01*
X-179995Y-532461D01*
X-179672Y-532328D01*
X-175814Y-528470D01*
X-173726Y-523428D01*
X-173726Y-517972D01*
X-175814Y-512930D01*
X-179672Y-509072D01*
X-179995Y-508939D01*
X-180295Y-508746D01*
X-180532Y-508419D01*
X-180622Y-508024D01*
X-180551Y-507626D01*
X-180330Y-507287D01*
X-179995Y-507061D01*
X-179672Y-506928D01*
X-175814Y-503070D01*
X-173726Y-498028D01*
X-173726Y-492572D01*
X-175814Y-487530D01*
X-179672Y-483672D01*
X-179995Y-483539D01*
X-180295Y-483346D01*
X-180532Y-483019D01*
X-180622Y-482624D01*
X-180551Y-482226D01*
X-180330Y-481887D01*
X-179995Y-481661D01*
X-179672Y-481528D01*
X-175814Y-477670D01*
X-173726Y-472628D01*
X-173726Y-467172D01*
X-175814Y-462130D01*
X-179672Y-458272D01*
X-184714Y-456184D01*
X-190170Y-456184D01*
X-195212Y-458272D01*
X-199070Y-462130D01*
X-201158Y-467172D01*
X-201158Y-472628D01*
X-199070Y-477670D01*
X-195212Y-481528D01*
X-194889Y-481661D01*
X-194589Y-481854D01*
X-194352Y-482181D01*
X-194262Y-482576D01*
X-194333Y-482974D01*
X-194554Y-483313D01*
X-194889Y-483539D01*
X-195212Y-483672D01*
X-199070Y-487530D01*
X-201158Y-492572D01*
X-201158Y-498028D01*
X-199070Y-503070D01*
X-195212Y-506928D01*
X-194889Y-507061D01*
X-194589Y-507254D01*
X-194352Y-507581D01*
X-194262Y-507976D01*
X-194333Y-508374D01*
X-194554Y-508713D01*
X-194889Y-508939D01*
X-195212Y-509072D01*
X-199070Y-512930D01*
X-201158Y-517972D01*
X-201158Y-523428D01*
X-199070Y-528470D01*
X-195212Y-532328D01*
X-194889Y-532461D01*
X-194589Y-532654D01*
X-194352Y-532981D01*
X-194262Y-533376D01*
X-194333Y-533774D01*
X-194554Y-534113D01*
X-194889Y-534339D01*
X-195212Y-534472D01*
X-199070Y-538330D01*
X-201158Y-543372D01*
X-201158Y-548828D01*
X-199070Y-553870D01*
X-195212Y-557728D01*
X-190243Y-559786D01*
X-189943Y-559978D01*
X-189706Y-560306D01*
X-189616Y-560700D01*
X-189687Y-561098D01*
X-189908Y-561437D01*
X-190243Y-561663D01*
X-193197Y-562887D01*
X-196055Y-565745D01*
X-197602Y-569479D01*
X-197602Y-570738D01*
G37*
G36*
X-197602Y-621538D02*
X-177282Y-621538D01*
X-177282Y-620279D01*
X-178829Y-616545D01*
X-181687Y-613687D01*
X-184641Y-612463D01*
X-184941Y-612271D01*
X-185178Y-611943D01*
X-185268Y-611549D01*
X-185197Y-611151D01*
X-184976Y-610812D01*
X-184641Y-610586D01*
X-179672Y-608528D01*
X-175814Y-604670D01*
X-173726Y-599628D01*
X-173726Y-594172D01*
X-175814Y-589130D01*
X-179672Y-585272D01*
X-184641Y-583214D01*
X-184941Y-583022D01*
X-185178Y-582694D01*
X-185268Y-582300D01*
X-185197Y-581902D01*
X-184976Y-581563D01*
X-184641Y-581337D01*
X-181687Y-580113D01*
X-178829Y-577255D01*
X-177282Y-573521D01*
X-177282Y-572262D01*
X-197602Y-572262D01*
X-197602Y-573521D01*
X-196055Y-577255D01*
X-193197Y-580113D01*
X-190243Y-581337D01*
X-189943Y-581529D01*
X-189706Y-581857D01*
X-189616Y-582251D01*
X-189687Y-582649D01*
X-189908Y-582988D01*
X-190243Y-583214D01*
X-195212Y-585272D01*
X-199070Y-589130D01*
X-201158Y-594172D01*
X-201158Y-599628D01*
X-199070Y-604670D01*
X-195212Y-608528D01*
X-190243Y-610586D01*
X-189943Y-610778D01*
X-189706Y-611106D01*
X-189616Y-611500D01*
X-189687Y-611898D01*
X-189908Y-612237D01*
X-190243Y-612463D01*
X-193197Y-613687D01*
X-196055Y-616545D01*
X-197602Y-620279D01*
X-197602Y-621538D01*
G37*
G36*
X-197602Y-786638D02*
X-177282Y-786638D01*
X-177282Y-785379D01*
X-178829Y-781645D01*
X-181687Y-778787D01*
X-184641Y-777563D01*
X-184941Y-777371D01*
X-185178Y-777043D01*
X-185268Y-776649D01*
X-185197Y-776251D01*
X-184976Y-775912D01*
X-184641Y-775686D01*
X-179672Y-773628D01*
X-175814Y-769770D01*
X-173726Y-764728D01*
X-173726Y-759272D01*
X-175814Y-754230D01*
X-179672Y-750372D01*
X-179995Y-750239D01*
X-180295Y-750046D01*
X-180532Y-749719D01*
X-180622Y-749324D01*
X-180551Y-748926D01*
X-180330Y-748587D01*
X-179995Y-748361D01*
X-179672Y-748228D01*
X-175814Y-744370D01*
X-173726Y-739328D01*
X-173726Y-733872D01*
X-175814Y-728830D01*
X-179672Y-724972D01*
X-179995Y-724839D01*
X-180295Y-724646D01*
X-180532Y-724319D01*
X-180622Y-723924D01*
X-180551Y-723526D01*
X-180330Y-723187D01*
X-179995Y-722961D01*
X-179672Y-722828D01*
X-175814Y-718970D01*
X-173726Y-713928D01*
X-173726Y-708472D01*
X-175814Y-703430D01*
X-179672Y-699572D01*
X-179995Y-699439D01*
X-180295Y-699246D01*
X-180532Y-698919D01*
X-180622Y-698524D01*
X-180551Y-698126D01*
X-180330Y-697787D01*
X-179995Y-697561D01*
X-179672Y-697428D01*
X-175814Y-693570D01*
X-173726Y-688528D01*
X-173726Y-683072D01*
X-175814Y-678030D01*
X-179672Y-674172D01*
X-184714Y-672084D01*
X-190170Y-672084D01*
X-195212Y-674172D01*
X-199070Y-678030D01*
X-201158Y-683072D01*
X-201158Y-688528D01*
X-199070Y-693570D01*
X-195212Y-697428D01*
X-194889Y-697561D01*
X-194589Y-697754D01*
X-194352Y-698081D01*
X-194262Y-698476D01*
X-194333Y-698874D01*
X-194554Y-699213D01*
X-194889Y-699439D01*
X-195212Y-699572D01*
X-199070Y-703430D01*
X-201158Y-708472D01*
X-201158Y-713928D01*
X-199070Y-718970D01*
X-195212Y-722828D01*
X-194889Y-722961D01*
X-194589Y-723154D01*
X-194352Y-723481D01*
X-194262Y-723876D01*
X-194333Y-724274D01*
X-194554Y-724613D01*
X-194889Y-724839D01*
X-195212Y-724972D01*
X-199070Y-728830D01*
X-201158Y-733872D01*
X-201158Y-739328D01*
X-199070Y-744370D01*
X-195212Y-748228D01*
X-194889Y-748361D01*
X-194589Y-748554D01*
X-194352Y-748881D01*
X-194262Y-749276D01*
X-194333Y-749674D01*
X-194554Y-750013D01*
X-194889Y-750239D01*
X-195212Y-750372D01*
X-199070Y-754230D01*
X-201158Y-759272D01*
X-201158Y-764728D01*
X-199070Y-769770D01*
X-195212Y-773628D01*
X-190243Y-775686D01*
X-189943Y-775878D01*
X-189706Y-776206D01*
X-189616Y-776600D01*
X-189687Y-776998D01*
X-189908Y-777337D01*
X-190243Y-777563D01*
X-193197Y-778787D01*
X-196055Y-781645D01*
X-197602Y-785379D01*
X-197602Y-786638D01*
G37*
G36*
X-197602Y-837438D02*
X-177282Y-837438D01*
X-177282Y-836179D01*
X-178829Y-832445D01*
X-181687Y-829587D01*
X-184641Y-828363D01*
X-184941Y-828171D01*
X-185178Y-827843D01*
X-185268Y-827449D01*
X-185197Y-827051D01*
X-184976Y-826712D01*
X-184641Y-826486D01*
X-179672Y-824428D01*
X-175814Y-820570D01*
X-173726Y-815528D01*
X-173726Y-810072D01*
X-175814Y-805030D01*
X-179672Y-801172D01*
X-184641Y-799114D01*
X-184941Y-798922D01*
X-185178Y-798594D01*
X-185268Y-798200D01*
X-185197Y-797802D01*
X-184976Y-797463D01*
X-184641Y-797237D01*
X-181687Y-796013D01*
X-178829Y-793155D01*
X-177282Y-789421D01*
X-177282Y-788162D01*
X-197602Y-788162D01*
X-197602Y-789421D01*
X-196055Y-793155D01*
X-193197Y-796013D01*
X-190243Y-797237D01*
X-189943Y-797429D01*
X-189706Y-797757D01*
X-189616Y-798151D01*
X-189687Y-798549D01*
X-189908Y-798888D01*
X-190243Y-799114D01*
X-195212Y-801172D01*
X-199070Y-805030D01*
X-201158Y-810072D01*
X-201158Y-815528D01*
X-199070Y-820570D01*
X-195212Y-824428D01*
X-190243Y-826486D01*
X-189943Y-826678D01*
X-189706Y-827006D01*
X-189616Y-827400D01*
X-189687Y-827798D01*
X-189908Y-828137D01*
X-190243Y-828363D01*
X-193197Y-829587D01*
X-196055Y-832445D01*
X-197602Y-836179D01*
X-197602Y-837438D01*
G37*
G36*
X-601461Y-901700D02*
X-600202Y-901700D01*
X-600202Y-892302D01*
X-609600Y-892302D01*
X-609600Y-893561D01*
X-608053Y-897295D01*
X-605195Y-900153D01*
X-601461Y-901700D01*
G37*
G36*
X-169020Y-919514D02*
X-158242Y-919514D01*
X-158242Y-908736D01*
X-159775Y-908736D01*
X-164017Y-910493D01*
X-167263Y-913739D01*
X-169020Y-917981D01*
X-169020Y-919514D01*
G37*
G36*
X-156718Y-919514D02*
X-145940Y-919514D01*
X-145940Y-917981D01*
X-147697Y-913739D01*
X-150943Y-910493D01*
X-155185Y-908736D01*
X-156718Y-908736D01*
X-156718Y-919514D01*
G37*
G36*
X-156718Y-931816D02*
X-155185Y-931816D01*
X-150943Y-930059D01*
X-147697Y-926813D01*
X-145940Y-922571D01*
X-145940Y-921038D01*
X-156718Y-921038D01*
X-156718Y-931816D01*
G37*
G36*
X-159775Y-931816D02*
X-158242Y-931816D01*
X-158242Y-921038D01*
X-169020Y-921038D01*
X-169020Y-922571D01*
X-167263Y-926813D01*
X-164017Y-930059D01*
X-159775Y-931816D01*
G37*
G36*
X-1033968Y-956056D02*
X-1028512Y-956056D01*
X-1023470Y-953968D01*
X-1019612Y-950110D01*
X-1019479Y-949787D01*
X-1019286Y-949487D01*
X-1018959Y-949250D01*
X-1018564Y-949160D01*
X-1018166Y-949231D01*
X-1017827Y-949452D01*
X-1017601Y-949787D01*
X-1017468Y-950110D01*
X-1013610Y-953968D01*
X-1008568Y-956056D01*
X-1003112Y-956056D01*
X-998070Y-953968D01*
X-994212Y-950110D01*
X-994079Y-949787D01*
X-993886Y-949487D01*
X-993559Y-949250D01*
X-993164Y-949160D01*
X-992766Y-949231D01*
X-992427Y-949452D01*
X-992201Y-949787D01*
X-992068Y-950110D01*
X-988210Y-953968D01*
X-983168Y-956056D01*
X-977712Y-956056D01*
X-972670Y-953968D01*
X-968812Y-950110D01*
X-968679Y-949787D01*
X-968486Y-949487D01*
X-968159Y-949250D01*
X-967764Y-949160D01*
X-967366Y-949231D01*
X-967027Y-949452D01*
X-966801Y-949787D01*
X-966668Y-950110D01*
X-962810Y-953968D01*
X-957768Y-956056D01*
X-952312Y-956056D01*
X-947270Y-953968D01*
X-943412Y-950110D01*
X-943279Y-949787D01*
X-943086Y-949487D01*
X-942759Y-949250D01*
X-942364Y-949160D01*
X-941966Y-949231D01*
X-941627Y-949452D01*
X-941401Y-949787D01*
X-941268Y-950110D01*
X-937410Y-953968D01*
X-932368Y-956056D01*
X-926912Y-956056D01*
X-921870Y-953968D01*
X-918012Y-950110D01*
X-917879Y-949787D01*
X-917686Y-949487D01*
X-917359Y-949250D01*
X-916964Y-949160D01*
X-916566Y-949231D01*
X-916227Y-949452D01*
X-916001Y-949787D01*
X-915868Y-950110D01*
X-912010Y-953968D01*
X-906968Y-956056D01*
X-901512Y-956056D01*
X-896470Y-953968D01*
X-892612Y-950110D01*
X-892479Y-949787D01*
X-892286Y-949487D01*
X-891959Y-949250D01*
X-891564Y-949160D01*
X-891166Y-949231D01*
X-890827Y-949452D01*
X-890601Y-949787D01*
X-890468Y-950110D01*
X-886610Y-953968D01*
X-881568Y-956056D01*
X-876112Y-956056D01*
X-871070Y-953968D01*
X-867212Y-950110D01*
X-867079Y-949787D01*
X-866886Y-949487D01*
X-866559Y-949250D01*
X-866164Y-949160D01*
X-865766Y-949231D01*
X-865427Y-949452D01*
X-865201Y-949787D01*
X-865068Y-950110D01*
X-861210Y-953968D01*
X-856168Y-956056D01*
X-850712Y-956056D01*
X-845670Y-953968D01*
X-841812Y-950110D01*
X-839724Y-945068D01*
X-839724Y-939612D01*
X-841812Y-934570D01*
X-845670Y-930712D01*
X-850712Y-928624D01*
X-856168Y-928624D01*
X-861210Y-930712D01*
X-865068Y-934570D01*
X-865201Y-934893D01*
X-865394Y-935193D01*
X-865721Y-935430D01*
X-866116Y-935520D01*
X-866514Y-935449D01*
X-866853Y-935228D01*
X-867079Y-934893D01*
X-867212Y-934570D01*
X-871070Y-930712D01*
X-876112Y-928624D01*
X-881568Y-928624D01*
X-886610Y-930712D01*
X-890468Y-934570D01*
X-890601Y-934893D01*
X-890794Y-935193D01*
X-891121Y-935430D01*
X-891516Y-935520D01*
X-891914Y-935449D01*
X-892253Y-935228D01*
X-892479Y-934893D01*
X-892612Y-934570D01*
X-896470Y-930712D01*
X-901512Y-928624D01*
X-906968Y-928624D01*
X-912010Y-930712D01*
X-915868Y-934570D01*
X-916001Y-934893D01*
X-916194Y-935193D01*
X-916521Y-935430D01*
X-916916Y-935520D01*
X-917314Y-935449D01*
X-917653Y-935228D01*
X-917879Y-934893D01*
X-918012Y-934570D01*
X-921870Y-930712D01*
X-926912Y-928624D01*
X-932368Y-928624D01*
X-937410Y-930712D01*
X-941268Y-934570D01*
X-941401Y-934893D01*
X-941594Y-935193D01*
X-941921Y-935430D01*
X-942316Y-935520D01*
X-942714Y-935449D01*
X-943053Y-935228D01*
X-943279Y-934893D01*
X-943412Y-934570D01*
X-947270Y-930712D01*
X-952312Y-928624D01*
X-957768Y-928624D01*
X-962810Y-930712D01*
X-966668Y-934570D01*
X-966801Y-934893D01*
X-966994Y-935193D01*
X-967321Y-935430D01*
X-967716Y-935520D01*
X-968114Y-935449D01*
X-968453Y-935228D01*
X-968679Y-934893D01*
X-968812Y-934570D01*
X-972670Y-930712D01*
X-977712Y-928624D01*
X-983168Y-928624D01*
X-988210Y-930712D01*
X-992068Y-934570D01*
X-992201Y-934893D01*
X-992394Y-935193D01*
X-992721Y-935430D01*
X-993116Y-935520D01*
X-993514Y-935449D01*
X-993853Y-935228D01*
X-994079Y-934893D01*
X-994212Y-934570D01*
X-998070Y-930712D01*
X-1003112Y-928624D01*
X-1008568Y-928624D01*
X-1013610Y-930712D01*
X-1017468Y-934570D01*
X-1017601Y-934893D01*
X-1017794Y-935193D01*
X-1018121Y-935430D01*
X-1018516Y-935520D01*
X-1018914Y-935449D01*
X-1019253Y-935228D01*
X-1019479Y-934893D01*
X-1019612Y-934570D01*
X-1023470Y-930712D01*
X-1028512Y-928624D01*
X-1033968Y-928624D01*
X-1039010Y-930712D01*
X-1042868Y-934570D01*
X-1044956Y-939612D01*
X-1044956Y-945068D01*
X-1042868Y-950110D01*
X-1039010Y-953968D01*
X-1033968Y-956056D01*
G37*
G36*
X-1262568Y-956056D02*
X-1257112Y-956056D01*
X-1252070Y-953968D01*
X-1248212Y-950110D01*
X-1248079Y-949787D01*
X-1247886Y-949487D01*
X-1247559Y-949250D01*
X-1247164Y-949160D01*
X-1246766Y-949231D01*
X-1246427Y-949452D01*
X-1246201Y-949787D01*
X-1246068Y-950110D01*
X-1242210Y-953968D01*
X-1237168Y-956056D01*
X-1231712Y-956056D01*
X-1226670Y-953968D01*
X-1222812Y-950110D01*
X-1222679Y-949787D01*
X-1222486Y-949487D01*
X-1222159Y-949250D01*
X-1221764Y-949160D01*
X-1221366Y-949231D01*
X-1221027Y-949452D01*
X-1220801Y-949787D01*
X-1220668Y-950110D01*
X-1216810Y-953968D01*
X-1211768Y-956056D01*
X-1206312Y-956056D01*
X-1201270Y-953968D01*
X-1197412Y-950110D01*
X-1197279Y-949787D01*
X-1197086Y-949487D01*
X-1196759Y-949250D01*
X-1196364Y-949160D01*
X-1195966Y-949231D01*
X-1195627Y-949452D01*
X-1195401Y-949787D01*
X-1195268Y-950110D01*
X-1191410Y-953968D01*
X-1186368Y-956056D01*
X-1180912Y-956056D01*
X-1175870Y-953968D01*
X-1172012Y-950110D01*
X-1171879Y-949787D01*
X-1171686Y-949487D01*
X-1171359Y-949250D01*
X-1170964Y-949160D01*
X-1170566Y-949231D01*
X-1170227Y-949452D01*
X-1170001Y-949787D01*
X-1169868Y-950110D01*
X-1166010Y-953968D01*
X-1160968Y-956056D01*
X-1155512Y-956056D01*
X-1150470Y-953968D01*
X-1146612Y-950110D01*
X-1146479Y-949787D01*
X-1146286Y-949487D01*
X-1145959Y-949250D01*
X-1145564Y-949160D01*
X-1145166Y-949231D01*
X-1144827Y-949452D01*
X-1144601Y-949787D01*
X-1144468Y-950110D01*
X-1140610Y-953968D01*
X-1135568Y-956056D01*
X-1130112Y-956056D01*
X-1125070Y-953968D01*
X-1121212Y-950110D01*
X-1119154Y-945141D01*
X-1118962Y-944841D01*
X-1118634Y-944604D01*
X-1118240Y-944514D01*
X-1117842Y-944585D01*
X-1117503Y-944806D01*
X-1117277Y-945141D01*
X-1116053Y-948095D01*
X-1113195Y-950953D01*
X-1109461Y-952500D01*
X-1108202Y-952500D01*
X-1108202Y-932180D01*
X-1109461Y-932180D01*
X-1113195Y-933727D01*
X-1116053Y-936585D01*
X-1117277Y-939539D01*
X-1117469Y-939839D01*
X-1117797Y-940076D01*
X-1118191Y-940166D01*
X-1118589Y-940095D01*
X-1118928Y-939874D01*
X-1119154Y-939539D01*
X-1121212Y-934570D01*
X-1125070Y-930712D01*
X-1130112Y-928624D01*
X-1135568Y-928624D01*
X-1140610Y-930712D01*
X-1144468Y-934570D01*
X-1144601Y-934893D01*
X-1144794Y-935193D01*
X-1145121Y-935430D01*
X-1145516Y-935520D01*
X-1145914Y-935449D01*
X-1146253Y-935228D01*
X-1146479Y-934893D01*
X-1146612Y-934570D01*
X-1150470Y-930712D01*
X-1155512Y-928624D01*
X-1160968Y-928624D01*
X-1166010Y-930712D01*
X-1169868Y-934570D01*
X-1170001Y-934893D01*
X-1170194Y-935193D01*
X-1170521Y-935430D01*
X-1170916Y-935520D01*
X-1171314Y-935449D01*
X-1171653Y-935228D01*
X-1171879Y-934893D01*
X-1172012Y-934570D01*
X-1175870Y-930712D01*
X-1180912Y-928624D01*
X-1186368Y-928624D01*
X-1191410Y-930712D01*
X-1195268Y-934570D01*
X-1195401Y-934893D01*
X-1195594Y-935193D01*
X-1195921Y-935430D01*
X-1196316Y-935520D01*
X-1196714Y-935449D01*
X-1197053Y-935228D01*
X-1197279Y-934893D01*
X-1197412Y-934570D01*
X-1201270Y-930712D01*
X-1206312Y-928624D01*
X-1211768Y-928624D01*
X-1216810Y-930712D01*
X-1220668Y-934570D01*
X-1220801Y-934893D01*
X-1220994Y-935193D01*
X-1221321Y-935430D01*
X-1221716Y-935520D01*
X-1222114Y-935449D01*
X-1222453Y-935228D01*
X-1222679Y-934893D01*
X-1222812Y-934570D01*
X-1226670Y-930712D01*
X-1231712Y-928624D01*
X-1237168Y-928624D01*
X-1242210Y-930712D01*
X-1246068Y-934570D01*
X-1246201Y-934893D01*
X-1246394Y-935193D01*
X-1246721Y-935430D01*
X-1247116Y-935520D01*
X-1247514Y-935449D01*
X-1247853Y-935228D01*
X-1248079Y-934893D01*
X-1248212Y-934570D01*
X-1252070Y-930712D01*
X-1257112Y-928624D01*
X-1262568Y-928624D01*
X-1267610Y-930712D01*
X-1271468Y-934570D01*
X-1273556Y-939612D01*
X-1273556Y-945068D01*
X-1271468Y-950110D01*
X-1267610Y-953968D01*
X-1262568Y-956056D01*
G37*
G36*
X-1084768Y-956056D02*
X-1079312Y-956056D01*
X-1074270Y-953968D01*
X-1070412Y-950110D01*
X-1068324Y-945068D01*
X-1068324Y-939612D01*
X-1070412Y-934570D01*
X-1074270Y-930712D01*
X-1079312Y-928624D01*
X-1084768Y-928624D01*
X-1089810Y-930712D01*
X-1093668Y-934570D01*
X-1095726Y-939539D01*
X-1095918Y-939839D01*
X-1096246Y-940076D01*
X-1096640Y-940166D01*
X-1097038Y-940095D01*
X-1097377Y-939874D01*
X-1097603Y-939539D01*
X-1098827Y-936585D01*
X-1101685Y-933727D01*
X-1105419Y-932180D01*
X-1106678Y-932180D01*
X-1106678Y-952500D01*
X-1105419Y-952500D01*
X-1101685Y-950953D01*
X-1098827Y-948095D01*
X-1097603Y-945141D01*
X-1097411Y-944841D01*
X-1097083Y-944604D01*
X-1096689Y-944514D01*
X-1096291Y-944585D01*
X-1095952Y-944806D01*
X-1095726Y-945141D01*
X-1093668Y-950110D01*
X-1089810Y-953968D01*
X-1084768Y-956056D01*
G37*
G36*
X-805368Y-956056D02*
X-799912Y-956056D01*
X-794870Y-953968D01*
X-791012Y-950110D01*
X-790879Y-949787D01*
X-790686Y-949487D01*
X-790359Y-949250D01*
X-789964Y-949160D01*
X-789566Y-949231D01*
X-789227Y-949452D01*
X-789001Y-949787D01*
X-788868Y-950110D01*
X-785010Y-953968D01*
X-779968Y-956056D01*
X-774512Y-956056D01*
X-769470Y-953968D01*
X-765612Y-950110D01*
X-765479Y-949787D01*
X-765286Y-949487D01*
X-764959Y-949250D01*
X-764564Y-949160D01*
X-764166Y-949231D01*
X-763827Y-949452D01*
X-763601Y-949787D01*
X-763468Y-950110D01*
X-759610Y-953968D01*
X-754568Y-956056D01*
X-749112Y-956056D01*
X-744070Y-953968D01*
X-740212Y-950110D01*
X-740079Y-949787D01*
X-739886Y-949487D01*
X-739559Y-949250D01*
X-739164Y-949160D01*
X-738766Y-949231D01*
X-738427Y-949452D01*
X-738201Y-949787D01*
X-738068Y-950110D01*
X-734210Y-953968D01*
X-729168Y-956056D01*
X-723712Y-956056D01*
X-718670Y-953968D01*
X-714812Y-950110D01*
X-714679Y-949787D01*
X-714486Y-949487D01*
X-714159Y-949250D01*
X-713764Y-949160D01*
X-713366Y-949231D01*
X-713027Y-949452D01*
X-712801Y-949787D01*
X-712668Y-950110D01*
X-708810Y-953968D01*
X-703768Y-956056D01*
X-698312Y-956056D01*
X-693270Y-953968D01*
X-689412Y-950110D01*
X-689279Y-949787D01*
X-689086Y-949487D01*
X-688759Y-949250D01*
X-688364Y-949160D01*
X-687966Y-949231D01*
X-687627Y-949452D01*
X-687401Y-949787D01*
X-687268Y-950110D01*
X-683410Y-953968D01*
X-678368Y-956056D01*
X-672912Y-956056D01*
X-667870Y-953968D01*
X-664012Y-950110D01*
X-663879Y-949787D01*
X-663686Y-949487D01*
X-663359Y-949250D01*
X-662964Y-949160D01*
X-662566Y-949231D01*
X-662227Y-949452D01*
X-662001Y-949787D01*
X-661868Y-950110D01*
X-658010Y-953968D01*
X-652968Y-956056D01*
X-647512Y-956056D01*
X-642470Y-953968D01*
X-638612Y-950110D01*
X-638479Y-949787D01*
X-638286Y-949487D01*
X-637959Y-949250D01*
X-637564Y-949160D01*
X-637166Y-949231D01*
X-636827Y-949452D01*
X-636601Y-949787D01*
X-636468Y-950110D01*
X-632610Y-953968D01*
X-627568Y-956056D01*
X-622112Y-956056D01*
X-617070Y-953968D01*
X-613212Y-950110D01*
X-611124Y-945068D01*
X-611124Y-939612D01*
X-613212Y-934570D01*
X-617070Y-930712D01*
X-622112Y-928624D01*
X-627568Y-928624D01*
X-632610Y-930712D01*
X-636468Y-934570D01*
X-636601Y-934893D01*
X-636794Y-935193D01*
X-637121Y-935430D01*
X-637516Y-935520D01*
X-637914Y-935449D01*
X-638253Y-935228D01*
X-638479Y-934893D01*
X-638612Y-934570D01*
X-642470Y-930712D01*
X-647512Y-928624D01*
X-652968Y-928624D01*
X-658010Y-930712D01*
X-661868Y-934570D01*
X-662001Y-934893D01*
X-662194Y-935193D01*
X-662521Y-935430D01*
X-662916Y-935520D01*
X-663314Y-935449D01*
X-663653Y-935228D01*
X-663879Y-934893D01*
X-664012Y-934570D01*
X-667870Y-930712D01*
X-672912Y-928624D01*
X-678368Y-928624D01*
X-683410Y-930712D01*
X-687268Y-934570D01*
X-687401Y-934893D01*
X-687594Y-935193D01*
X-687921Y-935430D01*
X-688316Y-935520D01*
X-688714Y-935449D01*
X-689053Y-935228D01*
X-689279Y-934893D01*
X-689412Y-934570D01*
X-693270Y-930712D01*
X-698312Y-928624D01*
X-703768Y-928624D01*
X-708810Y-930712D01*
X-712668Y-934570D01*
X-712801Y-934893D01*
X-712994Y-935193D01*
X-713321Y-935430D01*
X-713716Y-935520D01*
X-714114Y-935449D01*
X-714453Y-935228D01*
X-714679Y-934893D01*
X-714812Y-934570D01*
X-718670Y-930712D01*
X-723712Y-928624D01*
X-729168Y-928624D01*
X-734210Y-930712D01*
X-738068Y-934570D01*
X-738201Y-934893D01*
X-738394Y-935193D01*
X-738721Y-935430D01*
X-739116Y-935520D01*
X-739514Y-935449D01*
X-739853Y-935228D01*
X-740079Y-934893D01*
X-740212Y-934570D01*
X-744070Y-930712D01*
X-749112Y-928624D01*
X-754568Y-928624D01*
X-759610Y-930712D01*
X-763468Y-934570D01*
X-763601Y-934893D01*
X-763794Y-935193D01*
X-764121Y-935430D01*
X-764516Y-935520D01*
X-764914Y-935449D01*
X-765253Y-935228D01*
X-765479Y-934893D01*
X-765612Y-934570D01*
X-769470Y-930712D01*
X-774512Y-928624D01*
X-779968Y-928624D01*
X-785010Y-930712D01*
X-788868Y-934570D01*
X-789001Y-934893D01*
X-789194Y-935193D01*
X-789521Y-935430D01*
X-789916Y-935520D01*
X-790314Y-935449D01*
X-790653Y-935228D01*
X-790879Y-934893D01*
X-791012Y-934570D01*
X-794870Y-930712D01*
X-799912Y-928624D01*
X-805368Y-928624D01*
X-810410Y-930712D01*
X-814268Y-934570D01*
X-816356Y-939612D01*
X-816356Y-945068D01*
X-814268Y-950110D01*
X-810410Y-953968D01*
X-805368Y-956056D01*
G37*
G36*
X-160483Y-986172D02*
X-154477Y-986172D01*
X-148929Y-983874D01*
X-144682Y-979627D01*
X-142384Y-974079D01*
X-142384Y-968073D01*
X-144682Y-962525D01*
X-148929Y-958278D01*
X-154477Y-955980D01*
X-160483Y-955980D01*
X-166031Y-958278D01*
X-170278Y-962525D01*
X-172576Y-968073D01*
X-172576Y-974079D01*
X-170278Y-979627D01*
X-166031Y-983874D01*
X-160483Y-986172D01*
G37*
G36*
X-168762Y-1030478D02*
X-157984Y-1030478D01*
X-157984Y-1019700D01*
X-159517Y-1019700D01*
X-163759Y-1021457D01*
X-167005Y-1024703D01*
X-168762Y-1028945D01*
X-168762Y-1030478D01*
G37*
G36*
X-156460Y-1030478D02*
X-145682Y-1030478D01*
X-145682Y-1028945D01*
X-147439Y-1024703D01*
X-150685Y-1021457D01*
X-154927Y-1019700D01*
X-156460Y-1019700D01*
X-156460Y-1030478D01*
G37*
G36*
X-1083244Y-1058478D02*
X-1077788Y-1058478D01*
X-1072746Y-1056390D01*
X-1068888Y-1052532D01*
X-1068755Y-1052210D01*
X-1068562Y-1051909D01*
X-1068235Y-1051673D01*
X-1067840Y-1051583D01*
X-1067442Y-1051654D01*
X-1067103Y-1051874D01*
X-1066877Y-1052210D01*
X-1066744Y-1052532D01*
X-1062886Y-1056390D01*
X-1057844Y-1058478D01*
X-1052388Y-1058478D01*
X-1047346Y-1056390D01*
X-1043488Y-1052532D01*
X-1043355Y-1052210D01*
X-1043162Y-1051909D01*
X-1042835Y-1051673D01*
X-1042440Y-1051583D01*
X-1042042Y-1051654D01*
X-1041703Y-1051874D01*
X-1041477Y-1052210D01*
X-1041344Y-1052532D01*
X-1037486Y-1056390D01*
X-1032444Y-1058478D01*
X-1026988Y-1058478D01*
X-1021946Y-1056390D01*
X-1018088Y-1052532D01*
X-1017955Y-1052210D01*
X-1017762Y-1051909D01*
X-1017435Y-1051673D01*
X-1017040Y-1051583D01*
X-1016642Y-1051654D01*
X-1016303Y-1051874D01*
X-1016077Y-1052210D01*
X-1015944Y-1052532D01*
X-1012086Y-1056390D01*
X-1007044Y-1058478D01*
X-1001588Y-1058478D01*
X-996546Y-1056390D01*
X-992688Y-1052532D01*
X-992555Y-1052210D01*
X-992362Y-1051909D01*
X-992035Y-1051673D01*
X-991640Y-1051583D01*
X-991242Y-1051654D01*
X-990903Y-1051874D01*
X-990677Y-1052210D01*
X-990544Y-1052532D01*
X-986686Y-1056390D01*
X-981644Y-1058478D01*
X-976188Y-1058478D01*
X-971146Y-1056390D01*
X-967288Y-1052532D01*
X-967155Y-1052210D01*
X-966962Y-1051909D01*
X-966635Y-1051673D01*
X-966240Y-1051583D01*
X-965842Y-1051654D01*
X-965503Y-1051874D01*
X-965277Y-1052210D01*
X-965144Y-1052532D01*
X-961286Y-1056390D01*
X-956244Y-1058478D01*
X-950788Y-1058478D01*
X-945746Y-1056390D01*
X-941888Y-1052532D01*
X-941755Y-1052210D01*
X-941562Y-1051909D01*
X-941235Y-1051673D01*
X-940840Y-1051583D01*
X-940442Y-1051654D01*
X-940103Y-1051874D01*
X-939877Y-1052210D01*
X-939744Y-1052532D01*
X-935886Y-1056390D01*
X-930844Y-1058478D01*
X-925388Y-1058478D01*
X-920346Y-1056390D01*
X-916488Y-1052532D01*
X-916355Y-1052210D01*
X-916162Y-1051909D01*
X-915835Y-1051673D01*
X-915440Y-1051583D01*
X-915042Y-1051654D01*
X-914703Y-1051874D01*
X-914477Y-1052210D01*
X-914344Y-1052532D01*
X-910486Y-1056390D01*
X-905444Y-1058478D01*
X-899988Y-1058478D01*
X-894946Y-1056390D01*
X-891088Y-1052532D01*
X-889000Y-1047491D01*
X-889000Y-1042034D01*
X-891088Y-1036993D01*
X-894946Y-1033135D01*
X-899988Y-1031046D01*
X-905444Y-1031046D01*
X-910486Y-1033135D01*
X-914344Y-1036993D01*
X-914477Y-1037315D01*
X-914670Y-1037616D01*
X-914997Y-1037852D01*
X-915392Y-1037942D01*
X-915790Y-1037871D01*
X-916129Y-1037651D01*
X-916355Y-1037315D01*
X-916488Y-1036993D01*
X-920346Y-1033135D01*
X-925388Y-1031046D01*
X-930844Y-1031046D01*
X-935886Y-1033135D01*
X-939744Y-1036993D01*
X-939877Y-1037315D01*
X-940070Y-1037616D01*
X-940397Y-1037852D01*
X-940792Y-1037942D01*
X-941190Y-1037871D01*
X-941529Y-1037651D01*
X-941755Y-1037315D01*
X-941888Y-1036993D01*
X-945746Y-1033135D01*
X-950788Y-1031046D01*
X-956244Y-1031046D01*
X-961286Y-1033135D01*
X-965144Y-1036993D01*
X-965277Y-1037315D01*
X-965470Y-1037616D01*
X-965797Y-1037852D01*
X-966192Y-1037942D01*
X-966590Y-1037871D01*
X-966929Y-1037651D01*
X-967155Y-1037315D01*
X-967288Y-1036993D01*
X-971146Y-1033135D01*
X-976188Y-1031046D01*
X-981644Y-1031046D01*
X-986686Y-1033135D01*
X-990544Y-1036993D01*
X-990677Y-1037315D01*
X-990870Y-1037616D01*
X-991197Y-1037852D01*
X-991592Y-1037942D01*
X-991990Y-1037871D01*
X-992329Y-1037651D01*
X-992555Y-1037315D01*
X-992688Y-1036993D01*
X-996546Y-1033135D01*
X-1001588Y-1031046D01*
X-1007044Y-1031046D01*
X-1012086Y-1033135D01*
X-1015944Y-1036993D01*
X-1016077Y-1037315D01*
X-1016270Y-1037616D01*
X-1016597Y-1037852D01*
X-1016992Y-1037942D01*
X-1017390Y-1037871D01*
X-1017729Y-1037651D01*
X-1017955Y-1037315D01*
X-1018088Y-1036993D01*
X-1021946Y-1033135D01*
X-1026988Y-1031046D01*
X-1032444Y-1031046D01*
X-1037486Y-1033135D01*
X-1041344Y-1036993D01*
X-1041477Y-1037315D01*
X-1041670Y-1037616D01*
X-1041997Y-1037852D01*
X-1042392Y-1037942D01*
X-1042790Y-1037871D01*
X-1043129Y-1037651D01*
X-1043355Y-1037315D01*
X-1043488Y-1036993D01*
X-1047346Y-1033135D01*
X-1052388Y-1031046D01*
X-1057844Y-1031046D01*
X-1062886Y-1033135D01*
X-1066744Y-1036993D01*
X-1066877Y-1037315D01*
X-1067070Y-1037616D01*
X-1067397Y-1037852D01*
X-1067792Y-1037942D01*
X-1068190Y-1037871D01*
X-1068529Y-1037651D01*
X-1068755Y-1037315D01*
X-1068888Y-1036993D01*
X-1072746Y-1033135D01*
X-1077788Y-1031046D01*
X-1083244Y-1031046D01*
X-1088286Y-1033135D01*
X-1092144Y-1036993D01*
X-1094232Y-1042034D01*
X-1094232Y-1047491D01*
X-1092144Y-1052532D01*
X-1088286Y-1056390D01*
X-1083244Y-1058478D01*
G37*
G36*
X-1349944Y-1058478D02*
X-1344488Y-1058478D01*
X-1339446Y-1056390D01*
X-1335588Y-1052532D01*
X-1335455Y-1052210D01*
X-1335262Y-1051909D01*
X-1334935Y-1051673D01*
X-1334540Y-1051583D01*
X-1334142Y-1051654D01*
X-1333803Y-1051874D01*
X-1333577Y-1052210D01*
X-1333444Y-1052532D01*
X-1329586Y-1056390D01*
X-1324544Y-1058478D01*
X-1319088Y-1058478D01*
X-1314046Y-1056390D01*
X-1310188Y-1052532D01*
X-1310055Y-1052210D01*
X-1309862Y-1051909D01*
X-1309535Y-1051673D01*
X-1309140Y-1051583D01*
X-1308742Y-1051654D01*
X-1308403Y-1051874D01*
X-1308177Y-1052210D01*
X-1308044Y-1052532D01*
X-1304186Y-1056390D01*
X-1299144Y-1058478D01*
X-1293688Y-1058478D01*
X-1288646Y-1056390D01*
X-1284788Y-1052532D01*
X-1284655Y-1052210D01*
X-1284462Y-1051909D01*
X-1284135Y-1051673D01*
X-1283740Y-1051583D01*
X-1283342Y-1051654D01*
X-1283003Y-1051874D01*
X-1282777Y-1052210D01*
X-1282644Y-1052532D01*
X-1278786Y-1056390D01*
X-1273744Y-1058478D01*
X-1268288Y-1058478D01*
X-1263246Y-1056390D01*
X-1259388Y-1052532D01*
X-1259255Y-1052210D01*
X-1259062Y-1051909D01*
X-1258735Y-1051673D01*
X-1258340Y-1051583D01*
X-1257942Y-1051654D01*
X-1257603Y-1051874D01*
X-1257377Y-1052210D01*
X-1257244Y-1052532D01*
X-1253386Y-1056390D01*
X-1248344Y-1058478D01*
X-1242888Y-1058478D01*
X-1237846Y-1056390D01*
X-1233988Y-1052532D01*
X-1233855Y-1052210D01*
X-1233662Y-1051909D01*
X-1233335Y-1051673D01*
X-1232940Y-1051583D01*
X-1232542Y-1051654D01*
X-1232203Y-1051874D01*
X-1231977Y-1052210D01*
X-1231844Y-1052532D01*
X-1227986Y-1056390D01*
X-1222944Y-1058478D01*
X-1217488Y-1058478D01*
X-1212446Y-1056390D01*
X-1208588Y-1052532D01*
X-1208455Y-1052210D01*
X-1208262Y-1051909D01*
X-1207935Y-1051673D01*
X-1207540Y-1051583D01*
X-1207142Y-1051654D01*
X-1206803Y-1051874D01*
X-1206577Y-1052210D01*
X-1206444Y-1052532D01*
X-1202586Y-1056390D01*
X-1197544Y-1058478D01*
X-1192088Y-1058478D01*
X-1187046Y-1056390D01*
X-1183188Y-1052532D01*
X-1183055Y-1052210D01*
X-1182862Y-1051909D01*
X-1182535Y-1051673D01*
X-1182140Y-1051583D01*
X-1181742Y-1051654D01*
X-1181403Y-1051874D01*
X-1181177Y-1052210D01*
X-1181044Y-1052532D01*
X-1177186Y-1056390D01*
X-1172144Y-1058478D01*
X-1166688Y-1058478D01*
X-1161646Y-1056390D01*
X-1157788Y-1052532D01*
X-1157655Y-1052210D01*
X-1157462Y-1051909D01*
X-1157135Y-1051673D01*
X-1156740Y-1051583D01*
X-1156342Y-1051654D01*
X-1156003Y-1051874D01*
X-1155777Y-1052210D01*
X-1155644Y-1052532D01*
X-1151786Y-1056390D01*
X-1146744Y-1058478D01*
X-1141288Y-1058478D01*
X-1136246Y-1056390D01*
X-1132388Y-1052532D01*
X-1132255Y-1052210D01*
X-1132062Y-1051909D01*
X-1131735Y-1051673D01*
X-1131340Y-1051583D01*
X-1130942Y-1051654D01*
X-1130603Y-1051874D01*
X-1130377Y-1052210D01*
X-1130244Y-1052532D01*
X-1126386Y-1056390D01*
X-1121344Y-1058478D01*
X-1115888Y-1058478D01*
X-1110846Y-1056390D01*
X-1106988Y-1052532D01*
X-1104900Y-1047491D01*
X-1104900Y-1042034D01*
X-1106988Y-1036993D01*
X-1110846Y-1033135D01*
X-1115888Y-1031046D01*
X-1121344Y-1031046D01*
X-1126386Y-1033135D01*
X-1130244Y-1036993D01*
X-1130377Y-1037315D01*
X-1130570Y-1037616D01*
X-1130897Y-1037852D01*
X-1131292Y-1037942D01*
X-1131690Y-1037871D01*
X-1132029Y-1037651D01*
X-1132255Y-1037315D01*
X-1132388Y-1036993D01*
X-1136246Y-1033135D01*
X-1141288Y-1031046D01*
X-1146744Y-1031046D01*
X-1151786Y-1033135D01*
X-1155644Y-1036993D01*
X-1155777Y-1037315D01*
X-1155970Y-1037616D01*
X-1156297Y-1037852D01*
X-1156692Y-1037942D01*
X-1157090Y-1037871D01*
X-1157429Y-1037651D01*
X-1157655Y-1037315D01*
X-1157788Y-1036993D01*
X-1161646Y-1033135D01*
X-1166688Y-1031046D01*
X-1172144Y-1031046D01*
X-1177186Y-1033135D01*
X-1181044Y-1036993D01*
X-1181177Y-1037315D01*
X-1181370Y-1037616D01*
X-1181697Y-1037852D01*
X-1182092Y-1037942D01*
X-1182490Y-1037871D01*
X-1182829Y-1037651D01*
X-1183055Y-1037315D01*
X-1183188Y-1036993D01*
X-1187046Y-1033135D01*
X-1192088Y-1031046D01*
X-1197544Y-1031046D01*
X-1202586Y-1033135D01*
X-1206444Y-1036993D01*
X-1206577Y-1037315D01*
X-1206770Y-1037616D01*
X-1207097Y-1037852D01*
X-1207492Y-1037942D01*
X-1207890Y-1037871D01*
X-1208229Y-1037651D01*
X-1208455Y-1037315D01*
X-1208588Y-1036993D01*
X-1212446Y-1033135D01*
X-1217488Y-1031046D01*
X-1222944Y-1031046D01*
X-1227986Y-1033135D01*
X-1231844Y-1036993D01*
X-1231977Y-1037315D01*
X-1232170Y-1037616D01*
X-1232497Y-1037852D01*
X-1232892Y-1037942D01*
X-1233290Y-1037871D01*
X-1233629Y-1037651D01*
X-1233855Y-1037315D01*
X-1233988Y-1036993D01*
X-1237846Y-1033135D01*
X-1242888Y-1031046D01*
X-1248344Y-1031046D01*
X-1253386Y-1033135D01*
X-1257244Y-1036993D01*
X-1257377Y-1037315D01*
X-1257570Y-1037616D01*
X-1257897Y-1037852D01*
X-1258292Y-1037942D01*
X-1258690Y-1037871D01*
X-1259029Y-1037651D01*
X-1259255Y-1037315D01*
X-1259388Y-1036993D01*
X-1263246Y-1033135D01*
X-1268288Y-1031046D01*
X-1273744Y-1031046D01*
X-1278786Y-1033135D01*
X-1282644Y-1036993D01*
X-1282777Y-1037315D01*
X-1282970Y-1037616D01*
X-1283297Y-1037852D01*
X-1283692Y-1037942D01*
X-1284090Y-1037871D01*
X-1284429Y-1037651D01*
X-1284655Y-1037315D01*
X-1284788Y-1036993D01*
X-1288646Y-1033135D01*
X-1293688Y-1031046D01*
X-1299144Y-1031046D01*
X-1304186Y-1033135D01*
X-1308044Y-1036993D01*
X-1308177Y-1037315D01*
X-1308370Y-1037616D01*
X-1308697Y-1037852D01*
X-1309092Y-1037942D01*
X-1309490Y-1037871D01*
X-1309829Y-1037651D01*
X-1310055Y-1037315D01*
X-1310188Y-1036993D01*
X-1314046Y-1033135D01*
X-1319088Y-1031046D01*
X-1324544Y-1031046D01*
X-1329586Y-1033135D01*
X-1333444Y-1036993D01*
X-1333577Y-1037315D01*
X-1333770Y-1037616D01*
X-1334097Y-1037852D01*
X-1334492Y-1037942D01*
X-1334890Y-1037871D01*
X-1335229Y-1037651D01*
X-1335455Y-1037315D01*
X-1335588Y-1036993D01*
X-1339446Y-1033135D01*
X-1344488Y-1031046D01*
X-1349944Y-1031046D01*
X-1354986Y-1033135D01*
X-1358844Y-1036993D01*
X-1360932Y-1042034D01*
X-1360932Y-1047491D01*
X-1358844Y-1052532D01*
X-1354986Y-1056390D01*
X-1349944Y-1058478D01*
G37*
G36*
X-854644Y-1058478D02*
X-849188Y-1058478D01*
X-844146Y-1056390D01*
X-840288Y-1052532D01*
X-840155Y-1052210D01*
X-839962Y-1051909D01*
X-839635Y-1051673D01*
X-839240Y-1051583D01*
X-838842Y-1051654D01*
X-838503Y-1051874D01*
X-838277Y-1052210D01*
X-838144Y-1052532D01*
X-834286Y-1056390D01*
X-829244Y-1058478D01*
X-823788Y-1058478D01*
X-818746Y-1056390D01*
X-814888Y-1052532D01*
X-814755Y-1052210D01*
X-814562Y-1051909D01*
X-814235Y-1051673D01*
X-813840Y-1051583D01*
X-813442Y-1051654D01*
X-813103Y-1051874D01*
X-812877Y-1052210D01*
X-812744Y-1052532D01*
X-808886Y-1056390D01*
X-803844Y-1058478D01*
X-798388Y-1058478D01*
X-793346Y-1056390D01*
X-789488Y-1052532D01*
X-789355Y-1052210D01*
X-789162Y-1051909D01*
X-788835Y-1051673D01*
X-788440Y-1051583D01*
X-788042Y-1051654D01*
X-787703Y-1051874D01*
X-787477Y-1052210D01*
X-787344Y-1052532D01*
X-783486Y-1056390D01*
X-778444Y-1058478D01*
X-772988Y-1058478D01*
X-767946Y-1056390D01*
X-764088Y-1052532D01*
X-763955Y-1052210D01*
X-763762Y-1051909D01*
X-763435Y-1051673D01*
X-763040Y-1051583D01*
X-762642Y-1051654D01*
X-762303Y-1051874D01*
X-762077Y-1052210D01*
X-761944Y-1052532D01*
X-758086Y-1056390D01*
X-753044Y-1058478D01*
X-747588Y-1058478D01*
X-742546Y-1056390D01*
X-738688Y-1052532D01*
X-738555Y-1052210D01*
X-738362Y-1051909D01*
X-738035Y-1051673D01*
X-737640Y-1051583D01*
X-737242Y-1051654D01*
X-736903Y-1051874D01*
X-736677Y-1052210D01*
X-736544Y-1052532D01*
X-732686Y-1056390D01*
X-727644Y-1058478D01*
X-722188Y-1058478D01*
X-717146Y-1056390D01*
X-713288Y-1052532D01*
X-713155Y-1052210D01*
X-712962Y-1051909D01*
X-712635Y-1051673D01*
X-712240Y-1051583D01*
X-711842Y-1051654D01*
X-711503Y-1051874D01*
X-711277Y-1052210D01*
X-711144Y-1052532D01*
X-707286Y-1056390D01*
X-702244Y-1058478D01*
X-696788Y-1058478D01*
X-691746Y-1056390D01*
X-687888Y-1052532D01*
X-687755Y-1052210D01*
X-687562Y-1051909D01*
X-687235Y-1051673D01*
X-686840Y-1051583D01*
X-686442Y-1051654D01*
X-686103Y-1051874D01*
X-685877Y-1052210D01*
X-685744Y-1052532D01*
X-681886Y-1056390D01*
X-676844Y-1058478D01*
X-671388Y-1058478D01*
X-666346Y-1056390D01*
X-662488Y-1052532D01*
X-660400Y-1047491D01*
X-660400Y-1042034D01*
X-662488Y-1036993D01*
X-666346Y-1033135D01*
X-671388Y-1031046D01*
X-676844Y-1031046D01*
X-681886Y-1033135D01*
X-685744Y-1036993D01*
X-685877Y-1037315D01*
X-686070Y-1037616D01*
X-686397Y-1037852D01*
X-686792Y-1037942D01*
X-687190Y-1037871D01*
X-687529Y-1037651D01*
X-687755Y-1037315D01*
X-687888Y-1036993D01*
X-691746Y-1033135D01*
X-696788Y-1031046D01*
X-702244Y-1031046D01*
X-707286Y-1033135D01*
X-711144Y-1036993D01*
X-711277Y-1037315D01*
X-711470Y-1037616D01*
X-711797Y-1037852D01*
X-712192Y-1037942D01*
X-712590Y-1037871D01*
X-712929Y-1037651D01*
X-713155Y-1037315D01*
X-713288Y-1036993D01*
X-717146Y-1033135D01*
X-722188Y-1031046D01*
X-727644Y-1031046D01*
X-732686Y-1033135D01*
X-736544Y-1036993D01*
X-736677Y-1037315D01*
X-736870Y-1037616D01*
X-737197Y-1037852D01*
X-737592Y-1037942D01*
X-737990Y-1037871D01*
X-738329Y-1037651D01*
X-738555Y-1037315D01*
X-738688Y-1036993D01*
X-742546Y-1033135D01*
X-747588Y-1031046D01*
X-753044Y-1031046D01*
X-758086Y-1033135D01*
X-761944Y-1036993D01*
X-762077Y-1037315D01*
X-762270Y-1037616D01*
X-762597Y-1037852D01*
X-762992Y-1037942D01*
X-763390Y-1037871D01*
X-763729Y-1037651D01*
X-763955Y-1037315D01*
X-764088Y-1036993D01*
X-767946Y-1033135D01*
X-772988Y-1031046D01*
X-778444Y-1031046D01*
X-783486Y-1033135D01*
X-787344Y-1036993D01*
X-787477Y-1037315D01*
X-787670Y-1037616D01*
X-787997Y-1037852D01*
X-788392Y-1037942D01*
X-788790Y-1037871D01*
X-789129Y-1037651D01*
X-789355Y-1037315D01*
X-789488Y-1036993D01*
X-793346Y-1033135D01*
X-798388Y-1031046D01*
X-803844Y-1031046D01*
X-808886Y-1033135D01*
X-812744Y-1036993D01*
X-812877Y-1037315D01*
X-813070Y-1037616D01*
X-813397Y-1037852D01*
X-813792Y-1037942D01*
X-814190Y-1037871D01*
X-814529Y-1037651D01*
X-814755Y-1037315D01*
X-814888Y-1036993D01*
X-818746Y-1033135D01*
X-823788Y-1031046D01*
X-829244Y-1031046D01*
X-834286Y-1033135D01*
X-838144Y-1036993D01*
X-838277Y-1037315D01*
X-838470Y-1037616D01*
X-838797Y-1037852D01*
X-839192Y-1037942D01*
X-839590Y-1037871D01*
X-839929Y-1037651D01*
X-840155Y-1037315D01*
X-840288Y-1036993D01*
X-844146Y-1033135D01*
X-849188Y-1031046D01*
X-854644Y-1031046D01*
X-859686Y-1033135D01*
X-863544Y-1036993D01*
X-865632Y-1042034D01*
X-865632Y-1047491D01*
X-863544Y-1052532D01*
X-859686Y-1056390D01*
X-854644Y-1058478D01*
G37*
G36*
X-600644Y-1490278D02*
X-595188Y-1490278D01*
X-590146Y-1488190D01*
X-586288Y-1484332D01*
X-586155Y-1484010D01*
X-585962Y-1483709D01*
X-585635Y-1483473D01*
X-585240Y-1483383D01*
X-584842Y-1483454D01*
X-584503Y-1483674D01*
X-584277Y-1484010D01*
X-584144Y-1484332D01*
X-580286Y-1488190D01*
X-575244Y-1490278D01*
X-569788Y-1490278D01*
X-564746Y-1488190D01*
X-560888Y-1484332D01*
X-558800Y-1479291D01*
X-558800Y-1473834D01*
X-560888Y-1468793D01*
X-564746Y-1464935D01*
X-565069Y-1464801D01*
X-565369Y-1464609D01*
X-565606Y-1464281D01*
X-565696Y-1463887D01*
X-565625Y-1463489D01*
X-565404Y-1463150D01*
X-565069Y-1462924D01*
X-564746Y-1462790D01*
X-560888Y-1458932D01*
X-558800Y-1453891D01*
X-558800Y-1448434D01*
X-560888Y-1443393D01*
X-564746Y-1439535D01*
X-565069Y-1439401D01*
X-565369Y-1439209D01*
X-565606Y-1438881D01*
X-565696Y-1438487D01*
X-565625Y-1438089D01*
X-565404Y-1437750D01*
X-565069Y-1437524D01*
X-564746Y-1437390D01*
X-560888Y-1433532D01*
X-558800Y-1428491D01*
X-558800Y-1423034D01*
X-560888Y-1417993D01*
X-564746Y-1414135D01*
X-565069Y-1414001D01*
X-565369Y-1413809D01*
X-565606Y-1413481D01*
X-565696Y-1413087D01*
X-565625Y-1412689D01*
X-565404Y-1412350D01*
X-565069Y-1412124D01*
X-564746Y-1411990D01*
X-560888Y-1408132D01*
X-558800Y-1403091D01*
X-558800Y-1397634D01*
X-560888Y-1392593D01*
X-564746Y-1388735D01*
X-565069Y-1388601D01*
X-565369Y-1388409D01*
X-565606Y-1388081D01*
X-565696Y-1387687D01*
X-565625Y-1387289D01*
X-565404Y-1386950D01*
X-565069Y-1386724D01*
X-564746Y-1386590D01*
X-560888Y-1382732D01*
X-558800Y-1377691D01*
X-558800Y-1372234D01*
X-560888Y-1367193D01*
X-564746Y-1363335D01*
X-565069Y-1363201D01*
X-565369Y-1363009D01*
X-565606Y-1362681D01*
X-565696Y-1362287D01*
X-565625Y-1361889D01*
X-565404Y-1361550D01*
X-565069Y-1361324D01*
X-564746Y-1361190D01*
X-560888Y-1357332D01*
X-558800Y-1352291D01*
X-558800Y-1346834D01*
X-560888Y-1341793D01*
X-564746Y-1337935D01*
X-565069Y-1337801D01*
X-565369Y-1337609D01*
X-565606Y-1337281D01*
X-565696Y-1336887D01*
X-565625Y-1336489D01*
X-565404Y-1336150D01*
X-565069Y-1335924D01*
X-564746Y-1335790D01*
X-560888Y-1331932D01*
X-558800Y-1326891D01*
X-558800Y-1321434D01*
X-560888Y-1316393D01*
X-564746Y-1312535D01*
X-565069Y-1312401D01*
X-565369Y-1312209D01*
X-565606Y-1311881D01*
X-565696Y-1311487D01*
X-565625Y-1311089D01*
X-565404Y-1310750D01*
X-565069Y-1310524D01*
X-564746Y-1310390D01*
X-560888Y-1306532D01*
X-558800Y-1301491D01*
X-558800Y-1296034D01*
X-560888Y-1290993D01*
X-564746Y-1287135D01*
X-565069Y-1287001D01*
X-565369Y-1286809D01*
X-565606Y-1286481D01*
X-565696Y-1286087D01*
X-565625Y-1285689D01*
X-565404Y-1285350D01*
X-565069Y-1285124D01*
X-564746Y-1284990D01*
X-560888Y-1281132D01*
X-558800Y-1276091D01*
X-558800Y-1270634D01*
X-560888Y-1265593D01*
X-564746Y-1261735D01*
X-565069Y-1261601D01*
X-565369Y-1261409D01*
X-565606Y-1261081D01*
X-565696Y-1260687D01*
X-565625Y-1260289D01*
X-565404Y-1259950D01*
X-565069Y-1259724D01*
X-564746Y-1259590D01*
X-560888Y-1255732D01*
X-558800Y-1250691D01*
X-558800Y-1245234D01*
X-560888Y-1240193D01*
X-564746Y-1236335D01*
X-565069Y-1236201D01*
X-565369Y-1236009D01*
X-565606Y-1235681D01*
X-565696Y-1235287D01*
X-565625Y-1234889D01*
X-565404Y-1234550D01*
X-565069Y-1234324D01*
X-564746Y-1234190D01*
X-560888Y-1230332D01*
X-558800Y-1225291D01*
X-558800Y-1219834D01*
X-560888Y-1214793D01*
X-564746Y-1210935D01*
X-565069Y-1210801D01*
X-565369Y-1210609D01*
X-565606Y-1210281D01*
X-565696Y-1209887D01*
X-565625Y-1209489D01*
X-565404Y-1209150D01*
X-565069Y-1208924D01*
X-564746Y-1208790D01*
X-560888Y-1204932D01*
X-558800Y-1199891D01*
X-558800Y-1194434D01*
X-560888Y-1189393D01*
X-564746Y-1185535D01*
X-565069Y-1185401D01*
X-565369Y-1185209D01*
X-565606Y-1184881D01*
X-565696Y-1184487D01*
X-565625Y-1184089D01*
X-565404Y-1183750D01*
X-565069Y-1183524D01*
X-564746Y-1183390D01*
X-560888Y-1179532D01*
X-558800Y-1174491D01*
X-558800Y-1169034D01*
X-560888Y-1163993D01*
X-564746Y-1160135D01*
X-565069Y-1160001D01*
X-565369Y-1159809D01*
X-565606Y-1159481D01*
X-565696Y-1159087D01*
X-565625Y-1158689D01*
X-565404Y-1158350D01*
X-565069Y-1158124D01*
X-564746Y-1157990D01*
X-560888Y-1154132D01*
X-558800Y-1149091D01*
X-558800Y-1143634D01*
X-560888Y-1138593D01*
X-564746Y-1134735D01*
X-565069Y-1134601D01*
X-565369Y-1134409D01*
X-565606Y-1134081D01*
X-565696Y-1133687D01*
X-565625Y-1133289D01*
X-565404Y-1132950D01*
X-565069Y-1132724D01*
X-564746Y-1132590D01*
X-560888Y-1128732D01*
X-558800Y-1123691D01*
X-558800Y-1118234D01*
X-560888Y-1113193D01*
X-564746Y-1109335D01*
X-565069Y-1109201D01*
X-565369Y-1109009D01*
X-565606Y-1108681D01*
X-565696Y-1108287D01*
X-565625Y-1107889D01*
X-565404Y-1107550D01*
X-565069Y-1107324D01*
X-564746Y-1107190D01*
X-560888Y-1103332D01*
X-558800Y-1098291D01*
X-558800Y-1092834D01*
X-560888Y-1087793D01*
X-564746Y-1083935D01*
X-565069Y-1083801D01*
X-565369Y-1083609D01*
X-565606Y-1083281D01*
X-565696Y-1082887D01*
X-565625Y-1082489D01*
X-565404Y-1082150D01*
X-565069Y-1081924D01*
X-564746Y-1081790D01*
X-560888Y-1077932D01*
X-558800Y-1072891D01*
X-558800Y-1067434D01*
X-560888Y-1062393D01*
X-564746Y-1058535D01*
X-565069Y-1058401D01*
X-565369Y-1058209D01*
X-565606Y-1057881D01*
X-565696Y-1057487D01*
X-565625Y-1057089D01*
X-565404Y-1056750D01*
X-565069Y-1056524D01*
X-564746Y-1056390D01*
X-560888Y-1052532D01*
X-558800Y-1047491D01*
X-558800Y-1042034D01*
X-560888Y-1036993D01*
X-564746Y-1033135D01*
X-569788Y-1031046D01*
X-575244Y-1031046D01*
X-580286Y-1033135D01*
X-584144Y-1036993D01*
X-584277Y-1037315D01*
X-584470Y-1037616D01*
X-584797Y-1037852D01*
X-585192Y-1037942D01*
X-585590Y-1037871D01*
X-585929Y-1037651D01*
X-586155Y-1037315D01*
X-586288Y-1036993D01*
X-590146Y-1033135D01*
X-595188Y-1031046D01*
X-600644Y-1031046D01*
X-605686Y-1033135D01*
X-609544Y-1036993D01*
X-611632Y-1042034D01*
X-611632Y-1047491D01*
X-609544Y-1052532D01*
X-605686Y-1056390D01*
X-605363Y-1056524D01*
X-605063Y-1056716D01*
X-604826Y-1057044D01*
X-604736Y-1057438D01*
X-604807Y-1057836D01*
X-605028Y-1058175D01*
X-605363Y-1058401D01*
X-605686Y-1058535D01*
X-609544Y-1062393D01*
X-611632Y-1067434D01*
X-611632Y-1072891D01*
X-609544Y-1077932D01*
X-605686Y-1081790D01*
X-605363Y-1081924D01*
X-605063Y-1082116D01*
X-604826Y-1082444D01*
X-604736Y-1082838D01*
X-604807Y-1083236D01*
X-605028Y-1083575D01*
X-605363Y-1083801D01*
X-605686Y-1083935D01*
X-609544Y-1087793D01*
X-611632Y-1092834D01*
X-611632Y-1098291D01*
X-609544Y-1103332D01*
X-605686Y-1107190D01*
X-605363Y-1107324D01*
X-605063Y-1107516D01*
X-604826Y-1107844D01*
X-604736Y-1108238D01*
X-604807Y-1108636D01*
X-605028Y-1108975D01*
X-605363Y-1109201D01*
X-605686Y-1109335D01*
X-609544Y-1113193D01*
X-611632Y-1118234D01*
X-611632Y-1123691D01*
X-609544Y-1128732D01*
X-605686Y-1132590D01*
X-605363Y-1132724D01*
X-605063Y-1132916D01*
X-604826Y-1133244D01*
X-604736Y-1133638D01*
X-604807Y-1134036D01*
X-605028Y-1134375D01*
X-605363Y-1134601D01*
X-605686Y-1134735D01*
X-609544Y-1138593D01*
X-611632Y-1143634D01*
X-611632Y-1149091D01*
X-609544Y-1154132D01*
X-605686Y-1157990D01*
X-605363Y-1158124D01*
X-605063Y-1158316D01*
X-604826Y-1158644D01*
X-604736Y-1159038D01*
X-604807Y-1159436D01*
X-605028Y-1159775D01*
X-605363Y-1160001D01*
X-605686Y-1160135D01*
X-609544Y-1163993D01*
X-611632Y-1169034D01*
X-611632Y-1174491D01*
X-609544Y-1179532D01*
X-605686Y-1183390D01*
X-605363Y-1183524D01*
X-605063Y-1183716D01*
X-604826Y-1184044D01*
X-604736Y-1184438D01*
X-604807Y-1184836D01*
X-605028Y-1185175D01*
X-605363Y-1185401D01*
X-605686Y-1185535D01*
X-609544Y-1189393D01*
X-611632Y-1194434D01*
X-611632Y-1199891D01*
X-609544Y-1204932D01*
X-605686Y-1208790D01*
X-605363Y-1208924D01*
X-605063Y-1209116D01*
X-604826Y-1209444D01*
X-604736Y-1209838D01*
X-604807Y-1210236D01*
X-605028Y-1210575D01*
X-605363Y-1210801D01*
X-605686Y-1210935D01*
X-609544Y-1214793D01*
X-611632Y-1219834D01*
X-611632Y-1225291D01*
X-609544Y-1230332D01*
X-605686Y-1234190D01*
X-605363Y-1234324D01*
X-605063Y-1234516D01*
X-604826Y-1234844D01*
X-604736Y-1235238D01*
X-604807Y-1235636D01*
X-605028Y-1235975D01*
X-605363Y-1236201D01*
X-605686Y-1236335D01*
X-609544Y-1240193D01*
X-611632Y-1245234D01*
X-611632Y-1250691D01*
X-609544Y-1255732D01*
X-605686Y-1259590D01*
X-605363Y-1259724D01*
X-605063Y-1259916D01*
X-604826Y-1260244D01*
X-604736Y-1260638D01*
X-604807Y-1261036D01*
X-605028Y-1261375D01*
X-605363Y-1261601D01*
X-605686Y-1261735D01*
X-609544Y-1265593D01*
X-611632Y-1270634D01*
X-611632Y-1276091D01*
X-609544Y-1281132D01*
X-605686Y-1284990D01*
X-605363Y-1285124D01*
X-605063Y-1285316D01*
X-604826Y-1285644D01*
X-604736Y-1286038D01*
X-604807Y-1286436D01*
X-605028Y-1286775D01*
X-605363Y-1287001D01*
X-605686Y-1287135D01*
X-609544Y-1290993D01*
X-611632Y-1296034D01*
X-611632Y-1301491D01*
X-609544Y-1306532D01*
X-605686Y-1310390D01*
X-605363Y-1310524D01*
X-605063Y-1310716D01*
X-604826Y-1311044D01*
X-604736Y-1311438D01*
X-604807Y-1311836D01*
X-605028Y-1312175D01*
X-605363Y-1312401D01*
X-605686Y-1312535D01*
X-609544Y-1316393D01*
X-611632Y-1321434D01*
X-611632Y-1326891D01*
X-609544Y-1331932D01*
X-605686Y-1335790D01*
X-605363Y-1335924D01*
X-605063Y-1336116D01*
X-604826Y-1336444D01*
X-604736Y-1336838D01*
X-604807Y-1337236D01*
X-605028Y-1337575D01*
X-605363Y-1337801D01*
X-605686Y-1337935D01*
X-609544Y-1341793D01*
X-611632Y-1346834D01*
X-611632Y-1352291D01*
X-609544Y-1357332D01*
X-605686Y-1361190D01*
X-605363Y-1361324D01*
X-605063Y-1361516D01*
X-604826Y-1361844D01*
X-604736Y-1362238D01*
X-604807Y-1362636D01*
X-605028Y-1362975D01*
X-605363Y-1363201D01*
X-605686Y-1363335D01*
X-609544Y-1367193D01*
X-611632Y-1372234D01*
X-611632Y-1377691D01*
X-609544Y-1382732D01*
X-605686Y-1386590D01*
X-605363Y-1386724D01*
X-605063Y-1386916D01*
X-604826Y-1387244D01*
X-604736Y-1387638D01*
X-604807Y-1388036D01*
X-605028Y-1388375D01*
X-605363Y-1388601D01*
X-605686Y-1388735D01*
X-609544Y-1392593D01*
X-611632Y-1397634D01*
X-611632Y-1403091D01*
X-609544Y-1408132D01*
X-605686Y-1411990D01*
X-605363Y-1412124D01*
X-605063Y-1412316D01*
X-604826Y-1412644D01*
X-604736Y-1413038D01*
X-604807Y-1413436D01*
X-605028Y-1413775D01*
X-605363Y-1414001D01*
X-605686Y-1414135D01*
X-609544Y-1417993D01*
X-611632Y-1423034D01*
X-611632Y-1428491D01*
X-609544Y-1433532D01*
X-605686Y-1437390D01*
X-605363Y-1437524D01*
X-605063Y-1437716D01*
X-604826Y-1438044D01*
X-604736Y-1438438D01*
X-604807Y-1438836D01*
X-605028Y-1439175D01*
X-605363Y-1439401D01*
X-605686Y-1439535D01*
X-609544Y-1443393D01*
X-611632Y-1448434D01*
X-611632Y-1453891D01*
X-609544Y-1458932D01*
X-605686Y-1462790D01*
X-605363Y-1462924D01*
X-605063Y-1463116D01*
X-604826Y-1463444D01*
X-604736Y-1463838D01*
X-604807Y-1464236D01*
X-605028Y-1464575D01*
X-605363Y-1464801D01*
X-605686Y-1464935D01*
X-609544Y-1468793D01*
X-611632Y-1473834D01*
X-611632Y-1479291D01*
X-609544Y-1484332D01*
X-605686Y-1488190D01*
X-600644Y-1490278D01*
G37*
G36*
X-159517Y-1042780D02*
X-157984Y-1042780D01*
X-157984Y-1032002D01*
X-168762Y-1032002D01*
X-168762Y-1033535D01*
X-167005Y-1037777D01*
X-163759Y-1041023D01*
X-159517Y-1042780D01*
G37*
G36*
X-156460Y-1042780D02*
X-154927Y-1042780D01*
X-150685Y-1041023D01*
X-147439Y-1037777D01*
X-145682Y-1033535D01*
X-145682Y-1032002D01*
X-156460Y-1032002D01*
X-156460Y-1042780D01*
G37*
G36*
X-195062Y-1243838D02*
X-174742Y-1243838D01*
X-174742Y-1242579D01*
X-176289Y-1238845D01*
X-179147Y-1235987D01*
X-182101Y-1234763D01*
X-182401Y-1234571D01*
X-182638Y-1234243D01*
X-182728Y-1233849D01*
X-182657Y-1233451D01*
X-182436Y-1233112D01*
X-182101Y-1232886D01*
X-177132Y-1230828D01*
X-173274Y-1226970D01*
X-171186Y-1221928D01*
X-171186Y-1216472D01*
X-173274Y-1211430D01*
X-177132Y-1207572D01*
X-177455Y-1207439D01*
X-177755Y-1207246D01*
X-177992Y-1206919D01*
X-178082Y-1206524D01*
X-178011Y-1206126D01*
X-177790Y-1205787D01*
X-177455Y-1205561D01*
X-177132Y-1205428D01*
X-173274Y-1201570D01*
X-171186Y-1196528D01*
X-171186Y-1191072D01*
X-173274Y-1186030D01*
X-177132Y-1182172D01*
X-177455Y-1182039D01*
X-177755Y-1181846D01*
X-177992Y-1181519D01*
X-178082Y-1181124D01*
X-178011Y-1180726D01*
X-177790Y-1180387D01*
X-177455Y-1180161D01*
X-177132Y-1180028D01*
X-173274Y-1176170D01*
X-171186Y-1171128D01*
X-171186Y-1165672D01*
X-173274Y-1160630D01*
X-177132Y-1156772D01*
X-177455Y-1156639D01*
X-177755Y-1156446D01*
X-177992Y-1156119D01*
X-178082Y-1155724D01*
X-178011Y-1155326D01*
X-177790Y-1154987D01*
X-177455Y-1154761D01*
X-177132Y-1154628D01*
X-173274Y-1150770D01*
X-171186Y-1145728D01*
X-171186Y-1140272D01*
X-173274Y-1135230D01*
X-177132Y-1131372D01*
X-182174Y-1129284D01*
X-187630Y-1129284D01*
X-192672Y-1131372D01*
X-196530Y-1135230D01*
X-198618Y-1140272D01*
X-198618Y-1145728D01*
X-196530Y-1150770D01*
X-192672Y-1154628D01*
X-192349Y-1154761D01*
X-192049Y-1154954D01*
X-191812Y-1155281D01*
X-191722Y-1155676D01*
X-191793Y-1156074D01*
X-192014Y-1156413D01*
X-192349Y-1156639D01*
X-192672Y-1156772D01*
X-196530Y-1160630D01*
X-198618Y-1165672D01*
X-198618Y-1171128D01*
X-196530Y-1176170D01*
X-192672Y-1180028D01*
X-192349Y-1180161D01*
X-192049Y-1180354D01*
X-191812Y-1180681D01*
X-191722Y-1181076D01*
X-191793Y-1181474D01*
X-192014Y-1181813D01*
X-192349Y-1182039D01*
X-192672Y-1182172D01*
X-196530Y-1186030D01*
X-198618Y-1191072D01*
X-198618Y-1196528D01*
X-196530Y-1201570D01*
X-192672Y-1205428D01*
X-192349Y-1205561D01*
X-192049Y-1205754D01*
X-191812Y-1206081D01*
X-191722Y-1206476D01*
X-191793Y-1206874D01*
X-192014Y-1207213D01*
X-192349Y-1207439D01*
X-192672Y-1207572D01*
X-196530Y-1211430D01*
X-198618Y-1216472D01*
X-198618Y-1221928D01*
X-196530Y-1226970D01*
X-192672Y-1230828D01*
X-187703Y-1232886D01*
X-187403Y-1233078D01*
X-187166Y-1233406D01*
X-187076Y-1233800D01*
X-187147Y-1234198D01*
X-187368Y-1234537D01*
X-187703Y-1234763D01*
X-190657Y-1235987D01*
X-193515Y-1238845D01*
X-195062Y-1242579D01*
X-195062Y-1243838D01*
G37*
G36*
X-195062Y-1294638D02*
X-174742Y-1294638D01*
X-174742Y-1293379D01*
X-176289Y-1289645D01*
X-179147Y-1286787D01*
X-182101Y-1285563D01*
X-182401Y-1285371D01*
X-182638Y-1285043D01*
X-182728Y-1284649D01*
X-182657Y-1284251D01*
X-182436Y-1283912D01*
X-182101Y-1283686D01*
X-177132Y-1281628D01*
X-173274Y-1277770D01*
X-171186Y-1272728D01*
X-171186Y-1267272D01*
X-173274Y-1262230D01*
X-177132Y-1258372D01*
X-182101Y-1256314D01*
X-182401Y-1256122D01*
X-182638Y-1255794D01*
X-182728Y-1255400D01*
X-182657Y-1255002D01*
X-182436Y-1254663D01*
X-182101Y-1254437D01*
X-179147Y-1253213D01*
X-176289Y-1250355D01*
X-174742Y-1246621D01*
X-174742Y-1245362D01*
X-195062Y-1245362D01*
X-195062Y-1246621D01*
X-193515Y-1250355D01*
X-190657Y-1253213D01*
X-187703Y-1254437D01*
X-187403Y-1254629D01*
X-187166Y-1254957D01*
X-187076Y-1255351D01*
X-187147Y-1255749D01*
X-187368Y-1256088D01*
X-187703Y-1256314D01*
X-192672Y-1258372D01*
X-196530Y-1262230D01*
X-198618Y-1267272D01*
X-198618Y-1272728D01*
X-196530Y-1277770D01*
X-192672Y-1281628D01*
X-187703Y-1283686D01*
X-187403Y-1283878D01*
X-187166Y-1284206D01*
X-187076Y-1284600D01*
X-187147Y-1284998D01*
X-187368Y-1285337D01*
X-187703Y-1285563D01*
X-190657Y-1286787D01*
X-193515Y-1289645D01*
X-195062Y-1293379D01*
X-195062Y-1294638D01*
G37*
G36*
X-195062Y-1459738D02*
X-174742Y-1459738D01*
X-174742Y-1458479D01*
X-176289Y-1454745D01*
X-179147Y-1451887D01*
X-182101Y-1450663D01*
X-182401Y-1450471D01*
X-182638Y-1450143D01*
X-182728Y-1449749D01*
X-182657Y-1449351D01*
X-182436Y-1449012D01*
X-182101Y-1448786D01*
X-177132Y-1446728D01*
X-173274Y-1442870D01*
X-171186Y-1437828D01*
X-171186Y-1432372D01*
X-173274Y-1427330D01*
X-177132Y-1423472D01*
X-177455Y-1423339D01*
X-177755Y-1423146D01*
X-177992Y-1422819D01*
X-178082Y-1422424D01*
X-178011Y-1422026D01*
X-177790Y-1421687D01*
X-177455Y-1421461D01*
X-177132Y-1421328D01*
X-173274Y-1417470D01*
X-171186Y-1412428D01*
X-171186Y-1406972D01*
X-173274Y-1401930D01*
X-177132Y-1398072D01*
X-177455Y-1397939D01*
X-177755Y-1397746D01*
X-177992Y-1397419D01*
X-178082Y-1397024D01*
X-178011Y-1396626D01*
X-177790Y-1396287D01*
X-177455Y-1396061D01*
X-177132Y-1395928D01*
X-173274Y-1392070D01*
X-171186Y-1387028D01*
X-171186Y-1381572D01*
X-173274Y-1376530D01*
X-177132Y-1372672D01*
X-177455Y-1372539D01*
X-177755Y-1372346D01*
X-177992Y-1372019D01*
X-178082Y-1371624D01*
X-178011Y-1371226D01*
X-177790Y-1370887D01*
X-177455Y-1370661D01*
X-177132Y-1370528D01*
X-173274Y-1366670D01*
X-171186Y-1361628D01*
X-171186Y-1356172D01*
X-173274Y-1351130D01*
X-177132Y-1347272D01*
X-182174Y-1345184D01*
X-187630Y-1345184D01*
X-192672Y-1347272D01*
X-196530Y-1351130D01*
X-198618Y-1356172D01*
X-198618Y-1361628D01*
X-196530Y-1366670D01*
X-192672Y-1370528D01*
X-192349Y-1370661D01*
X-192049Y-1370854D01*
X-191812Y-1371181D01*
X-191722Y-1371576D01*
X-191793Y-1371974D01*
X-192014Y-1372313D01*
X-192349Y-1372539D01*
X-192672Y-1372672D01*
X-196530Y-1376530D01*
X-198618Y-1381572D01*
X-198618Y-1387028D01*
X-196530Y-1392070D01*
X-192672Y-1395928D01*
X-192349Y-1396061D01*
X-192049Y-1396254D01*
X-191812Y-1396581D01*
X-191722Y-1396976D01*
X-191793Y-1397374D01*
X-192014Y-1397713D01*
X-192349Y-1397939D01*
X-192672Y-1398072D01*
X-196530Y-1401930D01*
X-198618Y-1406972D01*
X-198618Y-1412428D01*
X-196530Y-1417470D01*
X-192672Y-1421328D01*
X-192349Y-1421461D01*
X-192049Y-1421654D01*
X-191812Y-1421981D01*
X-191722Y-1422376D01*
X-191793Y-1422774D01*
X-192014Y-1423113D01*
X-192349Y-1423339D01*
X-192672Y-1423472D01*
X-196530Y-1427330D01*
X-198618Y-1432372D01*
X-198618Y-1437828D01*
X-196530Y-1442870D01*
X-192672Y-1446728D01*
X-187703Y-1448786D01*
X-187403Y-1448978D01*
X-187166Y-1449306D01*
X-187076Y-1449700D01*
X-187147Y-1450098D01*
X-187368Y-1450437D01*
X-187703Y-1450663D01*
X-190657Y-1451887D01*
X-193515Y-1454745D01*
X-195062Y-1458479D01*
X-195062Y-1459738D01*
G37*
G36*
X-195062Y-1510538D02*
X-174742Y-1510538D01*
X-174742Y-1509279D01*
X-176289Y-1505545D01*
X-179147Y-1502687D01*
X-182101Y-1501463D01*
X-182401Y-1501271D01*
X-182638Y-1500943D01*
X-182728Y-1500549D01*
X-182657Y-1500151D01*
X-182436Y-1499812D01*
X-182101Y-1499586D01*
X-177132Y-1497528D01*
X-173274Y-1493670D01*
X-171186Y-1488628D01*
X-171186Y-1483172D01*
X-173274Y-1478130D01*
X-177132Y-1474272D01*
X-182101Y-1472214D01*
X-182401Y-1472022D01*
X-182638Y-1471694D01*
X-182728Y-1471300D01*
X-182657Y-1470902D01*
X-182436Y-1470563D01*
X-182101Y-1470337D01*
X-179147Y-1469113D01*
X-176289Y-1466255D01*
X-174742Y-1462521D01*
X-174742Y-1461262D01*
X-195062Y-1461262D01*
X-195062Y-1462521D01*
X-193515Y-1466255D01*
X-190657Y-1469113D01*
X-187703Y-1470337D01*
X-187403Y-1470529D01*
X-187166Y-1470857D01*
X-187076Y-1471251D01*
X-187147Y-1471649D01*
X-187368Y-1471988D01*
X-187703Y-1472214D01*
X-192672Y-1474272D01*
X-196530Y-1478130D01*
X-198618Y-1483172D01*
X-198618Y-1488628D01*
X-196530Y-1493670D01*
X-192672Y-1497528D01*
X-187703Y-1499586D01*
X-187403Y-1499778D01*
X-187166Y-1500106D01*
X-187076Y-1500500D01*
X-187147Y-1500898D01*
X-187368Y-1501237D01*
X-187703Y-1501463D01*
X-190657Y-1502687D01*
X-193515Y-1505545D01*
X-195062Y-1509279D01*
X-195062Y-1510538D01*
G37*
G36*
X-803844Y-1541078D02*
X-798388Y-1541078D01*
X-793346Y-1538990D01*
X-789488Y-1535132D01*
X-789355Y-1534810D01*
X-789162Y-1534509D01*
X-788835Y-1534273D01*
X-788440Y-1534183D01*
X-788042Y-1534254D01*
X-787703Y-1534474D01*
X-787477Y-1534810D01*
X-787344Y-1535132D01*
X-783486Y-1538990D01*
X-778444Y-1541078D01*
X-772988Y-1541078D01*
X-767946Y-1538990D01*
X-764088Y-1535132D01*
X-763955Y-1534810D01*
X-763762Y-1534509D01*
X-763435Y-1534273D01*
X-763040Y-1534183D01*
X-762642Y-1534254D01*
X-762303Y-1534474D01*
X-762077Y-1534810D01*
X-761944Y-1535132D01*
X-758086Y-1538990D01*
X-753044Y-1541078D01*
X-747588Y-1541078D01*
X-742546Y-1538990D01*
X-738688Y-1535132D01*
X-738555Y-1534810D01*
X-738362Y-1534509D01*
X-738035Y-1534273D01*
X-737640Y-1534183D01*
X-737242Y-1534254D01*
X-736903Y-1534474D01*
X-736677Y-1534810D01*
X-736544Y-1535132D01*
X-732686Y-1538990D01*
X-727644Y-1541078D01*
X-722188Y-1541078D01*
X-717146Y-1538990D01*
X-713288Y-1535132D01*
X-713155Y-1534810D01*
X-712962Y-1534509D01*
X-712635Y-1534273D01*
X-712240Y-1534183D01*
X-711842Y-1534254D01*
X-711503Y-1534474D01*
X-711277Y-1534810D01*
X-711144Y-1535132D01*
X-707286Y-1538990D01*
X-702244Y-1541078D01*
X-696788Y-1541078D01*
X-691746Y-1538990D01*
X-687888Y-1535132D01*
X-687755Y-1534810D01*
X-687562Y-1534509D01*
X-687235Y-1534273D01*
X-686840Y-1534183D01*
X-686442Y-1534254D01*
X-686103Y-1534474D01*
X-685877Y-1534810D01*
X-685744Y-1535132D01*
X-681886Y-1538990D01*
X-676844Y-1541078D01*
X-671388Y-1541078D01*
X-666346Y-1538990D01*
X-662488Y-1535132D01*
X-662355Y-1534810D01*
X-662162Y-1534509D01*
X-661835Y-1534273D01*
X-661440Y-1534183D01*
X-661042Y-1534254D01*
X-660703Y-1534474D01*
X-660477Y-1534810D01*
X-660344Y-1535132D01*
X-656486Y-1538990D01*
X-651444Y-1541078D01*
X-645988Y-1541078D01*
X-640946Y-1538990D01*
X-637088Y-1535132D01*
X-636955Y-1534810D01*
X-636762Y-1534509D01*
X-636435Y-1534273D01*
X-636040Y-1534183D01*
X-635642Y-1534254D01*
X-635303Y-1534474D01*
X-635077Y-1534810D01*
X-634944Y-1535132D01*
X-631086Y-1538990D01*
X-626044Y-1541078D01*
X-620588Y-1541078D01*
X-615546Y-1538990D01*
X-611688Y-1535132D01*
X-609600Y-1530091D01*
X-609600Y-1524634D01*
X-611688Y-1519593D01*
X-615546Y-1515735D01*
X-620588Y-1513646D01*
X-626044Y-1513646D01*
X-631086Y-1515735D01*
X-634944Y-1519593D01*
X-635077Y-1519915D01*
X-635270Y-1520216D01*
X-635597Y-1520452D01*
X-635992Y-1520542D01*
X-636390Y-1520471D01*
X-636729Y-1520251D01*
X-636955Y-1519915D01*
X-637088Y-1519593D01*
X-640946Y-1515735D01*
X-645988Y-1513646D01*
X-651444Y-1513646D01*
X-656486Y-1515735D01*
X-660344Y-1519593D01*
X-660477Y-1519915D01*
X-660670Y-1520216D01*
X-660997Y-1520452D01*
X-661392Y-1520542D01*
X-661790Y-1520471D01*
X-662129Y-1520251D01*
X-662355Y-1519915D01*
X-662488Y-1519593D01*
X-666346Y-1515735D01*
X-671388Y-1513646D01*
X-676844Y-1513646D01*
X-681886Y-1515735D01*
X-685744Y-1519593D01*
X-685877Y-1519915D01*
X-686070Y-1520216D01*
X-686397Y-1520452D01*
X-686792Y-1520542D01*
X-687190Y-1520471D01*
X-687529Y-1520251D01*
X-687755Y-1519915D01*
X-687888Y-1519593D01*
X-691746Y-1515735D01*
X-696788Y-1513646D01*
X-702244Y-1513646D01*
X-707286Y-1515735D01*
X-711144Y-1519593D01*
X-711277Y-1519915D01*
X-711470Y-1520216D01*
X-711797Y-1520452D01*
X-712192Y-1520542D01*
X-712590Y-1520471D01*
X-712929Y-1520251D01*
X-713155Y-1519915D01*
X-713288Y-1519593D01*
X-717146Y-1515735D01*
X-722188Y-1513646D01*
X-727644Y-1513646D01*
X-732686Y-1515735D01*
X-736544Y-1519593D01*
X-736677Y-1519915D01*
X-736870Y-1520216D01*
X-737197Y-1520452D01*
X-737592Y-1520542D01*
X-737990Y-1520471D01*
X-738329Y-1520251D01*
X-738555Y-1519915D01*
X-738688Y-1519593D01*
X-742546Y-1515735D01*
X-747588Y-1513646D01*
X-753044Y-1513646D01*
X-758086Y-1515735D01*
X-761944Y-1519593D01*
X-762077Y-1519915D01*
X-762270Y-1520216D01*
X-762597Y-1520452D01*
X-762992Y-1520542D01*
X-763390Y-1520471D01*
X-763729Y-1520251D01*
X-763955Y-1519915D01*
X-764088Y-1519593D01*
X-767946Y-1515735D01*
X-772988Y-1513646D01*
X-778444Y-1513646D01*
X-783486Y-1515735D01*
X-787344Y-1519593D01*
X-787477Y-1519915D01*
X-787670Y-1520216D01*
X-787997Y-1520452D01*
X-788392Y-1520542D01*
X-788790Y-1520471D01*
X-789129Y-1520251D01*
X-789355Y-1519915D01*
X-789488Y-1519593D01*
X-793346Y-1515735D01*
X-798388Y-1513646D01*
X-803844Y-1513646D01*
X-808886Y-1515735D01*
X-812744Y-1519593D01*
X-814832Y-1524634D01*
X-814832Y-1530091D01*
X-812744Y-1535132D01*
X-808886Y-1538990D01*
X-803844Y-1541078D01*
G37*
G36*
X-1261044Y-1541078D02*
X-1255588Y-1541078D01*
X-1250546Y-1538990D01*
X-1246688Y-1535132D01*
X-1246555Y-1534810D01*
X-1246362Y-1534509D01*
X-1246035Y-1534273D01*
X-1245640Y-1534183D01*
X-1245242Y-1534254D01*
X-1244903Y-1534474D01*
X-1244677Y-1534810D01*
X-1244544Y-1535132D01*
X-1240686Y-1538990D01*
X-1235644Y-1541078D01*
X-1230188Y-1541078D01*
X-1225146Y-1538990D01*
X-1221288Y-1535132D01*
X-1221155Y-1534810D01*
X-1220962Y-1534509D01*
X-1220635Y-1534273D01*
X-1220240Y-1534183D01*
X-1219842Y-1534254D01*
X-1219503Y-1534474D01*
X-1219277Y-1534810D01*
X-1219144Y-1535132D01*
X-1215286Y-1538990D01*
X-1210244Y-1541078D01*
X-1204788Y-1541078D01*
X-1199746Y-1538990D01*
X-1195888Y-1535132D01*
X-1195755Y-1534810D01*
X-1195562Y-1534509D01*
X-1195235Y-1534273D01*
X-1194840Y-1534183D01*
X-1194442Y-1534254D01*
X-1194103Y-1534474D01*
X-1193877Y-1534810D01*
X-1193744Y-1535132D01*
X-1189886Y-1538990D01*
X-1184844Y-1541078D01*
X-1179388Y-1541078D01*
X-1174346Y-1538990D01*
X-1170488Y-1535132D01*
X-1170355Y-1534810D01*
X-1170162Y-1534509D01*
X-1169835Y-1534273D01*
X-1169440Y-1534183D01*
X-1169042Y-1534254D01*
X-1168703Y-1534474D01*
X-1168477Y-1534810D01*
X-1168344Y-1535132D01*
X-1164486Y-1538990D01*
X-1159444Y-1541078D01*
X-1153988Y-1541078D01*
X-1148946Y-1538990D01*
X-1145088Y-1535132D01*
X-1144955Y-1534810D01*
X-1144762Y-1534509D01*
X-1144435Y-1534273D01*
X-1144040Y-1534183D01*
X-1143642Y-1534254D01*
X-1143303Y-1534474D01*
X-1143077Y-1534810D01*
X-1142944Y-1535132D01*
X-1139086Y-1538990D01*
X-1134044Y-1541078D01*
X-1128588Y-1541078D01*
X-1123546Y-1538990D01*
X-1119688Y-1535132D01*
X-1117630Y-1530164D01*
X-1117438Y-1529863D01*
X-1117110Y-1529627D01*
X-1116716Y-1529537D01*
X-1116318Y-1529608D01*
X-1115979Y-1529828D01*
X-1115753Y-1530164D01*
X-1114529Y-1533118D01*
X-1111671Y-1535976D01*
X-1107937Y-1537522D01*
X-1106678Y-1537522D01*
X-1106678Y-1517202D01*
X-1107937Y-1517202D01*
X-1111671Y-1518749D01*
X-1114529Y-1521607D01*
X-1115753Y-1524561D01*
X-1115945Y-1524862D01*
X-1116273Y-1525098D01*
X-1116667Y-1525188D01*
X-1117065Y-1525117D01*
X-1117404Y-1524897D01*
X-1117630Y-1524561D01*
X-1119688Y-1519593D01*
X-1123546Y-1515735D01*
X-1128588Y-1513646D01*
X-1134044Y-1513646D01*
X-1139086Y-1515735D01*
X-1142944Y-1519593D01*
X-1143077Y-1519915D01*
X-1143270Y-1520216D01*
X-1143597Y-1520452D01*
X-1143992Y-1520542D01*
X-1144390Y-1520471D01*
X-1144729Y-1520251D01*
X-1144955Y-1519915D01*
X-1145088Y-1519593D01*
X-1148946Y-1515735D01*
X-1153988Y-1513646D01*
X-1159444Y-1513646D01*
X-1164486Y-1515735D01*
X-1168344Y-1519593D01*
X-1168477Y-1519915D01*
X-1168670Y-1520216D01*
X-1168997Y-1520452D01*
X-1169392Y-1520542D01*
X-1169790Y-1520471D01*
X-1170129Y-1520251D01*
X-1170355Y-1519915D01*
X-1170488Y-1519593D01*
X-1174346Y-1515735D01*
X-1179388Y-1513646D01*
X-1184844Y-1513646D01*
X-1189886Y-1515735D01*
X-1193744Y-1519593D01*
X-1193877Y-1519915D01*
X-1194070Y-1520216D01*
X-1194397Y-1520452D01*
X-1194792Y-1520542D01*
X-1195190Y-1520471D01*
X-1195529Y-1520251D01*
X-1195755Y-1519915D01*
X-1195888Y-1519593D01*
X-1199746Y-1515735D01*
X-1204788Y-1513646D01*
X-1210244Y-1513646D01*
X-1215286Y-1515735D01*
X-1219144Y-1519593D01*
X-1219277Y-1519915D01*
X-1219470Y-1520216D01*
X-1219797Y-1520452D01*
X-1220192Y-1520542D01*
X-1220590Y-1520471D01*
X-1220929Y-1520251D01*
X-1221155Y-1519915D01*
X-1221288Y-1519593D01*
X-1225146Y-1515735D01*
X-1230188Y-1513646D01*
X-1235644Y-1513646D01*
X-1240686Y-1515735D01*
X-1244544Y-1519593D01*
X-1244677Y-1519915D01*
X-1244870Y-1520216D01*
X-1245197Y-1520452D01*
X-1245592Y-1520542D01*
X-1245990Y-1520471D01*
X-1246329Y-1520251D01*
X-1246555Y-1519915D01*
X-1246688Y-1519593D01*
X-1250546Y-1515735D01*
X-1255588Y-1513646D01*
X-1261044Y-1513646D01*
X-1266086Y-1515735D01*
X-1269944Y-1519593D01*
X-1272032Y-1524634D01*
X-1272032Y-1530091D01*
X-1269944Y-1535132D01*
X-1266086Y-1538990D01*
X-1261044Y-1541078D01*
G37*
G36*
X-1083244Y-1541078D02*
X-1077788Y-1541078D01*
X-1072746Y-1538990D01*
X-1068888Y-1535132D01*
X-1066800Y-1530091D01*
X-1066800Y-1524634D01*
X-1068888Y-1519593D01*
X-1072746Y-1515735D01*
X-1077788Y-1513646D01*
X-1083244Y-1513646D01*
X-1088286Y-1515735D01*
X-1092144Y-1519593D01*
X-1094202Y-1524561D01*
X-1094394Y-1524862D01*
X-1094722Y-1525098D01*
X-1095116Y-1525188D01*
X-1095514Y-1525117D01*
X-1095853Y-1524897D01*
X-1096079Y-1524561D01*
X-1097303Y-1521607D01*
X-1100161Y-1518749D01*
X-1103895Y-1517202D01*
X-1105154Y-1517202D01*
X-1105154Y-1537522D01*
X-1103895Y-1537522D01*
X-1100161Y-1535976D01*
X-1097303Y-1533118D01*
X-1096079Y-1530164D01*
X-1095887Y-1529863D01*
X-1095559Y-1529627D01*
X-1095165Y-1529537D01*
X-1094767Y-1529608D01*
X-1094428Y-1529828D01*
X-1094202Y-1530164D01*
X-1092144Y-1535132D01*
X-1088286Y-1538990D01*
X-1083244Y-1541078D01*
G37*
G36*
X-1032444Y-1541078D02*
X-1026988Y-1541078D01*
X-1021946Y-1538990D01*
X-1018088Y-1535132D01*
X-1017955Y-1534810D01*
X-1017762Y-1534509D01*
X-1017435Y-1534273D01*
X-1017040Y-1534183D01*
X-1016642Y-1534254D01*
X-1016303Y-1534474D01*
X-1016077Y-1534810D01*
X-1015944Y-1535132D01*
X-1012086Y-1538990D01*
X-1007044Y-1541078D01*
X-1001588Y-1541078D01*
X-996546Y-1538990D01*
X-992688Y-1535132D01*
X-992555Y-1534810D01*
X-992362Y-1534509D01*
X-992035Y-1534273D01*
X-991640Y-1534183D01*
X-991242Y-1534254D01*
X-990903Y-1534474D01*
X-990677Y-1534810D01*
X-990544Y-1535132D01*
X-986686Y-1538990D01*
X-981644Y-1541078D01*
X-976188Y-1541078D01*
X-971146Y-1538990D01*
X-967288Y-1535132D01*
X-967155Y-1534810D01*
X-966962Y-1534509D01*
X-966635Y-1534273D01*
X-966240Y-1534183D01*
X-965842Y-1534254D01*
X-965503Y-1534474D01*
X-965277Y-1534810D01*
X-965144Y-1535132D01*
X-961286Y-1538990D01*
X-956244Y-1541078D01*
X-950788Y-1541078D01*
X-945746Y-1538990D01*
X-941888Y-1535132D01*
X-941755Y-1534810D01*
X-941562Y-1534509D01*
X-941235Y-1534273D01*
X-940840Y-1534183D01*
X-940442Y-1534254D01*
X-940103Y-1534474D01*
X-939877Y-1534810D01*
X-939744Y-1535132D01*
X-935886Y-1538990D01*
X-930844Y-1541078D01*
X-925388Y-1541078D01*
X-920346Y-1538990D01*
X-916488Y-1535132D01*
X-916355Y-1534810D01*
X-916162Y-1534509D01*
X-915835Y-1534273D01*
X-915440Y-1534183D01*
X-915042Y-1534254D01*
X-914703Y-1534474D01*
X-914477Y-1534810D01*
X-914344Y-1535132D01*
X-910486Y-1538990D01*
X-905444Y-1541078D01*
X-899988Y-1541078D01*
X-894946Y-1538990D01*
X-891088Y-1535132D01*
X-890955Y-1534810D01*
X-890762Y-1534509D01*
X-890435Y-1534273D01*
X-890040Y-1534183D01*
X-889642Y-1534254D01*
X-889303Y-1534474D01*
X-889077Y-1534810D01*
X-888944Y-1535132D01*
X-885086Y-1538990D01*
X-880044Y-1541078D01*
X-874588Y-1541078D01*
X-869546Y-1538990D01*
X-865688Y-1535132D01*
X-865555Y-1534810D01*
X-865362Y-1534509D01*
X-865035Y-1534273D01*
X-864640Y-1534183D01*
X-864242Y-1534254D01*
X-863903Y-1534474D01*
X-863677Y-1534810D01*
X-863544Y-1535132D01*
X-859686Y-1538990D01*
X-854644Y-1541078D01*
X-849188Y-1541078D01*
X-844146Y-1538990D01*
X-840288Y-1535132D01*
X-838200Y-1530091D01*
X-838200Y-1524634D01*
X-840288Y-1519593D01*
X-844146Y-1515735D01*
X-849188Y-1513646D01*
X-854644Y-1513646D01*
X-859686Y-1515735D01*
X-863544Y-1519593D01*
X-863677Y-1519915D01*
X-863870Y-1520216D01*
X-864197Y-1520452D01*
X-864592Y-1520542D01*
X-864990Y-1520471D01*
X-865329Y-1520251D01*
X-865555Y-1519915D01*
X-865688Y-1519593D01*
X-869546Y-1515735D01*
X-874588Y-1513646D01*
X-880044Y-1513646D01*
X-885086Y-1515735D01*
X-888944Y-1519593D01*
X-889077Y-1519915D01*
X-889270Y-1520216D01*
X-889597Y-1520452D01*
X-889992Y-1520542D01*
X-890390Y-1520471D01*
X-890729Y-1520251D01*
X-890955Y-1519915D01*
X-891088Y-1519593D01*
X-894946Y-1515735D01*
X-899988Y-1513646D01*
X-905444Y-1513646D01*
X-910486Y-1515735D01*
X-914344Y-1519593D01*
X-914477Y-1519915D01*
X-914670Y-1520216D01*
X-914997Y-1520452D01*
X-915392Y-1520542D01*
X-915790Y-1520471D01*
X-916129Y-1520251D01*
X-916355Y-1519915D01*
X-916488Y-1519593D01*
X-920346Y-1515735D01*
X-925388Y-1513646D01*
X-930844Y-1513646D01*
X-935886Y-1515735D01*
X-939744Y-1519593D01*
X-939877Y-1519915D01*
X-940070Y-1520216D01*
X-940397Y-1520452D01*
X-940792Y-1520542D01*
X-941190Y-1520471D01*
X-941529Y-1520251D01*
X-941755Y-1519915D01*
X-941888Y-1519593D01*
X-945746Y-1515735D01*
X-950788Y-1513646D01*
X-956244Y-1513646D01*
X-961286Y-1515735D01*
X-965144Y-1519593D01*
X-965277Y-1519915D01*
X-965470Y-1520216D01*
X-965797Y-1520452D01*
X-966192Y-1520542D01*
X-966590Y-1520471D01*
X-966929Y-1520251D01*
X-967155Y-1519915D01*
X-967288Y-1519593D01*
X-971146Y-1515735D01*
X-976188Y-1513646D01*
X-981644Y-1513646D01*
X-986686Y-1515735D01*
X-990544Y-1519593D01*
X-990677Y-1519915D01*
X-990870Y-1520216D01*
X-991197Y-1520452D01*
X-991592Y-1520542D01*
X-991990Y-1520471D01*
X-992329Y-1520251D01*
X-992555Y-1519915D01*
X-992688Y-1519593D01*
X-996546Y-1515735D01*
X-1001588Y-1513646D01*
X-1007044Y-1513646D01*
X-1012086Y-1515735D01*
X-1015944Y-1519593D01*
X-1016077Y-1519915D01*
X-1016270Y-1520216D01*
X-1016597Y-1520452D01*
X-1016992Y-1520542D01*
X-1017390Y-1520471D01*
X-1017729Y-1520251D01*
X-1017955Y-1519915D01*
X-1018088Y-1519593D01*
X-1021946Y-1515735D01*
X-1026988Y-1513646D01*
X-1032444Y-1513646D01*
X-1037486Y-1515735D01*
X-1041344Y-1519593D01*
X-1043432Y-1524634D01*
X-1043432Y-1530091D01*
X-1041344Y-1535132D01*
X-1037486Y-1538990D01*
X-1032444Y-1541078D01*
G37*
G36*
X-195062Y-1675638D02*
X-174742Y-1675638D01*
X-174742Y-1674379D01*
X-176289Y-1670645D01*
X-179147Y-1667787D01*
X-182101Y-1666563D01*
X-182401Y-1666371D01*
X-182638Y-1666043D01*
X-182728Y-1665649D01*
X-182657Y-1665251D01*
X-182436Y-1664912D01*
X-182101Y-1664686D01*
X-177132Y-1662628D01*
X-173274Y-1658770D01*
X-171186Y-1653728D01*
X-171186Y-1648272D01*
X-173274Y-1643230D01*
X-177132Y-1639372D01*
X-177455Y-1639239D01*
X-177755Y-1639046D01*
X-177992Y-1638719D01*
X-178082Y-1638324D01*
X-178011Y-1637926D01*
X-177790Y-1637587D01*
X-177455Y-1637361D01*
X-177132Y-1637228D01*
X-173274Y-1633370D01*
X-171186Y-1628328D01*
X-171186Y-1622872D01*
X-173274Y-1617830D01*
X-177132Y-1613972D01*
X-177455Y-1613839D01*
X-177755Y-1613646D01*
X-177992Y-1613319D01*
X-178082Y-1612924D01*
X-178011Y-1612526D01*
X-177790Y-1612187D01*
X-177455Y-1611961D01*
X-177132Y-1611828D01*
X-173274Y-1607970D01*
X-171186Y-1602928D01*
X-171186Y-1597472D01*
X-173274Y-1592430D01*
X-177132Y-1588572D01*
X-177455Y-1588439D01*
X-177755Y-1588246D01*
X-177992Y-1587919D01*
X-178082Y-1587524D01*
X-178011Y-1587126D01*
X-177790Y-1586787D01*
X-177455Y-1586561D01*
X-177132Y-1586428D01*
X-173274Y-1582570D01*
X-171186Y-1577528D01*
X-171186Y-1572072D01*
X-173274Y-1567030D01*
X-177132Y-1563172D01*
X-182174Y-1561084D01*
X-187630Y-1561084D01*
X-192672Y-1563172D01*
X-196530Y-1567030D01*
X-198618Y-1572072D01*
X-198618Y-1577528D01*
X-196530Y-1582570D01*
X-192672Y-1586428D01*
X-192349Y-1586561D01*
X-192049Y-1586754D01*
X-191812Y-1587081D01*
X-191722Y-1587476D01*
X-191793Y-1587874D01*
X-192014Y-1588213D01*
X-192349Y-1588439D01*
X-192672Y-1588572D01*
X-196530Y-1592430D01*
X-198618Y-1597472D01*
X-198618Y-1602928D01*
X-196530Y-1607970D01*
X-192672Y-1611828D01*
X-192349Y-1611961D01*
X-192049Y-1612154D01*
X-191812Y-1612481D01*
X-191722Y-1612876D01*
X-191793Y-1613274D01*
X-192014Y-1613613D01*
X-192349Y-1613839D01*
X-192672Y-1613972D01*
X-196530Y-1617830D01*
X-198618Y-1622872D01*
X-198618Y-1628328D01*
X-196530Y-1633370D01*
X-192672Y-1637228D01*
X-192349Y-1637361D01*
X-192049Y-1637554D01*
X-191812Y-1637881D01*
X-191722Y-1638276D01*
X-191793Y-1638674D01*
X-192014Y-1639013D01*
X-192349Y-1639239D01*
X-192672Y-1639372D01*
X-196530Y-1643230D01*
X-198618Y-1648272D01*
X-198618Y-1653728D01*
X-196530Y-1658770D01*
X-192672Y-1662628D01*
X-187703Y-1664686D01*
X-187403Y-1664878D01*
X-187166Y-1665206D01*
X-187076Y-1665600D01*
X-187147Y-1665998D01*
X-187368Y-1666337D01*
X-187703Y-1666563D01*
X-190657Y-1667787D01*
X-193515Y-1670645D01*
X-195062Y-1674379D01*
X-195062Y-1675638D01*
G37*
G36*
X-1374603Y-1615296D02*
X-1368597Y-1615296D01*
X-1363049Y-1612998D01*
X-1358802Y-1608751D01*
X-1356504Y-1603203D01*
X-1356504Y-1597197D01*
X-1358802Y-1591649D01*
X-1363049Y-1587402D01*
X-1368597Y-1585104D01*
X-1374603Y-1585104D01*
X-1380151Y-1587402D01*
X-1384398Y-1591649D01*
X-1386696Y-1597197D01*
X-1386696Y-1603203D01*
X-1384398Y-1608751D01*
X-1380151Y-1612998D01*
X-1374603Y-1615296D01*
G37*
G36*
X-1229360Y-1735596D02*
X-1209040Y-1735596D01*
X-1209040Y-1734337D01*
X-1210587Y-1730603D01*
X-1213445Y-1727745D01*
X-1216399Y-1726521D01*
X-1216699Y-1726329D01*
X-1216936Y-1726001D01*
X-1217026Y-1725607D01*
X-1216955Y-1725209D01*
X-1216734Y-1724870D01*
X-1216399Y-1724644D01*
X-1211430Y-1722586D01*
X-1207572Y-1718728D01*
X-1205484Y-1713686D01*
X-1205484Y-1708230D01*
X-1207572Y-1703188D01*
X-1211430Y-1699330D01*
X-1211753Y-1699197D01*
X-1212053Y-1699004D01*
X-1212290Y-1698677D01*
X-1212380Y-1698282D01*
X-1212309Y-1697884D01*
X-1212088Y-1697545D01*
X-1211753Y-1697319D01*
X-1211430Y-1697186D01*
X-1207572Y-1693328D01*
X-1205484Y-1688286D01*
X-1205484Y-1682830D01*
X-1207572Y-1677788D01*
X-1211430Y-1673930D01*
X-1211753Y-1673797D01*
X-1212053Y-1673604D01*
X-1212290Y-1673277D01*
X-1212380Y-1672882D01*
X-1212309Y-1672484D01*
X-1212088Y-1672145D01*
X-1211753Y-1671919D01*
X-1211430Y-1671786D01*
X-1207572Y-1667928D01*
X-1205484Y-1662886D01*
X-1205484Y-1657430D01*
X-1207572Y-1652388D01*
X-1211430Y-1648530D01*
X-1211753Y-1648397D01*
X-1212053Y-1648204D01*
X-1212290Y-1647877D01*
X-1212380Y-1647482D01*
X-1212309Y-1647084D01*
X-1212088Y-1646745D01*
X-1211753Y-1646519D01*
X-1211430Y-1646386D01*
X-1207572Y-1642528D01*
X-1205484Y-1637486D01*
X-1205484Y-1632030D01*
X-1207572Y-1626988D01*
X-1211430Y-1623130D01*
X-1216472Y-1621042D01*
X-1221928Y-1621042D01*
X-1226970Y-1623130D01*
X-1230828Y-1626988D01*
X-1232916Y-1632030D01*
X-1232916Y-1637486D01*
X-1230828Y-1642528D01*
X-1226970Y-1646386D01*
X-1226647Y-1646519D01*
X-1226347Y-1646712D01*
X-1226110Y-1647039D01*
X-1226020Y-1647434D01*
X-1226091Y-1647832D01*
X-1226312Y-1648171D01*
X-1226647Y-1648397D01*
X-1226970Y-1648530D01*
X-1230828Y-1652388D01*
X-1232916Y-1657430D01*
X-1232916Y-1662886D01*
X-1230828Y-1667928D01*
X-1226970Y-1671786D01*
X-1226647Y-1671919D01*
X-1226347Y-1672112D01*
X-1226110Y-1672439D01*
X-1226020Y-1672834D01*
X-1226091Y-1673232D01*
X-1226312Y-1673571D01*
X-1226647Y-1673797D01*
X-1226970Y-1673930D01*
X-1230828Y-1677788D01*
X-1232916Y-1682830D01*
X-1232916Y-1688286D01*
X-1230828Y-1693328D01*
X-1226970Y-1697186D01*
X-1226647Y-1697319D01*
X-1226347Y-1697512D01*
X-1226110Y-1697839D01*
X-1226020Y-1698234D01*
X-1226091Y-1698632D01*
X-1226312Y-1698971D01*
X-1226647Y-1699197D01*
X-1226970Y-1699330D01*
X-1230828Y-1703188D01*
X-1232916Y-1708230D01*
X-1232916Y-1713686D01*
X-1230828Y-1718728D01*
X-1226970Y-1722586D01*
X-1222001Y-1724644D01*
X-1221701Y-1724836D01*
X-1221464Y-1725164D01*
X-1221374Y-1725558D01*
X-1221445Y-1725956D01*
X-1221666Y-1726295D01*
X-1222001Y-1726521D01*
X-1224955Y-1727745D01*
X-1227813Y-1730603D01*
X-1229360Y-1734337D01*
X-1229360Y-1735596D01*
G37*
G36*
X-997702Y-1739138D02*
X-977382Y-1739138D01*
X-977382Y-1737879D01*
X-978929Y-1734145D01*
X-981787Y-1731287D01*
X-984741Y-1730063D01*
X-985041Y-1729871D01*
X-985278Y-1729543D01*
X-985368Y-1729149D01*
X-985297Y-1728751D01*
X-985076Y-1728412D01*
X-984741Y-1728186D01*
X-979772Y-1726128D01*
X-975914Y-1722270D01*
X-973826Y-1717228D01*
X-973826Y-1711772D01*
X-975914Y-1706730D01*
X-979772Y-1702872D01*
X-980095Y-1702739D01*
X-980395Y-1702546D01*
X-980632Y-1702219D01*
X-980722Y-1701824D01*
X-980651Y-1701426D01*
X-980430Y-1701087D01*
X-980095Y-1700861D01*
X-979772Y-1700728D01*
X-975914Y-1696870D01*
X-973826Y-1691828D01*
X-973826Y-1686372D01*
X-975914Y-1681330D01*
X-979772Y-1677472D01*
X-980095Y-1677339D01*
X-980395Y-1677146D01*
X-980632Y-1676819D01*
X-980722Y-1676424D01*
X-980651Y-1676026D01*
X-980430Y-1675687D01*
X-980095Y-1675461D01*
X-979772Y-1675328D01*
X-975914Y-1671470D01*
X-973826Y-1666428D01*
X-973826Y-1660972D01*
X-975914Y-1655930D01*
X-979772Y-1652072D01*
X-980095Y-1651939D01*
X-980395Y-1651746D01*
X-980632Y-1651419D01*
X-980722Y-1651024D01*
X-980651Y-1650626D01*
X-980430Y-1650287D01*
X-980095Y-1650061D01*
X-979772Y-1649928D01*
X-975914Y-1646070D01*
X-973826Y-1641028D01*
X-973826Y-1635572D01*
X-975914Y-1630530D01*
X-979772Y-1626672D01*
X-984814Y-1624584D01*
X-990270Y-1624584D01*
X-995312Y-1626672D01*
X-999170Y-1630530D01*
X-1001258Y-1635572D01*
X-1001258Y-1641028D01*
X-999170Y-1646070D01*
X-995312Y-1649928D01*
X-994989Y-1650061D01*
X-994689Y-1650254D01*
X-994452Y-1650581D01*
X-994362Y-1650976D01*
X-994433Y-1651374D01*
X-994654Y-1651713D01*
X-994989Y-1651939D01*
X-995312Y-1652072D01*
X-999170Y-1655930D01*
X-1001258Y-1660972D01*
X-1001258Y-1666428D01*
X-999170Y-1671470D01*
X-995312Y-1675328D01*
X-994989Y-1675461D01*
X-994689Y-1675654D01*
X-994452Y-1675981D01*
X-994362Y-1676376D01*
X-994433Y-1676774D01*
X-994654Y-1677113D01*
X-994989Y-1677339D01*
X-995312Y-1677472D01*
X-999170Y-1681330D01*
X-1001258Y-1686372D01*
X-1001258Y-1691828D01*
X-999170Y-1696870D01*
X-995312Y-1700728D01*
X-994989Y-1700861D01*
X-994689Y-1701054D01*
X-994452Y-1701381D01*
X-994362Y-1701776D01*
X-994433Y-1702174D01*
X-994654Y-1702513D01*
X-994989Y-1702739D01*
X-995312Y-1702872D01*
X-999170Y-1706730D01*
X-1001258Y-1711772D01*
X-1001258Y-1717228D01*
X-999170Y-1722270D01*
X-995312Y-1726128D01*
X-990343Y-1728186D01*
X-990043Y-1728378D01*
X-989806Y-1728706D01*
X-989716Y-1729100D01*
X-989787Y-1729498D01*
X-990008Y-1729837D01*
X-990343Y-1730063D01*
X-993297Y-1731287D01*
X-996155Y-1734145D01*
X-997702Y-1737879D01*
X-997702Y-1739138D01*
G37*
G36*
X-535422Y-1739138D02*
X-515102Y-1739138D01*
X-515102Y-1737879D01*
X-516649Y-1734145D01*
X-519507Y-1731287D01*
X-522461Y-1730063D01*
X-522761Y-1729871D01*
X-522998Y-1729543D01*
X-523088Y-1729149D01*
X-523017Y-1728751D01*
X-522796Y-1728412D01*
X-522461Y-1728186D01*
X-517492Y-1726128D01*
X-513634Y-1722270D01*
X-511546Y-1717228D01*
X-511546Y-1711772D01*
X-513634Y-1706730D01*
X-517492Y-1702872D01*
X-517815Y-1702739D01*
X-518115Y-1702546D01*
X-518352Y-1702219D01*
X-518442Y-1701824D01*
X-518371Y-1701426D01*
X-518150Y-1701087D01*
X-517815Y-1700861D01*
X-517492Y-1700728D01*
X-513634Y-1696870D01*
X-511546Y-1691828D01*
X-511546Y-1686372D01*
X-513634Y-1681330D01*
X-517492Y-1677472D01*
X-517815Y-1677339D01*
X-518115Y-1677146D01*
X-518352Y-1676819D01*
X-518442Y-1676424D01*
X-518371Y-1676026D01*
X-518150Y-1675687D01*
X-517815Y-1675461D01*
X-517492Y-1675328D01*
X-513634Y-1671470D01*
X-511546Y-1666428D01*
X-511546Y-1660972D01*
X-513634Y-1655930D01*
X-517492Y-1652072D01*
X-517815Y-1651939D01*
X-518115Y-1651746D01*
X-518352Y-1651419D01*
X-518442Y-1651024D01*
X-518371Y-1650626D01*
X-518150Y-1650287D01*
X-517815Y-1650061D01*
X-517492Y-1649928D01*
X-513634Y-1646070D01*
X-511546Y-1641028D01*
X-511546Y-1635572D01*
X-513634Y-1630530D01*
X-517492Y-1626672D01*
X-522534Y-1624584D01*
X-527990Y-1624584D01*
X-533032Y-1626672D01*
X-536890Y-1630530D01*
X-538978Y-1635572D01*
X-538978Y-1641028D01*
X-536890Y-1646070D01*
X-533032Y-1649928D01*
X-532709Y-1650061D01*
X-532409Y-1650254D01*
X-532172Y-1650581D01*
X-532082Y-1650976D01*
X-532153Y-1651374D01*
X-532374Y-1651713D01*
X-532709Y-1651939D01*
X-533032Y-1652072D01*
X-536890Y-1655930D01*
X-538978Y-1660972D01*
X-538978Y-1666428D01*
X-536890Y-1671470D01*
X-533032Y-1675328D01*
X-532709Y-1675461D01*
X-532409Y-1675654D01*
X-532172Y-1675981D01*
X-532082Y-1676376D01*
X-532153Y-1676774D01*
X-532374Y-1677113D01*
X-532709Y-1677339D01*
X-533032Y-1677472D01*
X-536890Y-1681330D01*
X-538978Y-1686372D01*
X-538978Y-1691828D01*
X-536890Y-1696870D01*
X-533032Y-1700728D01*
X-532709Y-1700861D01*
X-532409Y-1701054D01*
X-532172Y-1701381D01*
X-532082Y-1701776D01*
X-532153Y-1702174D01*
X-532374Y-1702513D01*
X-532709Y-1702739D01*
X-533032Y-1702872D01*
X-536890Y-1706730D01*
X-538978Y-1711772D01*
X-538978Y-1717228D01*
X-536890Y-1722270D01*
X-533032Y-1726128D01*
X-528063Y-1728186D01*
X-527763Y-1728378D01*
X-527526Y-1728706D01*
X-527436Y-1729100D01*
X-527507Y-1729498D01*
X-527728Y-1729837D01*
X-528063Y-1730063D01*
X-531017Y-1731287D01*
X-533875Y-1734145D01*
X-535422Y-1737879D01*
X-535422Y-1739138D01*
G37*
G36*
X-334762Y-1740034D02*
X-314442Y-1740034D01*
X-314442Y-1738775D01*
X-315989Y-1735041D01*
X-318847Y-1732183D01*
X-321801Y-1730959D01*
X-322101Y-1730767D01*
X-322338Y-1730439D01*
X-322428Y-1730045D01*
X-322357Y-1729647D01*
X-322136Y-1729308D01*
X-321801Y-1729082D01*
X-316832Y-1727024D01*
X-312974Y-1723166D01*
X-310886Y-1718124D01*
X-310886Y-1712668D01*
X-312974Y-1707627D01*
X-316832Y-1703768D01*
X-317155Y-1703635D01*
X-317455Y-1703443D01*
X-317692Y-1703115D01*
X-317782Y-1702720D01*
X-317711Y-1702322D01*
X-317490Y-1701983D01*
X-317155Y-1701757D01*
X-316832Y-1701624D01*
X-312974Y-1697766D01*
X-310886Y-1692724D01*
X-310886Y-1687268D01*
X-312974Y-1682227D01*
X-316832Y-1678368D01*
X-317155Y-1678235D01*
X-317455Y-1678043D01*
X-317692Y-1677715D01*
X-317782Y-1677320D01*
X-317711Y-1676922D01*
X-317490Y-1676583D01*
X-317155Y-1676357D01*
X-316832Y-1676224D01*
X-312974Y-1672366D01*
X-310886Y-1667324D01*
X-310886Y-1661868D01*
X-312974Y-1656827D01*
X-316832Y-1652968D01*
X-317155Y-1652835D01*
X-317455Y-1652643D01*
X-317692Y-1652315D01*
X-317782Y-1651920D01*
X-317711Y-1651522D01*
X-317490Y-1651183D01*
X-317155Y-1650957D01*
X-316832Y-1650824D01*
X-312974Y-1646966D01*
X-310886Y-1641924D01*
X-310886Y-1636468D01*
X-312974Y-1631427D01*
X-316832Y-1627568D01*
X-321874Y-1625480D01*
X-327330Y-1625480D01*
X-332372Y-1627568D01*
X-336230Y-1631427D01*
X-338318Y-1636468D01*
X-338318Y-1641924D01*
X-336230Y-1646966D01*
X-332372Y-1650824D01*
X-332049Y-1650957D01*
X-331749Y-1651150D01*
X-331512Y-1651478D01*
X-331422Y-1651872D01*
X-331493Y-1652270D01*
X-331714Y-1652609D01*
X-332049Y-1652835D01*
X-332372Y-1652968D01*
X-336230Y-1656827D01*
X-338318Y-1661868D01*
X-338318Y-1667324D01*
X-336230Y-1672366D01*
X-332372Y-1676224D01*
X-332049Y-1676357D01*
X-331749Y-1676550D01*
X-331512Y-1676878D01*
X-331422Y-1677272D01*
X-331493Y-1677670D01*
X-331714Y-1678009D01*
X-332049Y-1678235D01*
X-332372Y-1678368D01*
X-336230Y-1682227D01*
X-338318Y-1687268D01*
X-338318Y-1692724D01*
X-336230Y-1697766D01*
X-332372Y-1701624D01*
X-332049Y-1701757D01*
X-331749Y-1701950D01*
X-331512Y-1702278D01*
X-331422Y-1702672D01*
X-331493Y-1703070D01*
X-331714Y-1703409D01*
X-332049Y-1703635D01*
X-332372Y-1703768D01*
X-336230Y-1707627D01*
X-338318Y-1712668D01*
X-338318Y-1718124D01*
X-336230Y-1723166D01*
X-332372Y-1727024D01*
X-327403Y-1729082D01*
X-327103Y-1729274D01*
X-326866Y-1729602D01*
X-326776Y-1729996D01*
X-326847Y-1730394D01*
X-327068Y-1730733D01*
X-327403Y-1730959D01*
X-330357Y-1732183D01*
X-333215Y-1735041D01*
X-334762Y-1738775D01*
X-334762Y-1740034D01*
G37*
G36*
X-764022Y-1740676D02*
X-743702Y-1740676D01*
X-743702Y-1739417D01*
X-745249Y-1735683D01*
X-748107Y-1732825D01*
X-751061Y-1731601D01*
X-751361Y-1731409D01*
X-751598Y-1731081D01*
X-751688Y-1730687D01*
X-751617Y-1730289D01*
X-751396Y-1729950D01*
X-751061Y-1729724D01*
X-746092Y-1727666D01*
X-742234Y-1723808D01*
X-740146Y-1718766D01*
X-740146Y-1713310D01*
X-742234Y-1708268D01*
X-746092Y-1704410D01*
X-746415Y-1704277D01*
X-746715Y-1704084D01*
X-746952Y-1703757D01*
X-747042Y-1703362D01*
X-746971Y-1702964D01*
X-746750Y-1702625D01*
X-746415Y-1702399D01*
X-746092Y-1702266D01*
X-742234Y-1698408D01*
X-740146Y-1693366D01*
X-740146Y-1687910D01*
X-742234Y-1682868D01*
X-746092Y-1679010D01*
X-746415Y-1678877D01*
X-746715Y-1678684D01*
X-746952Y-1678357D01*
X-747042Y-1677962D01*
X-746971Y-1677564D01*
X-746750Y-1677225D01*
X-746415Y-1676999D01*
X-746092Y-1676866D01*
X-742234Y-1673008D01*
X-740146Y-1667966D01*
X-740146Y-1662510D01*
X-742234Y-1657468D01*
X-746092Y-1653610D01*
X-746415Y-1653477D01*
X-746715Y-1653284D01*
X-746952Y-1652957D01*
X-747042Y-1652562D01*
X-746971Y-1652164D01*
X-746750Y-1651825D01*
X-746415Y-1651599D01*
X-746092Y-1651466D01*
X-742234Y-1647608D01*
X-740146Y-1642566D01*
X-740146Y-1637110D01*
X-742234Y-1632068D01*
X-746092Y-1628210D01*
X-751134Y-1626122D01*
X-756590Y-1626122D01*
X-761632Y-1628210D01*
X-765490Y-1632068D01*
X-767578Y-1637110D01*
X-767578Y-1642566D01*
X-765490Y-1647608D01*
X-761632Y-1651466D01*
X-761309Y-1651599D01*
X-761009Y-1651792D01*
X-760772Y-1652119D01*
X-760682Y-1652514D01*
X-760753Y-1652912D01*
X-760974Y-1653251D01*
X-761309Y-1653477D01*
X-761632Y-1653610D01*
X-765490Y-1657468D01*
X-767578Y-1662510D01*
X-767578Y-1667966D01*
X-765490Y-1673008D01*
X-761632Y-1676866D01*
X-761309Y-1676999D01*
X-761009Y-1677192D01*
X-760772Y-1677519D01*
X-760682Y-1677914D01*
X-760753Y-1678312D01*
X-760974Y-1678651D01*
X-761309Y-1678877D01*
X-761632Y-1679010D01*
X-765490Y-1682868D01*
X-767578Y-1687910D01*
X-767578Y-1693366D01*
X-765490Y-1698408D01*
X-761632Y-1702266D01*
X-761309Y-1702399D01*
X-761009Y-1702592D01*
X-760772Y-1702919D01*
X-760682Y-1703314D01*
X-760753Y-1703712D01*
X-760974Y-1704051D01*
X-761309Y-1704277D01*
X-761632Y-1704410D01*
X-765490Y-1708268D01*
X-767578Y-1713310D01*
X-767578Y-1718766D01*
X-765490Y-1723808D01*
X-761632Y-1727666D01*
X-756663Y-1729724D01*
X-756363Y-1729916D01*
X-756126Y-1730244D01*
X-756036Y-1730638D01*
X-756107Y-1731036D01*
X-756328Y-1731375D01*
X-756663Y-1731601D01*
X-759617Y-1732825D01*
X-762475Y-1735683D01*
X-764022Y-1739417D01*
X-764022Y-1740676D01*
G37*
G36*
X-1374603Y-1666096D02*
X-1368597Y-1666096D01*
X-1363049Y-1663798D01*
X-1358802Y-1659551D01*
X-1356504Y-1654003D01*
X-1356504Y-1647997D01*
X-1358802Y-1642449D01*
X-1363049Y-1638202D01*
X-1368597Y-1635904D01*
X-1374603Y-1635904D01*
X-1380151Y-1638202D01*
X-1384398Y-1642449D01*
X-1386696Y-1647997D01*
X-1386696Y-1654003D01*
X-1384398Y-1659551D01*
X-1380151Y-1663798D01*
X-1374603Y-1666096D01*
G37*
G36*
X-195062Y-1726438D02*
X-174742Y-1726438D01*
X-174742Y-1725179D01*
X-176289Y-1721445D01*
X-179147Y-1718587D01*
X-182101Y-1717363D01*
X-182401Y-1717171D01*
X-182638Y-1716843D01*
X-182728Y-1716449D01*
X-182657Y-1716051D01*
X-182436Y-1715712D01*
X-182101Y-1715486D01*
X-177132Y-1713428D01*
X-173274Y-1709570D01*
X-171186Y-1704528D01*
X-171186Y-1699072D01*
X-173274Y-1694030D01*
X-177132Y-1690172D01*
X-182101Y-1688114D01*
X-182401Y-1687922D01*
X-182638Y-1687594D01*
X-182728Y-1687200D01*
X-182657Y-1686802D01*
X-182436Y-1686463D01*
X-182101Y-1686237D01*
X-179147Y-1685013D01*
X-176289Y-1682155D01*
X-174742Y-1678421D01*
X-174742Y-1677162D01*
X-195062Y-1677162D01*
X-195062Y-1678421D01*
X-193515Y-1682155D01*
X-190657Y-1685013D01*
X-187703Y-1686237D01*
X-187403Y-1686429D01*
X-187166Y-1686757D01*
X-187076Y-1687151D01*
X-187147Y-1687549D01*
X-187368Y-1687888D01*
X-187703Y-1688114D01*
X-192672Y-1690172D01*
X-196530Y-1694030D01*
X-198618Y-1699072D01*
X-198618Y-1704528D01*
X-196530Y-1709570D01*
X-192672Y-1713428D01*
X-187703Y-1715486D01*
X-187403Y-1715678D01*
X-187166Y-1716006D01*
X-187076Y-1716400D01*
X-187147Y-1716798D01*
X-187368Y-1717137D01*
X-187703Y-1717363D01*
X-190657Y-1718587D01*
X-193515Y-1721445D01*
X-195062Y-1725179D01*
X-195062Y-1726438D01*
G37*
G36*
X-1374603Y-1729596D02*
X-1368597Y-1729596D01*
X-1363049Y-1727298D01*
X-1358802Y-1723051D01*
X-1356504Y-1717503D01*
X-1356504Y-1711497D01*
X-1358802Y-1705949D01*
X-1363049Y-1701702D01*
X-1368597Y-1699404D01*
X-1374603Y-1699404D01*
X-1380151Y-1701702D01*
X-1384398Y-1705949D01*
X-1386696Y-1711497D01*
X-1386696Y-1717503D01*
X-1384398Y-1723051D01*
X-1380151Y-1727298D01*
X-1374603Y-1729596D01*
G37*
G36*
X-1229360Y-1786396D02*
X-1209040Y-1786396D01*
X-1209040Y-1785137D01*
X-1210587Y-1781403D01*
X-1213445Y-1778545D01*
X-1216399Y-1777321D01*
X-1216699Y-1777129D01*
X-1216936Y-1776801D01*
X-1217026Y-1776407D01*
X-1216955Y-1776009D01*
X-1216734Y-1775670D01*
X-1216399Y-1775444D01*
X-1211430Y-1773386D01*
X-1207572Y-1769528D01*
X-1205484Y-1764486D01*
X-1205484Y-1759030D01*
X-1207572Y-1753988D01*
X-1211430Y-1750130D01*
X-1216399Y-1748072D01*
X-1216699Y-1747880D01*
X-1216936Y-1747552D01*
X-1217026Y-1747158D01*
X-1216955Y-1746760D01*
X-1216734Y-1746421D01*
X-1216399Y-1746195D01*
X-1213445Y-1744971D01*
X-1210587Y-1742113D01*
X-1209040Y-1738379D01*
X-1209040Y-1737120D01*
X-1229360Y-1737120D01*
X-1229360Y-1738379D01*
X-1227813Y-1742113D01*
X-1224955Y-1744971D01*
X-1222001Y-1746195D01*
X-1221701Y-1746387D01*
X-1221464Y-1746715D01*
X-1221374Y-1747109D01*
X-1221445Y-1747507D01*
X-1221666Y-1747846D01*
X-1222001Y-1748072D01*
X-1226970Y-1750130D01*
X-1230828Y-1753988D01*
X-1232916Y-1759030D01*
X-1232916Y-1764486D01*
X-1230828Y-1769528D01*
X-1226970Y-1773386D01*
X-1222001Y-1775444D01*
X-1221701Y-1775636D01*
X-1221464Y-1775964D01*
X-1221374Y-1776358D01*
X-1221445Y-1776756D01*
X-1221666Y-1777095D01*
X-1222001Y-1777321D01*
X-1224955Y-1778545D01*
X-1227813Y-1781403D01*
X-1229360Y-1785137D01*
X-1229360Y-1786396D01*
G37*
G36*
X-997702Y-1789938D02*
X-977382Y-1789938D01*
X-977382Y-1788679D01*
X-978929Y-1784945D01*
X-981787Y-1782087D01*
X-984741Y-1780863D01*
X-985041Y-1780671D01*
X-985278Y-1780343D01*
X-985368Y-1779949D01*
X-985297Y-1779551D01*
X-985076Y-1779212D01*
X-984741Y-1778986D01*
X-979772Y-1776928D01*
X-975914Y-1773070D01*
X-973826Y-1768028D01*
X-973826Y-1762572D01*
X-975914Y-1757530D01*
X-979772Y-1753672D01*
X-984741Y-1751614D01*
X-985041Y-1751422D01*
X-985278Y-1751094D01*
X-985368Y-1750700D01*
X-985297Y-1750302D01*
X-985076Y-1749963D01*
X-984741Y-1749737D01*
X-981787Y-1748513D01*
X-978929Y-1745655D01*
X-977382Y-1741921D01*
X-977382Y-1740662D01*
X-997702Y-1740662D01*
X-997702Y-1741921D01*
X-996155Y-1745655D01*
X-993297Y-1748513D01*
X-990343Y-1749737D01*
X-990043Y-1749929D01*
X-989806Y-1750257D01*
X-989716Y-1750651D01*
X-989787Y-1751049D01*
X-990008Y-1751388D01*
X-990343Y-1751614D01*
X-995312Y-1753672D01*
X-999170Y-1757530D01*
X-1001258Y-1762572D01*
X-1001258Y-1768028D01*
X-999170Y-1773070D01*
X-995312Y-1776928D01*
X-990343Y-1778986D01*
X-990043Y-1779178D01*
X-989806Y-1779506D01*
X-989716Y-1779900D01*
X-989787Y-1780298D01*
X-990008Y-1780637D01*
X-990343Y-1780863D01*
X-993297Y-1782087D01*
X-996155Y-1784945D01*
X-997702Y-1788679D01*
X-997702Y-1789938D01*
G37*
G36*
X-535422Y-1789938D02*
X-515102Y-1789938D01*
X-515102Y-1788679D01*
X-516649Y-1784945D01*
X-519507Y-1782087D01*
X-522461Y-1780863D01*
X-522761Y-1780671D01*
X-522998Y-1780343D01*
X-523088Y-1779949D01*
X-523017Y-1779551D01*
X-522796Y-1779212D01*
X-522461Y-1778986D01*
X-517492Y-1776928D01*
X-513634Y-1773070D01*
X-511546Y-1768028D01*
X-511546Y-1762572D01*
X-513634Y-1757530D01*
X-517492Y-1753672D01*
X-522461Y-1751614D01*
X-522761Y-1751422D01*
X-522998Y-1751094D01*
X-523088Y-1750700D01*
X-523017Y-1750302D01*
X-522796Y-1749963D01*
X-522461Y-1749737D01*
X-519507Y-1748513D01*
X-516649Y-1745655D01*
X-515102Y-1741921D01*
X-515102Y-1740662D01*
X-535422Y-1740662D01*
X-535422Y-1741921D01*
X-533875Y-1745655D01*
X-531017Y-1748513D01*
X-528063Y-1749737D01*
X-527763Y-1749929D01*
X-527526Y-1750257D01*
X-527436Y-1750651D01*
X-527507Y-1751049D01*
X-527728Y-1751388D01*
X-528063Y-1751614D01*
X-533032Y-1753672D01*
X-536890Y-1757530D01*
X-538978Y-1762572D01*
X-538978Y-1768028D01*
X-536890Y-1773070D01*
X-533032Y-1776928D01*
X-528063Y-1778986D01*
X-527763Y-1779178D01*
X-527526Y-1779506D01*
X-527436Y-1779900D01*
X-527507Y-1780298D01*
X-527728Y-1780637D01*
X-528063Y-1780863D01*
X-531017Y-1782087D01*
X-533875Y-1784945D01*
X-535422Y-1788679D01*
X-535422Y-1789938D01*
G37*
G36*
X-334762Y-1790834D02*
X-314442Y-1790834D01*
X-314442Y-1789575D01*
X-315989Y-1785841D01*
X-318847Y-1782983D01*
X-321801Y-1781759D01*
X-322101Y-1781567D01*
X-322338Y-1781239D01*
X-322428Y-1780845D01*
X-322357Y-1780447D01*
X-322136Y-1780108D01*
X-321801Y-1779882D01*
X-316832Y-1777824D01*
X-312974Y-1773966D01*
X-310886Y-1768924D01*
X-310886Y-1763468D01*
X-312974Y-1758427D01*
X-316832Y-1754568D01*
X-321801Y-1752510D01*
X-322101Y-1752318D01*
X-322338Y-1751990D01*
X-322428Y-1751596D01*
X-322357Y-1751198D01*
X-322136Y-1750859D01*
X-321801Y-1750633D01*
X-318847Y-1749409D01*
X-315989Y-1746551D01*
X-314442Y-1742817D01*
X-314442Y-1741558D01*
X-334762Y-1741558D01*
X-334762Y-1742817D01*
X-333215Y-1746551D01*
X-330357Y-1749409D01*
X-327403Y-1750633D01*
X-327103Y-1750825D01*
X-326866Y-1751153D01*
X-326776Y-1751547D01*
X-326847Y-1751945D01*
X-327068Y-1752284D01*
X-327403Y-1752510D01*
X-332372Y-1754568D01*
X-336230Y-1758427D01*
X-338318Y-1763468D01*
X-338318Y-1768924D01*
X-336230Y-1773966D01*
X-332372Y-1777824D01*
X-327403Y-1779882D01*
X-327103Y-1780074D01*
X-326866Y-1780402D01*
X-326776Y-1780796D01*
X-326847Y-1781194D01*
X-327068Y-1781533D01*
X-327403Y-1781759D01*
X-330357Y-1782983D01*
X-333215Y-1785841D01*
X-334762Y-1789575D01*
X-334762Y-1790834D01*
G37*
G36*
X-764022Y-1791476D02*
X-743702Y-1791476D01*
X-743702Y-1790217D01*
X-745249Y-1786483D01*
X-748107Y-1783625D01*
X-751061Y-1782401D01*
X-751361Y-1782209D01*
X-751598Y-1781881D01*
X-751688Y-1781487D01*
X-751617Y-1781089D01*
X-751396Y-1780750D01*
X-751061Y-1780524D01*
X-746092Y-1778466D01*
X-742234Y-1774608D01*
X-740146Y-1769566D01*
X-740146Y-1764110D01*
X-742234Y-1759068D01*
X-746092Y-1755210D01*
X-751061Y-1753152D01*
X-751361Y-1752960D01*
X-751598Y-1752632D01*
X-751688Y-1752238D01*
X-751617Y-1751840D01*
X-751396Y-1751501D01*
X-751061Y-1751275D01*
X-748107Y-1750051D01*
X-745249Y-1747193D01*
X-743702Y-1743459D01*
X-743702Y-1742200D01*
X-764022Y-1742200D01*
X-764022Y-1743459D01*
X-762475Y-1747193D01*
X-759617Y-1750051D01*
X-756663Y-1751275D01*
X-756363Y-1751467D01*
X-756126Y-1751795D01*
X-756036Y-1752189D01*
X-756107Y-1752587D01*
X-756328Y-1752926D01*
X-756663Y-1753152D01*
X-761632Y-1755210D01*
X-765490Y-1759068D01*
X-767578Y-1764110D01*
X-767578Y-1769566D01*
X-765490Y-1774608D01*
X-761632Y-1778466D01*
X-756663Y-1780524D01*
X-756363Y-1780716D01*
X-756126Y-1781044D01*
X-756036Y-1781438D01*
X-756107Y-1781836D01*
X-756328Y-1782175D01*
X-756663Y-1782401D01*
X-759617Y-1783625D01*
X-762475Y-1786483D01*
X-764022Y-1790217D01*
X-764022Y-1791476D01*
G37*
G36*
X-1374603Y-1780396D02*
X-1368597Y-1780396D01*
X-1363049Y-1778098D01*
X-1358802Y-1773851D01*
X-1356504Y-1768303D01*
X-1356504Y-1762297D01*
X-1358802Y-1756749D01*
X-1363049Y-1752502D01*
X-1368597Y-1750204D01*
X-1374603Y-1750204D01*
X-1380151Y-1752502D01*
X-1384398Y-1756749D01*
X-1386696Y-1762297D01*
X-1386696Y-1768303D01*
X-1384398Y-1773851D01*
X-1380151Y-1778098D01*
X-1374603Y-1780396D01*
G37*
G36*
X-1304898Y-1830922D02*
X-1295102Y-1830922D01*
X-1285787Y-1827895D01*
X-1277862Y-1822138D01*
X-1272105Y-1814213D01*
X-1269078Y-1804898D01*
X-1269078Y-1795102D01*
X-1272105Y-1785787D01*
X-1277862Y-1777862D01*
X-1285787Y-1772105D01*
X-1295102Y-1769078D01*
X-1304898Y-1769078D01*
X-1314213Y-1772105D01*
X-1322138Y-1777862D01*
X-1327895Y-1785787D01*
X-1330922Y-1795102D01*
X-1330922Y-1804898D01*
X-1327895Y-1814213D01*
X-1322138Y-1822138D01*
X-1314213Y-1827895D01*
X-1304898Y-1830922D01*
G37*
%LPD*%
D10*
X-777240Y-942340D03*
X-751840Y-942340D03*
X-726440Y-942340D03*
X-701040Y-942340D03*
X-675640Y-942340D03*
X-650240Y-942340D03*
X-624840Y-942340D03*
X-802640Y-942340D03*
X-828040Y-459740D03*
X-802640Y-459740D03*
X-777240Y-459740D03*
X-751840Y-459740D03*
X-726440Y-459740D03*
X-701040Y-459740D03*
X-675640Y-459740D03*
X-853440Y-459740D03*
X-1005840Y-942340D03*
X-980440Y-942340D03*
X-955040Y-942340D03*
X-929640Y-942340D03*
X-904240Y-942340D03*
X-878840Y-942340D03*
X-853440Y-942340D03*
X-1031240Y-942340D03*
X-1056640Y-459740D03*
X-1031240Y-459740D03*
X-1005840Y-459740D03*
X-980440Y-459740D03*
X-955040Y-459740D03*
X-929640Y-459740D03*
X-904240Y-459740D03*
X-1082040Y-459740D03*
X-1272540Y-459740D03*
X-1247140Y-459740D03*
X-1221740Y-459740D03*
X-1196340Y-459740D03*
X-1170940Y-459740D03*
X-1145540Y-459740D03*
X-1120140Y-459740D03*
X-1297940Y-459740D03*
X-574040Y-662940D03*
X-599440Y-662940D03*
X-574040Y-637540D03*
X-599440Y-637540D03*
X-574040Y-612140D03*
X-599440Y-612140D03*
X-574040Y-586740D03*
X-599440Y-586740D03*
X-574040Y-561340D03*
X-599440Y-561340D03*
X-574040Y-535940D03*
X-599440Y-535940D03*
X-574040Y-510540D03*
X-599440Y-510540D03*
X-574040Y-485140D03*
X-599440Y-485140D03*
X-574040Y-866140D03*
X-599440Y-866140D03*
X-574040Y-840740D03*
X-599440Y-840740D03*
X-574040Y-815340D03*
X-599440Y-815340D03*
X-574040Y-789940D03*
X-599440Y-789940D03*
X-574040Y-764540D03*
X-599440Y-764540D03*
X-574040Y-739140D03*
X-599440Y-739140D03*
X-574040Y-713740D03*
X-599440Y-713740D03*
X-574040Y-688340D03*
X-599440Y-688340D03*
X-599440Y-891540D03*
X-574040Y-891540D03*
X-599440Y-459740D03*
X-574040Y-459740D03*
X-1209040Y-942340D03*
X-1183640Y-942340D03*
X-1158240Y-942340D03*
X-1132840Y-942340D03*
X-1107440Y-942340D03*
X-1082040Y-942340D03*
X-1323340Y-459740D03*
X-1348740Y-459740D03*
X-1234440Y-942340D03*
X-1259840Y-942340D03*
X-1236980Y-169662D03*
X-1236980Y-195062D03*
X-1236980Y-220462D03*
X-1236980Y-245862D03*
X-1236980Y-271262D03*
X-1236980Y-296662D03*
X-1236980Y-322062D03*
X-1236980Y-347462D03*
X-985520Y-169662D03*
X-985520Y-195062D03*
X-985520Y-220462D03*
X-985520Y-245862D03*
X-985520Y-271262D03*
X-985520Y-296662D03*
X-985520Y-322062D03*
X-985520Y-347462D03*
X-774700Y-169662D03*
X-774700Y-195062D03*
X-774700Y-220462D03*
X-774700Y-245862D03*
X-774700Y-271262D03*
X-774700Y-296662D03*
X-774700Y-322062D03*
X-774700Y-347462D03*
X-562356Y-167640D03*
X-562356Y-193040D03*
X-562356Y-218440D03*
X-562356Y-243840D03*
X-562356Y-269240D03*
X-562356Y-294640D03*
X-562356Y-320040D03*
X-562356Y-345440D03*
X-342900Y-167640D03*
X-342900Y-193040D03*
X-342900Y-218440D03*
X-342900Y-243840D03*
X-342900Y-269240D03*
X-342900Y-294640D03*
X-342900Y-320040D03*
X-342900Y-345440D03*
X-187442Y-254000D03*
X-187442Y-279400D03*
X-187442Y-304800D03*
X-187442Y-330200D03*
X-187442Y-355600D03*
X-187442Y-381000D03*
X-187442Y-406400D03*
X-187442Y-431800D03*
X-187442Y-469900D03*
X-187442Y-495300D03*
X-187442Y-520700D03*
X-187442Y-546100D03*
X-187442Y-571500D03*
X-187442Y-596900D03*
X-187442Y-622300D03*
X-187442Y-647700D03*
X-187442Y-685800D03*
X-187442Y-711200D03*
X-187442Y-736600D03*
X-187442Y-762000D03*
X-187442Y-787400D03*
X-187442Y-812800D03*
X-187442Y-838200D03*
X-187442Y-863600D03*
X-775716Y-1527362D03*
X-750316Y-1527362D03*
X-724916Y-1527362D03*
X-699516Y-1527362D03*
X-674116Y-1527362D03*
X-648716Y-1527362D03*
X-623316Y-1527362D03*
X-801116Y-1527362D03*
X-826516Y-1044762D03*
X-801116Y-1044762D03*
X-775716Y-1044762D03*
X-750316Y-1044762D03*
X-724916Y-1044762D03*
X-699516Y-1044762D03*
X-674116Y-1044762D03*
X-851916Y-1044762D03*
X-1004316Y-1527362D03*
X-978916Y-1527362D03*
X-953516Y-1527362D03*
X-928116Y-1527362D03*
X-902716Y-1527362D03*
X-877316Y-1527362D03*
X-851916Y-1527362D03*
X-1029716Y-1527362D03*
X-1055116Y-1044762D03*
X-1029716Y-1044762D03*
X-1004316Y-1044762D03*
X-978916Y-1044762D03*
X-953516Y-1044762D03*
X-928116Y-1044762D03*
X-902716Y-1044762D03*
X-1080516Y-1044762D03*
X-1271016Y-1044762D03*
X-1245616Y-1044762D03*
X-1220216Y-1044762D03*
X-1194816Y-1044762D03*
X-1169416Y-1044762D03*
X-1144016Y-1044762D03*
X-1118616Y-1044762D03*
X-1296416Y-1044762D03*
X-572516Y-1247962D03*
X-597916Y-1247962D03*
X-572516Y-1222562D03*
X-597916Y-1222562D03*
X-572516Y-1197162D03*
X-597916Y-1197162D03*
X-572516Y-1171762D03*
X-597916Y-1171762D03*
X-572516Y-1146362D03*
X-597916Y-1146362D03*
X-572516Y-1120962D03*
X-597916Y-1120962D03*
X-572516Y-1095562D03*
X-597916Y-1095562D03*
X-572516Y-1070162D03*
X-597916Y-1070162D03*
X-572516Y-1451162D03*
X-597916Y-1451162D03*
X-572516Y-1425762D03*
X-597916Y-1425762D03*
X-572516Y-1400362D03*
X-597916Y-1400362D03*
X-572516Y-1374962D03*
X-597916Y-1374962D03*
X-572516Y-1349562D03*
X-597916Y-1349562D03*
X-572516Y-1324162D03*
X-597916Y-1324162D03*
X-572516Y-1298762D03*
X-597916Y-1298762D03*
X-572516Y-1273362D03*
X-597916Y-1273362D03*
X-597916Y-1476562D03*
X-572516Y-1476562D03*
X-597916Y-1044762D03*
X-572516Y-1044762D03*
X-1207516Y-1527362D03*
X-1182116Y-1527362D03*
X-1156716Y-1527362D03*
X-1131316Y-1527362D03*
X-1105916Y-1527362D03*
X-1080516Y-1527362D03*
X-1321816Y-1044762D03*
X-1347216Y-1044762D03*
X-1232916Y-1527362D03*
X-1258316Y-1527362D03*
X-184902Y-1320800D03*
X-184902Y-1295400D03*
X-184902Y-1270000D03*
X-184902Y-1244600D03*
X-184902Y-1219200D03*
X-184902Y-1193800D03*
X-184902Y-1168400D03*
X-184902Y-1143000D03*
X-184902Y-1536700D03*
X-184902Y-1511300D03*
X-184902Y-1485900D03*
X-184902Y-1460500D03*
X-184902Y-1435100D03*
X-184902Y-1409700D03*
X-184902Y-1384300D03*
X-184902Y-1358900D03*
X-184902Y-1752600D03*
X-184902Y-1727200D03*
X-184902Y-1701800D03*
X-184902Y-1676400D03*
X-184902Y-1651000D03*
X-184902Y-1625600D03*
X-184902Y-1600200D03*
X-184902Y-1574800D03*
X-324602Y-1816996D03*
X-324602Y-1791596D03*
X-324602Y-1766196D03*
X-324602Y-1740796D03*
X-324602Y-1715396D03*
X-324602Y-1689996D03*
X-324602Y-1664596D03*
X-324602Y-1639196D03*
X-525262Y-1816100D03*
X-525262Y-1790700D03*
X-525262Y-1765300D03*
X-525262Y-1739900D03*
X-525262Y-1714500D03*
X-525262Y-1689100D03*
X-525262Y-1663700D03*
X-525262Y-1638300D03*
X-753862Y-1817638D03*
X-753862Y-1792238D03*
X-753862Y-1766838D03*
X-753862Y-1741438D03*
X-753862Y-1716038D03*
X-753862Y-1690638D03*
X-753862Y-1665238D03*
X-753862Y-1639838D03*
X-987542Y-1816100D03*
X-987542Y-1790700D03*
X-987542Y-1765300D03*
X-987542Y-1739900D03*
X-987542Y-1714500D03*
X-987542Y-1689100D03*
X-987542Y-1663700D03*
X-987542Y-1638300D03*
X-1219200Y-1812558D03*
X-1219200Y-1787158D03*
X-1219200Y-1761758D03*
X-1219200Y-1736358D03*
X-1219200Y-1710958D03*
X-1219200Y-1685558D03*
X-1219200Y-1660158D03*
X-1219200Y-1634758D03*
D11*
X-157222Y-1031240D03*
X-157222Y-1082040D03*
X-157480Y-920276D03*
X-157480Y-971076D03*
X-1371600Y-1765300D03*
X-1371600Y-1714500D03*
X-1371600Y-1651000D03*
X-1371600Y-1600200D03*
X-1374140Y-388620D03*
X-1374140Y-337820D03*
X-1374140Y-279400D03*
X-1374140Y-228600D03*
D12*
X-949960Y-256540D03*
X-904240Y-205740D03*
D13*
X-289560Y-1082040D02*
X-157222Y-1082040D01*
X-289560Y-1082040D02*
X-309880Y-1061720D01*
X-309880Y-919480D01*
X-253482Y-863082D01*
X-309880Y-919480D02*
X-309880Y-698500D01*
X-258562Y-647182D01*
X-309880Y-698500D02*
X-309880Y-480060D01*
X-261102Y-431282D01*
X-309880Y-480060D02*
X-361696Y-428244D01*
X-399796Y-428244D01*
X-426720Y-401320D01*
X-543560Y-401320D01*
X-562356Y-382524D01*
X-543560Y-401320D02*
X-751840Y-401320D01*
X-774700Y-378460D01*
X-187960Y-432318D02*
X-187442Y-431800D01*
X-751840Y-401320D02*
X-965200Y-401320D01*
X-985520Y-381000D01*
X-187960Y-648218D02*
X-187442Y-647700D01*
X-965200Y-401320D02*
X-1221740Y-401320D01*
X-1236980Y-386080D01*
X-314960Y-1107440D02*
X-289560Y-1082040D01*
X-314960Y-1107440D02*
X-314960Y-1270000D01*
X-264160Y-1320800D01*
X-184902Y-1320800D01*
X-314960Y-1270000D02*
X-314960Y-1473200D01*
X-251460Y-1536700D01*
X-184902Y-1536700D01*
X-251460Y-1536700D02*
X-251460Y-1729740D01*
X-226060Y-1755140D01*
X-187442Y-1755140D01*
X-184902Y-1752600D01*
X-411480Y-1569720D02*
X-314960Y-1473200D01*
X-411480Y-1569720D02*
X-411480Y-1744980D01*
X-339464Y-1816996D01*
X-324602Y-1816996D01*
X-411480Y-1569720D02*
X-586740Y-1569720D01*
X-619760Y-1602740D01*
X-619760Y-1780540D01*
X-584200Y-1816100D01*
X-525262Y-1816100D01*
X-586740Y-1569720D02*
X-800100Y-1569720D01*
X-845820Y-1615440D01*
X-845820Y-1775460D01*
X-802640Y-1818640D01*
X-754864Y-1818640D01*
X-753862Y-1817638D01*
X-800100Y-1569720D02*
X-1026160Y-1569720D01*
X-1079500Y-1623060D01*
X-1079500Y-1778000D01*
X-1041400Y-1816100D01*
X-987542Y-1816100D01*
X-1079500Y-1778000D02*
X-1114058Y-1812558D01*
X-1219200Y-1812558D01*
X-253482Y-863082D02*
X-187960Y-863082D01*
X-187442Y-863600D01*
X-188996Y-647182D02*
X-258562Y-647182D01*
X-188996Y-647182D02*
X-187960Y-648218D01*
X-188996Y-431282D02*
X-261102Y-431282D01*
X-188996Y-431282D02*
X-187960Y-432318D01*
X-261102Y-431282D02*
X-342900Y-349484D01*
X-342900Y-345440D01*
X-562356Y-345440D02*
X-562356Y-382524D01*
X-774700Y-378460D02*
X-774700Y-347462D01*
X-985520Y-347462D02*
X-985520Y-381000D01*
X-1236980Y-386080D02*
X-1236980Y-347462D01*
M02*
