G04 EAGLE Gerber RS-274X export*
G75*
%MOMM*%
%FSLAX34Y34*%
%LPD*%
%IN*%
%IPPOS*%
%AMOC8*
5,1,8,0,0,1.08239X$1,22.5*%
G01*
G04 Define Apertures*
%ADD10C,0.254000*%
D10*
X-1419312Y-1890000D02*
X-1419198Y-1892615D01*
X-1418856Y-1895209D01*
X-1418290Y-1897765D01*
X-1417503Y-1900261D01*
X-1416501Y-1902679D01*
X-1415293Y-1905000D01*
X-1413887Y-1907207D01*
X-1412293Y-1909284D01*
X-1410525Y-1911213D01*
X-1408596Y-1912981D01*
X-1406519Y-1914575D01*
X-1404312Y-1915981D01*
X-1401991Y-1917189D01*
X-1399573Y-1918191D01*
X-1397077Y-1918978D01*
X-1394522Y-1919544D01*
X-1391927Y-1919886D01*
X-1389312Y-1920000D01*
X-110000Y-1920000D01*
X-107385Y-1919886D01*
X-104791Y-1919544D01*
X-102235Y-1918978D01*
X-99739Y-1918191D01*
X-97321Y-1917189D01*
X-95000Y-1915981D01*
X-92793Y-1914575D01*
X-90716Y-1912981D01*
X-88787Y-1911213D01*
X-87019Y-1909284D01*
X-85425Y-1907207D01*
X-84019Y-1905000D01*
X-82811Y-1902679D01*
X-81809Y-1900261D01*
X-81022Y-1897765D01*
X-80456Y-1895209D01*
X-80114Y-1892615D01*
X-80000Y-1890000D01*
X-80000Y-112257D01*
X-80114Y-109642D01*
X-80456Y-107048D01*
X-81022Y-104492D01*
X-81809Y-101996D01*
X-82811Y-99578D01*
X-84019Y-97257D01*
X-85425Y-95050D01*
X-87019Y-92973D01*
X-88787Y-91044D01*
X-90716Y-89276D01*
X-92793Y-87682D01*
X-95000Y-86276D01*
X-97321Y-85068D01*
X-99739Y-84066D01*
X-102235Y-83279D01*
X-104791Y-82713D01*
X-107385Y-82371D01*
X-110000Y-82257D01*
X-1389312Y-82257D01*
X-1391927Y-82371D01*
X-1394522Y-82713D01*
X-1397077Y-83279D01*
X-1399573Y-84066D01*
X-1401991Y-85068D01*
X-1404312Y-86276D01*
X-1406519Y-87682D01*
X-1408596Y-89276D01*
X-1410525Y-91044D01*
X-1412293Y-92973D01*
X-1413887Y-95050D01*
X-1415293Y-97257D01*
X-1416501Y-99578D01*
X-1417503Y-101996D01*
X-1418290Y-104492D01*
X-1418856Y-107048D01*
X-1419198Y-109642D01*
X-1419312Y-112257D01*
X-1419312Y-1890000D01*
X-1280000Y-200604D02*
X-1280000Y-199396D01*
X-1280073Y-198189D01*
X-1280219Y-196989D01*
X-1280437Y-195800D01*
X-1280726Y-194627D01*
X-1281085Y-193473D01*
X-1281514Y-192343D01*
X-1282010Y-191241D01*
X-1282572Y-190170D01*
X-1283197Y-189136D01*
X-1283884Y-188141D01*
X-1284629Y-187190D01*
X-1285431Y-186285D01*
X-1286285Y-185431D01*
X-1287190Y-184629D01*
X-1288141Y-183884D01*
X-1289136Y-183197D01*
X-1290170Y-182572D01*
X-1291241Y-182010D01*
X-1292343Y-181514D01*
X-1293473Y-181085D01*
X-1294627Y-180726D01*
X-1295800Y-180437D01*
X-1296989Y-180219D01*
X-1298189Y-180073D01*
X-1299396Y-180000D01*
X-1300604Y-180000D01*
X-1301811Y-180073D01*
X-1303011Y-180219D01*
X-1304200Y-180437D01*
X-1305373Y-180726D01*
X-1306527Y-181085D01*
X-1307657Y-181514D01*
X-1308759Y-182010D01*
X-1309830Y-182572D01*
X-1310864Y-183197D01*
X-1311859Y-183884D01*
X-1312810Y-184629D01*
X-1313715Y-185431D01*
X-1314569Y-186285D01*
X-1315371Y-187190D01*
X-1316116Y-188141D01*
X-1316803Y-189136D01*
X-1317428Y-190170D01*
X-1317990Y-191241D01*
X-1318486Y-192343D01*
X-1318915Y-193473D01*
X-1319274Y-194627D01*
X-1319563Y-195800D01*
X-1319781Y-196989D01*
X-1319927Y-198189D01*
X-1320000Y-199396D01*
X-1320000Y-200604D01*
X-1319927Y-201811D01*
X-1319781Y-203011D01*
X-1319563Y-204200D01*
X-1319274Y-205373D01*
X-1318915Y-206527D01*
X-1318486Y-207657D01*
X-1317990Y-208759D01*
X-1317428Y-209830D01*
X-1316803Y-210864D01*
X-1316116Y-211859D01*
X-1315371Y-212810D01*
X-1314569Y-213715D01*
X-1313715Y-214569D01*
X-1312810Y-215371D01*
X-1311859Y-216116D01*
X-1310864Y-216803D01*
X-1309830Y-217428D01*
X-1308759Y-217990D01*
X-1307657Y-218486D01*
X-1306527Y-218915D01*
X-1305373Y-219274D01*
X-1304200Y-219563D01*
X-1303011Y-219781D01*
X-1301811Y-219927D01*
X-1300604Y-220000D01*
X-1299396Y-220000D01*
X-1298189Y-219927D01*
X-1296989Y-219781D01*
X-1295800Y-219563D01*
X-1294627Y-219274D01*
X-1293473Y-218915D01*
X-1292343Y-218486D01*
X-1291241Y-217990D01*
X-1290170Y-217428D01*
X-1289136Y-216803D01*
X-1288141Y-216116D01*
X-1287190Y-215371D01*
X-1286285Y-214569D01*
X-1285431Y-213715D01*
X-1284629Y-212810D01*
X-1283884Y-211859D01*
X-1283197Y-210864D01*
X-1282572Y-209830D01*
X-1282010Y-208759D01*
X-1281514Y-207657D01*
X-1281085Y-206527D01*
X-1280726Y-205373D01*
X-1280437Y-204200D01*
X-1280219Y-203011D01*
X-1280073Y-201811D01*
X-1280000Y-200604D01*
X-180000Y-1800604D02*
X-180000Y-1799396D01*
X-180073Y-1798189D01*
X-180219Y-1796989D01*
X-180437Y-1795800D01*
X-180726Y-1794627D01*
X-181085Y-1793473D01*
X-181514Y-1792343D01*
X-182010Y-1791241D01*
X-182572Y-1790170D01*
X-183197Y-1789136D01*
X-183884Y-1788141D01*
X-184629Y-1787190D01*
X-185431Y-1786285D01*
X-186285Y-1785431D01*
X-187190Y-1784629D01*
X-188141Y-1783884D01*
X-189136Y-1783197D01*
X-190170Y-1782572D01*
X-191241Y-1782010D01*
X-192343Y-1781514D01*
X-193473Y-1781085D01*
X-194627Y-1780726D01*
X-195800Y-1780437D01*
X-196989Y-1780219D01*
X-198189Y-1780073D01*
X-199396Y-1780000D01*
X-200604Y-1780000D01*
X-201811Y-1780073D01*
X-203011Y-1780219D01*
X-204200Y-1780437D01*
X-205373Y-1780726D01*
X-206527Y-1781085D01*
X-207657Y-1781514D01*
X-208759Y-1782010D01*
X-209830Y-1782572D01*
X-210864Y-1783197D01*
X-211859Y-1783884D01*
X-212810Y-1784629D01*
X-213715Y-1785431D01*
X-214569Y-1786285D01*
X-215371Y-1787190D01*
X-216116Y-1788141D01*
X-216803Y-1789136D01*
X-217428Y-1790170D01*
X-217990Y-1791241D01*
X-218486Y-1792343D01*
X-218915Y-1793473D01*
X-219274Y-1794627D01*
X-219563Y-1795800D01*
X-219781Y-1796989D01*
X-219927Y-1798189D01*
X-220000Y-1799396D01*
X-220000Y-1800604D01*
X-219927Y-1801811D01*
X-219781Y-1803011D01*
X-219563Y-1804200D01*
X-219274Y-1805373D01*
X-218915Y-1806527D01*
X-218486Y-1807657D01*
X-217990Y-1808759D01*
X-217428Y-1809830D01*
X-216803Y-1810864D01*
X-216116Y-1811859D01*
X-215371Y-1812810D01*
X-214569Y-1813715D01*
X-213715Y-1814569D01*
X-212810Y-1815371D01*
X-211859Y-1816116D01*
X-210864Y-1816803D01*
X-209830Y-1817428D01*
X-208759Y-1817990D01*
X-207657Y-1818486D01*
X-206527Y-1818915D01*
X-205373Y-1819274D01*
X-204200Y-1819563D01*
X-203011Y-1819781D01*
X-201811Y-1819927D01*
X-200604Y-1820000D01*
X-199396Y-1820000D01*
X-198189Y-1819927D01*
X-196989Y-1819781D01*
X-195800Y-1819563D01*
X-194627Y-1819274D01*
X-193473Y-1818915D01*
X-192343Y-1818486D01*
X-191241Y-1817990D01*
X-190170Y-1817428D01*
X-189136Y-1816803D01*
X-188141Y-1816116D01*
X-187190Y-1815371D01*
X-186285Y-1814569D01*
X-185431Y-1813715D01*
X-184629Y-1812810D01*
X-183884Y-1811859D01*
X-183197Y-1810864D01*
X-182572Y-1809830D01*
X-182010Y-1808759D01*
X-181514Y-1807657D01*
X-181085Y-1806527D01*
X-180726Y-1805373D01*
X-180437Y-1804200D01*
X-180219Y-1803011D01*
X-180073Y-1801811D01*
X-180000Y-1800604D01*
X-180000Y-200604D02*
X-180000Y-199396D01*
X-180073Y-198189D01*
X-180219Y-196989D01*
X-180437Y-195800D01*
X-180726Y-194627D01*
X-181085Y-193473D01*
X-181514Y-192343D01*
X-182010Y-191241D01*
X-182572Y-190170D01*
X-183197Y-189136D01*
X-183884Y-188141D01*
X-184629Y-187190D01*
X-185431Y-186285D01*
X-186285Y-185431D01*
X-187190Y-184629D01*
X-188141Y-183884D01*
X-189136Y-183197D01*
X-190170Y-182572D01*
X-191241Y-182010D01*
X-192343Y-181514D01*
X-193473Y-181085D01*
X-194627Y-180726D01*
X-195800Y-180437D01*
X-196989Y-180219D01*
X-198189Y-180073D01*
X-199396Y-180000D01*
X-200604Y-180000D01*
X-201811Y-180073D01*
X-203011Y-180219D01*
X-204200Y-180437D01*
X-205373Y-180726D01*
X-206527Y-181085D01*
X-207657Y-181514D01*
X-208759Y-182010D01*
X-209830Y-182572D01*
X-210864Y-183197D01*
X-211859Y-183884D01*
X-212810Y-184629D01*
X-213715Y-185431D01*
X-214569Y-186285D01*
X-215371Y-187190D01*
X-216116Y-188141D01*
X-216803Y-189136D01*
X-217428Y-190170D01*
X-217990Y-191241D01*
X-218486Y-192343D01*
X-218915Y-193473D01*
X-219274Y-194627D01*
X-219563Y-195800D01*
X-219781Y-196989D01*
X-219927Y-198189D01*
X-220000Y-199396D01*
X-220000Y-200604D01*
X-219927Y-201811D01*
X-219781Y-203011D01*
X-219563Y-204200D01*
X-219274Y-205373D01*
X-218915Y-206527D01*
X-218486Y-207657D01*
X-217990Y-208759D01*
X-217428Y-209830D01*
X-216803Y-210864D01*
X-216116Y-211859D01*
X-215371Y-212810D01*
X-214569Y-213715D01*
X-213715Y-214569D01*
X-212810Y-215371D01*
X-211859Y-216116D01*
X-210864Y-216803D01*
X-209830Y-217428D01*
X-208759Y-217990D01*
X-207657Y-218486D01*
X-206527Y-218915D01*
X-205373Y-219274D01*
X-204200Y-219563D01*
X-203011Y-219781D01*
X-201811Y-219927D01*
X-200604Y-220000D01*
X-199396Y-220000D01*
X-198189Y-219927D01*
X-196989Y-219781D01*
X-195800Y-219563D01*
X-194627Y-219274D01*
X-193473Y-218915D01*
X-192343Y-218486D01*
X-191241Y-217990D01*
X-190170Y-217428D01*
X-189136Y-216803D01*
X-188141Y-216116D01*
X-187190Y-215371D01*
X-186285Y-214569D01*
X-185431Y-213715D01*
X-184629Y-212810D01*
X-183884Y-211859D01*
X-183197Y-210864D01*
X-182572Y-209830D01*
X-182010Y-208759D01*
X-181514Y-207657D01*
X-181085Y-206527D01*
X-180726Y-205373D01*
X-180437Y-204200D01*
X-180219Y-203011D01*
X-180073Y-201811D01*
X-180000Y-200604D01*
X-1280000Y-1800604D02*
X-1280000Y-1799396D01*
X-1280073Y-1798189D01*
X-1280219Y-1796989D01*
X-1280437Y-1795800D01*
X-1280726Y-1794627D01*
X-1281085Y-1793473D01*
X-1281514Y-1792343D01*
X-1282010Y-1791241D01*
X-1282572Y-1790170D01*
X-1283197Y-1789136D01*
X-1283884Y-1788141D01*
X-1284629Y-1787190D01*
X-1285431Y-1786285D01*
X-1286285Y-1785431D01*
X-1287190Y-1784629D01*
X-1288141Y-1783884D01*
X-1289136Y-1783197D01*
X-1290170Y-1782572D01*
X-1291241Y-1782010D01*
X-1292343Y-1781514D01*
X-1293473Y-1781085D01*
X-1294627Y-1780726D01*
X-1295800Y-1780437D01*
X-1296989Y-1780219D01*
X-1298189Y-1780073D01*
X-1299396Y-1780000D01*
X-1300604Y-1780000D01*
X-1301811Y-1780073D01*
X-1303011Y-1780219D01*
X-1304200Y-1780437D01*
X-1305373Y-1780726D01*
X-1306527Y-1781085D01*
X-1307657Y-1781514D01*
X-1308759Y-1782010D01*
X-1309830Y-1782572D01*
X-1310864Y-1783197D01*
X-1311859Y-1783884D01*
X-1312810Y-1784629D01*
X-1313715Y-1785431D01*
X-1314569Y-1786285D01*
X-1315371Y-1787190D01*
X-1316116Y-1788141D01*
X-1316803Y-1789136D01*
X-1317428Y-1790170D01*
X-1317990Y-1791241D01*
X-1318486Y-1792343D01*
X-1318915Y-1793473D01*
X-1319274Y-1794627D01*
X-1319563Y-1795800D01*
X-1319781Y-1796989D01*
X-1319927Y-1798189D01*
X-1320000Y-1799396D01*
X-1320000Y-1800604D01*
X-1319927Y-1801811D01*
X-1319781Y-1803011D01*
X-1319563Y-1804200D01*
X-1319274Y-1805373D01*
X-1318915Y-1806527D01*
X-1318486Y-1807657D01*
X-1317990Y-1808759D01*
X-1317428Y-1809830D01*
X-1316803Y-1810864D01*
X-1316116Y-1811859D01*
X-1315371Y-1812810D01*
X-1314569Y-1813715D01*
X-1313715Y-1814569D01*
X-1312810Y-1815371D01*
X-1311859Y-1816116D01*
X-1310864Y-1816803D01*
X-1309830Y-1817428D01*
X-1308759Y-1817990D01*
X-1307657Y-1818486D01*
X-1306527Y-1818915D01*
X-1305373Y-1819274D01*
X-1304200Y-1819563D01*
X-1303011Y-1819781D01*
X-1301811Y-1819927D01*
X-1300604Y-1820000D01*
X-1299396Y-1820000D01*
X-1298189Y-1819927D01*
X-1296989Y-1819781D01*
X-1295800Y-1819563D01*
X-1294627Y-1819274D01*
X-1293473Y-1818915D01*
X-1292343Y-1818486D01*
X-1291241Y-1817990D01*
X-1290170Y-1817428D01*
X-1289136Y-1816803D01*
X-1288141Y-1816116D01*
X-1287190Y-1815371D01*
X-1286285Y-1814569D01*
X-1285431Y-1813715D01*
X-1284629Y-1812810D01*
X-1283884Y-1811859D01*
X-1283197Y-1810864D01*
X-1282572Y-1809830D01*
X-1282010Y-1808759D01*
X-1281514Y-1807657D01*
X-1281085Y-1806527D01*
X-1280726Y-1805373D01*
X-1280437Y-1804200D01*
X-1280219Y-1803011D01*
X-1280073Y-1801811D01*
X-1280000Y-1800604D01*
M02*
