ISO-10303-21;
HEADER;
/* Generated by software containing ST-Developer
 * from STEP Tools, Inc. (www.steptools.com) 
 */

FILE_DESCRIPTION(
/* description */ (''),
/* implementation_level */ '2;1');

FILE_NAME(
/* name */ '473e4182-b704-4180-9992-4c1daa08179a.stp',
/* time_stamp */ '2026-08-07T12:42:23Z',
/* author */ (''),
/* organization */ (''),
/* preprocessor_version */ 'ST-DEVELOPER v20.2',
/* originating_system */ 'Autodesk Translation Framework v15.15.0.0',
/* authorisation */ '');

FILE_SCHEMA (('AUTOMOTIVE_DESIGN { 1 0 10303 214 3 1 1 }'));
ENDSEC;

DATA;
#10=MECHANICAL_DESIGN_GEOMETRIC_PRESENTATION_REPRESENTATION('',(#13),#725);
#11=SHAPE_REPRESENTATION_RELATIONSHIP('SRR','None',#732,#12);
#12=ADVANCED_BREP_SHAPE_REPRESENTATION('',(#14),#724);
#13=STYLED_ITEM('',(#741),#14);
#14=MANIFOLD_SOLID_BREP('Body1',#441);
#15=CYLINDRICAL_SURFACE('',#470,10.);
#16=CYLINDRICAL_SURFACE('',#473,10.0000000000001);
#17=CYLINDRICAL_SURFACE('',#479,396.);
#18=CIRCLE('',#457,10.0000000000001);
#19=CIRCLE('',#458,10.);
#20=CIRCLE('',#471,10.);
#21=CIRCLE('',#474,10.0000000000001);
#22=CIRCLE('',#480,396.);
#23=CIRCLE('',#481,396.);
#24=FACE_OUTER_BOUND('',#48,.T.);
#25=FACE_OUTER_BOUND('',#49,.T.);
#26=FACE_OUTER_BOUND('',#50,.T.);
#27=FACE_OUTER_BOUND('',#51,.T.);
#28=FACE_OUTER_BOUND('',#52,.T.);
#29=FACE_OUTER_BOUND('',#53,.T.);
#30=FACE_OUTER_BOUND('',#54,.T.);
#31=FACE_OUTER_BOUND('',#55,.T.);
#32=FACE_OUTER_BOUND('',#56,.T.);
#33=FACE_OUTER_BOUND('',#57,.T.);
#34=FACE_OUTER_BOUND('',#58,.T.);
#35=FACE_OUTER_BOUND('',#59,.T.);
#36=FACE_OUTER_BOUND('',#60,.T.);
#37=FACE_OUTER_BOUND('',#61,.T.);
#38=FACE_OUTER_BOUND('',#62,.T.);
#39=FACE_OUTER_BOUND('',#63,.T.);
#40=FACE_OUTER_BOUND('',#64,.T.);
#41=FACE_OUTER_BOUND('',#65,.T.);
#42=FACE_OUTER_BOUND('',#66,.T.);
#43=FACE_OUTER_BOUND('',#67,.T.);
#44=FACE_OUTER_BOUND('',#68,.T.);
#45=FACE_OUTER_BOUND('',#69,.T.);
#46=FACE_OUTER_BOUND('',#70,.T.);
#47=FACE_OUTER_BOUND('',#71,.T.);
#48=EDGE_LOOP('',(#276,#277,#278,#279));
#49=EDGE_LOOP('',(#280,#281,#282,#283,#284,#285,#286,#287,#288,#289,#290,
#291,#292,#293));
#50=EDGE_LOOP('',(#294,#295,#296,#297));
#51=EDGE_LOOP('',(#298,#299,#300,#301));
#52=EDGE_LOOP('',(#302,#303,#304,#305,#306,#307,#308,#309));
#53=EDGE_LOOP('',(#310,#311,#312,#313));
#54=EDGE_LOOP('',(#314,#315,#316,#317));
#55=EDGE_LOOP('',(#318,#319,#320,#321));
#56=EDGE_LOOP('',(#322,#323,#324,#325));
#57=EDGE_LOOP('',(#326,#327,#328,#329));
#58=EDGE_LOOP('',(#330,#331,#332,#333));
#59=EDGE_LOOP('',(#334,#335,#336,#337));
#60=EDGE_LOOP('',(#338,#339,#340,#341));
#61=EDGE_LOOP('',(#342,#343,#344,#345));
#62=EDGE_LOOP('',(#346,#347,#348,#349));
#63=EDGE_LOOP('',(#350,#351,#352,#353));
#64=EDGE_LOOP('',(#354,#355,#356,#357));
#65=EDGE_LOOP('',(#358,#359,#360,#361));
#66=EDGE_LOOP('',(#362,#363,#364,#365));
#67=EDGE_LOOP('',(#366,#367,#368,#369));
#68=EDGE_LOOP('',(#370,#371,#372,#373));
#69=EDGE_LOOP('',(#374,#375,#376,#377,#378,#379,#380,#381));
#70=EDGE_LOOP('',(#382,#383,#384,#385,#386,#387));
#71=EDGE_LOOP('',(#388,#389,#390,#391,#392,#393,#394,#395));
#72=LINE('',#605,#126);
#73=LINE('',#607,#127);
#74=LINE('',#609,#128);
#75=LINE('',#610,#129);
#76=LINE('',#613,#130);
#77=LINE('',#615,#131);
#78=LINE('',#617,#132);
#79=LINE('',#619,#133);
#80=LINE('',#621,#134);
#81=LINE('',#623,#135);
#82=LINE('',#625,#136);
#83=LINE('',#627,#137);
#84=LINE('',#631,#138);
#85=LINE('',#635,#139);
#86=LINE('',#636,#140);
#87=LINE('',#639,#141);
#88=LINE('',#641,#142);
#89=LINE('',#642,#143);
#90=LINE('',#645,#144);
#91=LINE('',#647,#145);
#92=LINE('',#648,#146);
#93=LINE('',#651,#147);
#94=LINE('',#653,#148);
#95=LINE('',#655,#149);
#96=LINE('',#657,#150);
#97=LINE('',#659,#151);
#98=LINE('',#660,#152);
#99=LINE('',#663,#153);
#100=LINE('',#664,#154);
#101=LINE('',#666,#155);
#102=LINE('',#669,#156);
#103=LINE('',#670,#157);
#104=LINE('',#673,#158);
#105=LINE('',#674,#159);
#106=LINE('',#676,#160);
#107=LINE('',#678,#161);
#108=LINE('',#680,#162);
#109=LINE('',#684,#163);
#110=LINE('',#685,#164);
#111=LINE('',#686,#165);
#112=LINE('',#690,#166);
#113=LINE('',#693,#167);
#114=LINE('',#694,#168);
#115=LINE('',#698,#169);
#116=LINE('',#700,#170);
#117=LINE('',#702,#171);
#118=LINE('',#703,#172);
#119=LINE('',#705,#173);
#120=LINE('',#706,#174);
#121=LINE('',#709,#175);
#122=LINE('',#710,#176);
#123=LINE('',#716,#177);
#124=LINE('',#718,#178);
#125=LINE('',#719,#179);
#126=VECTOR('',#489,10.);
#127=VECTOR('',#490,10.);
#128=VECTOR('',#491,10.);
#129=VECTOR('',#492,10.);
#130=VECTOR('',#495,10.);
#131=VECTOR('',#496,10.);
#132=VECTOR('',#497,10.);
#133=VECTOR('',#498,10.);
#134=VECTOR('',#499,10.);
#135=VECTOR('',#500,10.);
#136=VECTOR('',#501,10.);
#137=VECTOR('',#502,10.);
#138=VECTOR('',#505,10.);
#139=VECTOR('',#508,10.);
#140=VECTOR('',#509,10.);
#141=VECTOR('',#512,10.);
#142=VECTOR('',#513,10.);
#143=VECTOR('',#514,10.);
#144=VECTOR('',#517,10.);
#145=VECTOR('',#518,10.);
#146=VECTOR('',#519,10.);
#147=VECTOR('',#522,10.);
#148=VECTOR('',#523,10.);
#149=VECTOR('',#524,10.);
#150=VECTOR('',#525,10.);
#151=VECTOR('',#526,10.);
#152=VECTOR('',#527,10.);
#153=VECTOR('',#530,10.);
#154=VECTOR('',#531,10.);
#155=VECTOR('',#534,10.);
#156=VECTOR('',#537,10.);
#157=VECTOR('',#538,10.);
#158=VECTOR('',#541,10.);
#159=VECTOR('',#542,10.);
#160=VECTOR('',#545,10.);
#161=VECTOR('',#548,10.);
#162=VECTOR('',#551,10.);
#163=VECTOR('',#554,10.);
#164=VECTOR('',#555,10.);
#165=VECTOR('',#556,10.);
#166=VECTOR('',#561,10.);
#167=VECTOR('',#564,10.);
#168=VECTOR('',#565,10.);
#169=VECTOR('',#570,10.);
#170=VECTOR('',#573,10.);
#171=VECTOR('',#576,10.);
#172=VECTOR('',#577,10.);
#173=VECTOR('',#580,10.);
#174=VECTOR('',#581,10.);
#175=VECTOR('',#584,10.);
#176=VECTOR('',#585,10.);
#177=VECTOR('',#592,10.);
#178=VECTOR('',#595,10.);
#179=VECTOR('',#596,10.);
#180=VERTEX_POINT('',#603);
#181=VERTEX_POINT('',#604);
#182=VERTEX_POINT('',#606);
#183=VERTEX_POINT('',#608);
#184=VERTEX_POINT('',#612);
#185=VERTEX_POINT('',#614);
#186=VERTEX_POINT('',#616);
#187=VERTEX_POINT('',#618);
#188=VERTEX_POINT('',#620);
#189=VERTEX_POINT('',#622);
#190=VERTEX_POINT('',#624);
#191=VERTEX_POINT('',#626);
#192=VERTEX_POINT('',#628);
#193=VERTEX_POINT('',#630);
#194=VERTEX_POINT('',#632);
#195=VERTEX_POINT('',#634);
#196=VERTEX_POINT('',#638);
#197=VERTEX_POINT('',#640);
#198=VERTEX_POINT('',#644);
#199=VERTEX_POINT('',#646);
#200=VERTEX_POINT('',#650);
#201=VERTEX_POINT('',#652);
#202=VERTEX_POINT('',#654);
#203=VERTEX_POINT('',#656);
#204=VERTEX_POINT('',#658);
#205=VERTEX_POINT('',#662);
#206=VERTEX_POINT('',#668);
#207=VERTEX_POINT('',#672);
#208=VERTEX_POINT('',#682);
#209=VERTEX_POINT('',#683);
#210=VERTEX_POINT('',#688);
#211=VERTEX_POINT('',#692);
#212=VERTEX_POINT('',#696);
#213=VERTEX_POINT('',#708);
#214=VERTEX_POINT('',#712);
#215=VERTEX_POINT('',#714);
#216=EDGE_CURVE('',#180,#181,#72,.T.);
#217=EDGE_CURVE('',#182,#180,#73,.T.);
#218=EDGE_CURVE('',#183,#182,#74,.T.);
#219=EDGE_CURVE('',#181,#183,#75,.T.);
#220=EDGE_CURVE('',#180,#184,#76,.T.);
#221=EDGE_CURVE('',#184,#185,#77,.T.);
#222=EDGE_CURVE('',#185,#186,#78,.T.);
#223=EDGE_CURVE('',#186,#187,#79,.T.);
#224=EDGE_CURVE('',#187,#188,#80,.T.);
#225=EDGE_CURVE('',#188,#189,#81,.T.);
#226=EDGE_CURVE('',#189,#190,#82,.T.);
#227=EDGE_CURVE('',#190,#191,#83,.T.);
#228=EDGE_CURVE('',#191,#192,#18,.T.);
#229=EDGE_CURVE('',#192,#193,#84,.T.);
#230=EDGE_CURVE('',#193,#194,#19,.T.);
#231=EDGE_CURVE('',#194,#195,#85,.T.);
#232=EDGE_CURVE('',#195,#182,#86,.T.);
#233=EDGE_CURVE('',#196,#185,#87,.T.);
#234=EDGE_CURVE('',#197,#196,#88,.T.);
#235=EDGE_CURVE('',#186,#197,#89,.T.);
#236=EDGE_CURVE('',#198,#188,#90,.T.);
#237=EDGE_CURVE('',#199,#198,#91,.T.);
#238=EDGE_CURVE('',#189,#199,#92,.T.);
#239=EDGE_CURVE('',#199,#200,#93,.T.);
#240=EDGE_CURVE('',#200,#201,#94,.T.);
#241=EDGE_CURVE('',#202,#201,#95,.T.);
#242=EDGE_CURVE('',#203,#202,#96,.T.);
#243=EDGE_CURVE('',#204,#203,#97,.T.);
#244=EDGE_CURVE('',#204,#190,#98,.T.);
#245=EDGE_CURVE('',#205,#181,#99,.T.);
#246=EDGE_CURVE('',#205,#184,#100,.T.);
#247=EDGE_CURVE('',#196,#205,#101,.T.);
#248=EDGE_CURVE('',#206,#183,#102,.T.);
#249=EDGE_CURVE('',#205,#206,#103,.T.);
#250=EDGE_CURVE('',#207,#205,#104,.T.);
#251=EDGE_CURVE('',#207,#197,#105,.T.);
#252=EDGE_CURVE('',#207,#187,#106,.T.);
#253=EDGE_CURVE('',#198,#207,#107,.T.);
#254=EDGE_CURVE('',#200,#207,#108,.T.);
#255=EDGE_CURVE('',#208,#209,#109,.T.);
#256=EDGE_CURVE('',#208,#195,#110,.T.);
#257=EDGE_CURVE('',#209,#194,#111,.T.);
#258=EDGE_CURVE('',#210,#209,#20,.T.);
#259=EDGE_CURVE('',#210,#193,#112,.T.);
#260=EDGE_CURVE('',#210,#211,#113,.T.);
#261=EDGE_CURVE('',#211,#192,#114,.T.);
#262=EDGE_CURVE('',#212,#211,#21,.T.);
#263=EDGE_CURVE('',#212,#191,#115,.T.);
#264=EDGE_CURVE('',#212,#204,#116,.T.);
#265=EDGE_CURVE('',#207,#187,#117,.T.);
#266=EDGE_CURVE('',#201,#187,#118,.T.);
#267=EDGE_CURVE('',#205,#184,#119,.T.);
#268=EDGE_CURVE('',#187,#184,#120,.T.);
#269=EDGE_CURVE('',#206,#213,#121,.T.);
#270=EDGE_CURVE('',#184,#213,#122,.T.);
#271=EDGE_CURVE('',#203,#214,#22,.T.);
#272=EDGE_CURVE('',#215,#202,#23,.T.);
#273=EDGE_CURVE('',#214,#215,#123,.T.);
#274=EDGE_CURVE('',#214,#208,#124,.T.);
#275=EDGE_CURVE('',#213,#215,#125,.T.);
#276=ORIENTED_EDGE('',*,*,#216,.F.);
#277=ORIENTED_EDGE('',*,*,#217,.F.);
#278=ORIENTED_EDGE('',*,*,#218,.F.);
#279=ORIENTED_EDGE('',*,*,#219,.F.);
#280=ORIENTED_EDGE('',*,*,#217,.T.);
#281=ORIENTED_EDGE('',*,*,#220,.T.);
#282=ORIENTED_EDGE('',*,*,#221,.T.);
#283=ORIENTED_EDGE('',*,*,#222,.T.);
#284=ORIENTED_EDGE('',*,*,#223,.T.);
#285=ORIENTED_EDGE('',*,*,#224,.T.);
#286=ORIENTED_EDGE('',*,*,#225,.T.);
#287=ORIENTED_EDGE('',*,*,#226,.T.);
#288=ORIENTED_EDGE('',*,*,#227,.T.);
#289=ORIENTED_EDGE('',*,*,#228,.T.);
#290=ORIENTED_EDGE('',*,*,#229,.T.);
#291=ORIENTED_EDGE('',*,*,#230,.T.);
#292=ORIENTED_EDGE('',*,*,#231,.T.);
#293=ORIENTED_EDGE('',*,*,#232,.T.);
#294=ORIENTED_EDGE('',*,*,#233,.F.);
#295=ORIENTED_EDGE('',*,*,#234,.F.);
#296=ORIENTED_EDGE('',*,*,#235,.F.);
#297=ORIENTED_EDGE('',*,*,#222,.F.);
#298=ORIENTED_EDGE('',*,*,#236,.F.);
#299=ORIENTED_EDGE('',*,*,#237,.F.);
#300=ORIENTED_EDGE('',*,*,#238,.F.);
#301=ORIENTED_EDGE('',*,*,#225,.F.);
#302=ORIENTED_EDGE('',*,*,#238,.T.);
#303=ORIENTED_EDGE('',*,*,#239,.T.);
#304=ORIENTED_EDGE('',*,*,#240,.T.);
#305=ORIENTED_EDGE('',*,*,#241,.F.);
#306=ORIENTED_EDGE('',*,*,#242,.F.);
#307=ORIENTED_EDGE('',*,*,#243,.F.);
#308=ORIENTED_EDGE('',*,*,#244,.T.);
#309=ORIENTED_EDGE('',*,*,#226,.F.);
#310=ORIENTED_EDGE('',*,*,#245,.F.);
#311=ORIENTED_EDGE('',*,*,#246,.T.);
#312=ORIENTED_EDGE('',*,*,#220,.F.);
#313=ORIENTED_EDGE('',*,*,#216,.T.);
#314=ORIENTED_EDGE('',*,*,#247,.F.);
#315=ORIENTED_EDGE('',*,*,#233,.T.);
#316=ORIENTED_EDGE('',*,*,#221,.F.);
#317=ORIENTED_EDGE('',*,*,#246,.F.);
#318=ORIENTED_EDGE('',*,*,#245,.T.);
#319=ORIENTED_EDGE('',*,*,#219,.T.);
#320=ORIENTED_EDGE('',*,*,#248,.F.);
#321=ORIENTED_EDGE('',*,*,#249,.F.);
#322=ORIENTED_EDGE('',*,*,#247,.T.);
#323=ORIENTED_EDGE('',*,*,#250,.F.);
#324=ORIENTED_EDGE('',*,*,#251,.T.);
#325=ORIENTED_EDGE('',*,*,#234,.T.);
#326=ORIENTED_EDGE('',*,*,#251,.F.);
#327=ORIENTED_EDGE('',*,*,#252,.T.);
#328=ORIENTED_EDGE('',*,*,#223,.F.);
#329=ORIENTED_EDGE('',*,*,#235,.T.);
#330=ORIENTED_EDGE('',*,*,#253,.F.);
#331=ORIENTED_EDGE('',*,*,#236,.T.);
#332=ORIENTED_EDGE('',*,*,#224,.F.);
#333=ORIENTED_EDGE('',*,*,#252,.F.);
#334=ORIENTED_EDGE('',*,*,#253,.T.);
#335=ORIENTED_EDGE('',*,*,#254,.F.);
#336=ORIENTED_EDGE('',*,*,#239,.F.);
#337=ORIENTED_EDGE('',*,*,#237,.T.);
#338=ORIENTED_EDGE('',*,*,#255,.F.);
#339=ORIENTED_EDGE('',*,*,#256,.T.);
#340=ORIENTED_EDGE('',*,*,#231,.F.);
#341=ORIENTED_EDGE('',*,*,#257,.F.);
#342=ORIENTED_EDGE('',*,*,#258,.T.);
#343=ORIENTED_EDGE('',*,*,#257,.T.);
#344=ORIENTED_EDGE('',*,*,#230,.F.);
#345=ORIENTED_EDGE('',*,*,#259,.F.);
#346=ORIENTED_EDGE('',*,*,#260,.F.);
#347=ORIENTED_EDGE('',*,*,#259,.T.);
#348=ORIENTED_EDGE('',*,*,#229,.F.);
#349=ORIENTED_EDGE('',*,*,#261,.F.);
#350=ORIENTED_EDGE('',*,*,#262,.T.);
#351=ORIENTED_EDGE('',*,*,#261,.T.);
#352=ORIENTED_EDGE('',*,*,#228,.F.);
#353=ORIENTED_EDGE('',*,*,#263,.F.);
#354=ORIENTED_EDGE('',*,*,#264,.F.);
#355=ORIENTED_EDGE('',*,*,#263,.T.);
#356=ORIENTED_EDGE('',*,*,#227,.F.);
#357=ORIENTED_EDGE('',*,*,#244,.F.);
#358=ORIENTED_EDGE('',*,*,#254,.T.);
#359=ORIENTED_EDGE('',*,*,#265,.T.);
#360=ORIENTED_EDGE('',*,*,#266,.F.);
#361=ORIENTED_EDGE('',*,*,#240,.F.);
#362=ORIENTED_EDGE('',*,*,#250,.T.);
#363=ORIENTED_EDGE('',*,*,#267,.T.);
#364=ORIENTED_EDGE('',*,*,#268,.F.);
#365=ORIENTED_EDGE('',*,*,#265,.F.);
#366=ORIENTED_EDGE('',*,*,#249,.T.);
#367=ORIENTED_EDGE('',*,*,#269,.T.);
#368=ORIENTED_EDGE('',*,*,#270,.F.);
#369=ORIENTED_EDGE('',*,*,#267,.F.);
#370=ORIENTED_EDGE('',*,*,#271,.F.);
#371=ORIENTED_EDGE('',*,*,#242,.T.);
#372=ORIENTED_EDGE('',*,*,#272,.F.);
#373=ORIENTED_EDGE('',*,*,#273,.F.);
#374=ORIENTED_EDGE('',*,*,#218,.T.);
#375=ORIENTED_EDGE('',*,*,#232,.F.);
#376=ORIENTED_EDGE('',*,*,#256,.F.);
#377=ORIENTED_EDGE('',*,*,#274,.F.);
#378=ORIENTED_EDGE('',*,*,#273,.T.);
#379=ORIENTED_EDGE('',*,*,#275,.F.);
#380=ORIENTED_EDGE('',*,*,#269,.F.);
#381=ORIENTED_EDGE('',*,*,#248,.T.);
#382=ORIENTED_EDGE('',*,*,#268,.T.);
#383=ORIENTED_EDGE('',*,*,#270,.T.);
#384=ORIENTED_EDGE('',*,*,#275,.T.);
#385=ORIENTED_EDGE('',*,*,#272,.T.);
#386=ORIENTED_EDGE('',*,*,#241,.T.);
#387=ORIENTED_EDGE('',*,*,#266,.T.);
#388=ORIENTED_EDGE('',*,*,#243,.T.);
#389=ORIENTED_EDGE('',*,*,#271,.T.);
#390=ORIENTED_EDGE('',*,*,#274,.T.);
#391=ORIENTED_EDGE('',*,*,#255,.T.);
#392=ORIENTED_EDGE('',*,*,#258,.F.);
#393=ORIENTED_EDGE('',*,*,#260,.T.);
#394=ORIENTED_EDGE('',*,*,#262,.F.);
#395=ORIENTED_EDGE('',*,*,#264,.T.);
#396=PLANE('',#455);
#397=PLANE('',#456);
#398=PLANE('',#459);
#399=PLANE('',#460);
#400=PLANE('',#461);
#401=PLANE('',#462);
#402=PLANE('',#463);
#403=PLANE('',#464);
#404=PLANE('',#465);
#405=PLANE('',#466);
#406=PLANE('',#467);
#407=PLANE('',#468);
#408=PLANE('',#469);
#409=PLANE('',#472);
#410=PLANE('',#475);
#411=PLANE('',#476);
#412=PLANE('',#477);
#413=PLANE('',#478);
#414=PLANE('',#482);
#415=PLANE('',#483);
#416=PLANE('',#484);
#417=ADVANCED_FACE('',(#24),#396,.F.);
#418=ADVANCED_FACE('',(#25),#397,.T.);
#419=ADVANCED_FACE('',(#26),#398,.F.);
#420=ADVANCED_FACE('',(#27),#399,.F.);
#421=ADVANCED_FACE('',(#28),#400,.T.);
#422=ADVANCED_FACE('',(#29),#401,.T.);
#423=ADVANCED_FACE('',(#30),#402,.T.);
#424=ADVANCED_FACE('',(#31),#403,.T.);
#425=ADVANCED_FACE('',(#32),#404,.T.);
#426=ADVANCED_FACE('',(#33),#405,.T.);
#427=ADVANCED_FACE('',(#34),#406,.T.);
#428=ADVANCED_FACE('',(#35),#407,.T.);
#429=ADVANCED_FACE('',(#36),#408,.T.);
#430=ADVANCED_FACE('',(#37),#15,.T.);
#431=ADVANCED_FACE('',(#38),#409,.T.);
#432=ADVANCED_FACE('',(#39),#16,.T.);
#433=ADVANCED_FACE('',(#40),#410,.T.);
#434=ADVANCED_FACE('',(#41),#411,.T.);
#435=ADVANCED_FACE('',(#42),#412,.T.);
#436=ADVANCED_FACE('',(#43),#413,.T.);
#437=ADVANCED_FACE('',(#44),#17,.F.);
#438=ADVANCED_FACE('',(#45),#414,.T.);
#439=ADVANCED_FACE('',(#46),#415,.T.);
#440=ADVANCED_FACE('',(#47),#416,.F.);
#441=CLOSED_SHELL('',(#417,#418,#419,#420,#421,#422,#423,#424,#425,#426,
#427,#428,#429,#430,#431,#432,#433,#434,#435,#436,#437,#438,#439,#440));
#442=DERIVED_UNIT_ELEMENT(#444,1.);
#443=DERIVED_UNIT_ELEMENT(#727,-3.);
#444=(
MASS_UNIT()
NAMED_UNIT(*)
SI_UNIT(.KILO.,.GRAM.)
);
#445=DERIVED_UNIT((#442,#443));
#446=MEASURE_REPRESENTATION_ITEM('density measure',
POSITIVE_RATIO_MEASURE(7850.),#445);
#447=PROPERTY_DEFINITION_REPRESENTATION(#452,#449);
#448=PROPERTY_DEFINITION_REPRESENTATION(#453,#450);
#449=REPRESENTATION('material name',(#451),#724);
#450=REPRESENTATION('density',(#446),#724);
#451=DESCRIPTIVE_REPRESENTATION_ITEM('Steel','Steel');
#452=PROPERTY_DEFINITION('material property','material name',#734);
#453=PROPERTY_DEFINITION('material property','density of part',#734);
#454=AXIS2_PLACEMENT_3D('',#601,#485,#486);
#455=AXIS2_PLACEMENT_3D('',#602,#487,#488);
#456=AXIS2_PLACEMENT_3D('',#611,#493,#494);
#457=AXIS2_PLACEMENT_3D('',#629,#503,#504);
#458=AXIS2_PLACEMENT_3D('',#633,#506,#507);
#459=AXIS2_PLACEMENT_3D('',#637,#510,#511);
#460=AXIS2_PLACEMENT_3D('',#643,#515,#516);
#461=AXIS2_PLACEMENT_3D('',#649,#520,#521);
#462=AXIS2_PLACEMENT_3D('',#661,#528,#529);
#463=AXIS2_PLACEMENT_3D('',#665,#532,#533);
#464=AXIS2_PLACEMENT_3D('',#667,#535,#536);
#465=AXIS2_PLACEMENT_3D('',#671,#539,#540);
#466=AXIS2_PLACEMENT_3D('',#675,#543,#544);
#467=AXIS2_PLACEMENT_3D('',#677,#546,#547);
#468=AXIS2_PLACEMENT_3D('',#679,#549,#550);
#469=AXIS2_PLACEMENT_3D('',#681,#552,#553);
#470=AXIS2_PLACEMENT_3D('',#687,#557,#558);
#471=AXIS2_PLACEMENT_3D('',#689,#559,#560);
#472=AXIS2_PLACEMENT_3D('',#691,#562,#563);
#473=AXIS2_PLACEMENT_3D('',#695,#566,#567);
#474=AXIS2_PLACEMENT_3D('',#697,#568,#569);
#475=AXIS2_PLACEMENT_3D('',#699,#571,#572);
#476=AXIS2_PLACEMENT_3D('',#701,#574,#575);
#477=AXIS2_PLACEMENT_3D('',#704,#578,#579);
#478=AXIS2_PLACEMENT_3D('',#707,#582,#583);
#479=AXIS2_PLACEMENT_3D('',#711,#586,#587);
#480=AXIS2_PLACEMENT_3D('',#713,#588,#589);
#481=AXIS2_PLACEMENT_3D('',#715,#590,#591);
#482=AXIS2_PLACEMENT_3D('',#717,#593,#594);
#483=AXIS2_PLACEMENT_3D('',#720,#597,#598);
#484=AXIS2_PLACEMENT_3D('',#721,#599,#600);
#485=DIRECTION('axis',(0.,0.,1.));
#486=DIRECTION('refdir',(1.,0.,0.));
#487=DIRECTION('center_axis',(0.923879532511295,0.,-0.38268343236507));
#488=DIRECTION('ref_axis',(-0.38268343236507,0.,-0.923879532511295));
#489=DIRECTION('',(0.,-1.,0.));
#490=DIRECTION('',(0.38268343236507,0.,0.923879532511295));
#491=DIRECTION('',(0.,1.,0.));
#492=DIRECTION('',(-0.38268343236509,0.,-0.923879532511287));
#493=DIRECTION('center_axis',(0.,1.,0.));
#494=DIRECTION('ref_axis',(1.,0.,0.));
#495=DIRECTION('',(-0.923879532511286,0.,0.38268343236509));
#496=DIRECTION('',(1.,0.,0.));
#497=DIRECTION('',(0.,0.,1.));
#498=DIRECTION('',(-1.,0.,1.48029736616682E-15));
#499=DIRECTION('',(0.923879532511295,0.,0.38268343236507));
#500=DIRECTION('',(-0.38268343236507,0.,0.923879532511295));
#501=DIRECTION('',(0.923879532511294,0.,0.382683432365072));
#502=DIRECTION('',(0.382683432365091,0.,-0.923879532511286));
#503=DIRECTION('center_axis',(0.,1.,0.));
#504=DIRECTION('ref_axis',(0.923879532511288,0.,0.382683432365087));
#505=DIRECTION('',(0.,0.,-1.));
#506=DIRECTION('center_axis',(0.,1.,0.));
#507=DIRECTION('ref_axis',(1.,0.,-8.88178419700125E-16));
#508=DIRECTION('',(-0.38268343236509,0.,-0.923879532511287));
#509=DIRECTION('',(-0.923879532511281,0.,0.382683432365105));
#510=DIRECTION('center_axis',(1.,0.,0.));
#511=DIRECTION('ref_axis',(0.,0.,-1.));
#512=DIRECTION('',(0.,1.,0.));
#513=DIRECTION('',(-1.31975599371794E-15,0.,-1.));
#514=DIRECTION('',(0.,-1.,0.));
#515=DIRECTION('center_axis',(0.923879532511295,0.,0.38268343236507));
#516=DIRECTION('ref_axis',(0.38268343236507,0.,-0.923879532511295));
#517=DIRECTION('',(0.,1.,0.));
#518=DIRECTION('',(0.382683432365089,0.,-0.923879532511287));
#519=DIRECTION('',(0.,-1.,0.));
#520=DIRECTION('center_axis',(-0.382683432365091,0.,0.923879532511286));
#521=DIRECTION('ref_axis',(0.923879532511286,0.,0.382683432365091));
#522=DIRECTION('',(-0.923879532511286,0.,-0.382683432365091));
#523=DIRECTION('',(0.,1.,0.));
#524=DIRECTION('',(0.923879532511286,0.,0.382683432365091));
#525=DIRECTION('',(0.,1.,0.));
#526=DIRECTION('',(-0.923879532511286,0.,-0.382683432365091));
#527=DIRECTION('',(0.,1.,0.));
#528=DIRECTION('center_axis',(-0.38268343236509,0.,-0.923879532511287));
#529=DIRECTION('ref_axis',(-0.923879532511286,0.,0.38268343236509));
#530=DIRECTION('',(0.923879532511286,0.,-0.38268343236509));
#531=DIRECTION('',(0.,1.,0.));
#532=DIRECTION('center_axis',(1.48029736616687E-15,0.,1.));
#533=DIRECTION('ref_axis',(1.,0.,-1.48029736616687E-15));
#534=DIRECTION('',(-1.,0.,1.48029736616687E-15));
#535=DIRECTION('center_axis',(0.,1.,0.));
#536=DIRECTION('ref_axis',(0.,0.,1.));
#537=DIRECTION('',(0.923879532511288,0.,-0.382683432365087));
#538=DIRECTION('',(-0.38268343236509,0.,-0.923879532511287));
#539=DIRECTION('center_axis',(0.,1.,0.));
#540=DIRECTION('ref_axis',(0.,0.,1.));
#541=DIRECTION('',(0.,0.,-1.));
#542=DIRECTION('',(1.,0.,-1.48029736616682E-15));
#543=DIRECTION('center_axis',(-1.48029736616682E-15,0.,-1.));
#544=DIRECTION('ref_axis',(-1.,0.,1.48029736616682E-15));
#545=DIRECTION('',(0.,1.,0.));
#546=DIRECTION('center_axis',(-0.382683432365085,0.,0.923879532511289));
#547=DIRECTION('ref_axis',(0.923879532511289,0.,0.382683432365085));
#548=DIRECTION('',(-0.923879532511289,0.,-0.382683432365085));
#549=DIRECTION('center_axis',(0.,1.,0.));
#550=DIRECTION('ref_axis',(0.,0.,1.));
#551=DIRECTION('',(0.38268343236509,0.,-0.923879532511287));
#552=DIRECTION('center_axis',(0.923879532511287,0.,-0.38268343236509));
#553=DIRECTION('ref_axis',(-0.38268343236509,0.,-0.923879532511287));
#554=DIRECTION('',(0.38268343236509,0.,0.923879532511287));
#555=DIRECTION('',(0.,1.,0.));
#556=DIRECTION('',(0.,1.,0.));
#557=DIRECTION('center_axis',(0.,1.,0.));
#558=DIRECTION('ref_axis',(1.,0.,-8.88178419700125E-16));
#559=DIRECTION('center_axis',(0.,1.,0.));
#560=DIRECTION('ref_axis',(1.,0.,-8.88178419700125E-16));
#561=DIRECTION('',(0.,1.,0.));
#562=DIRECTION('center_axis',(1.,0.,0.));
#563=DIRECTION('ref_axis',(0.,0.,-1.));
#564=DIRECTION('',(0.,0.,1.));
#565=DIRECTION('',(0.,1.,0.));
#566=DIRECTION('center_axis',(0.,1.,0.));
#567=DIRECTION('ref_axis',(0.923879532511288,0.,0.382683432365087));
#568=DIRECTION('center_axis',(0.,1.,0.));
#569=DIRECTION('ref_axis',(0.923879532511288,0.,0.382683432365087));
#570=DIRECTION('',(0.,1.,0.));
#571=DIRECTION('center_axis',(0.923879532511286,0.,0.382683432365091));
#572=DIRECTION('ref_axis',(0.382683432365091,0.,-0.923879532511286));
#573=DIRECTION('',(-0.382683432365091,0.,0.923879532511286));
#574=DIRECTION('center_axis',(0.923879532511287,0.,0.38268343236509));
#575=DIRECTION('ref_axis',(0.38268343236509,0.,-0.923879532511287));
#576=DIRECTION('',(0.,1.,0.));
#577=DIRECTION('',(0.38268343236509,0.,-0.923879532511287));
#578=DIRECTION('center_axis',(1.,0.,0.));
#579=DIRECTION('ref_axis',(0.,0.,-1.));
#580=DIRECTION('',(0.,1.,0.));
#581=DIRECTION('',(0.,0.,-1.));
#582=DIRECTION('center_axis',(0.923879532511287,0.,-0.38268343236509));
#583=DIRECTION('ref_axis',(-0.38268343236509,0.,-0.923879532511287));
#584=DIRECTION('',(0.,1.,0.));
#585=DIRECTION('',(-0.38268343236509,0.,-0.923879532511287));
#586=DIRECTION('center_axis',(0.,1.,0.));
#587=DIRECTION('ref_axis',(1.,0.,0.));
#588=DIRECTION('center_axis',(0.,1.,0.));
#589=DIRECTION('ref_axis',(1.,0.,0.));
#590=DIRECTION('center_axis',(0.,-1.,0.));
#591=DIRECTION('ref_axis',(1.,0.,0.));
#592=DIRECTION('',(0.,1.,0.));
#593=DIRECTION('center_axis',(-0.382683432365087,0.,-0.923879532511288));
#594=DIRECTION('ref_axis',(-0.923879532511288,0.,0.382683432365087));
#595=DIRECTION('',(0.923879532511281,0.,-0.382683432365105));
#596=DIRECTION('',(-0.923879532511288,0.,0.382683432365087));
#597=DIRECTION('center_axis',(0.,1.,0.));
#598=DIRECTION('ref_axis',(1.,0.,0.));
#599=DIRECTION('center_axis',(0.,1.,0.));
#600=DIRECTION('ref_axis',(1.,0.,0.));
#601=CARTESIAN_POINT('',(0.,0.,0.));
#602=CARTESIAN_POINT('Origin',(375.279866106087,0.,-155.4460102267));
#603=CARTESIAN_POINT('',(405.72805310157,10.,-81.9375842325269));
#604=CARTESIAN_POINT('',(405.72805310157,4.,-81.9375842325269));
#605=CARTESIAN_POINT('',(405.72805310157,0.,-81.9375842325267));
#606=CARTESIAN_POINT('',(375.279866106085,10.,-155.446010226699));
#607=CARTESIAN_POINT('',(404.023494611484,10.,-86.0527524571505));
#608=CARTESIAN_POINT('',(375.279866106085,4.,-155.446010226699));
#609=CARTESIAN_POINT('',(375.279866106087,0.,-155.4460102267));
#610=CARTESIAN_POINT('',(403.674099464522,4.,-86.8962669595726));
#611=CARTESIAN_POINT('Origin',(392.547545099791,10.,1.06581410364015E-13));
#612=CARTESIAN_POINT('',(400.,10.,-79.5649469518632));
#613=CARTESIAN_POINT('',(400.,10.,-79.5649469518632));
#614=CARTESIAN_POINT('',(406.2,10.,-79.5649469518632));
#615=CARTESIAN_POINT('',(399.273772549896,10.,-79.5649469518632));
#616=CARTESIAN_POINT('',(406.2,10.,79.5649469518631));
#617=CARTESIAN_POINT('',(406.2,10.,-40.3792105780705));
#618=CARTESIAN_POINT('',(400.,10.,79.5649469518632));
#619=CARTESIAN_POINT('',(400.,10.,79.5649469518632));
#620=CARTESIAN_POINT('',(405.72805310157,10.,81.937584232527));
#621=CARTESIAN_POINT('',(385.525876139774,10.,73.5695685454901));
#622=CARTESIAN_POINT('',(375.279866106085,10.,155.4460102267));
#623=CARTESIAN_POINT('',(419.475949511692,10.,48.7472262651075));
#624=CARTESIAN_POINT('',(378.790608329628,10.,156.900207269687));
#625=CARTESIAN_POINT('',(375.095090199582,10.,155.369473540227));
#626=CARTESIAN_POINT('',(409.238795325113,10.,83.3917812755144));
#627=CARTESIAN_POINT('',(409.238795325113,10.,83.3917812755144));
#628=CARTESIAN_POINT('',(410.,10.,79.5649469518634));
#629=CARTESIAN_POINT('Origin',(400.,10.,79.5649469518635));
#630=CARTESIAN_POINT('',(410.,10.,-79.5649469518632));
#631=CARTESIAN_POINT('',(410.,10.,-79.5649469518632));
#632=CARTESIAN_POINT('',(409.238795325113,10.,-83.3917812755141));
#633=CARTESIAN_POINT('Origin',(400.,10.,-79.5649469518632));
#634=CARTESIAN_POINT('',(378.790608329628,10.,-156.900207269687));
#635=CARTESIAN_POINT('',(348.342421334142,10.,-230.40863326386));
#636=CARTESIAN_POINT('',(375.095090199583,10.,-155.369473540226));
#637=CARTESIAN_POINT('Origin',(406.2,0.,-80.7584211561411));
#638=CARTESIAN_POINT('',(406.2,4.,-79.5649469518632));
#639=CARTESIAN_POINT('',(406.2,0.,-79.5649469518632));
#640=CARTESIAN_POINT('',(406.2,4.,79.5649469518631));
#641=CARTESIAN_POINT('',(406.2,4.,-40.3792105780705));
#642=CARTESIAN_POINT('',(406.2,0.,79.5649469518632));
#643=CARTESIAN_POINT('Origin',(406.184775906502,0.,80.8349578426141));
#644=CARTESIAN_POINT('',(405.72805310157,4.,81.937584232527));
#645=CARTESIAN_POINT('',(405.72805310157,0.,81.9375842325271));
#646=CARTESIAN_POINT('',(375.279866106085,4.,155.4460102267));
#647=CARTESIAN_POINT('',(419.126554364731,4.,49.5907407675302));
#648=CARTESIAN_POINT('',(375.279866106086,0.,155.4460102267));
#649=CARTESIAN_POINT('Origin',(365.856294874469,0.,151.542639216576));
#650=CARTESIAN_POINT('',(369.551813004515,4.,153.073372946036));
#651=CARTESIAN_POINT('',(370.475692537026,4.,153.456056378401));
#652=CARTESIAN_POINT('',(369.551813004515,10.,153.073372946036));
#653=CARTESIAN_POINT('',(369.551813004515,0.,153.073372946036));
#654=CARTESIAN_POINT('',(365.856294874469,10.,151.542639216576));
#655=CARTESIAN_POINT('',(369.551813004515,10.,153.073372946036));
#656=CARTESIAN_POINT('',(365.856294874469,0.,151.542639216576));
#657=CARTESIAN_POINT('',(365.856294874469,0.,151.542639216576));
#658=CARTESIAN_POINT('',(378.790608329628,0.,156.900207269687));
#659=CARTESIAN_POINT('',(369.551813004515,0.,153.073372946036));
#660=CARTESIAN_POINT('',(378.790608329628,0.,156.900207269687));
#661=CARTESIAN_POINT('Origin',(405.543277195068,0.,-81.8610475460538));
#662=CARTESIAN_POINT('',(400.,4.,-79.5649469518632));
#663=CARTESIAN_POINT('',(383.489451987968,4.,-72.7260540430673));
#664=CARTESIAN_POINT('',(400.,0.,-79.5649469518632));
#665=CARTESIAN_POINT('Origin',(400.,0.,-79.5649469518632));
#666=CARTESIAN_POINT('',(393.887953251129,4.,-79.5649469518632));
#667=CARTESIAN_POINT('Origin',(387.775906502257,4.,1.95399252334028E-13));
#668=CARTESIAN_POINT('',(369.551813004515,4.,-153.073372946036));
#669=CARTESIAN_POINT('',(372.323451602049,4.,-154.221423243131));
#670=CARTESIAN_POINT('',(413.170139860695,4.,-47.7694166818228));
#671=CARTESIAN_POINT('Origin',(387.775906502257,4.,1.95399252334028E-13));
#672=CARTESIAN_POINT('',(400.,4.,79.5649469518632));
#673=CARTESIAN_POINT('',(400.,4.,39.7824734759317));
#674=CARTESIAN_POINT('',(396.887953251129,4.,79.5649469518632));
#675=CARTESIAN_POINT('Origin',(406.,0.,79.5649469518632));
#676=CARTESIAN_POINT('',(400.,0.,79.5649469518632));
#677=CARTESIAN_POINT('Origin',(400.,0.,79.5649469518635));
#678=CARTESIAN_POINT('',(380.717813390434,4.,71.5780037459724));
#679=CARTESIAN_POINT('Origin',(387.775906502257,4.,1.95399252334028E-13));
#680=CARTESIAN_POINT('',(397.946046362952,4.,84.5236296789094));
#681=CARTESIAN_POINT('Origin',(409.238795325113,0.,-83.3917812755141));
#682=CARTESIAN_POINT('',(378.790608329628,0.,-156.900207269687));
#683=CARTESIAN_POINT('',(409.238795325113,0.,-83.3917812755141));
#684=CARTESIAN_POINT('',(348.342421334142,0.,-230.40863326386));
#685=CARTESIAN_POINT('',(378.790608329628,0.,-156.900207269687));
#686=CARTESIAN_POINT('',(409.238795325113,0.,-83.3917812755141));
#687=CARTESIAN_POINT('Origin',(400.,0.,-79.5649469518632));
#688=CARTESIAN_POINT('',(410.,0.,-79.5649469518632));
#689=CARTESIAN_POINT('Origin',(400.,0.,-79.5649469518632));
#690=CARTESIAN_POINT('',(410.,0.,-79.5649469518632));
#691=CARTESIAN_POINT('Origin',(410.,0.,79.5649469518631));
#692=CARTESIAN_POINT('',(410.,0.,79.5649469518634));
#693=CARTESIAN_POINT('',(410.,0.,-79.5649469518632));
#694=CARTESIAN_POINT('',(410.,0.,79.5649469518634));
#695=CARTESIAN_POINT('Origin',(400.,0.,79.5649469518635));
#696=CARTESIAN_POINT('',(409.238795325113,0.,83.3917812755144));
#697=CARTESIAN_POINT('Origin',(400.,0.,79.5649469518635));
#698=CARTESIAN_POINT('',(409.238795325113,0.,83.3917812755144));
#699=CARTESIAN_POINT('Origin',(378.790608329628,0.,156.900207269687));
#700=CARTESIAN_POINT('',(409.238795325113,0.,83.3917812755144));
#701=CARTESIAN_POINT('Origin',(369.551813004515,0.,153.073372946036));
#702=CARTESIAN_POINT('',(400.,0.,79.5649469518632));
#703=CARTESIAN_POINT('',(339.103626009029,10.,226.581798940209));
#704=CARTESIAN_POINT('Origin',(400.,0.,79.5649469518632));
#705=CARTESIAN_POINT('',(400.,0.,-79.5649469518632));
#706=CARTESIAN_POINT('',(400.,10.,79.5649469518632));
#707=CARTESIAN_POINT('Origin',(400.,0.,-79.5649469518632));
#708=CARTESIAN_POINT('',(369.551813004515,10.,-153.073372946036));
#709=CARTESIAN_POINT('',(369.551813004515,0.,-153.073372946036));
#710=CARTESIAN_POINT('',(400.,10.,-79.5649469518632));
#711=CARTESIAN_POINT('Origin',(0.,0.,0.));
#712=CARTESIAN_POINT('',(365.85629487447,0.,-151.542639216576));
#713=CARTESIAN_POINT('Origin',(0.,0.,0.));
#714=CARTESIAN_POINT('',(365.85629487447,10.,-151.542639216576));
#715=CARTESIAN_POINT('Origin',(0.,10.,0.));
#716=CARTESIAN_POINT('',(365.85629487447,0.,-151.542639216576));
#717=CARTESIAN_POINT('Origin',(369.551813004515,0.,-153.073372946036));
#718=CARTESIAN_POINT('',(375.095090199583,0.,-155.369473540226));
#719=CARTESIAN_POINT('',(369.551813004515,10.,-153.073372946036));
#720=CARTESIAN_POINT('Origin',(382.928147437235,10.,1.24344978758018E-13));
#721=CARTESIAN_POINT('Origin',(382.928147437235,0.,1.24344978758018E-13));
#722=UNCERTAINTY_MEASURE_WITH_UNIT(LENGTH_MEASURE(0.01),#726,
'DISTANCE_ACCURACY_VALUE',
'Maximum model space distance between geometric entities at asserted c
onnectivities');
#723=UNCERTAINTY_MEASURE_WITH_UNIT(LENGTH_MEASURE(0.01),#726,
'DISTANCE_ACCURACY_VALUE',
'Maximum model space distance between geometric entities at asserted c
onnectivities');
#724=(
GEOMETRIC_REPRESENTATION_CONTEXT(3)
GLOBAL_UNCERTAINTY_ASSIGNED_CONTEXT((#722))
GLOBAL_UNIT_ASSIGNED_CONTEXT((#726,#728,#729))
REPRESENTATION_CONTEXT('','3D')
);
#725=(
GEOMETRIC_REPRESENTATION_CONTEXT(3)
GLOBAL_UNCERTAINTY_ASSIGNED_CONTEXT((#723))
GLOBAL_UNIT_ASSIGNED_CONTEXT((#726,#728,#729))
REPRESENTATION_CONTEXT('','3D')
);
#726=(
LENGTH_UNIT()
NAMED_UNIT(*)
SI_UNIT(.MILLI.,.METRE.)
);
#727=(
LENGTH_UNIT()
NAMED_UNIT(*)
SI_UNIT($,.METRE.)
);
#728=(
NAMED_UNIT(*)
PLANE_ANGLE_UNIT()
SI_UNIT($,.RADIAN.)
);
#729=(
NAMED_UNIT(*)
SI_UNIT($,.STERADIAN.)
SOLID_ANGLE_UNIT()
);
#730=SHAPE_DEFINITION_REPRESENTATION(#731,#732);
#731=PRODUCT_DEFINITION_SHAPE('',$,#734);
#732=SHAPE_REPRESENTATION('',(#454),#724);
#733=PRODUCT_DEFINITION_CONTEXT('part definition',#738,'design');
#734=PRODUCT_DEFINITION('TopSideAngleThingy','TopSideAngleThingy v5',#735,
#733);
#735=PRODUCT_DEFINITION_FORMATION('',$,#740);
#736=PRODUCT_RELATED_PRODUCT_CATEGORY('TopSideAngleThingy v5',
'TopSideAngleThingy v5',(#740));
#737=APPLICATION_PROTOCOL_DEFINITION('international standard',
'automotive_design',2009,#738);
#738=APPLICATION_CONTEXT(
'Core Data for Automotive Mechanical Design Process');
#739=PRODUCT_CONTEXT('part definition',#738,'mechanical');
#740=PRODUCT('TopSideAngleThingy','TopSideAngleThingy v5',$,(#739));
#741=PRESENTATION_STYLE_ASSIGNMENT((#742));
#742=SURFACE_STYLE_USAGE(.BOTH.,#743);
#743=SURFACE_SIDE_STYLE('',(#744));
#744=SURFACE_STYLE_FILL_AREA(#745);
#745=FILL_AREA_STYLE('Steel - Satin',(#746));
#746=FILL_AREA_STYLE_COLOUR('Steel - Satin',#747);
#747=COLOUR_RGB('Steel - Satin',0.627450980392157,0.627450980392157,0.627450980392157);
ENDSEC;
END-ISO-10303-21;
