ISO-10303-21;
HEADER;
/* Generated by software containing ST-Developer
 * from STEP Tools, Inc. (www.steptools.com) 
 */

FILE_DESCRIPTION(
/* description */ (''),
/* implementation_level */ '2;1');

FILE_NAME(
/* name */ 'dde005b8-3e59-43bd-9429-005a3d011cbb.stp',
/* time_stamp */ '2026-08-07T12:50:51Z',
/* author */ (''),
/* organization */ (''),
/* preprocessor_version */ 'ST-DEVELOPER v20.2',
/* originating_system */ 'Autodesk Translation Framework v15.15.0.0',
/* authorisation */ '');

FILE_SCHEMA (('AUTOMOTIVE_DESIGN { 1 0 10303 214 3 1 1 }'));
ENDSEC;

DATA;
#10=MECHANICAL_DESIGN_GEOMETRIC_PRESENTATION_REPRESENTATION('',(#13),#506);
#11=SHAPE_REPRESENTATION_RELATIONSHIP('SRR','None',#513,#12);
#12=ADVANCED_BREP_SHAPE_REPRESENTATION('',(#14),#505);
#13=STYLED_ITEM('',(#522),#14);
#14=MANIFOLD_SOLID_BREP('Body1',#302);
#15=CYLINDRICAL_SURFACE('',#324,2.15000000000001);
#16=CYLINDRICAL_SURFACE('',#325,2.15);
#17=CYLINDRICAL_SURFACE('',#336,2.15000000000001);
#18=CYLINDRICAL_SURFACE('',#337,2.15);
#19=CYLINDRICAL_SURFACE('',#340,47.8160033210801);
#20=FACE_BOUND('',#54,.T.);
#21=FACE_BOUND('',#55,.T.);
#22=FACE_BOUND('',#58,.T.);
#23=FACE_BOUND('',#59,.T.);
#24=FACE_BOUND('',#65,.T.);
#25=FACE_BOUND('',#66,.T.);
#26=FACE_BOUND('',#69,.T.);
#27=FACE_BOUND('',#70,.T.);
#28=CIRCLE('',#317,2.15);
#29=CIRCLE('',#318,2.15000000000001);
#30=CIRCLE('',#321,2.15);
#31=CIRCLE('',#322,2.15000000000001);
#32=CIRCLE('',#327,47.8160033210801);
#33=CIRCLE('',#329,2.15);
#34=CIRCLE('',#330,2.15000000000001);
#35=CIRCLE('',#333,2.15);
#36=CIRCLE('',#334,2.15000000000001);
#37=CIRCLE('',#339,47.8160033210801);
#38=FACE_OUTER_BOUND('',#53,.T.);
#39=FACE_OUTER_BOUND('',#56,.T.);
#40=FACE_OUTER_BOUND('',#57,.T.);
#41=FACE_OUTER_BOUND('',#60,.T.);
#42=FACE_OUTER_BOUND('',#61,.T.);
#43=FACE_OUTER_BOUND('',#62,.T.);
#44=FACE_OUTER_BOUND('',#63,.T.);
#45=FACE_OUTER_BOUND('',#64,.T.);
#46=FACE_OUTER_BOUND('',#67,.T.);
#47=FACE_OUTER_BOUND('',#68,.T.);
#48=FACE_OUTER_BOUND('',#71,.T.);
#49=FACE_OUTER_BOUND('',#72,.T.);
#50=FACE_OUTER_BOUND('',#73,.T.);
#51=FACE_OUTER_BOUND('',#74,.T.);
#52=FACE_OUTER_BOUND('',#75,.T.);
#53=EDGE_LOOP('',(#199,#200,#201,#202));
#54=EDGE_LOOP('',(#203));
#55=EDGE_LOOP('',(#204));
#56=EDGE_LOOP('',(#205,#206,#207,#208));
#57=EDGE_LOOP('',(#209,#210,#211,#212));
#58=EDGE_LOOP('',(#213));
#59=EDGE_LOOP('',(#214));
#60=EDGE_LOOP('',(#215,#216,#217,#218));
#61=EDGE_LOOP('',(#219,#220,#221,#222));
#62=EDGE_LOOP('',(#223,#224,#225,#226));
#63=EDGE_LOOP('',(#227,#228,#229,#230,#231,#232,#233,#234,#235));
#64=EDGE_LOOP('',(#236,#237,#238,#239));
#65=EDGE_LOOP('',(#240));
#66=EDGE_LOOP('',(#241));
#67=EDGE_LOOP('',(#242,#243,#244,#245));
#68=EDGE_LOOP('',(#246,#247,#248,#249));
#69=EDGE_LOOP('',(#250));
#70=EDGE_LOOP('',(#251));
#71=EDGE_LOOP('',(#252,#253,#254,#255));
#72=EDGE_LOOP('',(#256,#257,#258,#259));
#73=EDGE_LOOP('',(#260,#261,#262,#263));
#74=EDGE_LOOP('',(#264,#265,#266,#267,#268,#269,#270,#271,#272));
#75=EDGE_LOOP('',(#273,#274,#275,#276));
#76=LINE('',#426,#105);
#77=LINE('',#428,#106);
#78=LINE('',#430,#107);
#79=LINE('',#431,#108);
#80=LINE('',#438,#109);
#81=LINE('',#440,#110);
#82=LINE('',#441,#111);
#83=LINE('',#444,#112);
#84=LINE('',#446,#113);
#85=LINE('',#447,#114);
#86=LINE('',#454,#115);
#87=LINE('',#456,#116);
#88=LINE('',#457,#117);
#89=LINE('',#459,#118);
#90=LINE('',#461,#119);
#91=LINE('',#466,#120);
#92=LINE('',#468,#121);
#93=LINE('',#470,#122);
#94=LINE('',#471,#123);
#95=LINE('',#474,#124);
#96=LINE('',#475,#125);
#97=LINE('',#482,#126);
#98=LINE('',#483,#127);
#99=LINE('',#486,#128);
#100=LINE('',#487,#129);
#101=LINE('',#494,#130);
#102=LINE('',#495,#131);
#103=LINE('',#497,#132);
#104=LINE('',#499,#133);
#105=VECTOR('',#345,10.);
#106=VECTOR('',#346,10.);
#107=VECTOR('',#347,10.);
#108=VECTOR('',#348,10.);
#109=VECTOR('',#355,10.);
#110=VECTOR('',#356,10.);
#111=VECTOR('',#357,10.);
#112=VECTOR('',#360,10.);
#113=VECTOR('',#361,10.);
#114=VECTOR('',#362,10.);
#115=VECTOR('',#369,10.);
#116=VECTOR('',#370,10.);
#117=VECTOR('',#371,10.);
#118=VECTOR('',#374,2.15000000000001);
#119=VECTOR('',#377,2.15);
#120=VECTOR('',#382,10.);
#121=VECTOR('',#383,10.);
#122=VECTOR('',#384,10.);
#123=VECTOR('',#385,10.);
#124=VECTOR('',#388,10.);
#125=VECTOR('',#389,10.);
#126=VECTOR('',#396,10.);
#127=VECTOR('',#397,10.);
#128=VECTOR('',#400,10.);
#129=VECTOR('',#401,10.);
#130=VECTOR('',#408,10.);
#131=VECTOR('',#409,10.);
#132=VECTOR('',#412,2.15000000000001);
#133=VECTOR('',#415,2.15);
#134=VERTEX_POINT('',#424);
#135=VERTEX_POINT('',#425);
#136=VERTEX_POINT('',#427);
#137=VERTEX_POINT('',#429);
#138=VERTEX_POINT('',#432);
#139=VERTEX_POINT('',#434);
#140=VERTEX_POINT('',#437);
#141=VERTEX_POINT('',#439);
#142=VERTEX_POINT('',#443);
#143=VERTEX_POINT('',#445);
#144=VERTEX_POINT('',#448);
#145=VERTEX_POINT('',#450);
#146=VERTEX_POINT('',#453);
#147=VERTEX_POINT('',#455);
#148=VERTEX_POINT('',#463);
#149=VERTEX_POINT('',#465);
#150=VERTEX_POINT('',#467);
#151=VERTEX_POINT('',#469);
#152=VERTEX_POINT('',#473);
#153=VERTEX_POINT('',#476);
#154=VERTEX_POINT('',#478);
#155=VERTEX_POINT('',#481);
#156=VERTEX_POINT('',#485);
#157=VERTEX_POINT('',#488);
#158=VERTEX_POINT('',#490);
#159=VERTEX_POINT('',#493);
#160=EDGE_CURVE('',#134,#135,#76,.T.);
#161=EDGE_CURVE('',#135,#136,#77,.T.);
#162=EDGE_CURVE('',#136,#137,#78,.T.);
#163=EDGE_CURVE('',#134,#137,#79,.T.);
#164=EDGE_CURVE('',#138,#138,#28,.T.);
#165=EDGE_CURVE('',#139,#139,#29,.T.);
#166=EDGE_CURVE('',#135,#140,#80,.T.);
#167=EDGE_CURVE('',#140,#141,#81,.T.);
#168=EDGE_CURVE('',#141,#136,#82,.T.);
#169=EDGE_CURVE('',#140,#142,#83,.T.);
#170=EDGE_CURVE('',#142,#143,#84,.T.);
#171=EDGE_CURVE('',#143,#141,#85,.T.);
#172=EDGE_CURVE('',#144,#144,#30,.T.);
#173=EDGE_CURVE('',#145,#145,#31,.T.);
#174=EDGE_CURVE('',#142,#146,#86,.T.);
#175=EDGE_CURVE('',#146,#147,#87,.T.);
#176=EDGE_CURVE('',#147,#143,#88,.T.);
#177=EDGE_CURVE('',#139,#145,#89,.T.);
#178=EDGE_CURVE('',#138,#144,#90,.T.);
#179=EDGE_CURVE('',#148,#147,#32,.T.);
#180=EDGE_CURVE('',#148,#149,#91,.T.);
#181=EDGE_CURVE('',#149,#150,#92,.T.);
#182=EDGE_CURVE('',#150,#151,#93,.T.);
#183=EDGE_CURVE('',#151,#137,#94,.T.);
#184=EDGE_CURVE('',#134,#152,#95,.T.);
#185=EDGE_CURVE('',#152,#151,#96,.T.);
#186=EDGE_CURVE('',#153,#153,#33,.T.);
#187=EDGE_CURVE('',#154,#154,#34,.T.);
#188=EDGE_CURVE('',#152,#155,#97,.T.);
#189=EDGE_CURVE('',#155,#150,#98,.T.);
#190=EDGE_CURVE('',#155,#156,#99,.T.);
#191=EDGE_CURVE('',#156,#149,#100,.T.);
#192=EDGE_CURVE('',#157,#157,#35,.T.);
#193=EDGE_CURVE('',#158,#158,#36,.T.);
#194=EDGE_CURVE('',#156,#159,#101,.T.);
#195=EDGE_CURVE('',#159,#148,#102,.T.);
#196=EDGE_CURVE('',#154,#158,#103,.T.);
#197=EDGE_CURVE('',#153,#157,#104,.T.);
#198=EDGE_CURVE('',#146,#159,#37,.T.);
#199=ORIENTED_EDGE('',*,*,#160,.T.);
#200=ORIENTED_EDGE('',*,*,#161,.T.);
#201=ORIENTED_EDGE('',*,*,#162,.T.);
#202=ORIENTED_EDGE('',*,*,#163,.F.);
#203=ORIENTED_EDGE('',*,*,#164,.F.);
#204=ORIENTED_EDGE('',*,*,#165,.F.);
#205=ORIENTED_EDGE('',*,*,#166,.T.);
#206=ORIENTED_EDGE('',*,*,#167,.T.);
#207=ORIENTED_EDGE('',*,*,#168,.T.);
#208=ORIENTED_EDGE('',*,*,#161,.F.);
#209=ORIENTED_EDGE('',*,*,#169,.T.);
#210=ORIENTED_EDGE('',*,*,#170,.T.);
#211=ORIENTED_EDGE('',*,*,#171,.T.);
#212=ORIENTED_EDGE('',*,*,#167,.F.);
#213=ORIENTED_EDGE('',*,*,#172,.F.);
#214=ORIENTED_EDGE('',*,*,#173,.F.);
#215=ORIENTED_EDGE('',*,*,#174,.T.);
#216=ORIENTED_EDGE('',*,*,#175,.T.);
#217=ORIENTED_EDGE('',*,*,#176,.T.);
#218=ORIENTED_EDGE('',*,*,#170,.F.);
#219=ORIENTED_EDGE('',*,*,#165,.T.);
#220=ORIENTED_EDGE('',*,*,#177,.T.);
#221=ORIENTED_EDGE('',*,*,#173,.T.);
#222=ORIENTED_EDGE('',*,*,#177,.F.);
#223=ORIENTED_EDGE('',*,*,#164,.T.);
#224=ORIENTED_EDGE('',*,*,#178,.T.);
#225=ORIENTED_EDGE('',*,*,#172,.T.);
#226=ORIENTED_EDGE('',*,*,#178,.F.);
#227=ORIENTED_EDGE('',*,*,#179,.F.);
#228=ORIENTED_EDGE('',*,*,#180,.T.);
#229=ORIENTED_EDGE('',*,*,#181,.T.);
#230=ORIENTED_EDGE('',*,*,#182,.T.);
#231=ORIENTED_EDGE('',*,*,#183,.T.);
#232=ORIENTED_EDGE('',*,*,#162,.F.);
#233=ORIENTED_EDGE('',*,*,#168,.F.);
#234=ORIENTED_EDGE('',*,*,#171,.F.);
#235=ORIENTED_EDGE('',*,*,#176,.F.);
#236=ORIENTED_EDGE('',*,*,#184,.F.);
#237=ORIENTED_EDGE('',*,*,#163,.T.);
#238=ORIENTED_EDGE('',*,*,#183,.F.);
#239=ORIENTED_EDGE('',*,*,#185,.F.);
#240=ORIENTED_EDGE('',*,*,#186,.T.);
#241=ORIENTED_EDGE('',*,*,#187,.T.);
#242=ORIENTED_EDGE('',*,*,#188,.F.);
#243=ORIENTED_EDGE('',*,*,#185,.T.);
#244=ORIENTED_EDGE('',*,*,#182,.F.);
#245=ORIENTED_EDGE('',*,*,#189,.F.);
#246=ORIENTED_EDGE('',*,*,#190,.F.);
#247=ORIENTED_EDGE('',*,*,#189,.T.);
#248=ORIENTED_EDGE('',*,*,#181,.F.);
#249=ORIENTED_EDGE('',*,*,#191,.F.);
#250=ORIENTED_EDGE('',*,*,#192,.T.);
#251=ORIENTED_EDGE('',*,*,#193,.T.);
#252=ORIENTED_EDGE('',*,*,#194,.F.);
#253=ORIENTED_EDGE('',*,*,#191,.T.);
#254=ORIENTED_EDGE('',*,*,#180,.F.);
#255=ORIENTED_EDGE('',*,*,#195,.F.);
#256=ORIENTED_EDGE('',*,*,#187,.F.);
#257=ORIENTED_EDGE('',*,*,#196,.T.);
#258=ORIENTED_EDGE('',*,*,#193,.F.);
#259=ORIENTED_EDGE('',*,*,#196,.F.);
#260=ORIENTED_EDGE('',*,*,#186,.F.);
#261=ORIENTED_EDGE('',*,*,#197,.T.);
#262=ORIENTED_EDGE('',*,*,#192,.F.);
#263=ORIENTED_EDGE('',*,*,#197,.F.);
#264=ORIENTED_EDGE('',*,*,#184,.T.);
#265=ORIENTED_EDGE('',*,*,#188,.T.);
#266=ORIENTED_EDGE('',*,*,#190,.T.);
#267=ORIENTED_EDGE('',*,*,#194,.T.);
#268=ORIENTED_EDGE('',*,*,#198,.F.);
#269=ORIENTED_EDGE('',*,*,#174,.F.);
#270=ORIENTED_EDGE('',*,*,#169,.F.);
#271=ORIENTED_EDGE('',*,*,#166,.F.);
#272=ORIENTED_EDGE('',*,*,#160,.F.);
#273=ORIENTED_EDGE('',*,*,#198,.T.);
#274=ORIENTED_EDGE('',*,*,#195,.T.);
#275=ORIENTED_EDGE('',*,*,#179,.T.);
#276=ORIENTED_EDGE('',*,*,#175,.F.);
#277=PLANE('',#316);
#278=PLANE('',#319);
#279=PLANE('',#320);
#280=PLANE('',#323);
#281=PLANE('',#326);
#282=PLANE('',#328);
#283=PLANE('',#331);
#284=PLANE('',#332);
#285=PLANE('',#335);
#286=PLANE('',#338);
#287=ADVANCED_FACE('',(#38,#20,#21),#277,.F.);
#288=ADVANCED_FACE('',(#39),#278,.F.);
#289=ADVANCED_FACE('',(#40,#22,#23),#279,.F.);
#290=ADVANCED_FACE('',(#41),#280,.F.);
#291=ADVANCED_FACE('',(#42),#15,.F.);
#292=ADVANCED_FACE('',(#43),#16,.F.);
#293=ADVANCED_FACE('',(#44),#281,.T.);
#294=ADVANCED_FACE('',(#45,#24,#25),#282,.T.);
#295=ADVANCED_FACE('',(#46),#283,.T.);
#296=ADVANCED_FACE('',(#47,#26,#27),#284,.T.);
#297=ADVANCED_FACE('',(#48),#285,.T.);
#298=ADVANCED_FACE('',(#49),#17,.F.);
#299=ADVANCED_FACE('',(#50),#18,.F.);
#300=ADVANCED_FACE('',(#51),#286,.F.);
#301=ADVANCED_FACE('',(#52),#19,.T.);
#302=CLOSED_SHELL('',(#287,#288,#289,#290,#291,#292,#293,#294,#295,#296,
#297,#298,#299,#300,#301));
#303=DERIVED_UNIT_ELEMENT(#305,1.);
#304=DERIVED_UNIT_ELEMENT(#508,-3.);
#305=(
MASS_UNIT()
NAMED_UNIT(*)
SI_UNIT(.KILO.,.GRAM.)
);
#306=DERIVED_UNIT((#303,#304));
#307=MEASURE_REPRESENTATION_ITEM('density measure',
POSITIVE_RATIO_MEASURE(7850.),#306);
#308=PROPERTY_DEFINITION_REPRESENTATION(#313,#310);
#309=PROPERTY_DEFINITION_REPRESENTATION(#314,#311);
#310=REPRESENTATION('material name',(#312),#505);
#311=REPRESENTATION('density',(#307),#505);
#312=DESCRIPTIVE_REPRESENTATION_ITEM('Steel','Steel');
#313=PROPERTY_DEFINITION('material property','material name',#515);
#314=PROPERTY_DEFINITION('material property','density of part',#515);
#315=AXIS2_PLACEMENT_3D('',#422,#341,#342);
#316=AXIS2_PLACEMENT_3D('',#423,#343,#344);
#317=AXIS2_PLACEMENT_3D('',#433,#349,#350);
#318=AXIS2_PLACEMENT_3D('',#435,#351,#352);
#319=AXIS2_PLACEMENT_3D('',#436,#353,#354);
#320=AXIS2_PLACEMENT_3D('',#442,#358,#359);
#321=AXIS2_PLACEMENT_3D('',#449,#363,#364);
#322=AXIS2_PLACEMENT_3D('',#451,#365,#366);
#323=AXIS2_PLACEMENT_3D('',#452,#367,#368);
#324=AXIS2_PLACEMENT_3D('',#458,#372,#373);
#325=AXIS2_PLACEMENT_3D('',#460,#375,#376);
#326=AXIS2_PLACEMENT_3D('',#462,#378,#379);
#327=AXIS2_PLACEMENT_3D('',#464,#380,#381);
#328=AXIS2_PLACEMENT_3D('',#472,#386,#387);
#329=AXIS2_PLACEMENT_3D('',#477,#390,#391);
#330=AXIS2_PLACEMENT_3D('',#479,#392,#393);
#331=AXIS2_PLACEMENT_3D('',#480,#394,#395);
#332=AXIS2_PLACEMENT_3D('',#484,#398,#399);
#333=AXIS2_PLACEMENT_3D('',#489,#402,#403);
#334=AXIS2_PLACEMENT_3D('',#491,#404,#405);
#335=AXIS2_PLACEMENT_3D('',#492,#406,#407);
#336=AXIS2_PLACEMENT_3D('',#496,#410,#411);
#337=AXIS2_PLACEMENT_3D('',#498,#413,#414);
#338=AXIS2_PLACEMENT_3D('',#500,#416,#417);
#339=AXIS2_PLACEMENT_3D('',#501,#418,#419);
#340=AXIS2_PLACEMENT_3D('',#502,#420,#421);
#341=DIRECTION('axis',(0.,0.,1.));
#342=DIRECTION('refdir',(1.,0.,0.));
#343=DIRECTION('center_axis',(-0.707106781186539,0.,0.707106781186556));
#344=DIRECTION('ref_axis',(0.707106781186556,0.,0.707106781186539));
#345=DIRECTION('',(-0.707106781186556,0.,-0.707106781186539));
#346=DIRECTION('',(0.,1.,0.));
#347=DIRECTION('',(0.707106781186556,0.,0.707106781186539));
#348=DIRECTION('',(0.,1.,0.));
#349=DIRECTION('center_axis',(0.707106781186539,0.,-0.707106781186556));
#350=DIRECTION('ref_axis',(-0.707106781186556,0.,-0.707106781186539));
#351=DIRECTION('center_axis',(0.707106781186539,0.,-0.707106781186556));
#352=DIRECTION('ref_axis',(-0.707106781186556,0.,-0.707106781186539));
#353=DIRECTION('center_axis',(0.707106781186556,0.,0.707106781186539));
#354=DIRECTION('ref_axis',(0.707106781186539,0.,-0.707106781186556));
#355=DIRECTION('',(-0.707106781186539,0.,0.707106781186556));
#356=DIRECTION('',(0.,1.,0.));
#357=DIRECTION('',(0.707106781186539,0.,-0.707106781186556));
#358=DIRECTION('center_axis',(0.707106781186539,0.,-0.707106781186556));
#359=DIRECTION('ref_axis',(-0.707106781186556,0.,-0.707106781186539));
#360=DIRECTION('',(0.707106781186556,0.,0.707106781186539));
#361=DIRECTION('',(0.,1.,0.));
#362=DIRECTION('',(-0.707106781186556,0.,-0.707106781186539));
#363=DIRECTION('center_axis',(-0.707106781186539,0.,0.707106781186556));
#364=DIRECTION('ref_axis',(-0.707106781186556,0.,-0.707106781186539));
#365=DIRECTION('center_axis',(-0.707106781186539,0.,0.707106781186556));
#366=DIRECTION('ref_axis',(-0.707106781186556,0.,-0.707106781186539));
#367=DIRECTION('center_axis',(0.707106781186556,0.,0.707106781186539));
#368=DIRECTION('ref_axis',(0.707106781186539,0.,-0.707106781186556));
#369=DIRECTION('',(-0.707106781186539,0.,0.707106781186556));
#370=DIRECTION('',(0.,1.,0.));
#371=DIRECTION('',(0.707106781186539,0.,-0.707106781186556));
#372=DIRECTION('center_axis',(-0.707106781186539,0.,0.707106781186556));
#373=DIRECTION('ref_axis',(-0.707106781186556,0.,-0.707106781186539));
#374=DIRECTION('',(-0.707106781186539,0.,0.707106781186556));
#375=DIRECTION('center_axis',(-0.707106781186539,0.,0.707106781186556));
#376=DIRECTION('ref_axis',(-0.707106781186556,0.,-0.707106781186539));
#377=DIRECTION('',(-0.707106781186539,0.,0.707106781186556));
#378=DIRECTION('center_axis',(0.,1.,0.));
#379=DIRECTION('ref_axis',(-0.38268343236509,0.,0.923879532511287));
#380=DIRECTION('center_axis',(0.,-1.,0.));
#381=DIRECTION('ref_axis',(-0.382683432365077,0.,0.923879532511292));
#382=DIRECTION('',(2.22044604925031E-16,0.,-1.));
#383=DIRECTION('',(1.,0.,1.11022302462516E-16));
#384=DIRECTION('',(1.11022302462516E-16,0.,-1.));
#385=DIRECTION('',(-1.,0.,-3.88578058618805E-16));
#386=DIRECTION('center_axis',(3.88578058618805E-16,0.,-1.));
#387=DIRECTION('ref_axis',(-1.,0.,-3.88578058618805E-16));
#388=DIRECTION('',(1.,0.,3.88578058618805E-16));
#389=DIRECTION('',(0.,1.,0.));
#390=DIRECTION('center_axis',(0.,0.,1.));
#391=DIRECTION('ref_axis',(1.,0.,0.));
#392=DIRECTION('center_axis',(0.,0.,1.));
#393=DIRECTION('ref_axis',(1.,0.,0.));
#394=DIRECTION('center_axis',(1.,0.,1.11022302462516E-16));
#395=DIRECTION('ref_axis',(1.11022302462516E-16,0.,-1.));
#396=DIRECTION('',(-1.11022302462516E-16,0.,1.));
#397=DIRECTION('',(0.,1.,0.));
#398=DIRECTION('center_axis',(-1.11022302462516E-16,0.,1.));
#399=DIRECTION('ref_axis',(1.,0.,1.11022302462516E-16));
#400=DIRECTION('',(-1.,0.,-1.11022302462516E-16));
#401=DIRECTION('',(0.,1.,0.));
#402=DIRECTION('center_axis',(0.,0.,-1.));
#403=DIRECTION('ref_axis',(1.,0.,0.));
#404=DIRECTION('center_axis',(0.,0.,-1.));
#405=DIRECTION('ref_axis',(1.,0.,0.));
#406=DIRECTION('center_axis',(1.,0.,2.22044604925031E-16));
#407=DIRECTION('ref_axis',(2.22044604925031E-16,0.,-1.));
#408=DIRECTION('',(-2.22044604925031E-16,0.,1.));
#409=DIRECTION('',(0.,1.,0.));
#410=DIRECTION('center_axis',(0.,0.,-1.));
#411=DIRECTION('ref_axis',(1.,0.,0.));
#412=DIRECTION('',(0.,0.,1.));
#413=DIRECTION('center_axis',(0.,0.,-1.));
#414=DIRECTION('ref_axis',(1.,0.,0.));
#415=DIRECTION('',(0.,0.,1.));
#416=DIRECTION('center_axis',(0.,1.,0.));
#417=DIRECTION('ref_axis',(-0.38268343236509,0.,0.923879532511287));
#418=DIRECTION('center_axis',(0.,1.,0.));
#419=DIRECTION('ref_axis',(-0.382683432365092,0.,0.923879532511286));
#420=DIRECTION('center_axis',(0.,1.,0.));
#421=DIRECTION('ref_axis',(-0.38268343236509,0.,0.923879532511287));
#422=CARTESIAN_POINT('',(0.,0.,0.));
#423=CARTESIAN_POINT('Origin',(-159.679854833338,0.,-76.9750544621404));
#424=CARTESIAN_POINT('',(-103.111312338414,0.,-20.4065119672173));
#425=CARTESIAN_POINT('',(-159.679854833338,0.,-76.9750544621404));
#426=CARTESIAN_POINT('',(-103.111312338414,0.,-20.4065119672173));
#427=CARTESIAN_POINT('',(-159.679854833338,350.,-76.9750544621404));
#428=CARTESIAN_POINT('',(-159.679854833338,0.,-76.9750544621404));
#429=CARTESIAN_POINT('',(-103.111312338414,350.,-20.4065119672173));
#430=CARTESIAN_POINT('',(-103.111312338414,350.,-20.4065119672173));
#431=CARTESIAN_POINT('',(-103.111312338414,0.,-20.4065119672173));
#432=CARTESIAN_POINT('',(-133.340823210573,50.,-50.6360228393756));
#433=CARTESIAN_POINT('Origin',(-134.861102790124,50.,-52.1563024189266));
#434=CARTESIAN_POINT('',(-133.340823210573,300.,-50.6360228393756));
#435=CARTESIAN_POINT('Origin',(-134.861102790124,300.,-52.1563024189266));
#436=CARTESIAN_POINT('Origin',(-166.750922645204,0.,-69.9039866502749));
#437=CARTESIAN_POINT('',(-166.750922645204,0.,-69.9039866502749));
#438=CARTESIAN_POINT('',(-159.679854833338,0.,-76.9750544621404));
#439=CARTESIAN_POINT('',(-166.750922645204,350.,-69.9039866502749));
#440=CARTESIAN_POINT('',(-166.750922645204,0.,-69.9039866502749));
#441=CARTESIAN_POINT('',(-159.679854833338,350.,-76.9750544621404));
#442=CARTESIAN_POINT('Origin',(-131.325568884191,0.,-34.478632889263));
#443=CARTESIAN_POINT('',(-131.325568884191,0.,-34.478632889263));
#444=CARTESIAN_POINT('',(-364.670806675755,0.,-267.823870680821));
#445=CARTESIAN_POINT('',(-131.325568884191,350.,-34.478632889263));
#446=CARTESIAN_POINT('',(-131.325568884191,0.,-34.478632889263));
#447=CARTESIAN_POINT('',(-364.670806675755,350.,-267.823870680821));
#448=CARTESIAN_POINT('',(-140.411891022438,50.,-43.56495502751));
#449=CARTESIAN_POINT('Origin',(-141.932170601989,50.,-45.0852346070611));
#450=CARTESIAN_POINT('',(-140.411891022438,300.,-43.56495502751));
#451=CARTESIAN_POINT('Origin',(-141.932170601989,300.,-45.0852346070611));
#452=CARTESIAN_POINT('Origin',(-136.902815589414,0.,-28.9013861840396));
#453=CARTESIAN_POINT('',(-136.902815589414,0.,-28.9013861840396));
#454=CARTESIAN_POINT('',(-131.325568884191,0.,-34.478632889263));
#455=CARTESIAN_POINT('',(-136.902815589414,350.,-28.9013861840396));
#456=CARTESIAN_POINT('',(-136.902815589414,0.,-28.9013861840396));
#457=CARTESIAN_POINT('',(-131.325568884191,350.,-34.478632889263));
#458=CARTESIAN_POINT('Origin',(-141.932170601989,300.,-45.0852346070611));
#459=CARTESIAN_POINT('',(-140.411891022438,300.,-43.56495502751));
#460=CARTESIAN_POINT('Origin',(-141.932170601989,50.,-45.0852346070611));
#461=CARTESIAN_POINT('',(-140.411891022438,50.,-43.56495502751));
#462=CARTESIAN_POINT('Origin',(-101.034437446117,350.,-25.4205314995533));
#463=CARTESIAN_POINT('',(-73.2103280791023,350.,-2.51909403598983));
#464=CARTESIAN_POINT('Origin',(-92.3748990334667,350.,-46.3265065792652));
#465=CARTESIAN_POINT('',(-73.2103280791023,350.,-10.4065119672174));
#466=CARTESIAN_POINT('',(-73.2103280791023,350.,-10.4065119672174));
#467=CARTESIAN_POINT('',(-23.1113123384139,350.,-10.4065119672173));
#468=CARTESIAN_POINT('',(256.789671920898,350.,-10.4065119672173));
#469=CARTESIAN_POINT('',(-23.1113123384139,350.,-20.4065119672173));
#470=CARTESIAN_POINT('',(-23.1113123384139,350.,-20.4065119672173));
#471=CARTESIAN_POINT('',(-103.111312338414,350.,-20.4065119672173));
#472=CARTESIAN_POINT('Origin',(-23.1113123384139,0.,-20.4065119672173));
#473=CARTESIAN_POINT('',(-23.1113123384139,0.,-20.4065119672173));
#474=CARTESIAN_POINT('',(-103.111312338414,0.,-20.4065119672173));
#475=CARTESIAN_POINT('',(-23.1113123384139,0.,-20.4065119672173));
#476=CARTESIAN_POINT('',(-60.3603280791023,50.,-20.4065119672174));
#477=CARTESIAN_POINT('Origin',(-58.2103280791023,50.,-20.4065119672174));
#478=CARTESIAN_POINT('',(-60.3603280791023,300.,-20.4065119672174));
#479=CARTESIAN_POINT('Origin',(-58.2103280791023,300.,-20.4065119672174));
#480=CARTESIAN_POINT('Origin',(-23.1113123384139,0.,-10.4065119672173));
#481=CARTESIAN_POINT('',(-23.1113123384139,0.,-10.4065119672173));
#482=CARTESIAN_POINT('',(-23.1113123384139,0.,-20.4065119672173));
#483=CARTESIAN_POINT('',(-23.1113123384139,0.,-10.4065119672173));
#484=CARTESIAN_POINT('Origin',(-73.2103280791023,0.,-10.4065119672174));
#485=CARTESIAN_POINT('',(-73.2103280791023,0.,-10.4065119672174));
#486=CARTESIAN_POINT('',(256.789671920898,0.,-10.4065119672173));
#487=CARTESIAN_POINT('',(-73.2103280791023,0.,-10.4065119672174));
#488=CARTESIAN_POINT('',(-60.3603280791023,50.,-10.4065119672174));
#489=CARTESIAN_POINT('Origin',(-58.2103280791023,50.,-10.4065119672174));
#490=CARTESIAN_POINT('',(-60.3603280791023,300.,-10.4065119672174));
#491=CARTESIAN_POINT('Origin',(-58.2103280791023,300.,-10.4065119672174));
#492=CARTESIAN_POINT('Origin',(-73.2103280791023,0.,-2.51909403598983));
#493=CARTESIAN_POINT('',(-73.2103280791023,0.,-2.51909403598983));
#494=CARTESIAN_POINT('',(-73.2103280791023,0.,-10.4065119672174));
#495=CARTESIAN_POINT('',(-73.2103280791023,0.,-2.51909403598983));
#496=CARTESIAN_POINT('Origin',(-58.2103280791023,300.,-10.4065119672174));
#497=CARTESIAN_POINT('',(-60.3603280791023,300.,-10.4065119672174));
#498=CARTESIAN_POINT('Origin',(-58.2103280791023,50.,-10.4065119672174));
#499=CARTESIAN_POINT('',(-60.3603280791023,50.,-10.4065119672174));
#500=CARTESIAN_POINT('Origin',(-101.034437446117,0.,-25.4205314995533));
#501=CARTESIAN_POINT('Origin',(-92.3748990334661,0.,-46.3265065792649));
#502=CARTESIAN_POINT('Origin',(-92.3748990334661,0.,-46.326506579265));
#503=UNCERTAINTY_MEASURE_WITH_UNIT(LENGTH_MEASURE(0.01),#507,
'DISTANCE_ACCURACY_VALUE',
'Maximum model space distance between geometric entities at asserted c
onnectivities');
#504=UNCERTAINTY_MEASURE_WITH_UNIT(LENGTH_MEASURE(0.01),#507,
'DISTANCE_ACCURACY_VALUE',
'Maximum model space distance between geometric entities at asserted c
onnectivities');
#505=(
GEOMETRIC_REPRESENTATION_CONTEXT(3)
GLOBAL_UNCERTAINTY_ASSIGNED_CONTEXT((#503))
GLOBAL_UNIT_ASSIGNED_CONTEXT((#507,#509,#510))
REPRESENTATION_CONTEXT('','3D')
);
#506=(
GEOMETRIC_REPRESENTATION_CONTEXT(3)
GLOBAL_UNCERTAINTY_ASSIGNED_CONTEXT((#504))
GLOBAL_UNIT_ASSIGNED_CONTEXT((#507,#509,#510))
REPRESENTATION_CONTEXT('','3D')
);
#507=(
LENGTH_UNIT()
NAMED_UNIT(*)
SI_UNIT(.MILLI.,.METRE.)
);
#508=(
LENGTH_UNIT()
NAMED_UNIT(*)
SI_UNIT($,.METRE.)
);
#509=(
NAMED_UNIT(*)
PLANE_ANGLE_UNIT()
SI_UNIT($,.RADIAN.)
);
#510=(
NAMED_UNIT(*)
SI_UNIT($,.STERADIAN.)
SOLID_ANGLE_UNIT()
);
#511=SHAPE_DEFINITION_REPRESENTATION(#512,#513);
#512=PRODUCT_DEFINITION_SHAPE('',$,#515);
#513=SHAPE_REPRESENTATION('',(#315),#505);
#514=PRODUCT_DEFINITION_CONTEXT('part definition',#519,'design');
#515=PRODUCT_DEFINITION('YMaze_MiddlePiece','YMaze_MiddlePiece v6',#516,
#514);
#516=PRODUCT_DEFINITION_FORMATION('',$,#521);
#517=PRODUCT_RELATED_PRODUCT_CATEGORY('YMaze_MiddlePiece v6',
'YMaze_MiddlePiece v6',(#521));
#518=APPLICATION_PROTOCOL_DEFINITION('international standard',
'automotive_design',2009,#519);
#519=APPLICATION_CONTEXT(
'Core Data for Automotive Mechanical Design Process');
#520=PRODUCT_CONTEXT('part definition',#519,'mechanical');
#521=PRODUCT('YMaze_MiddlePiece','YMaze_MiddlePiece v6',$,(#520));
#522=PRESENTATION_STYLE_ASSIGNMENT((#523));
#523=SURFACE_STYLE_USAGE(.BOTH.,#524);
#524=SURFACE_SIDE_STYLE('',(#525));
#525=SURFACE_STYLE_FILL_AREA(#526);
#526=FILL_AREA_STYLE('Steel - Satin',(#527));
#527=FILL_AREA_STYLE_COLOUR('Steel - Satin',#528);
#528=COLOUR_RGB('Steel - Satin',0.627450980392157,0.627450980392157,0.627450980392157);
ENDSEC;
END-ISO-10303-21;
