M48
;GenerationSoftware,Autodesk,EAGLE,9.7.0*%
;CreationDate,2025-11-21T13:06:08Z*%
FMAT,2
ICI,OFF
METRIC,TZ,000.000
T5C0.350
T4C0.830
T3C0.981
T2C1.000
T1C1.016
%
G90
M71
T1
X20384Y92710
X0Y26670
X10160Y100330
X7620Y100330
X5080Y100330
X2540Y100330
X0Y100330
X-2540Y100330
X-5080Y100330
X20384Y90170
X-20384Y90170
X-20384Y92710
X-7620Y100330
T2
X19050Y60556
X1270Y60556
X-5715Y88265
X-5715Y93345
X-14605Y88265
X-14605Y93345
X6350Y67945
X8890Y67945
X11430Y67945
X13970Y67945
X7620Y65405
X12700Y65405
X14605Y88265
X14605Y93345
X5715Y88265
X5715Y93345
X-12700Y65405
X16510Y60556
X13970Y60556
X11430Y60556
X8890Y60556
X6350Y60556
X3810Y60556
X-1270Y60556
X-3810Y60556
X-6350Y60556
X-8890Y60556
X-8890Y45316
X-6350Y45316
X-3810Y45316
X-1270Y45316
X1270Y45316
X3810Y45316
X6350Y45316
X8890Y45316
X11430Y45316
X13970Y45316
X16510Y45316
X19050Y45316
X-6350Y67945
X-8890Y67945
X-11430Y67945
X-13970Y67945
X-7620Y65405
T3
X-1270Y31115
X1270Y31115
T4
X2070Y40640
X-17780Y46190
X-17780Y57950
X-9690Y40640
T5
X-10645Y79375
M30