M48
;GenerationSoftware,Autodesk,EAGLE,9.7.0*%
;CreationDate,2025-11-21T10:51:30Z*%
FMAT,2
ICI,OFF
METRIC,TZ,000.000
T3C0.350
T2C1.016
T1C1.200
%
G90
M71
T1
X-137414Y-22860
X-137414Y-27940
X-137414Y-33782
X-137414Y-38862
X-137160Y-160020
X-137160Y-165100
X-137160Y-171450
X-137160Y-176530
X-15748Y-97108
X-15748Y-92028
X-15722Y-108204
X-15722Y-103124
T2
X-64872Y-152736
X-62332Y-152736
X-72644Y-45974
X-70104Y-45974
X-67564Y-45974
X-85344Y-45974
X-100584Y-94234
X-98044Y-94234
X-95504Y-94234
X-92964Y-94234
X-90424Y-94234
X-87884Y-94234
X-85344Y-94234
X-103124Y-94234
X-105664Y-45974
X-103124Y-45974
X-100584Y-45974
X-98044Y-45974
X-95504Y-45974
X-92964Y-45974
X-90424Y-45974
X-108204Y-45974
X-127254Y-45974
X-124714Y-45974
X-122174Y-45974
X-119634Y-45974
X-117094Y-45974
X-114554Y-45974
X-112014Y-45974
X-129794Y-45974
X-57404Y-66294
X-59944Y-66294
X-57404Y-63754
X-59944Y-63754
X-57404Y-61214
X-59944Y-61214
X-57404Y-58674
X-59944Y-58674
X-57404Y-56134
X-59944Y-56134
X-57404Y-53594
X-59944Y-53594
X-57404Y-51054
X-59944Y-51054
X-57404Y-48514
X-59944Y-48514
X-57404Y-86614
X-59944Y-86614
X-57404Y-84074
X-59944Y-84074
X-57404Y-81534
X-59944Y-81534
X-57404Y-78994
X-59944Y-78994
X-57404Y-76454
X-59944Y-76454
X-57404Y-73914
X-59944Y-73914
X-57404Y-71374
X-59944Y-71374
X-57404Y-68834
X-59944Y-68834
X-59944Y-89154
X-57404Y-89154
X-59944Y-45974
X-57404Y-45974
X-120904Y-94234
X-118364Y-94234
X-115824Y-94234
X-113284Y-94234
X-110744Y-94234
X-108204Y-94234
X-132334Y-45974
X-134874Y-45974
X-123444Y-94234
X-125984Y-94234
X-123698Y-16966
X-123698Y-19506
X-123698Y-22046
X-123698Y-24586
X-123698Y-27126
X-123698Y-29666
X-123698Y-32206
X-123698Y-34746
X-98552Y-16966
X-98552Y-19506
X-98552Y-22046
X-98552Y-24586
X-98552Y-27126
X-98552Y-29666
X-98552Y-32206
X-98552Y-34746
X-77470Y-16966
X-77470Y-19506
X-77470Y-22046
X-77470Y-24586
X-77470Y-27126
X-77470Y-29666
X-77470Y-32206
X-77470Y-34746
X-56236Y-16764
X-56236Y-19304
X-56236Y-21844
X-56236Y-24384
X-56236Y-26924
X-56236Y-29464
X-56236Y-32004
X-56236Y-34544
X-34290Y-16764
X-34290Y-19304
X-34290Y-21844
X-34290Y-24384
X-34290Y-26924
X-34290Y-29464
X-34290Y-32004
X-34290Y-34544
X-18744Y-25400
X-18744Y-27940
X-18744Y-30480
X-18744Y-33020
X-18744Y-35560
X-18744Y-38100
X-18744Y-40640
X-18744Y-43180
X-18744Y-46990
X-18744Y-49530
X-18744Y-52070
X-18744Y-54610
X-18744Y-57150
X-18744Y-59690
X-18744Y-62230
X-18744Y-64770
X-18744Y-68580
X-18744Y-71120
X-18744Y-73660
X-18744Y-76200
X-18744Y-78740
X-18744Y-81280
X-18744Y-83820
X-18744Y-86360
X-77572Y-152736
X-75032Y-152736
X-72492Y-152736
X-69952Y-152736
X-67412Y-152736
X-77724Y-45974
X-77724Y-94234
X-80112Y-152736
X-82652Y-104476
X-80112Y-104476
X-77572Y-104476
X-75184Y-45974
X-72492Y-104476
X-69952Y-104476
X-67412Y-104476
X-85192Y-104476
X-100432Y-152736
X-97892Y-152736
X-95352Y-152736
X-92812Y-152736
X-90272Y-152736
X-87732Y-152736
X-85192Y-152736
X-102972Y-152736
X-105512Y-104476
X-102972Y-104476
X-100432Y-104476
X-97892Y-104476
X-95352Y-104476
X-92812Y-104476
X-90272Y-104476
X-108052Y-104476
X-127102Y-104476
X-124562Y-104476
X-122022Y-104476
X-119482Y-104476
X-116942Y-104476
X-114402Y-104476
X-111862Y-104476
X-129642Y-104476
X-57252Y-124796
X-59792Y-124796
X-57252Y-122256
X-59792Y-122256
X-57252Y-119716
X-59792Y-119716
X-57252Y-117176
X-59792Y-117176
X-57252Y-114636
X-59792Y-114636
X-57252Y-112096
X-59792Y-112096
X-57252Y-109556
X-59792Y-109556
X-57252Y-107016
X-59792Y-107016
X-57252Y-145116
X-59792Y-145116
X-57252Y-142576
X-59792Y-142576
X-57252Y-140036
X-59792Y-140036
X-57252Y-137496
X-59792Y-137496
X-57252Y-134956
X-59792Y-134956
X-57252Y-132416
X-59792Y-132416
X-57252Y-129876
X-59792Y-129876
X-57252Y-127336
X-59792Y-127336
X-59792Y-147656
X-57252Y-147656
X-59792Y-104476
X-57252Y-104476
X-120752Y-152736
X-118212Y-152736
X-115672Y-152736
X-113132Y-152736
X-110592Y-152736
X-108052Y-152736
X-132182Y-104476
X-134722Y-104476
X-123292Y-152736
X-125832Y-152736
X-18490Y-132080
X-18490Y-129540
X-18490Y-127000
X-18490Y-124460
X-18490Y-121920
X-18490Y-119380
X-18490Y-116840
X-18490Y-114300
X-18490Y-153670
X-18490Y-151130
X-18490Y-148590
X-18490Y-146050
X-18490Y-143510
X-18490Y-140970
X-18490Y-138430
X-18490Y-135890
X-18490Y-175260
X-18490Y-172720
X-18490Y-170180
X-18490Y-167640
X-18490Y-165100
X-18490Y-162560
X-18490Y-160020
X-18490Y-157480
X-32460Y-181700
X-32460Y-179160
X-32460Y-176620
X-32460Y-174080
X-32460Y-171540
X-32460Y-169000
X-32460Y-166460
X-32460Y-163920
X-52526Y-181610
X-52526Y-179070
X-52526Y-176530
X-52526Y-173990
X-52526Y-171450
X-52526Y-168910
X-52526Y-166370
X-52526Y-163830
X-75386Y-181764
X-75386Y-179224
X-75386Y-176684
X-75386Y-174144
X-75386Y-171604
X-75386Y-169064
X-75386Y-166524
X-75386Y-163984
X-98754Y-181610
X-98754Y-179070
X-98754Y-176530
X-98754Y-173990
X-98754Y-171450
X-98754Y-168910
X-98754Y-166370
X-98754Y-163830
X-121920Y-181256
X-121920Y-178716
X-121920Y-176176
X-121920Y-173636
X-121920Y-171096
X-121920Y-168556
X-121920Y-166016
X-121920Y-163476
X-80264Y-45974
X-82804Y-45974
X-80264Y-94234
X-62484Y-94234
X-65024Y-94234
X-67564Y-94234
X-70104Y-94234
X-72644Y-94234
X-75184Y-94234
X-75032Y-104476
T3
X-90424Y-20574
X-94996Y-25654
M30